<svg width="193" height="92" viewBox="0 0 193 92" fill="none" xmlns="http://www.w3.org/2000/svg">
<g clip-path="url(#clip0_113_310)">
<path d="M100.357 32.2382C97.7463 32.6696 96.6405 33.9204 96.6876 36.3459C96.7239 38.0281 96.7601 39.7103 96.742 41.3925C96.7348 42.172 96.8689 42.5853 97.7318 42.1394C102.245 39.7937 106.763 37.4516 111.277 35.0987C111.422 35.0226 111.509 34.8377 111.621 34.7035C112.317 34.4679 111.625 33.5361 112.328 33.3041C112.361 33.692 112.397 34.0799 112.429 34.4679C112.4 34.8739 112.371 35.28 112.346 35.686C109.902 37.1326 107.437 38.5501 105.026 40.0511C104.544 40.352 103.754 40.3919 103.667 41.1931L103.688 41.1714C101.357 41.9146 99.385 43.2886 97.4816 44.7642C96.9958 45.1412 96.8109 45.7612 96.8145 46.3812C96.829 48.183 96.8617 49.9849 96.9052 51.7867C96.9197 52.3632 96.9342 52.9324 97.8079 52.4683C102.024 50.2423 106.255 48.0416 110.479 45.8265C110.493 45.8192 110.461 45.7141 110.45 45.6561L110.435 45.6851C112.466 44.902 114.829 44.5757 115.573 42.0016L115.718 42.0233L115.859 41.9726C116.468 43.7527 115.797 44.7134 114.133 45.6307C108.982 48.4803 103.946 51.5474 98.8883 54.5638C96.7021 55.869 96.2961 60.0746 98.2974 61.9707H93.6531C95.455 60.5966 94.835 58.6062 94.806 56.7899C94.7843 55.4013 93.5262 54.8648 92.493 54.2557C87.6747 51.4133 82.8456 48.5927 78.0382 45.7286C75.4061 44.1587 75.4243 44.1297 76.4466 40.8813C75.9209 43.2633 77.5415 43.992 79.1657 44.8077C84.2595 47.3782 89.3279 50.003 94.4072 52.6025C94.5015 52.6496 94.6248 52.646 94.9909 52.7112C94.9909 50.5287 94.9837 48.3897 94.9909 46.2543C94.9982 44.9636 94.1136 44.3436 93.1673 43.7853C89.027 41.3381 84.8976 38.8656 80.7138 36.4872C79.579 35.8419 78.9373 35.1785 79.5174 33.7283C80.2063 35.1893 81.5948 35.6316 82.8528 36.277C86.4892 38.1405 90.1147 40.0257 93.7256 41.9327C94.7698 42.4838 95.2411 42.3895 95.1976 41.0662C95.1468 39.3804 95.1577 37.6837 95.2628 36.0014C95.3317 34.8775 95.0018 34.0183 94.1498 33.3222C94.1136 33.2243 94.0447 33.1953 93.9432 33.228C93.6749 33.0612 93.4102 32.8944 93.1419 32.7276C92.8301 32.5355 92.5184 32.3397 92.2066 32.1476C91.3074 31.6472 90.4083 31.1506 89.5092 30.6502L89.172 30.3457C88.65 30.3384 88.3491 29.4466 87.6892 29.9723L87.6965 30.0267C87.7472 28.9934 86.6777 29.1964 86.239 28.6997C85.9925 28.5293 85.7423 28.3589 85.4958 28.1885C85.3871 28.1414 85.2783 28.0979 85.1731 28.0508C84.9447 27.6629 84.604 27.4526 84.158 27.4199L84.0239 27.4852C83.6468 27.0538 83.4112 26.6042 83.8716 26.0785C84.4698 26.597 84.8324 27.5686 85.9164 27.0937L85.8729 27.0719C85.7351 27.7136 86.1919 27.7426 86.6233 27.797C86.8445 27.9456 87.0149 28.2176 87.3484 28.1088C88.1714 28.707 88.9183 29.4756 90.082 29.2762H90.0277C91.3981 30.846 93.4102 31.2303 95.281 32.3941V28.533C95.31 27.2931 95.3571 26.0568 95.3607 24.8169C95.3607 24.2513 95.4767 23.5697 94.5921 23.4972C94.5341 23.363 94.4761 23.2325 94.4181 23.0984C93.9685 22.6089 93.5081 22.1521 92.7468 22.3624L92.783 22.3987C92.9172 22.0615 92.6706 22.0144 92.4422 21.9491C92.3117 21.8186 92.1848 21.6845 92.0543 21.5539C91.9637 21.2929 91.7788 21.2276 91.5286 21.3002C90.8651 21.0065 90.3793 20.2306 89.4875 20.5533L89.5056 20.5968C89.5382 20.0095 89.6687 19.5454 90.4265 19.8717C90.8543 20.0566 91.2784 20.2451 91.7062 20.4337C92.0543 20.5787 92.3153 21.0101 92.783 20.7781L92.7903 20.818C93.2797 21.6591 94.4181 21.5322 94.9728 22.2754C95.0852 22.2754 95.1976 22.2718 95.31 22.2682C95.3825 22.0506 95.455 21.8331 95.5239 21.6156C95.8647 20.7563 95.6906 19.8826 95.6145 19.0089C95.6145 18.7116 95.6218 18.4107 95.6218 18.1134C95.6218 17.943 95.629 17.7726 95.6326 17.6022C95.6326 17.3955 95.6399 17.1925 95.6435 16.9858C95.6435 16.6015 95.6508 16.2136 95.6544 15.8293C95.6435 15.6263 95.6363 15.4233 95.6254 15.2166C95.5166 15.068 95.4115 14.9157 95.3027 14.7671C95.2157 14.7417 95.1251 14.7235 95.0381 14.709C94.9764 14.4081 94.4507 14.4045 94.5704 13.984C96.1692 14.2196 95.4586 12.9942 95.6218 12.3199C95.6399 11.9392 95.658 11.5549 95.6798 11.1742C95.6653 10.5833 95.6544 9.99231 94.9039 9.82554C94.8241 9.72765 94.7226 9.68414 94.5957 9.68414C93.9395 9.42311 93.5444 8.9808 93.548 8.62551C94.0664 6.78014 95.3825 10.605 95.658 7.90041C95.7015 7.78802 95.7305 7.67201 95.7523 7.55237C95.8502 7.54149 95.9444 7.53062 96.0423 7.51611C96.0459 7.73727 96.0496 7.95842 96.0532 8.17957C96.1402 10.1337 95.571 12.1241 96.3795 14.0383C96.8399 14.0311 97.1662 13.4184 97.8695 13.8534C95.4042 15.0172 96.4266 17.1599 96.394 18.9653C96.3323 22.4567 96.394 22.4567 99.501 20.8216C99.9216 20.6004 100.36 20.4155 100.792 20.2125C101.049 20.256 101.339 20.2379 101.466 20.5461C100.973 20.8832 100.523 21.3545 99.9796 21.5358C96.8798 22.5618 95.9916 24.7298 96.4266 27.797C96.626 29.2001 96.4592 30.6539 96.4592 32.3035C97.3221 31.8974 97.9892 31.6472 98.5874 31.2811C99.2653 30.8678 100.65 30.817 99.6061 29.3704C99.3379 28.997 99.5626 28.3009 100.034 27.9239C100.139 27.8405 100.444 27.8151 100.502 27.8876C100.991 28.5076 100.755 29.1964 100.338 30.1717C101.513 29.6206 102.775 29.8128 102.517 28.2466C102.528 27.8514 102.536 27.4526 102.546 27.0574C102.724 26.7565 102.604 26.1402 103.279 26.3613C103.355 26.4809 103.431 26.597 103.507 26.7166C103.685 27.0792 103.663 27.4417 103.507 27.8042C103.435 27.9275 103.362 28.0544 103.29 28.1777C103.725 28.9463 104.16 28.3807 104.573 28.1632C105.657 27.5903 106.864 27.2314 107.774 26.3504C107.93 26.2272 108.086 26.1075 108.242 25.9843C108.663 26.8798 108.064 27.2205 107.43 27.652C106.078 28.5692 104.461 29.0768 103.308 30.2986L103.34 30.2696C102.26 30.817 100.857 30.8823 100.32 32.2563L100.353 32.2128L100.357 32.2382Z" fill="#1E1E1E"/>
<path d="M78.0036 81.0163C78.968 80.8314 78.9462 81.6834 79.2182 82.1257C81.3826 85.6497 86.7374 86.9295 90.2468 84.7288C92.0487 83.5977 91.9726 81.6544 90.0801 80.6284C88.2565 79.6386 86.2008 79.403 84.2467 78.8302C83.0974 78.493 81.9264 78.2138 80.8714 77.6229C79.5771 76.8978 78.7795 75.8682 78.823 74.2911C78.8665 72.656 79.7185 71.5502 81.1107 70.8904C83.3729 69.8136 85.7694 69.8535 88.1803 70.2777C88.5936 70.3502 88.9961 70.4807 89.3985 70.6076C92.8354 71.7025 92.8681 71.7569 92.6541 75.5455C91.9943 75.734 92.0487 75.2047 91.9001 74.8313C90.3955 71.0463 84.8594 69.3822 81.5348 71.7025C80.2623 72.5907 80.3674 74.0445 81.843 74.8675C83.5397 75.8102 85.4757 76.0676 87.3138 76.615C88.4595 76.9558 89.6196 77.2966 90.7073 77.786C92.2844 78.493 93.4228 79.6676 93.3829 81.5094C93.3394 83.478 92.3859 84.9826 90.5079 85.6968C86.8316 87.0926 83.1627 86.498 79.5118 85.5119C78.8846 85.3415 78.7106 84.8557 78.6091 84.2974C78.4097 83.2061 78.203 82.1148 78 81.0236L78.0036 81.0163Z" fill="#1E1E1E"/>
<path d="M15.7346 75.8019C14.6687 75.414 14.7122 74.6454 14.5164 74.0798C13.9762 72.5245 12.9357 71.7088 11.3006 71.6797C9.31022 71.6471 7.31983 71.6797 5.32945 71.6217C4.51735 71.5964 4.27807 71.9082 4.29257 72.6768C4.3252 74.3046 4.3542 75.936 4.27081 77.5603C4.22731 78.4412 4.62611 78.5718 5.3367 78.55C6.30108 78.521 7.26908 78.5246 8.23345 78.5391C10.0172 78.5645 11.761 78.5536 11.5979 75.7439C11.7574 75.849 11.9133 75.9542 12.0728 76.0593V82.045C10.706 78.3216 7.75489 79.6159 5.32945 79.3404C4.54635 79.2497 4.25269 79.5543 4.28532 80.3555C4.3397 81.6208 4.39771 82.8969 4.27081 84.1514C4.15842 85.2898 4.47022 85.9532 5.75363 86.2215C3.86839 86.7581 2.0339 86.5986 0.210288 86.5478C0.130528 86.5478 -0.00361451 86.2831 1.0964e-05 86.1417C0.0072619 85.8227 0.286423 85.7792 0.518453 85.8082C1.72573 85.9605 1.69311 85.1955 1.68948 84.3508C1.66773 80.8522 1.6786 77.3536 1.68948 73.855C1.69311 72.6949 2.02665 71.3716 0.130528 71.4223C0.471322 70.5123 1.1094 70.8205 1.57709 70.8205C5.61949 70.806 9.66551 70.893 13.7043 70.8024C14.9768 70.7734 15.372 71.2628 15.4445 72.3722C15.5134 73.4671 15.6294 74.5584 15.7382 75.7983L15.7346 75.8019Z" fill="#1E1E1E"/>
<path d="M57.0069 86.4899H52.1778C54.1754 85.8591 53.5555 84.253 53.57 82.9297C53.5953 80.7001 53.57 78.4668 53.57 76.2371C53.57 75.0914 53.0914 74.3543 52.1343 74.0256C52.2322 73.4781 52.6853 73.6558 52.9899 73.6558C56.3036 73.663 59.6281 73.4201 62.9309 73.8298C65.6935 74.1706 66.9443 75.8818 66.3715 78.213C66.1141 79.2644 65.4144 79.8372 64.5298 80.2722C64.1708 80.4499 63.5219 80.5079 63.859 81.0626C65.0337 83.0131 64.9757 85.928 68.1697 86.3703C66.1032 87.5449 64.2905 87.0954 63.395 85.3298C63.2028 84.9527 63.0107 84.5793 62.8185 84.2059C60.9188 80.5079 60.9224 80.5333 56.8438 80.7834C56.0643 80.8306 55.7597 81.0336 55.8178 81.8167C55.8685 82.5382 55.9011 83.2705 55.825 83.9847C55.7126 85.0434 55.8576 85.9171 56.9997 86.4863L57.0069 86.4899ZM59.0698 80.0511C59.61 80.0511 60.1538 80.062 60.694 80.0511C62.9853 79.9895 63.7938 79.2644 63.8083 77.2776C63.8228 75.2945 63.0143 74.515 60.7665 74.3772C59.987 74.3301 59.2039 74.3374 58.4208 74.341C56.6879 74.3434 55.8262 75.2002 55.8359 76.9114C55.8504 79.0142 56.9284 80.0632 59.0698 80.0583V80.0511Z" fill="#1E1E1E"/>
<path d="M105.795 77.3899C106.223 78.9706 106.092 80.5694 106.03 82.48C104.689 80.5912 101.448 79.3766 99.8019 80.3736C98.4351 81.2039 99.4684 82.9948 99.2653 84.3399C99.1928 84.8185 98.8557 85.7756 99.7512 85.801C102.093 85.8662 104.461 86.0982 106.785 85.6378C107.97 85.4022 108.021 83.9483 108.978 83.2051C109.395 84.3254 108.873 85.2716 108.764 86.236C108.706 86.7291 108.3 86.7255 107.941 86.7218C103.841 86.6783 99.7403 86.6276 95.6435 86.5696C95.5601 86.5696 95.4803 86.4173 95.2664 86.1961C97.2206 86.0547 96.7891 84.6553 96.7928 83.4915C96.8036 81.1386 96.7746 78.7857 96.8036 76.4364C96.8182 75.3161 97.0248 74.1378 94.9365 74.0979C96.2743 73.4345 97.2423 73.6266 98.1741 73.6085C101.187 73.5541 104.203 73.5722 107.212 73.478C108.079 73.4526 108.402 73.6738 108.402 74.5439C108.402 75.3669 108.554 76.1862 108.641 77.0237C108.434 77.0237 108.228 77.0527 108.213 77.0201C107.347 74.4242 105.309 74.272 103.003 74.3263C98.9064 74.4206 98.9028 74.3445 99.2327 78.4304C99.2617 78.7784 99.1711 79.1736 99.5228 79.4093C100.998 80.4063 105.004 79.0757 105.791 77.3862L105.795 77.3899Z" fill="#1E1E1E"/>
<path d="M152.578 73.373C155.794 73.373 158.35 74.0473 160.293 76.2335C162.668 78.9055 162.316 82.9152 159.365 84.9274C155.689 87.4362 151.719 87.6537 147.752 85.6307C145.537 84.4996 144.138 82.6578 144.181 80.0185C144.225 77.3755 145.787 75.7296 147.955 74.5549C149.514 73.7102 151.2 73.315 152.574 73.373H152.578ZM153.024 86.1492C157.055 86.1492 159.216 84.0283 159.216 80.0837C159.216 76.4184 156.863 74.0727 153.107 73.993C149.261 73.9096 146.806 76.3713 146.828 80.2868C146.85 84.079 149.039 86.1528 153.024 86.1492Z" fill="#1E1E1E"/>
<path d="M25.2079 86.9176C23.0544 86.8813 21.0314 86.4245 19.2331 85.1628C15.7454 82.7156 15.5605 78.1077 18.8633 75.4502C22.3112 72.6731 28.6376 72.6767 31.8317 75.4574C35.2831 78.4593 34.8444 83.0891 30.9072 85.442C29.1416 86.497 27.2309 86.9067 25.2079 86.9212V86.9176ZM25.168 86.149C29.3011 86.1925 31.4727 84.1731 31.5017 80.2612C31.5307 76.3747 29.2974 74.1015 25.4001 74.0508C21.5716 74 19.2186 76.226 19.1643 79.9422C19.1063 83.9846 21.1619 86.1055 25.168 86.149Z" fill="#1E1E1E"/>
<path d="M164.618 77.0998C164.56 75.5577 163.91 74.4423 162.668 73.7535C164.865 73.6193 166.511 73.2785 168.08 74.9064C170.821 77.7451 173.79 80.3663 177.079 83.4697C177.079 80.3119 177.097 77.6581 177.068 75.0043C177.057 74.1414 176.104 74.4786 175.603 73.971C176.713 73.4634 177.757 73.5758 178.975 73.8949C177.478 74.3045 177.608 75.3741 177.623 76.4726C177.662 79.8986 177.637 83.3247 177.637 87.175C175.415 85.0976 173.432 83.2413 171.448 81.3851C169.483 79.5433 167.518 77.7016 165.394 75.7149C165.303 76.3348 165.245 76.7191 165.187 77.0998C164.995 77.0998 164.807 77.0998 164.614 77.0998H164.618Z" fill="#1E1E1E"/>
<path d="M188.858 86.7291C188.611 86.769 188.365 86.8053 188.118 86.8452C188.118 86.6385 188.118 86.4319 188.118 86.2252C188.524 86.1273 188.934 86.0367 189.337 85.9279C190.384 85.6415 191.269 85.1303 191.356 83.923C191.447 82.6179 190.406 82.1756 189.445 81.8565C187.339 81.1604 185.149 80.7072 183.09 79.9096C180.886 79.054 180.327 77.002 181.571 75.2364C182.013 74.6092 182.655 74.3119 183.326 74.04C186.179 72.8835 188.945 73.5542 191.544 74.7216C192.817 75.2944 192.154 76.7917 192.382 78.4413C191.334 77.031 191.07 75.7005 189.967 75.0624C187.897 73.866 185.711 73.953 183.536 74.7107C182.898 74.9319 182.416 75.5047 182.416 76.2225C182.416 76.8932 182.981 77.2377 183.521 77.5168C184.812 78.1875 186.259 78.3942 187.629 78.8147C188.434 79.0613 189.257 79.2752 190.04 79.5761C191.639 80.1924 192.944 81.0952 192.875 83.0638C192.813 84.8439 191.711 85.9932 189.598 86.5406C189.351 86.6023 189.105 86.6639 188.858 86.7255V86.7291Z" fill="#1E1E1E"/>
<path d="M113.764 82.1102C114.021 81.6534 114.282 81.1966 114.539 80.7397C114.67 80.8848 114.801 81.0298 114.931 81.1748C117.226 82.2298 119.579 81.3597 122.211 81.7259C120.982 79.5107 119.927 77.698 118.959 75.8381C118.299 74.5728 118.147 75.8019 117.781 76.0194C117.65 75.8744 117.52 75.733 117.385 75.588C117.828 74.8919 117.987 74.2792 116.744 74.0943C119.002 73.0973 120.308 73.4888 121.29 75.2798C122.907 78.2309 124.546 81.1712 126.159 84.1259C126.663 85.0468 127.004 86.1018 128.295 86.4245H123.248C123.009 85.5254 124.684 86.1743 124.172 85.3296C123.527 84.2673 123.433 82.4546 121.91 82.3785C119.34 82.2516 116.733 82.0449 114.159 82.5452C114.025 82.4002 113.891 82.2552 113.76 82.1138L113.764 82.1102Z" fill="#1E1E1E"/>
<path d="M136.278 74.145C135.335 74.3046 134.367 74.1595 133.432 74.5221C132.66 74.823 131.96 75.1203 131.895 76.0557C131.826 77.0418 132.583 77.4515 133.309 77.6944C135.183 78.3216 137.112 78.8001 138.99 79.4201C141.303 80.1851 142.227 81.2655 142.205 82.9803C142.176 84.9489 141.154 86.0583 138.892 86.5695C138.511 86.4354 138.029 86.6312 137.739 86.2106C138.199 86.0837 138.671 85.9822 139.117 85.8191C140.023 85.4928 140.665 84.9526 140.697 83.8794C140.73 82.8425 140.045 82.4147 139.269 82.0268C137.913 81.3488 136.397 81.222 134.98 80.7615C134.015 80.4461 133.047 80.1416 132.123 79.7319C130.905 79.1953 130.357 78.2201 130.386 76.8641C130.415 75.5372 131.162 74.7324 132.246 74.2357C133.74 73.5541 135.328 73.2786 136.978 73.5758C136.745 73.7644 136.51 73.9565 136.278 74.145Z" fill="#1E1E1E"/>
<path d="M45.6338 86.5007C40.1267 88.1394 36.3308 85.3913 36.3308 79.7718C36.3308 78.4485 36.2583 77.1179 36.3526 75.7983C36.4251 74.7868 36.193 74.1559 34.8335 74.2176C36.1205 73.4961 37.7012 73.4236 40.6959 73.9384C38.2922 74.2103 38.7961 75.6496 38.7744 76.8315C38.7526 77.9772 38.7635 79.1228 38.7816 80.2685C38.8433 84.7387 40.5146 86.294 44.9993 86.0837C45.2096 86.2251 45.4235 86.3629 45.6338 86.5007Z" fill="#1E1E1E"/>
<path d="M137.735 86.2071C138.025 86.6277 138.507 86.4319 138.888 86.566C136.245 87.3383 133.599 87.07 131.093 86.1817C129.302 85.5473 130.267 83.6113 129.828 82.1575C131.416 85.7503 134.287 86.5515 137.732 86.2035L137.735 86.2071Z" fill="#1E1E1E"/>
<path d="M188.118 86.2217C188.118 86.4283 188.118 86.635 188.118 86.8416C186.741 87.128 185.381 86.9431 184.018 86.7038C180.508 86.0875 180.494 86.0839 180.588 82.1611C182.017 85.638 184.754 86.5443 188.118 86.2217Z" fill="#1E1E1E"/>
<path d="M164.618 77.0999C164.81 77.0999 164.999 77.0999 165.191 77.0999C165.224 79.3223 165.26 81.5411 165.285 83.7635C165.296 84.833 164.937 86.0874 166.931 86.0874C165.956 86.9829 165.079 86.5478 164.303 86.6493C163.889 86.7037 163.179 86.9285 163.106 86.2687C163.034 85.6378 163.704 85.9097 164.067 85.8336C164.81 85.6813 164.52 85.0831 164.527 84.6698C164.578 82.1465 164.593 79.6232 164.618 77.0999Z" fill="#1E1E1E"/>
<path d="M48.5994 82.915C49.3028 80.3808 48.8496 77.7886 49.0018 75.229C49.0635 74.1994 48.023 74.5692 47.7039 73.9384C48.7626 73.2713 49.7994 73.7136 50.9342 73.826C49.6798 74.3118 49.7197 75.2145 49.6617 76.2333C49.5239 78.7022 50.2961 81.28 48.9076 83.622C48.8061 83.3864 48.7045 83.1507 48.5994 82.915Z" fill="#1E1E1E"/>
<path d="M136.278 74.1451C136.51 73.9566 136.746 73.7645 136.978 73.5759C137.623 73.6992 138.283 73.7681 138.91 73.9566C141.796 74.8195 141.792 74.834 141.553 78.1476C140.56 75.7331 138.935 74.2068 136.278 74.1451Z" fill="#1E1E1E"/>
<path d="M113.764 82.1103C113.898 82.2553 114.032 82.4004 114.162 82.5417C113.84 83.1726 113.524 83.8107 113.187 84.4342C112.767 85.2173 111.737 86.1817 114.463 85.9932C112.836 87.012 111.719 86.5769 110.693 86.5841C110.323 86.5841 110.396 85.9823 110.653 85.9243C112.719 85.4675 112.484 83.1726 113.764 82.1067V82.1103Z" fill="#1E1E1E"/>
<path d="M96.046 7.53427C95.9481 7.54877 95.8538 7.55965 95.7559 7.57053C95.7305 7.32037 95.7052 7.07384 95.6798 6.82368C95.7741 5.9862 95.6073 5.49676 94.6248 5.17047C93.5081 4.80067 93.577 4.14808 94.574 3.47737C94.7952 3.32873 95.0598 2.99881 95.0345 2.78491C94.9547 2.08882 94.4036 1.84953 93.8743 1.78428C95.1505 1.51237 95.5239 2.70877 95.6363 3.49912C95.8248 4.82605 96.4556 6.14209 96.046 7.53427Z" fill="#1E1E1E"/>
<path d="M93.0803 28.1126C92.3879 28.7942 92.1123 30.7302 90.5751 28.9501C90.5534 28.9247 90.2162 29.1676 90.0277 29.2873H90.0821C88.5775 28.4026 89.7521 27.8081 90.3141 27.1482C90.4881 27.1265 90.8108 27.0757 90.8144 27.083C91.0827 28.515 92.2972 27.8443 93.0839 28.1126H93.0803Z" fill="#1E1E1E"/>
<path d="M108.246 26.0098C108.09 26.133 107.934 26.2527 107.778 26.3759C108.148 25.5602 108.282 24.9475 107.038 24.7735C106.161 24.6502 105.599 23.9904 105.53 22.9354C106.817 22.8846 107.419 23.6967 107.901 24.672C108.101 25.078 107.894 25.843 108.764 25.6617C109.007 25.6617 109.25 25.6653 109.493 25.669C109.17 26.1185 108.597 25.6545 108.249 26.0134L108.246 26.0098Z" fill="#1E1E1E"/>
<path d="M114.931 81.175C114.801 81.03 114.67 80.8849 114.539 80.7399C115.283 78.9091 116.349 77.2559 117.385 75.5881C117.516 75.7332 117.647 75.8745 117.781 76.0196C116.965 77.8105 116.044 79.5471 114.931 81.175Z" fill="#1E1E1E"/>
<path d="M48.5994 82.915C48.7009 83.1507 48.8024 83.3863 48.9076 83.622C48.3565 85.1955 47.1927 86.0692 45.6374 86.497C45.4271 86.3592 45.2132 86.2178 45.0029 86.0801C46.5981 85.4746 47.8743 84.5066 48.603 82.915H48.5994Z" fill="#1E1E1E"/>
<path d="M84.1581 27.4272C84.6076 27.4635 84.9448 27.6702 85.1732 28.0581C84.2016 28.0399 84.3031 28.6563 84.4372 29.298L84.4626 29.269C83.9405 29.0079 83.9333 29.2654 84.0638 29.6642L84.0747 29.6243C83.5236 29.2835 83.0559 30.2334 82.494 29.7149C82.1677 28.3227 83.984 28.4678 84.1581 27.4309V27.4272Z" fill="#1E1E1E"/>
<path d="M101.47 20.568C101.343 20.2598 101.056 20.2779 100.795 20.2344C101.934 19.2193 103.667 19.125 104.718 17.9214C104.316 19.5674 102.688 19.8393 101.47 20.568Z" fill="#1E1E1E"/>
<path d="M86.9642 17.7364C87.8125 17.8923 87.9684 17.1092 88.418 16.7031C88.7588 16.395 89.2192 16.0651 89.7014 16.2717C90.209 16.4856 89.4911 17.0294 89.8718 17.3448L89.8972 17.3158C89.4368 17.3992 89.1105 17.5443 89.5201 18.0663L89.5383 18.0264C88.6899 17.3884 87.8053 18.9509 86.9642 17.9866C86.9569 17.9032 86.9569 17.8198 86.9642 17.7364Z" fill="#1E1E1E"/>
<path d="M92.2066 32.155C92.5184 32.3471 92.8301 32.5429 93.1419 32.7351C92.3987 33.0577 91.9818 33.5254 92.3987 34.3702L92.4603 34.3557C91.7461 33.6741 91.4053 34.8161 90.6621 34.6094C90.2851 33.8988 90.789 33.471 91.351 32.9997C91.6519 32.7496 92.4495 32.949 92.2029 32.1514L92.2066 32.155Z" fill="#1E1E1E"/>
<path d="M83.9985 22.3153C83.9659 22.6634 83.9477 23.0332 83.509 22.8918C82.6969 22.6271 82.5519 21.8658 82.4033 21.166C82.3453 20.8978 82.5157 20.4482 82.8782 20.6186C83.5743 20.9449 83.8933 21.6047 83.9949 22.3153H83.9985Z" fill="#1E1E1E"/>
<path d="M112.342 35.6825C112.371 35.2764 112.4 34.8704 112.426 34.4643C113.202 35.4033 113.155 34.1851 113.488 34.0184C113.963 33.7827 114.456 33.228 114.869 33.7936C115.159 34.196 114.576 34.6238 114.268 34.9827C113.753 35.5773 112.864 35.1133 112.342 35.6788V35.6825Z" fill="#1E1E1E"/>
<path d="M105.168 44.884C106.339 45.0363 107.056 45.4859 107.281 46.4901C107.332 46.7076 107.18 46.9542 106.85 46.8889C105.831 46.6823 105.382 45.9753 105.168 44.884Z" fill="#1E1E1E"/>
<path d="M93.9432 33.2353C94.0447 33.1991 94.1136 33.2317 94.1498 33.3296C94.2151 34.0112 94.0121 34.5949 93.5407 35.0952C93.1637 35.5012 92.5872 35.842 92.1993 35.5665C91.7026 35.2185 92.3117 34.7616 92.464 34.3556L92.4023 34.3701C92.8519 33.906 93.7438 34.0366 93.9468 33.2353H93.9432Z" fill="#1E1E1E"/>
<path d="M92.7975 20.8254L92.7903 20.7856C92.7866 20.4665 92.783 20.1511 92.7794 19.8321L92.7576 19.8683C93.1419 19.7378 93.432 19.5638 93.1347 19.0997L93.1238 19.1432C93.7365 19.4695 94.1389 18.545 94.8133 18.9076C94.8821 20.2997 93.8852 20.6079 92.7975 20.8254Z" fill="#1E1E1E"/>
<path d="M91.5358 21.3076C91.786 21.2387 91.9709 21.3004 92.0615 21.5614C91.2676 21.3004 91.3111 21.9856 91.1189 22.3989L91.1334 22.4351C90.5243 22.8013 90.0494 24.0086 89.1757 22.7542C89.4947 22.6055 89.5491 22.33 89.5201 22.0182L89.5056 22.0363C90.2017 21.8478 90.7455 21.2351 91.5358 21.304V21.3076Z" fill="#1E1E1E"/>
<path d="M84.0855 24.2369L83.9405 24.1608L83.7773 24.1825C83.8245 24.081 83.8462 23.9505 83.9224 23.878C84.5314 23.2762 84.9774 22.0798 85.9417 22.4206C87.0475 22.8121 85.097 23.5445 85.8656 24.2079H85.9127C85.2892 23.3849 84.7018 24.6103 84.0855 24.2369Z" fill="#1E1E1E"/>
<path d="M106.219 53.2769C105.885 52.124 106.143 51.3699 107.024 50.8478C107.263 50.7064 107.539 50.7427 107.557 51.0255C107.618 51.9754 107.241 52.7113 106.223 53.2733L106.219 53.2769Z" fill="#1E1E1E"/>
<path d="M99.2617 48.089C100.618 47.9693 101.129 48.6981 101.43 49.8836C100.186 49.88 99.5771 49.2745 99.2617 48.089Z" fill="#1E1E1E"/>
<path d="M115.667 48.9082C114.685 48.4622 114.043 47.9982 114.039 47.012C114.039 46.6712 114.278 46.5842 114.511 46.6604C115.515 46.9939 115.776 47.7625 115.667 48.9082Z" fill="#1E1E1E"/>
<path d="M103.667 41.1932C104.511 41.7297 105.701 41.911 105.82 43.3576C104.348 43.3068 103.783 42.4838 103.688 41.175L103.667 41.1968V41.1932Z" fill="#1E1E1E"/>
<path d="M89.2881 33.8698C89.1141 35.1242 88.5521 35.6971 87.5551 35.8421C87.4754 35.853 87.2578 35.5956 87.276 35.4904C87.4572 34.4354 88.2113 34.1164 89.2917 33.8662L89.2881 33.8698Z" fill="#1E1E1E"/>
<path d="M87.6856 19.4441C87.8343 19.5854 87.9865 19.7268 88.1352 19.8682C88.1026 20.1003 88.0699 20.3359 88.0373 20.568L88.0627 20.5462C87.7763 20.5244 87.6856 20.6985 87.6675 20.9414L87.6892 20.9232C87.1599 20.9813 86.4421 21.8912 86.1847 21.1371C85.8584 20.1728 86.9678 19.8392 87.6856 19.4404V19.4441Z" fill="#1E1E1E"/>
<path d="M101.419 8.57113C100.824 8.73066 101.785 9.86543 100.803 9.6624C99.8273 9.463 99.4865 8.64364 99.4067 7.71915C100.465 7.3131 100.629 8.67265 101.459 8.61464L101.415 8.57113H101.419Z" fill="#1E1E1E"/>
<path d="M114.88 42.0379C114.728 42.4621 114.373 42.4005 114.141 42.299C113.426 41.9799 112.738 41.5412 112.81 40.6385C112.839 40.2905 113.307 40.4282 113.561 40.5334C114.246 40.8198 114.775 41.2621 114.88 42.0379Z" fill="#1E1E1E"/>
<path d="M85.4995 28.196C85.746 28.3664 85.9962 28.5368 86.2427 28.7072C86.0288 29.4649 85.6626 30.1284 85.068 30.6613C83.9296 31.0819 84.0529 30.306 84.0783 29.6208L84.0674 29.6607C84.4046 29.7368 84.4481 29.5157 84.4662 29.2655L84.4408 29.2945C85.0789 29.2003 85.6662 29.0589 85.4995 28.1924V28.196Z" fill="#1E1E1E"/>
<path d="M87.1527 15.7678C86.3381 15.3908 85.8173 14.714 85.5901 13.7375C87.1092 14.1364 87.1599 14.2016 87.1527 15.7678Z" fill="#1E1E1E"/>
<path d="M102.184 14.3792C103.351 14.6112 103.939 15.1731 104.113 16.1484C104.167 16.4529 103.942 16.6378 103.714 16.5653C102.778 16.2571 102.39 15.5103 102.184 14.3792Z" fill="#1E1E1E"/>
<path d="M103.308 30.3242C103.351 30.3641 103.391 30.4221 103.442 30.4366C104.352 30.7085 105.265 30.9949 105.414 32.1297C105.45 32.4088 105.157 32.5647 104.932 32.4958C103.877 32.1587 103.275 31.4589 103.34 30.2952L103.308 30.3242Z" fill="#1E1E1E"/>
<path d="M95.6798 6.82387C95.7052 7.07403 95.7305 7.32056 95.7559 7.57072C95.7342 7.69036 95.7015 7.80637 95.6616 7.91876C95.6109 7.88976 95.5601 7.84625 95.5057 7.83538C94.5849 7.65048 93.8018 7.22992 93.5335 6.28005C93.345 5.61659 94.0411 5.56583 94.9148 6.22929C95.1722 6.42507 95.2121 6.89638 95.6761 6.82387H95.6798Z" fill="#1E1E1E"/>
<path d="M110.446 45.6563C109.699 45.0255 108.438 44.8841 108.489 43.4375C109.844 43.5644 110.599 44.1916 110.432 45.6817C110.432 45.6853 110.443 45.6563 110.443 45.6563H110.446Z" fill="#1E1E1E"/>
<path d="M111.248 30.7302C111.084 31.2015 111.809 31.5786 111.443 32.0136C111.124 32.3907 110.863 31.807 110.537 31.8142C110.113 31.3429 109.587 30.9369 109.529 30.1973C110.272 29.8601 110.711 30.4583 111.248 30.7302Z" fill="#1E1E1E"/>
<path d="M89.1249 20.4809C89.2554 20.5208 89.3823 20.5643 89.5128 20.6041L89.4947 20.5606C89.9515 21.0501 88.9545 21.5504 89.5056 22.0398L89.5201 22.0217C89.1612 21.5758 88.9944 22.0471 88.7588 22.1848C86.9714 22.9788 88.2367 21.1842 87.6892 20.9268L87.6675 20.9449C87.8089 20.9667 87.9031 21.177 88.0989 20.9812C88.2947 20.7854 88.0844 20.6875 88.0627 20.5498L88.0373 20.5715C88.4506 21.1588 88.7515 20.4084 89.1249 20.4845V20.4809Z" fill="#1E1E1E"/>
<path d="M91.1334 22.4387L91.1189 22.4024C91.5975 23.1638 91.9673 22.3336 92.3915 22.3154C92.522 22.3481 92.6561 22.3771 92.7866 22.4097L92.7504 22.3734C93.0042 23.2037 92.1776 23.5263 91.9274 24.1173C91.2386 24.2696 90.4953 24.4762 91.0863 23.3088C91.2313 23.0188 91.583 22.7541 91.1334 22.4387Z" fill="#1E1E1E"/>
<path d="M101.459 8.61466C101.723 7.75905 101.597 6.70041 102.952 6.14209C102.902 7.38925 103.221 8.56753 101.415 8.56753L101.455 8.61104L101.459 8.61466Z" fill="#1E1E1E"/>
<path d="M83.3314 24.2079C83.3351 24.4436 83.3387 24.6792 83.3459 24.9149C82.9798 25.0309 82.5955 24.4726 82.2402 24.9512L82.2728 24.9838C82.2184 24.2369 81.1852 23.965 81.4172 23.026C82.4468 22.7215 82.871 23.501 83.3351 24.2152L83.3314 24.2079Z" fill="#1E1E1E"/>
<path d="M100.324 32.2819C101.72 31.8359 102.216 32.7314 102.695 33.9133C101.27 34.1055 100.81 33.1737 100.36 32.2347L100.328 32.2819H100.324Z" fill="#1E1E1E"/>
<path d="M109.489 25.6653C109.246 25.6653 109.003 25.6617 108.76 25.6581C108.728 24.4109 109.62 24.1717 110.722 23.8599C110.635 24.8242 110.294 25.3971 109.489 25.6653Z" fill="#1E1E1E"/>
<path d="M83.0813 26.3433C83.0523 26.6369 82.8964 26.8291 82.61 26.9089C82.3489 26.782 82.0553 26.6986 81.8341 26.5246C81.4099 26.1983 81.0111 25.7523 81.1598 25.2085C81.3302 24.5886 82.0081 25.6291 82.2764 24.9765L82.2438 24.9438C82.1495 25.6327 83.0015 25.7523 83.0849 26.3397L83.0813 26.3433Z" fill="#1E1E1E"/>
<path d="M107.339 16.5691C106.991 17.6894 106.484 18.3419 105.411 18.4C105.563 17.4259 106.206 16.8156 107.339 16.5691Z" fill="#1E1E1E"/>
<path d="M112.716 31.7889C112.785 31.4807 112.85 31.1725 112.919 30.8607C113.339 30.4293 113.836 30.1393 114.569 29.9326C114.474 31.2523 113.996 31.9194 112.716 31.7889Z" fill="#1E1E1E"/>
<path d="M98.4569 10.0251C99.6714 9.88371 100.168 10.5363 100.397 11.4934C100.422 11.5913 100.186 11.8705 100.132 11.856C99.2291 11.6022 98.5548 11.1236 98.4569 10.0287V10.0251Z" fill="#1E1E1E"/>
<path d="M113.133 50.6773C111.737 50.6266 111.2 49.9631 110.834 48.8646C112.241 48.6688 112.73 49.4447 113.133 50.6773Z" fill="#1E1E1E"/>
<path d="M116.918 36.0596C117.023 36.1828 117.088 36.2263 117.092 36.2735C117.19 37.1798 116.842 37.8796 116.066 38.34C115.812 38.4923 115.566 38.2892 115.576 38.0355C115.609 37.0965 115.986 36.3786 116.918 36.0596Z" fill="#1E1E1E"/>
<path d="M95.687 11.1887C95.6689 11.5694 95.6508 11.9537 95.629 12.3344C95.3898 12.3054 95.1396 12.3126 94.9184 12.2401C94.1861 12.0045 93.6677 11.5332 93.49 10.7682C93.4646 10.6594 93.6278 10.3948 93.722 10.3875C94.4 10.315 94.8206 10.7718 95.2411 11.2033C95.4151 11.3809 95.542 11.2794 95.687 11.1924V11.1887Z" fill="#1E1E1E"/>
<path d="M114.931 38.699C113.51 38.8114 113.169 37.905 112.709 37.0349C113.663 37.0397 114.404 37.5944 114.931 38.699Z" fill="#1E1E1E"/>
<path d="M89.1286 9.77842C89.4585 10.315 90.0422 10.7464 89.8464 11.5005C89.2482 11.573 88.8349 11.1996 88.4325 10.8697C87.5696 10.1627 87.8234 9.66603 88.7914 9.36149L88.7733 9.32886C88.5739 9.73128 88.9654 9.6624 89.1286 9.77479V9.77842Z" fill="#1E1E1E"/>
<path d="M104.827 15.9164C104.522 14.6221 104.965 13.9006 106.078 13.5127C106.415 14.6547 105.907 15.3436 104.827 15.9164Z" fill="#1E1E1E"/>
<path d="M99.7656 25.3355C98.4206 25.1905 97.797 24.614 97.5323 23.4865C98.8303 23.385 99.3487 24.1065 99.7656 25.3355Z" fill="#1E1E1E"/>
<path d="M94.4217 23.1094C94.4797 23.2435 94.5377 23.374 94.5957 23.5082C94.3891 24.2985 93.8888 24.8206 93.1456 25.1433C92.5582 25.397 92.4132 25.107 92.4313 24.5958C92.8809 23.8127 93.6712 23.4864 94.4217 23.113V23.1094Z" fill="#1E1E1E"/>
<path d="M91.6954 19.8899C90.5533 18.9726 92.0035 18.7007 92.1377 18.0989C92.4712 18.0735 92.8011 18.0517 93.1347 18.0264L93.1528 18.0336C93.1419 18.4034 93.131 18.7732 93.1202 19.143L93.131 19.0995C92.696 19.201 92.3806 19.3678 92.754 19.8681L92.7757 19.8319C92.3769 19.1648 92.0579 19.908 91.6954 19.8935V19.8899Z" fill="#1E1E1E"/>
<path d="M89.473 27.0937C89.0379 27.3946 88.6246 27.7354 88.1606 27.9855C87.5189 28.33 87.7146 27.7209 87.6168 27.4562C87.6856 27.1517 88.2222 26.8979 87.711 26.5353L87.6494 26.5535C88.1823 27.0792 88.4724 26.3686 88.8857 26.2852C89.8138 26.0967 89.5419 26.6405 89.473 27.0973V27.0937Z" fill="#1E1E1E"/>
<path d="M104.015 8.88672C103.623 10.1448 103.101 10.8408 101.763 10.8626C102.064 9.60819 102.768 9.12963 104.015 8.88672Z" fill="#1E1E1E"/>
<path d="M85.8947 25.6691C85.3835 25.6945 84.836 26.9199 84.3611 25.6256C84.6475 24.9005 85.3726 24.6539 85.9128 24.208H85.8657C86.8663 24.4872 85.7968 25.2558 86.2137 25.6727L86.2608 25.6401L85.8947 25.6691Z" fill="#1E1E1E"/>
<path d="M89.9116 8.2449C89.9298 8.72346 90.5715 9.16577 90.0712 9.63345C89.966 9.73134 89.4766 9.42317 89.1648 9.30353C89.0343 9.31441 88.9074 9.32529 88.7769 9.33616L88.795 9.36879C89.1032 9.20565 88.9146 9.00262 88.8602 8.79234C88.7624 8.40804 88.3889 7.91135 88.8022 7.64669C89.3424 7.3059 89.5926 7.94036 89.9116 8.24852V8.2449Z" fill="#1E1E1E"/>
<path d="M86.9641 17.7365C86.9569 17.8199 86.9569 17.9033 86.9641 17.9866C85.6844 18.2259 85.1877 17.3957 84.6547 16.3371C86.065 15.9636 86.4312 16.986 86.9641 17.7365Z" fill="#1E1E1E"/>
<path d="M110.504 32.3327C111.037 32.7496 111.407 33.2789 111.603 33.9279C110.711 34.178 110.174 33.6777 109.721 33.0251C109.565 32.7967 109.297 32.5321 109.544 32.271C109.837 31.9593 110.185 32.2529 110.504 32.3363V32.3327Z" fill="#1E1E1E"/>
<path d="M87.653 26.5499L87.7146 26.5318C87.4681 26.713 87.2179 26.8943 86.9714 27.0792C86.6052 27.0792 86.239 27.0792 85.8729 27.0792L85.9164 27.101C86.0251 26.7384 86.1303 26.3722 86.239 26.0097C86.2753 25.9698 86.3442 25.9263 86.3405 25.8937C86.3297 25.8067 86.2862 25.7269 86.2572 25.6435L86.21 25.6762C86.4276 25.6508 86.6487 25.6471 86.859 25.5891C87.2288 25.4913 87.6385 24.9909 87.9394 25.4441C88.0808 25.658 87.7617 26.1728 87.6493 26.5535L87.653 26.5499Z" fill="#1E1E1E"/>
<path d="M94.2224 14.7779C93.907 15.2565 93.7112 15.833 93.1492 16.1049C92.5293 16.4022 92.0217 16.4565 92.0725 15.5175L92.0616 15.5248C92.6525 15.1332 93.2471 14.7453 93.8381 14.3538C93.965 14.4952 94.0955 14.6365 94.2224 14.7779Z" fill="#1E1E1E"/>
<path d="M92.0543 8.99534C91.4742 9.06422 90.6041 9.56091 90.9485 8.25212C91.3763 7.8932 91.8005 7.53428 92.2501 7.15723C92.7649 7.9222 92.2501 8.43702 92.0543 8.99534Z" fill="#1E1E1E"/>
<path d="M92.0724 15.5175C91.9782 15.0752 91.6482 15.1441 91.3836 15.2529C90.4482 15.6444 90.5316 15.097 90.6476 14.4951C90.8978 14.245 91.1515 13.9948 91.4017 13.7447C91.7316 13.6105 92.0615 13.4728 92.3878 13.3386C92.4531 13.451 92.5183 13.5598 92.5836 13.6722C92.7069 14.3755 91.4887 14.6982 92.0579 15.5248L92.0688 15.5175H92.0724Z" fill="#1E1E1E"/>
<path d="M90.3032 14.082C89.879 14.2706 89.4766 14.5932 88.8566 14.2742C89.0887 13.4476 89.4983 12.795 90.4083 12.6065C90.9304 12.4977 91.0065 12.8312 90.9086 13.2518C90.7056 13.5273 90.5026 13.8065 90.2996 14.082H90.3032Z" fill="#1E1E1E"/>
<path d="M91.3401 11.2433C90.5461 10.2281 91.6772 9.98523 92.0652 9.44141C92.5365 9.42691 93.4428 8.93385 92.8047 10.1303C92.4821 10.7321 92.0398 11.149 91.3401 11.2433Z" fill="#1E1E1E"/>
<path d="M89.1285 30.7048C89.4113 31.9049 88.5448 32.2819 87.711 32.6807C87.5768 32.659 87.4427 32.6408 87.3085 32.6191L87.2542 32.5647C87.2832 32.1913 87.3158 31.8179 87.3448 31.4481L87.3375 31.4553C88.0481 31.4771 88.3998 30.5816 89.1648 30.7411L89.1321 30.7048H89.1285Z" fill="#1E1E1E"/>
<path d="M85.5502 31.1325C86.1811 30.5996 86.5871 29.6243 87.7001 30.0376L87.6929 29.9833C87.798 30.5271 86.8626 30.8207 87.334 31.4552L87.3412 31.448C86.8191 31.0782 86.5581 31.6039 86.1956 31.7815C85.6735 31.8721 85.4342 31.68 85.5502 31.1325Z" fill="#1E1E1E"/>
<path d="M91.351 18.0447C90.7637 18.4 90.4047 19.3571 89.4585 18.7553C89.4839 18.5124 89.5129 18.2694 89.5383 18.0265L89.5201 18.0664C89.8863 17.9395 90.1908 17.7764 89.8972 17.3159L89.8718 17.345C90.2525 17.8126 91.4308 16.6017 91.351 18.0447Z" fill="#1E1E1E"/>
<path d="M96.3867 14.0565C95.5783 12.1423 96.1475 10.1519 96.0604 8.19775C96.1692 10.1519 96.278 12.1024 96.3867 14.0565Z" fill="#1E1E1E"/>
<path d="M94.2114 28.7324C94.9546 30.2189 93.5842 30.15 92.9063 30.6829C92.3951 29.7476 93.2398 29.4611 93.5081 28.9463C93.7437 28.8738 93.9758 28.8049 94.2114 28.7324Z" fill="#1E1E1E"/>
<path d="M115.855 41.9762L115.714 42.027L115.569 42.0052C115.149 41.1134 115.449 40.1562 115.442 39.2136C115.58 40.1345 115.718 41.0554 115.852 41.9762H115.855Z" fill="#1E1E1E"/>
<path d="M95.6254 19.0198C95.7016 19.8935 95.8756 20.7673 95.5348 21.6265C95.4043 20.7527 95.2593 19.879 95.6254 19.0198Z" fill="#1E1E1E"/>
<path d="M102.55 27.0757C102.539 27.4709 102.532 27.8697 102.521 28.2648C102.159 27.8588 102.307 27.4672 102.55 27.0757Z" fill="#1E1E1E"/>
<path d="M95.6616 15.8403C95.6616 16.2246 95.6544 16.6126 95.6507 16.9969C95.4912 16.6089 95.5202 16.2246 95.6616 15.8403Z" fill="#1E1E1E"/>
<path d="M95.3172 22.2791C95.2048 22.2791 95.0924 22.2827 94.98 22.2863C95.0924 22.2791 95.2048 22.2791 95.3172 22.2791Z" fill="#1E1E1E"/>
<path d="M93.1383 18.0314L93.1796 17.9939L93.1533 18.0389L93.1383 18.0314Z" fill="#1E1E1E"/>
<path d="M95.6435 17.6133C95.6435 17.7837 95.6362 17.9541 95.6326 18.1245C95.4876 17.9504 95.4949 17.7837 95.6435 17.6133Z" fill="#1E1E1E"/>
<path d="M89.172 30.353L89.5092 30.6576C89.3823 30.6721 89.2554 30.6902 89.1285 30.7047L89.1612 30.741C89.1648 30.6104 89.1684 30.4835 89.172 30.353Z" fill="#1E1E1E"/>
<path d="M94.603 9.69873C94.7299 9.69873 94.8314 9.74224 94.9112 9.84012C94.8097 9.79299 94.7045 9.74586 94.603 9.69873Z" fill="#1E1E1E"/>
</g>
<defs>
<clipPath id="clip0_113_310">
<rect width="193" height="92" fill="white"/>
</clipPath>
</defs>
</svg>
