<svg width="35" height="35" viewBox="0 0 35 35" fill="none" xmlns="http://www.w3.org/2000/svg">
<g clip-path="url(#clip0_69_144)">
<path d="M17.4834 12.5107C12.4248 12.5107 7.36632 12.5107 2.31114 12.5107C1.81161 12.5107 1.31209 12.5107 0.815894 12.4973C0.263088 12.484 0.0133255 12.2438 0.0099953 11.69C4.82006e-06 10.3555 4.82006e-06 9.02102 0.0099953 7.68655C0.0099953 7.36627 0.146532 7.13274 0.469558 6.99929C2.76071 6.04848 5.04853 5.08765 7.33968 4.13017C10.5133 2.80236 13.687 1.48456 16.854 0.143415C17.3102 -0.0500838 17.6998 -0.0500838 18.156 0.143415C20.2807 1.0542 22.4153 1.93829 24.5466 2.82571C27.2907 3.97003 30.0347 5.11101 32.7788 6.25198C33.3949 6.50887 34.0176 6.75575 34.6337 7.01931C34.9501 7.15276 35.0033 7.43967 35.0033 7.73993C35.0033 8.78749 35.0033 9.83172 35 10.8793C35 11.1595 35.0067 11.4431 35 11.7233C34.99 12.2171 34.7469 12.4773 34.2507 12.484C33.245 12.5007 32.2393 12.5073 31.2336 12.5073C26.6513 12.5073 22.069 12.5073 17.4867 12.5073L17.4834 12.5107ZM33.6779 11.1629C33.6779 10.1587 33.6813 9.1845 33.6713 8.21033C33.6713 8.13693 33.5847 8.03017 33.5148 7.99681C33.1851 7.84335 32.8421 7.70656 32.5057 7.56644C29.4986 6.3087 26.4914 5.05095 23.4843 3.79321C21.5828 2.9992 19.6779 2.20518 17.7797 1.40783C17.5866 1.32776 17.4167 1.31776 17.2203 1.40783C16.8673 1.56797 16.5043 1.70809 16.1446 1.85822C13.8635 2.81237 11.5823 3.76652 9.29782 4.72067C7.60942 5.42461 5.92103 6.12521 4.23597 6.82581C3.34016 7.19946 2.44101 7.57645 1.54853 7.95678C1.42198 8.01016 1.30876 8.05686 1.31542 8.25036C1.33207 9.06106 1.32541 9.87509 1.32874 10.6858C1.32874 10.8459 1.32874 11.0061 1.32874 11.1662H33.6813L33.6779 11.1629Z" fill="#ECC06F"/>
<path d="M17.5167 29.4486C23.0414 29.4486 28.5661 29.4519 34.0909 29.4419C34.7536 29.4419 35.0033 29.6321 35 30.3627C34.9967 31.6104 35 32.8615 35 34.1092C35 34.7097 34.7536 34.97 34.1542 34.98C33.5481 34.99 32.9386 34.9967 32.3326 34.9967C22.3188 34.9967 12.305 34.9967 2.2945 34.9967C1.79497 34.9967 1.29545 34.9967 0.799255 34.98C0.259769 34.9666 0.0133367 34.7264 0.0100065 34.1826C1.60477e-05 32.8882 -0.00331411 31.5904 0.0100065 30.296C0.0166669 29.5954 0.2964 29.4419 0.875849 29.4452C3.01048 29.4519 5.14512 29.4452 7.27975 29.4452C10.6932 29.4452 14.1066 29.4452 17.52 29.4452L17.5167 29.4486ZM33.6646 33.6488C33.6646 32.7314 33.6646 31.8406 33.6646 30.9499C33.6646 30.7964 33.5947 30.763 33.4648 30.7664C33.0985 30.7664 32.7322 30.7664 32.3659 30.7664C22.3987 30.7664 12.4282 30.7664 2.46101 30.7664C2.14131 30.7664 1.82161 30.7697 1.50192 30.7664C1.35872 30.7664 1.31876 30.8164 1.31876 30.9599C1.32542 31.6872 1.31876 32.4111 1.31876 33.1384C1.31876 33.3085 1.31876 33.4754 1.31876 33.6488H33.658H33.6646Z" fill="#ECC06F"/>
<path d="M30.784 20.9914C30.784 23.0064 30.784 25.0215 30.784 27.0332C30.784 27.1333 30.784 27.2367 30.7774 27.3368C30.7607 27.6804 30.5343 27.924 30.1879 27.9406C29.7983 27.9607 29.4087 27.954 29.019 27.9573C27.6936 27.9573 26.3682 27.9573 25.0428 27.9573C24.8963 27.9573 24.7464 27.9573 24.5999 27.954C24.0571 27.934 23.8506 27.7305 23.8473 27.19C23.844 26.2759 23.8473 25.3618 23.8473 24.451C23.8473 21.305 23.8473 18.1589 23.8473 15.0129C23.8473 14.8961 23.8473 14.7794 23.854 14.6626C23.8673 14.2189 24.0371 14.0187 24.4867 13.982C24.8197 13.9553 25.1561 13.9687 25.4924 13.9687C26.9277 13.9687 28.3597 13.9687 29.795 13.9687C29.9115 13.9687 30.0281 13.9687 30.1446 13.9853C30.5809 14.0354 30.774 14.2322 30.774 14.6693C30.7774 16.7777 30.774 18.8862 30.774 20.9947C30.774 20.9947 30.7807 20.9947 30.784 20.9947V20.9914ZM29.4653 20.9914H29.462C29.462 20.0239 29.462 19.0564 29.462 18.0889C29.462 17.2548 29.462 16.4174 29.4653 15.5834C29.4653 15.4166 29.452 15.3132 29.2288 15.3132C28.03 15.3265 26.8311 15.3232 25.6289 15.3232C25.166 15.3232 25.1694 15.3232 25.1694 15.7836C25.1694 19.3199 25.1694 22.8529 25.166 26.3893C25.166 26.5928 25.236 26.6395 25.4225 26.6362C26.6913 26.6295 27.9601 26.6295 29.2322 26.6362C29.4153 26.6362 29.4753 26.5828 29.4719 26.396C29.4653 24.5944 29.4686 22.7896 29.4686 20.988L29.4653 20.9914Z" fill="#ECC06F"/>
<path d="M4.21598 20.9646C4.21598 18.8962 4.21598 16.8277 4.21598 14.7593C4.21598 14.2422 4.32921 13.9886 4.99191 13.9786C6.75356 13.9553 8.51522 13.972 10.2735 13.972C10.3202 13.972 10.3668 13.9786 10.4134 13.982C10.9429 14.0287 11.1361 14.2222 11.1394 14.756C11.146 16.5742 11.1427 18.3924 11.1427 20.214C11.1427 22.5026 11.146 24.7879 11.1494 27.0765C11.1494 27.1466 11.1494 27.2166 11.1494 27.2867C11.1294 27.6971 10.9163 27.9206 10.51 27.9473C10.3068 27.9606 10.1037 27.9573 9.9039 27.9573C8.38534 27.9573 6.86346 27.9573 5.34491 27.9573C5.18173 27.9573 5.01855 27.9573 4.85537 27.9473C4.45575 27.9239 4.22264 27.687 4.21931 27.2867C4.21265 26.2725 4.21598 25.2583 4.21598 24.2408C4.21598 23.1465 4.21598 22.0556 4.21598 20.9613H4.22264L4.21598 20.9646ZM9.82064 20.9846C9.82064 19.3132 9.82064 17.6451 9.82064 15.9737C9.82064 15.8102 9.81398 15.6467 9.81398 15.4833C9.81398 15.3598 9.77069 15.3131 9.63083 15.3131C8.4686 15.3198 7.3097 15.3198 6.14748 15.3198C5.52806 15.3198 5.52807 15.3164 5.52807 15.9403C5.52807 19.42 5.52807 22.9029 5.5214 26.3826C5.5214 26.5828 5.58801 26.6361 5.7745 26.6328C7.03663 26.6261 8.29876 26.6228 9.56089 26.6328C9.76736 26.6328 9.8273 26.5761 9.82397 26.3693C9.81731 24.5744 9.82064 22.7795 9.82064 20.9846Z" fill="#ECC06F"/>
<path d="M20.9667 21.0147C20.9667 23.0064 20.9667 24.9948 20.9667 26.9865C20.9667 27.0866 20.9667 27.19 20.9601 27.2901C20.9234 27.7038 20.7436 27.8873 20.3373 27.9307C20.2441 27.9407 20.1508 27.9473 20.0576 27.9473C18.2959 27.9473 16.5343 27.9473 14.776 27.9407C14.2698 27.9407 14.0799 27.7438 14.0433 27.2267C14.0233 26.9532 14.03 26.6796 14.03 26.406C14.03 22.6662 14.03 18.9263 14.03 15.1897C14.03 14.9562 14.04 14.7193 14.0833 14.4925C14.1499 14.1622 14.3297 14.0087 14.6627 13.982C14.9425 13.9587 15.2222 13.9654 15.5019 13.9654C16.9972 13.9654 18.4957 13.9654 19.991 13.9654C20.7536 13.9654 20.9767 14.1989 20.9767 14.9662C20.9767 16.9813 20.9767 18.993 20.9767 21.0081C20.9767 21.0081 20.9701 21.0081 20.9667 21.0081V21.0147ZM19.628 26.5962V15.3165H15.3487C15.3487 15.3799 15.3487 15.4333 15.3487 15.4867C15.3554 17.7252 15.3621 19.9638 15.3621 22.2058C15.3621 23.617 15.3621 25.0315 15.3521 26.4427C15.3521 26.5928 15.402 26.6295 15.5386 26.6295C16.8173 26.6295 18.0928 26.6295 19.3716 26.6295C19.4548 26.6295 19.5381 26.6095 19.628 26.5995V26.5962Z" fill="#ECC06F"/>
</g>
<defs>
<clipPath id="clip0_69_144">
<rect width="35" height="35" fill="white"/>
</clipPath>
</defs>
</svg>
