<svg width="38" height="36" viewBox="0 0 38 36" fill="none" xmlns="http://www.w3.org/2000/svg">
<rect opacity="0.1" width="38" height="36" rx="6" fill="#ECC06F"/>
<g clip-path="url(#clip0_172_10)">
<path d="M31 19.2829C31 20.9923 31.0147 22.7091 31 24.4185C30.978 26.5645 29.5835 27.963 27.4477 27.9778C24.233 28 21.0257 28 17.811 28C15.4477 28 13.0844 28.0148 10.7285 27.9852C8.52662 27.9556 7.10276 26.6311 7.05873 24.4111C6.97799 20.8369 7.00001 17.2553 7.02937 13.6812C7.05139 11.9496 8.51928 10.514 10.244 10.4252C11.0881 10.3808 11.9468 10.3808 12.7908 10.403C13.3266 10.4178 13.5468 10.2402 13.5835 9.67781C13.6275 9.10802 13.7156 8.50863 13.9358 7.99063C14.5083 6.62904 15.6312 6.05185 17.0551 6.02225C18.3321 5.99265 19.6018 5.99265 20.8789 6.01485C23.1101 6.04445 24.2624 7.07304 24.4018 9.32262C24.4606 10.2106 24.7468 10.514 25.5982 10.4326C26.2 10.3734 26.8092 10.4178 27.4184 10.4252C29.5762 10.4548 30.9413 11.7942 30.9853 13.9772C31.022 15.7532 30.9853 17.5217 30.9853 19.2977L31 19.2829ZM22.2881 19.2829C22.2881 19.2829 22.2881 19.2829 22.2954 19.2829C22.2954 17.3885 22.2661 15.4942 22.3101 13.6072C22.3248 12.845 22.0239 12.5638 21.3046 12.5712C19.7266 12.5934 18.156 12.5934 16.578 12.5712C15.8954 12.5638 15.6973 12.8524 15.7046 13.511C15.7266 17.2997 15.7266 21.0811 15.7046 24.8699C15.7046 25.5433 15.9468 25.8097 16.6073 25.8023C18.244 25.7801 19.8807 25.7727 21.5174 25.7875C22.1193 25.7875 22.3028 25.5433 22.2954 24.9661C22.2734 23.0717 22.2881 21.1773 22.2881 19.2829ZM13.5468 19.2311H13.5615C13.5615 17.9435 13.5835 16.6634 13.5615 15.3758C13.4954 12.1346 14.2147 12.586 10.5963 12.586C9.5101 12.586 9.17983 12.9338 9.17249 14.0438C9.14313 17.5291 9.15781 21.0145 9.15781 24.4999C9.15781 25.3805 9.61285 25.7801 10.4569 25.7875C11.2129 25.7875 11.9762 25.7505 12.7321 25.7875C13.378 25.8171 13.5688 25.5433 13.5615 24.9217C13.5321 23.0273 13.5541 21.1329 13.5541 19.2311H13.5468ZM24.4532 19.1793C24.4532 20.5557 24.4532 21.9247 24.4532 23.3011C24.4532 24.9735 25.2948 25.8023 26.978 25.7875C28.6 25.7727 28.8202 25.5951 28.8349 23.9523C28.8642 21.0515 28.8569 18.1507 28.8569 15.25C28.8569 12.6008 28.8202 12.5786 26.1486 12.5712C25.8771 12.5712 25.6055 12.586 25.334 12.5712C24.6734 12.5268 24.4312 12.8228 24.4459 13.4962C24.4826 15.3906 24.4606 17.2849 24.4532 19.1719V19.1793ZM19.0294 10.3882C19.0294 10.3882 19.0294 10.366 19.0294 10.3512C19.756 10.3512 20.4899 10.3956 21.2092 10.329C21.5762 10.2994 21.9285 10.07 22.2807 9.92941C22.0459 9.43362 21.8844 8.86382 21.5321 8.47163C21.3193 8.22743 20.8055 8.19783 20.4239 8.18303C19.5138 8.14603 18.6037 8.14603 17.6936 8.18303C17.2752 8.19783 16.7321 8.19783 16.4826 8.44203C16.1156 8.80462 15.9321 9.37442 15.7707 9.89241C15.7486 9.95161 16.3945 10.3364 16.7468 10.3734C17.4954 10.4474 18.2587 10.3956 19.022 10.3956L19.0294 10.3882Z" fill="#ECC06F"/>
</g>
<defs>
<clipPath id="clip0_172_10">
<rect width="24" height="22" fill="white" transform="translate(7 6)"/>
</clipPath>
</defs>
</svg>
