<svg width="38" height="36" viewBox="0 0 38 36" fill="none" xmlns="http://www.w3.org/2000/svg">
<rect opacity="0.1" width="38" height="36" rx="6" fill="#ECC06F"/>
<g clip-path="url(#clip0_172_19)">
<path d="M28.9928 17.4859C28.9928 20.1123 29 22.7457 28.9928 25.3721C28.9857 27.5152 27.6576 28.8109 25.487 28.8459C22.4953 28.8949 19.5107 28.9789 16.5189 29C15.3194 29.007 14.1127 28.9369 12.9132 28.8179C11.5565 28.6778 10.407 27.5852 10.1642 26.2545C10.05 25.6312 10.0143 24.9939 10.0143 24.3565C9.99997 19.419 9.99997 14.4744 10.0143 9.5368C10.0214 7.35166 11.3423 6.03497 13.5843 6.01396C17.5828 5.98595 21.5742 5.99295 25.5727 6.01396C27.6219 6.02797 28.95 7.30964 28.9785 9.32669C29.0214 12.0441 28.9857 14.7615 28.9857 17.4789L28.9928 17.4859ZM12.0778 17.514C12.0778 19.8532 12.0778 22.1924 12.0778 24.5316C12.0778 26.7448 12.2063 26.8428 14.4911 26.8078C15.0766 26.8008 15.3694 26.6467 15.3194 26.0164C15.2766 25.4141 15.3051 24.8048 15.3194 24.1954C15.3337 23.2149 15.7407 22.7037 16.7332 22.6827C18.611 22.6336 20.4889 22.6406 22.3667 22.7107C23.345 22.7457 23.6877 23.2009 23.7091 24.1814C23.7234 24.8188 23.6948 25.4561 23.7234 26.0864C23.7377 26.2825 23.8876 26.6397 23.9804 26.6467C24.7873 26.6747 25.6298 26.7518 26.3938 26.5487C26.6651 26.4786 26.8793 25.6872 26.8865 25.218C26.9222 20.0773 26.9293 14.9436 26.9079 9.80294C26.9079 8.29015 26.6294 8.05903 25.0872 8.05903C21.36 8.05202 17.6328 8.04502 13.9056 8.05202C12.3705 8.05202 12.0992 8.31816 12.092 9.80994C12.0778 12.3803 12.092 14.9506 12.092 17.521L12.0778 17.514ZM19.4393 26.8008C19.9105 26.8008 20.3818 26.7868 20.8459 26.8008C21.6027 26.8358 21.6813 26.3946 21.667 25.7993C21.6527 25.218 21.6956 24.6717 20.853 24.6927C20.0034 24.7137 19.1465 24.7277 18.2969 24.6927C17.5757 24.6647 17.3115 24.9448 17.3401 25.6662C17.3829 26.7658 17.3758 26.8008 18.4682 26.8008C18.7895 26.8008 19.1108 26.8008 19.4393 26.8008Z" fill="#ECC06F"/>
<path d="M19.525 18.1163C19.9748 18.7537 20.5032 19.1669 20.4604 19.5171C20.4175 19.8883 19.832 20.1894 19.4822 20.5256C19.1466 20.1824 18.5682 19.8532 18.5397 19.489C18.5111 19.1389 19.0537 18.7397 19.525 18.1233V18.1163Z" fill="#ECC06F"/>
<path d="M25.1371 19.475C24.5088 19.9443 24.1161 20.4766 23.7519 20.4485C23.3807 20.4205 22.788 19.8602 22.7809 19.5241C22.7809 19.1879 23.345 18.6066 23.7162 18.5646C24.0733 18.5225 24.4945 19.0338 25.13 19.468L25.1371 19.475Z" fill="#ECC06F"/>
<path d="M15.2409 9.79602C15.7121 10.4123 16.2476 10.8045 16.2262 11.1547C16.2048 11.5189 15.6336 11.8481 15.298 12.1983C14.9338 11.8481 14.3698 11.5399 14.2841 11.1337C14.2198 10.8256 14.7839 10.3983 15.2409 9.79602Z" fill="#ECC06F"/>
<path d="M19.4393 9.78894C19.9248 10.4053 20.4746 10.7975 20.4532 11.1547C20.4318 11.5188 19.8534 11.855 19.5179 12.1982C19.168 11.869 18.5825 11.5679 18.5254 11.1967C18.4754 10.8535 18.9966 10.4263 19.4393 9.78894Z" fill="#ECC06F"/>
<path d="M23.7234 12.5834C23.2522 11.946 22.7309 11.5328 22.7595 11.1826C22.7952 10.8185 23.3878 10.2442 23.7234 10.2512C24.0733 10.2582 24.6445 10.8325 24.6802 11.2037C24.7159 11.5538 24.1804 11.9601 23.7163 12.5834H23.7234Z" fill="#ECC06F"/>
<path d="M15.3123 18.1304C15.755 18.7607 16.2762 19.1739 16.2334 19.5241C16.1906 19.8883 15.5979 20.4556 15.2552 20.4486C14.9053 20.4416 14.327 19.8533 14.3055 19.4891C14.2841 19.1319 14.8268 18.7397 15.3052 18.1304H15.3123Z" fill="#ECC06F"/>
<path d="M19.5392 13.9702C19.9819 14.6005 20.496 15.0138 20.4532 15.3639C20.4104 15.7281 19.8249 16.0293 19.4821 16.3585C19.1465 16.0153 18.5753 15.6861 18.5468 15.3219C18.5253 14.9717 19.0609 14.5795 19.5392 13.9702Z" fill="#ECC06F"/>
<path d="M25.1158 15.3428C24.5089 15.7911 24.0947 16.3234 23.7449 16.2883C23.3736 16.2533 23.0594 15.672 22.7167 15.3288C23.0737 14.9997 23.395 14.4744 23.7948 14.4114C24.109 14.3623 24.516 14.8946 25.1158 15.3428Z" fill="#ECC06F"/>
<path d="M16.6404 15.3218C16.0549 15.7771 15.6479 16.3233 15.298 16.2883C14.9196 16.2533 14.5911 15.686 14.2413 15.3498C14.5911 15.0137 14.9053 14.4744 15.3052 14.4043C15.6193 14.3483 16.0335 14.8806 16.6332 15.3148L16.6404 15.3218Z" fill="#ECC06F"/>
</g>
<defs>
<clipPath id="clip0_172_19">
<rect width="19" height="23" fill="white" transform="translate(10 6)"/>
</clipPath>
</defs>
</svg>
