<svg width="170" height="18" viewBox="0 0 170 18" fill="none" xmlns="http://www.w3.org/2000/svg">
<g clip-path="url(#clip0_114_935)">
<path d="M89.8433 17.8838C90.0182 17.9139 90.1362 17.9526 90.2542 17.9526C94.2248 17.9699 98.1913 18.0043 102.162 17.9871C103.606 17.9785 104.892 17.4317 105.949 16.3597C107.17 15.1198 107.707 13.5829 107.707 11.8177C107.707 10.001 107.723 8.18847 107.699 6.37168C107.691 5.8077 107.638 5.2265 107.512 4.67974C106.885 1.98469 104.753 0.21526 102.024 0.189428C98.1547 0.150682 94.2817 0.176513 90.4087 0.180818C90.2216 0.180818 90.0385 0.228175 89.8392 0.254006V17.8838H89.8433ZM41.1626 17.8924C41.3822 17.9182 41.5694 17.9569 41.7606 17.9569C45.6824 17.9742 49.6001 17.9957 53.5219 17.9957C54.2867 17.9957 55.0353 17.8235 55.7269 17.4619C57.7163 16.4286 58.8717 14.741 58.9652 12.3903C59.0507 10.242 58.9978 8.08945 58.9856 5.93686C58.9856 5.52786 58.9245 5.10596 58.831 4.70988C58.1963 2.00191 56.0849 0.219565 53.3632 0.193734C49.4943 0.154987 45.6214 0.180818 41.7484 0.185123C41.5572 0.185123 41.37 0.22387 41.1666 0.249701V17.8967L41.1626 17.8924ZM119.407 0.23248C119.407 0.23248 119.407 0.219565 119.407 0.210954C118.183 0.210954 116.954 0.236785 115.73 0.206649C112.813 0.133461 110.119 2.47548 110.018 5.94547C109.953 8.09376 109.997 10.2507 110.054 12.4033C110.128 15.3265 112.455 18.0172 115.738 18.0043C118.114 17.9957 120.493 18.0043 122.869 17.9871C126.323 17.9613 128.74 15.404 128.768 11.7532C128.78 9.98804 128.789 8.22291 128.76 6.46209C128.752 5.84645 128.687 5.21359 128.549 4.61516C127.955 2.10954 125.965 0.365941 123.524 0.245396C122.153 0.176513 120.778 0.23248 119.407 0.23248ZM147.612 17.8967C147.612 16.2392 147.633 14.6333 147.6 13.0275C147.588 12.4076 147.267 11.8995 146.815 11.5035C146.697 11.4001 146.579 11.2968 146.42 11.1547C147.372 10.5391 147.686 9.67376 147.645 8.60608C147.608 7.67185 147.657 6.73762 147.612 5.8077C147.588 5.29538 147.503 4.77446 147.352 4.28797C146.587 1.77804 144.549 0.210954 141.949 0.189428C138.471 0.159292 134.989 0.180818 131.51 0.180818C131.319 0.180818 131.128 0.21526 130.949 0.236785C130.806 1.12796 130.839 17.3069 130.981 17.9096H135.151V13.4322C135.286 13.3805 135.334 13.3504 135.379 13.3504C137.56 13.3461 139.74 13.3332 141.921 13.3461C142.596 13.3461 142.991 13.7249 143.145 14.4568C143.211 14.7797 143.206 15.1241 143.211 15.4599C143.219 16.2564 143.211 17.0572 143.211 17.9053H147.604L147.612 17.8967ZM25.7683 0C25.634 0.0645779 25.5201 0.10763 25.4144 0.172208C22.2574 2.07941 18.8401 2.75532 15.2437 2.66491C11.1633 2.56589 7.15199 1.93303 3.15696 1.10213C2.10329 0.882564 1.05368 0.658694 0 0.439129C0.2563 0.641473 0.537009 0.757713 0.821787 0.865343C5.2277 2.47979 9.49123 4.41282 13.4944 6.97441C17.6074 9.60919 21.0654 12.9457 23.5674 17.3284C23.7871 17.7159 24.0515 17.7675 24.4095 17.7675C27.6194 17.7632 30.8292 17.7675 34.0391 17.7632C34.1936 17.7632 34.3523 17.7245 34.69 17.6771C33.6444 16.6094 32.7453 15.6321 31.7852 14.7238C30.7967 13.7938 29.7755 12.8984 28.7219 12.0588C27.6844 11.2322 26.6064 10.4659 25.512 9.72973C24.4217 8.99354 23.2867 8.33054 22.0214 7.53839C26.4518 6.76345 30.6624 5.84645 34.7103 4.26214V4.09424C31.7283 2.72949 28.7463 1.36475 25.7724 0.00430519L25.7683 0ZM83.6595 17.9354H88.3624C86.0069 11.99 83.688 6.13059 81.3732 0.284143H74.7256C74.0096 1.6575 67.773 17.4102 67.7201 17.9785H72.2277C72.6183 17.0529 73.0048 16.1359 73.379 15.2447C73.497 15.2188 73.5662 15.1887 73.6394 15.1887C76.4343 15.1629 79.2251 15.15 82.02 15.1112C82.4065 15.1069 82.5896 15.2705 82.7279 15.6235C83.0208 16.3899 83.3422 17.1476 83.6636 17.9354H83.6595ZM162.999 0.176513H162.307C160.541 0.176513 158.78 0.198039 157.014 0.163597C156.497 0.154987 156.237 0.322889 156.034 0.839512C153.869 6.31141 151.681 11.7661 149.504 17.2294C149.423 17.4317 149.366 17.6427 149.276 17.9139C149.569 17.9311 149.785 17.9483 150 17.9526C150.834 17.9526 151.668 17.9656 152.498 17.9526C154.179 17.9182 153.715 18.2368 154.394 16.6525C154.614 16.1402 154.829 15.6278 155.045 15.1198H164.162C164.467 15.8775 164.793 16.6008 165.057 17.3499C165.212 17.7847 165.439 17.9354 165.875 17.9268C167.051 17.901 168.226 17.9225 169.402 17.9139C169.581 17.9139 169.76 17.8622 170 17.8278C167.653 11.9039 165.334 6.06171 162.999 0.176513ZM61.5811 0.266922C61.4306 1.86415 61.4631 17.3456 61.6218 17.944C63.0864 17.944 64.5631 17.9785 66.0562 17.9268V0.266922H61.5811Z" fill="white"/>
<path d="M89.8433 17.8838V0.254032C90.0426 0.228201 90.2297 0.180844 90.4128 0.180844C94.2858 0.180844 98.1547 0.150707 102.028 0.189454C104.753 0.215285 106.885 1.98472 107.516 4.67977C107.642 5.22653 107.695 5.80773 107.703 6.37171C107.727 8.1885 107.715 10.001 107.711 11.8178C107.711 13.5829 107.174 15.1199 105.954 16.3597C104.892 17.436 103.61 17.9828 102.166 17.9871C98.1954 18.0043 94.2288 17.9699 90.2582 17.9527C90.1402 17.9527 90.0223 17.9139 89.8473 17.8838H89.8433ZM94.1515 13.2643C94.3956 13.2815 94.538 13.3031 94.6845 13.3031C96.6901 13.3031 98.6998 13.316 100.705 13.3031C102.325 13.2901 103.33 12.287 103.403 10.5865C103.447 9.57907 103.423 8.56735 103.403 7.55563C103.391 6.77209 103.126 6.09617 102.569 5.55372C102.003 5.00266 101.32 4.87781 100.596 4.87781C98.6388 4.87781 96.6779 4.87781 94.7211 4.87781C94.534 4.87781 94.3509 4.92516 94.1475 4.95099V13.2643H94.1515Z" fill="#444444"/>
<path d="M41.1626 17.888V0.241027C41.366 0.219501 41.5572 0.176449 41.7443 0.176449C45.6173 0.176449 49.4862 0.146313 53.3592 0.185059C56.0808 0.215196 58.1923 1.99754 58.8269 4.7012C58.9205 5.10159 58.9815 5.51919 58.9815 5.92818C58.9937 8.08078 59.0466 10.2334 58.9612 12.3817C58.8676 14.7323 57.7122 16.4199 55.7228 17.4532C55.0312 17.8105 54.2867 17.987 53.5178 17.987C49.596 17.987 45.6783 17.9655 41.7565 17.9483C41.5653 17.9483 41.3782 17.9095 41.1585 17.8837L41.1626 17.888ZM45.4505 13.303H46.2804C47.8996 13.303 49.5147 13.303 51.1338 13.303C51.5488 13.303 51.9678 13.3202 52.3828 13.2858C53.5626 13.1824 54.5552 12.3257 54.6447 11.1202C54.7465 9.7555 54.7424 8.37353 54.6447 7.00879C54.5593 5.87652 53.648 5.06284 52.5699 4.92507C52.3258 4.89494 52.0817 4.87772 51.8377 4.87772C49.9256 4.87772 48.0135 4.87772 46.1014 4.87772C45.8899 4.87772 45.6783 4.91646 45.4505 4.93799V13.303Z" fill="#444444"/>
<path d="M119.407 0.232389C120.778 0.232389 122.153 0.176422 123.524 0.245305C125.969 0.36585 127.955 2.10945 128.549 4.61507C128.691 5.21349 128.752 5.84205 128.76 6.462C128.789 8.22713 128.78 9.98795 128.768 11.7531C128.74 15.3996 126.323 17.9569 122.869 17.987C120.493 18.0042 118.114 17.9956 115.738 18.0042C112.455 18.0171 110.128 15.3264 110.054 12.4032C110.001 10.2506 109.953 8.09797 110.018 5.94538C110.119 2.4797 112.813 0.137675 115.73 0.206558C116.954 0.236694 118.183 0.210863 119.407 0.210863C119.407 0.219474 119.407 0.223779 119.407 0.232389ZM119.371 13.3029C120.201 13.3029 121.035 13.3029 121.864 13.3029C123.414 13.2986 124.46 11.8951 124.403 10.5735C124.358 9.56604 124.403 8.55432 124.391 7.54691C124.371 6.04009 123.451 4.95949 122.039 4.91213C120.282 4.85186 118.516 4.85186 116.759 4.91644C115.302 4.9681 114.391 6.05301 114.367 7.59857C114.354 8.55432 114.399 9.51438 114.354 10.4701C114.285 12.0286 115.473 13.3546 117.019 13.3116C117.8 13.29 118.585 13.3116 119.367 13.3073L119.371 13.3029Z" fill="#444444"/>
<path d="M147.608 17.8966H143.215C143.215 17.0485 143.219 16.252 143.215 15.4513C143.215 15.1155 143.215 14.771 143.15 14.4482C142.999 13.7163 142.604 13.3417 141.925 13.3374C139.744 13.3245 137.564 13.3374 135.383 13.3417C135.338 13.3417 135.294 13.3719 135.155 13.4235V17.9009H130.985C130.839 17.3025 130.811 1.11928 130.953 0.228108C131.132 0.210888 131.323 0.176446 131.514 0.172141C134.993 0.172141 138.475 0.14631 141.953 0.180751C144.553 0.202277 146.591 1.76937 147.356 4.27929C147.503 4.76578 147.592 5.28671 147.616 5.79902C147.661 6.72895 147.616 7.66748 147.649 8.5974C147.69 9.66508 147.376 10.5304 146.424 11.1461C146.583 11.2838 146.701 11.3872 146.819 11.4948C147.275 11.8952 147.592 12.3989 147.604 13.0188C147.637 14.6247 147.616 16.2262 147.616 17.888L147.608 17.8966ZM135.176 8.98487H135.985C137.674 8.98487 139.362 8.98487 141.05 8.98487C141.319 8.98487 141.587 8.98917 141.86 8.98487C142.775 8.95903 143.202 8.50268 143.215 7.54693C143.219 7.15946 143.215 6.76769 143.215 6.38023C143.198 5.32976 142.82 4.91646 141.84 4.90785C139.81 4.89063 137.775 4.88632 135.745 4.88202C135.562 4.88202 135.375 4.92938 135.176 4.95951V8.98487Z" fill="#444444"/>
<path d="M25.7683 0C28.7422 1.36044 31.7242 2.72519 34.7062 4.08993V4.25783C30.6583 5.83784 26.4518 6.75915 22.0214 7.53408C23.2867 8.32193 24.4217 8.98924 25.512 9.72542C26.6064 10.4616 27.6844 11.2322 28.7218 12.0545C29.7796 12.894 30.8007 13.7895 31.7852 14.7194C32.7494 15.6235 33.6485 16.6051 34.69 17.6728C34.3523 17.7202 34.1977 17.7589 34.0391 17.7589C30.8292 17.7589 27.6194 17.7589 24.4095 17.7632C24.0474 17.7632 23.7871 17.7116 23.5674 17.3241C21.0695 12.9414 17.6115 9.60488 13.4944 6.9701C9.4953 4.41282 5.2277 2.47979 0.821787 0.865343C0.537009 0.762019 0.2563 0.641473 0 0.439129C1.05368 0.658694 2.10329 0.882564 3.15696 1.10213C7.14792 1.93303 11.1633 2.56589 15.2437 2.66491C18.8401 2.75102 22.2574 2.0751 25.4144 0.172208C25.5201 0.10763 25.6381 0.0645778 25.7683 0Z" fill="#444444"/>
<path d="M83.6595 17.9355C83.3381 17.1476 83.0167 16.3899 82.7238 15.6236C82.5896 15.2705 82.4024 15.1069 82.0159 15.1113C79.2211 15.15 76.4302 15.1629 73.6353 15.1887C73.5621 15.1887 73.493 15.2189 73.375 15.2447C72.9966 16.1402 72.6101 17.0572 72.2237 17.9785H67.716C67.7689 17.4102 74.0056 1.66184 74.7216 0.28418H81.3691C83.6839 6.13063 86.0069 11.99 88.3583 17.9355H83.6554H83.6595ZM80.7141 10.6597C79.9045 8.62764 79.1193 6.66017 78.3504 4.73144C77.5775 4.65825 77.5734 4.65395 77.3375 5.24806C76.6947 6.86681 76.06 8.48987 75.4213 10.1129C75.3603 10.2722 75.3196 10.4444 75.2586 10.6597H80.7141Z" fill="#444444"/>
<path d="M162.999 0.176558C165.334 6.06175 167.649 11.9039 170 17.8278C169.76 17.8623 169.581 17.9139 169.402 17.9139C168.226 17.9226 167.051 17.901 165.875 17.9269C165.444 17.9355 165.212 17.7848 165.057 17.35C164.793 16.6009 164.471 15.8733 164.162 15.1199H155.045C154.829 15.6236 154.614 16.1402 154.394 16.6525C153.715 18.2368 154.179 17.9182 152.498 17.9527C151.664 17.9699 150.834 17.957 150 17.9527C149.785 17.9527 149.569 17.9312 149.276 17.9139C149.366 17.647 149.423 17.4318 149.504 17.2294C151.685 11.7661 153.873 6.30715 156.034 0.839558C156.237 0.322935 156.502 0.155032 157.014 0.163643C158.776 0.193779 160.541 0.176558 162.307 0.176558H162.999ZM162.344 10.5994C161.526 8.54154 160.753 6.59129 159.988 4.66257H159.191C158.414 6.63004 157.645 8.57598 156.843 10.5994H162.344Z" fill="#444444"/>
<path d="M61.5811 0.266846H66.0562V17.9267C64.5631 17.9784 63.0864 17.9483 61.6218 17.944C61.4591 17.3455 61.4306 1.85977 61.5811 0.266846Z" fill="#444444"/>
<path d="M94.1515 13.2644V4.95108C94.3549 4.92525 94.5421 4.87789 94.7252 4.87789C96.682 4.87358 98.6429 4.87789 100.6 4.87789C101.324 4.87789 102.007 5.00274 102.573 5.5538C103.13 6.09626 103.395 6.77217 103.407 7.55572C103.423 8.56744 103.447 9.57916 103.407 10.5866C103.334 12.2914 102.325 13.2902 100.71 13.3031C98.7039 13.3161 96.6942 13.3031 94.6885 13.3031C94.5421 13.3031 94.3956 13.2816 94.1556 13.2644H94.1515Z" fill="white"/>
<path d="M45.4505 13.3031V4.93816C45.6783 4.91664 45.8899 4.87789 46.1014 4.87789C48.0135 4.87358 49.9256 4.87789 51.8377 4.87789C52.0817 4.87789 52.3299 4.89511 52.5699 4.92525C53.644 5.06301 54.5593 5.87669 54.6448 7.00896C54.7465 8.3737 54.7505 9.75567 54.6448 11.1204C54.5552 12.3216 53.5626 13.1826 52.3828 13.2859C51.9678 13.3204 51.5488 13.3031 51.1338 13.3031C49.5147 13.3031 47.8996 13.3031 46.2804 13.3031H45.4505Z" fill="white"/>
<path d="M119.367 13.3031C118.585 13.3031 117.8 13.2859 117.019 13.3074C115.473 13.3504 114.285 12.0244 114.354 10.466C114.399 9.51021 114.354 8.55015 114.367 7.5944C114.387 6.04884 115.302 4.96823 116.759 4.91227C118.516 4.84769 120.282 4.84769 122.039 4.90796C123.451 4.95532 124.371 6.04023 124.391 7.54274C124.407 8.55015 124.358 9.56187 124.403 10.5693C124.464 11.891 123.414 13.2945 121.864 13.2988C121.035 13.2988 120.201 13.2988 119.371 13.2988L119.367 13.3031Z" fill="white"/>
<path d="M135.176 8.98493V4.95957C135.375 4.92944 135.558 4.88208 135.745 4.88208C137.775 4.88208 139.81 4.89069 141.84 4.90791C142.82 4.91652 143.198 5.32551 143.215 6.38029C143.223 6.76775 143.223 7.15953 143.215 7.54699C143.202 8.50274 142.771 8.95479 141.86 8.98493C141.591 8.99354 141.323 8.98493 141.05 8.98493C139.362 8.98493 137.674 8.98493 135.985 8.98493H135.176Z" fill="white"/>
<path d="M80.7141 10.6596H75.2586C75.3237 10.4443 75.3603 10.2721 75.4213 10.1128C76.056 8.48976 76.6947 6.8667 77.3375 5.24795C77.5734 4.65384 77.5775 4.65814 78.3504 4.73133C79.1193 6.66005 79.9045 8.62753 80.7141 10.6596Z" fill="white"/>
<path d="M162.348 10.5995H156.847C157.649 8.57602 158.418 6.63437 159.195 4.6626H159.992C160.757 6.59132 161.53 8.54157 162.348 10.5995Z" fill="white"/>
</g>
<defs>
<clipPath id="clip0_114_935">
<rect width="170" height="18" fill="white"/>
</clipPath>
</defs>
</svg>
