<svg width="60" height="60" viewBox="0 0 60 60" fill="none" xmlns="http://www.w3.org/2000/svg">
<path d="M0.0266952 30.1479C0.0266952 25.9325 -0.0402112 21.7172 0.0378193 17.5018C0.149291 11.5936 2.40103 6.69437 7.31695 3.23015C10.1038 1.26822 13.2696 0.147116 16.6695 0.113483C25.4312 0.0237949 34.204 -0.0995266 42.9657 0.135905C51.7609 0.371337 58.8505 6.31319 59.6977 15.4053C59.8538 17.0646 59.943 18.7238 59.943 20.3943C59.9653 27.8496 60.0767 35.3162 59.9095 42.7715C59.7758 48.59 57.4683 53.4668 52.6081 56.9198C49.7655 58.9378 46.5329 59.902 43.0772 59.9244C34.4493 59.9917 25.8213 60.0589 17.1934 59.9132C9.27887 59.7787 3.05872 55.2718 0.84042 47.8501C0.36109 46.2357 0.104724 44.498 0.0601355 42.8051C-0.0513366 38.5898 0.0266952 34.3744 0.0266952 30.1591V30.1479ZM39.8334 24.363C39.8334 21.9302 42.6316 44.2105 42.6316 44.2105C42.6316 44.2105 35.5306 49.4642 31.2277 52.8947C26.6797 56.5159 27.941 52.7302 17.1934 49.7368C13.7305 53.8662 23.2798 32.3789 23.1014 33.4327C22.5998 36.3924 22.0424 39.3521 21.708 42.3343C21.6188 43.1639 22.0313 44.2626 22.5998 44.9128C23.3132 45.72 24.3164 45.2267 25.119 44.6886C26.3118 43.8814 27.5269 43.119 28.6527 42.2334C29.5557 41.5159 30.3025 41.4486 31.2277 42.1885C32.387 43.1078 33.6355 43.9262 34.8617 44.7559C35.5975 45.2491 36.3554 45.7873 37.2807 45.1707C38.2393 44.5204 38.4957 43.5675 38.3174 42.4912C37.838 39.5315 37.2695 36.5718 36.9017 33.6009C36.7902 32.7264 36.9908 31.6389 37.459 30.9214C38.7744 28.9034 39.8334 26.8518 39.8222 24.3742L39.8334 24.363Z" fill="white"/>
<path d="M29.9852 46.2094C26.3883 46.2094 22.7795 46.2568 19.1827 46.1975C15.2178 46.1263 13.817 44.7255 13.7696 40.82C13.7339 38.0659 13.6865 35.3 13.8764 32.546C14.0663 29.8513 15.3959 28.6405 18.0668 28.6049C19.3963 28.593 19.7525 28.1419 19.7169 26.8717C19.6219 24.0227 19.6456 21.1618 19.6812 18.301C19.7169 15.2501 21.082 13.8256 24.0972 13.79C27.8484 13.7425 31.5996 13.7425 35.3508 13.8256C38.8883 13.8969 40.2178 15.2976 40.3009 18.8351C40.3366 20.2122 40.3009 21.5892 40.2535 22.9662C40.2297 23.7259 40.4315 24.0821 41.31 24.1652C45.1205 24.5094 46.2008 25.6965 46.2364 29.5308C46.272 33.2701 46.272 37.0213 46.2364 40.7606C46.2008 44.7492 44.9187 46.1025 40.9301 46.1975C37.2857 46.2806 33.6295 46.2212 29.9733 46.2212L29.9852 46.2094ZM22.5659 30.433C22.5659 34.2198 22.5896 38.0066 22.554 41.7934C22.554 42.9092 22.8982 43.3841 24.0853 43.3603C28.0265 43.301 31.9795 43.301 35.9206 43.3366C37.0483 43.3366 37.5113 42.9924 37.4875 41.8053C37.4282 39.1462 37.4875 36.4871 37.4875 33.828C37.4875 29.056 37.5113 24.2839 37.4282 19.5118C37.3807 16.9833 37.0364 16.6984 34.6267 16.6628C31.5759 16.6272 28.5132 16.639 25.4505 16.6628C23.0051 16.6984 22.6015 17.1139 22.5777 19.6423C22.554 23.2392 22.5777 26.8242 22.5777 30.4211L22.5659 30.433ZM40.384 35.1694C40.384 35.1694 40.384 35.1694 40.3722 35.1694C40.3722 37.4843 40.3959 39.7991 40.3722 42.1139C40.3603 43.206 40.8945 43.4672 41.8679 43.3247C43.5892 43.0873 43.3636 41.6984 43.3755 40.6182C43.4348 37.0688 43.3874 33.5313 43.3518 29.9819C43.3518 29.3527 43.4111 28.5574 43.0669 28.1181C42.6514 27.5958 41.8679 27.2991 41.1913 27.0973C41.0607 27.0617 40.4434 27.9045 40.4315 28.3674C40.3484 30.6348 40.3959 32.9021 40.3959 35.1576L40.384 35.1694ZM19.6812 37.5317C19.6812 37.5317 19.6575 37.5317 19.6456 37.5317C19.6456 35.9529 19.6575 34.386 19.6456 32.8071C19.6338 31.6201 18.9927 31.0859 17.9837 31.6201C17.4139 31.9168 16.7848 32.7359 16.7491 33.3532C16.6067 36.0004 16.6779 38.6595 16.6898 41.3186C16.6898 41.6984 16.7254 42.2564 16.9628 42.4344C17.4851 42.838 18.138 43.1942 18.7791 43.2654C19.0402 43.2891 19.61 42.5413 19.6456 42.1139C19.7525 40.5944 19.6931 39.0631 19.6931 37.5436L19.6812 37.5317Z" fill="#202F66"/>
<path d="M29.997 37.3773C31.0298 37.4248 32.0982 37.3417 33.0834 37.591C33.5939 37.7216 34.3061 38.4576 34.2824 38.8849C34.2587 39.3716 33.5345 40.1907 33.0716 40.2145C31.0179 40.345 28.9405 40.345 26.8987 40.1788C26.4595 40.1432 25.7354 39.2648 25.7591 38.8018C25.7829 38.3389 26.5307 37.6622 27.053 37.5435C27.9908 37.3417 29.0117 37.4842 29.997 37.4842C29.997 37.4486 29.997 37.4129 29.997 37.3773Z" fill="#202F66"/>
<path d="M29.9021 19.761C30.9348 19.761 32.0032 19.6186 33.0003 19.8204C33.5227 19.9272 34.3418 20.7226 34.2824 21.0549C34.1637 21.6129 33.4871 22.432 32.9885 22.4794C31.0298 22.6456 29.0474 22.6456 27.0887 22.4794C26.5782 22.432 25.8185 21.6366 25.7354 21.0905C25.5929 20.2002 26.3171 19.7135 27.2549 19.7017C28.1452 19.7017 29.0355 19.7017 29.9139 19.7017C29.9139 19.7135 29.9139 19.7373 29.9139 19.7492L29.9021 19.761Z" fill="#202F66"/>
<path d="M29.9614 31.4772C30.9942 31.5247 32.0507 31.4297 33.036 31.6672C33.5583 31.7977 34.3537 32.5931 34.2824 32.9017C34.14 33.4597 33.4633 34.255 32.9648 34.2906C31.0179 34.4449 29.0355 34.4449 27.0887 34.2787C26.5782 34.2313 26.139 33.3884 25.6761 32.9017C26.1746 32.4506 26.602 31.7503 27.1837 31.5959C28.0621 31.3704 29.0355 31.5366 29.9733 31.5366V31.4535L29.9614 31.4772Z" fill="#202F66"/>
<path d="M30.1988 28.6045C29.0117 28.5452 28.0265 28.6758 27.1718 28.3909C26.5782 28.1891 26.1627 27.4293 25.6642 26.9307C26.1865 26.5034 26.6732 25.7555 27.2311 25.708C29.083 25.5537 30.9586 25.6131 32.8223 25.6843C33.6414 25.7199 34.5673 26.1117 34.3061 27.0732C34.1518 27.643 33.3565 28.2365 32.7273 28.4265C31.8607 28.6876 30.8873 28.5689 30.2107 28.6045H30.1988Z" fill="#202F66"/>
</svg>
