<svg width="60" height="60" viewBox="0 0 60 60" fill="none" xmlns="http://www.w3.org/2000/svg">
<path d="M0.0266952 30.1479C0.0266952 25.9325 -0.0402112 21.7172 0.0378193 17.5018C0.149291 11.5936 2.40103 6.69437 7.31695 3.23015C10.1038 1.26822 13.2696 0.147116 16.6695 0.113483C25.4312 0.0237949 34.204 -0.0995266 42.9657 0.135905C51.7609 0.371337 58.8505 6.31319 59.6977 15.4053C59.8538 17.0646 59.943 18.7238 59.943 20.3943C59.9653 27.8496 60.0767 35.3162 59.9095 42.7715C59.7758 48.59 57.4683 53.4668 52.6081 56.9198C49.7655 58.9378 46.5329 59.902 43.0772 59.9244C34.4493 59.9917 25.8213 60.0589 17.1934 59.9132C9.27887 59.7787 3.05872 55.2718 0.84042 47.8501C0.36109 46.2357 0.104724 44.498 0.0601355 42.8051C-0.0513366 38.5898 0.0266952 34.3744 0.0266952 30.1591V30.1479Z" fill="white"/>
<path d="M32.3682 23.5263C32.3952 26.6345 29.9815 29.1464 26.8922 29.2096C24.0461 29.2639 21.2451 26.6345 21.3172 23.698C21.3982 20.4814 23.6679 18.2406 26.9282 18.1593C29.7293 18.087 32.3412 20.7254 32.3682 23.5263ZM23.4517 23.9149C23.4787 25.7491 24.8657 27.0321 26.8292 27.0411C28.5044 27.0502 30.2517 25.3154 30.2427 23.6438C30.2427 21.9451 28.6215 20.3368 26.9012 20.3278C25.1089 20.3188 23.4247 22.0626 23.4517 23.9149Z" fill="#202F66"/>
<path d="M25.9729 32.3684C27.4292 32.4734 28.8951 32.4924 30.3324 32.7119C34.0541 33.2938 36.4622 37.4726 35.1772 41.0407C35.0535 41.3746 34.5966 41.7753 34.2825 41.7848C33.9779 41.7848 33.4734 41.3937 33.3783 41.0789C33.1784 40.411 33.1593 39.6859 33.1213 38.98C32.9785 36.0606 31.7411 34.7726 28.8475 34.7631C26.525 34.7631 24.1739 34.744 21.8705 35.0016C19.7193 35.2401 18.9673 36.2418 18.8245 38.398C18.7769 39.1517 18.9197 39.934 18.7294 40.64C18.6056 41.0979 18.0535 41.4414 17.6918 41.8421C17.3111 41.4509 16.6258 41.0789 16.6067 40.6686C16.3783 36.0033 17.4634 32.8645 23.3648 32.4638C24.231 32.4066 25.1067 32.4638 25.9729 32.4638C25.9729 32.4352 25.9729 32.397 25.9729 32.3684Z" fill="#202F66"/>
<path d="M40.2622 23.8389C40.2197 26.5186 38.2742 28.6889 35.3401 29.1984C34.9149 29.2739 34.075 28.9814 33.99 28.7077C33.8624 28.3209 34.1282 27.7264 34.4365 27.3584C34.7023 27.047 35.2657 26.9432 35.6803 26.7168C38.2423 25.2731 38.2211 21.98 35.6484 20.5741C35.6059 20.5552 35.574 20.5364 35.5315 20.5175C34.7235 20.0929 33.4372 19.7626 34.1601 18.6775C34.7767 17.7434 35.9142 18.2906 36.7753 18.6115C38.9759 19.4135 40.3047 21.4516 40.2622 23.8294V23.8389Z" fill="#202F66"/>
<path d="M43.4211 39.1011C43.3802 39.8726 43.4926 40.4106 43.2984 40.7761C43.0634 41.2329 42.5524 41.8521 42.1743 41.842C41.7757 41.842 41.1625 41.2227 41.0501 40.7761C40.815 39.8117 40.7946 38.7864 40.7537 37.7815C40.6924 36.2385 39.8033 35.335 38.5054 34.6955C38.2806 34.5838 37.974 34.5229 37.8411 34.3503C37.5447 33.9544 37.3403 33.4875 37.1053 33.051C37.5958 32.8073 38.0966 32.3302 38.5565 32.3708C40.7026 32.5536 42.6239 34.3199 43.0532 36.4212C43.2576 37.4059 43.3189 38.4108 43.4109 39.1011H43.4211Z" fill="#202F66"/>
</svg>
