<svg width="60" height="60" viewBox="0 0 60 60" fill="none" xmlns="http://www.w3.org/2000/svg">
<path d="M0.0266952 30.1479C0.0266952 25.9325 -0.0402112 21.7172 0.0378193 17.5018C0.149291 11.5936 2.40103 6.69437 7.31695 3.23015C10.1038 1.26822 13.2696 0.147116 16.6695 0.113483C25.4312 0.0237949 34.204 -0.0995266 42.9657 0.135905C51.7609 0.371337 58.8505 6.31319 59.6977 15.4053C59.8538 17.0646 59.943 18.7238 59.943 20.3943C59.9653 27.8496 60.0767 35.3162 59.9095 42.7715C59.7758 48.59 57.4683 53.4668 52.6081 56.9198C49.7655 58.9378 46.5329 59.902 43.0772 59.9244C34.4493 59.9917 25.8213 60.0589 17.1934 59.9132C9.27887 59.7787 3.05872 55.2718 0.84042 47.8501C0.36109 46.2357 0.104724 44.498 0.0601355 42.8051C-0.0513366 38.5898 0.0266952 34.3744 0.0266952 30.1591V30.1479ZM39.8334 24.363C39.8334 21.9302 47.3501 53.2889 45.7895 51.3158C42.3004 46.8986 36.9017 55.2632 36.9017 55.2632C36.9017 55.2632 31.2389 44.4966 34.8617 48.9474C29.6448 69.6556 14.3889 50.262 14.2105 51.3158C13.7089 54.2755 22.0424 39.3521 21.708 42.3343C21.6188 43.1639 22.0313 44.2626 22.5998 44.9128C23.3132 45.72 24.3164 45.2267 25.119 44.6886C23.9932 45.5743 26.3118 43.8814 25.119 44.6886C26.022 43.9711 30.3025 41.4486 31.2277 42.1885C32.387 43.1078 33.6355 43.9262 34.8617 44.7559C35.5975 45.2491 36.3554 45.7873 37.2807 45.1707C38.2393 44.5204 38.4957 43.5675 38.3174 42.4912C37.838 39.5315 37.2695 36.5718 36.9017 33.6009C36.7902 32.7264 36.9908 31.6389 37.459 30.9214C38.7744 28.9034 39.8334 26.8518 39.8222 24.3742L39.8334 24.363Z" fill="white"/>
<path d="M13.4211 29.5238C13.4696 21.0936 21.4193 13.1842 30.0485 13.4264C39.4546 13.6929 46.6032 20.6818 46.5789 29.8629C46.5546 39.3348 39.3454 46.6749 29.9636 46.578C20.4362 46.4811 13.6031 38.8866 13.4211 29.5117V29.5238ZM34.6484 28.47C34.3207 24.4245 33.0949 20.9846 30.7768 17.9443C29.9515 16.8542 29.381 17.5931 28.9198 18.2593C27.0629 20.9482 25.8371 23.9036 25.5943 27.174C25.5579 27.5737 26.1283 28.3852 26.4439 28.3973C29.1019 28.4942 31.7598 28.4579 34.6484 28.4579V28.47ZM29.9272 31.486C29.9272 31.486 29.9272 31.4496 29.9272 31.4375C28.8227 31.4375 27.7061 31.3406 26.6138 31.486C26.2133 31.5344 25.5336 32.2006 25.5822 32.5155C26.0191 35.7374 27.2085 38.6928 29.114 41.3454C29.8058 42.3144 30.3762 42.2781 31.0316 41.2728C32.7672 38.6323 33.7867 35.7132 34.2964 32.6245C34.345 32.2975 33.7503 31.5829 33.3862 31.5344C32.2453 31.3891 31.0802 31.486 29.9272 31.486ZM26.2983 42.6899C26.0798 42.266 25.8128 41.8542 25.6429 41.4181C24.7933 39.2742 23.9316 37.1425 23.1427 34.9743C22.7543 33.8963 22.8635 32.2733 22.1353 31.7888C21.2372 31.1953 19.7201 31.5102 18.47 31.4496C18.118 31.4375 17.7661 31.4496 17.4141 31.4496C16.6252 31.4496 16.3461 31.813 16.5038 32.6124C17.6326 37.9297 20.9945 41.1759 26.2983 42.6899ZM33.7017 42.9927C34.1265 42.9927 34.3328 43.0291 34.5149 42.9927C38.1802 42.0843 43.0592 36.343 43.3141 32.5276C43.3384 32.2006 42.7679 31.5465 42.4403 31.5223C41.0445 31.4133 39.6245 31.4012 38.2288 31.5465C37.8768 31.5829 37.4277 32.2612 37.3064 32.7093C36.9787 33.9084 36.9544 35.2045 36.5296 36.3552C35.7164 38.5475 34.7091 40.6671 33.7139 42.9927H33.7017ZM34.0173 17.0359C34.9882 19.7733 35.9349 22.329 36.8088 24.9211C37.185 26.0354 37.0636 27.6827 37.804 28.2035C38.6657 28.8091 40.2071 28.4942 41.4572 28.5063C43.6903 28.5184 43.8481 28.3246 43.1078 26.1808C41.5543 21.6992 38.6171 18.5863 34.0173 17.0359ZM26.2861 17.3266C25.922 17.2176 25.8249 17.157 25.7278 17.1692C25.5822 17.1692 25.4244 17.2176 25.2909 17.2661C20.861 19.095 18.0938 22.4017 16.6495 26.8954C16.2368 28.1551 16.5888 28.7001 17.9603 28.5427C18.555 28.47 19.1618 28.5306 19.7686 28.5306C22.4873 28.5306 22.548 28.5427 22.9364 25.987C23.4097 22.8983 24.3685 20.0035 26.274 17.3387L26.2861 17.3266Z" fill="#202F66"/>
</svg>
