<svg width="151" height="84" viewBox="0 0 151 84" fill="none" xmlns="http://www.w3.org/2000/svg">
<g clip-path="url(#clip0_114_1040)">
<path d="M46.0807 80.1753C40.785 79.1401 35.6889 77.4476 30.7205 75.3852C20.5602 71.1699 11.3073 65.68 4.83005 56.4324C3.35577 54.3275 2.15824 52.0708 1.41578 49.5933C1.38385 49.1568 1.42643 48.6991 1.30933 48.2893C-0.364535 42.5013 0.143746 36.9075 2.75434 31.4921C2.95127 31.0849 3.07901 30.6751 3.04441 30.2227C5.16003 25.8398 8.38004 22.3456 12.0152 19.2135C18.4259 13.6916 25.8452 9.94465 33.7116 6.9881C37.6448 5.50849 41.7057 4.45733 45.756 3.37424C46.392 3.20393 47.0547 3.13208 47.7067 3.01499C49.817 3.02297 51.8394 2.53332 53.8433 1.93189C53.9364 1.93722 54.0269 1.9452 54.12 1.95052C54.1839 2.00907 54.2638 2.12616 54.3143 2.11285C56.8131 1.52474 59.3572 1.30918 61.9093 1.1229C62.2392 1.09895 62.4974 0.949927 62.6358 0.633249L62.6517 0.630587C64.8552 0.606637 67.0666 0.707761 69.2594 0.537447C73.3336 0.218108 77.4079 0.321893 81.4741 0.444306C85.8304 0.574703 90.1601 1.14685 94.4845 1.68707C94.583 1.67908 94.6788 1.66844 94.7772 1.66046C96.169 2.10221 97.6114 2.25922 99.0457 2.47211C99.1282 2.43485 99.2107 2.42687 99.2959 2.45348C100.334 2.84733 101.497 2.80209 102.487 3.38755C102.75 3.5419 102.931 3.22256 103.083 3.01233C104.911 3.29973 106.611 4.14598 108.413 4.42008C111.394 4.87248 114.153 5.96089 116.934 6.97745C122.275 8.93074 127.406 11.2832 132.185 14.4606C134.748 16.1638 137.287 17.8403 139.522 19.9559C139.618 20.2699 139.78 20.5015 140.155 20.4749L140.137 20.4589C140.64 21.7256 141.638 22.516 142.758 23.1892L142.747 23.1813C143.798 24.9323 144.991 26.5716 146.452 28.0086L146.449 28.0033C146.688 29.3658 147.513 30.4116 148.322 31.4654L148.317 31.4548C148.267 31.8566 148.36 32.2186 148.511 32.6018C149.65 35.5024 150.441 38.467 150.446 41.6311C150.449 43.3555 149.98 45.04 150.169 46.7645C148.988 52.2305 146.207 56.8236 142.439 60.8686C139.102 64.4532 135.24 67.3805 131.067 69.9165C123.379 74.5949 115.039 77.6738 106.359 79.8773C100.158 81.45 93.8432 82.3921 87.4883 83.076C87.0067 83.1292 86.5143 83.076 86.03 83.0733C85.5058 83.0148 84.9921 82.9802 84.4546 83.0094C81.7615 83.1478 79.0365 83.3341 76.3753 83.2037C72.8466 83.0307 69.3153 83.1798 65.7839 82.8631C61.4782 82.4772 57.199 82.0089 52.9305 81.3143C50.6472 80.9417 48.4465 80.0715 46.086 80.1726L46.0807 80.1753ZM8.09795 54.857L8.09263 54.8517C8.24698 55.682 8.58761 56.3792 9.42321 56.7252L9.41523 56.7172C9.93948 58.399 10.9028 59.6498 12.111 60.2805C12.2919 60.3763 12.3744 60.6557 12.5527 60.7595C13.6598 61.4115 14.2426 62.8671 15.7727 62.8698C16.0415 64.1631 17.1166 64.4212 18.1571 64.7246L18.1811 64.7353C18.1571 65.3633 18.7027 65.5203 19.0912 65.7571C21.4037 67.1676 23.6524 68.719 26.0847 69.8846C27.7267 70.6696 29.3207 71.6117 31.0159 72.2211C32.5327 72.7666 34.023 73.4319 35.601 73.8205C37.5384 74.2941 39.308 75.4118 41.3917 75.3453C41.7696 75.6487 42.246 75.5742 42.6771 75.6753C43.84 75.9494 45.0561 76.0452 46.1126 76.6839C46.1446 76.8568 46.2004 77.1788 46.2058 77.1788C47.2037 77.0192 48.0153 77.727 48.9893 77.7483C51.8873 77.8122 54.6762 78.6718 57.5476 78.9991C59.5887 79.2306 61.6165 79.5899 63.6789 79.6111C64.2058 79.6111 64.7301 79.6111 65.257 79.6111C66.7792 80.162 68.4025 79.9917 69.9513 80.0635C74.9037 80.2897 79.8668 80.1833 84.8192 79.864C85.0933 79.8453 85.3461 79.8107 85.5457 79.6005C86.2083 79.5792 86.9109 79.6936 87.5282 79.5127C89.7477 78.866 92.0389 78.8288 94.3036 78.5493C94.6601 78.7755 95.0088 78.7676 95.4345 78.6771C97.0658 78.3285 98.7024 77.9506 100.358 77.7723C102.715 77.5168 105.06 76.9526 107.287 76.3805C109.387 75.8403 111.633 75.332 113.629 74.358C114.361 74.0014 115.529 74.4006 115.848 73.243C116.516 73.078 117.134 72.8411 117.762 72.5218C118.994 71.8964 120.21 71.1194 121.674 71.0954C122.264 70.675 123.159 70.7814 123.547 70.0123L123.534 70.0203C124.71 69.9272 125.668 69.4003 126.469 68.554C127.36 67.9925 128.244 67.4177 129.143 66.8695C135.144 63.2157 140.453 58.8328 143.99 52.6243C147.223 46.9481 147.913 40.9951 145.738 34.7866C143.612 28.7165 139.458 24.1712 134.498 20.3391C126.41 14.0934 117.086 10.421 107.338 7.69597C107.234 7.12914 106.736 7.26486 106.383 7.1797C102.5 6.23765 98.6279 5.30624 94.6442 4.76337C89.886 4.11405 85.1119 3.65633 80.3351 3.33433C76.0187 3.04426 71.6651 3.17466 67.3567 3.59512C65.6509 3.76011 63.9344 3.75745 62.2259 3.97566C60.2487 4.22848 58.3114 4.74208 56.2836 4.79264C54.8519 4.8299 53.2711 4.71014 51.9698 5.65486C51.1741 5.51648 50.5727 6.08863 49.8515 6.23765C40.5056 8.15635 31.5082 11.073 23.1681 15.7886C18.1013 18.652 13.4815 22.0902 9.73723 26.6168C8.15384 28.5302 6.93769 30.6671 5.69759 32.796C4.47079 34.6242 4.05565 36.676 3.72034 38.8315C2.9699 43.6695 3.97582 48.119 6.17393 52.3822C6.44803 52.9117 6.70351 53.5078 7.2996 53.8059L7.29428 53.7926C7.34218 54.3142 7.43532 54.8038 8.10061 54.8597L8.09795 54.857Z" fill="#E62329"/>
<path d="M46.0807 80.1755C48.4411 80.0717 50.6419 80.9446 52.9252 81.3171C57.191 82.0117 61.4728 82.4801 65.7786 82.8659C69.3126 83.1826 72.844 83.0336 76.37 83.2066C79.0312 83.337 81.7562 83.1507 84.4493 83.0123C84.9842 82.9857 85.5004 83.0176 86.0247 83.0762C81.8946 83.5951 77.7378 83.5685 73.5891 83.5392C67.4418 83.4966 61.3185 83.0549 55.2484 82.0596C52.1721 81.554 49.0638 81.1548 46.0807 80.1782V80.1755Z" fill="#BF373E"/>
<path d="M94.4818 1.68711C90.1575 1.1469 85.8277 0.572087 81.4714 0.444352C77.4025 0.321938 73.3309 0.220814 69.2567 0.537492C67.0639 0.707807 64.8525 0.609344 62.649 0.630633C70.8454 -0.191665 79.0418 -0.199649 87.2488 0.540154C89.1329 0.710468 91.0064 0.934005 92.8851 1.1469C93.4626 1.21077 94.0294 1.27463 94.4845 1.68445L94.4818 1.68711Z" fill="#BF373E"/>
<path d="M3.03899 30.2229C3.07625 30.6753 2.94585 31.0851 2.74892 31.4923C0.138325 36.9077 -0.369957 42.5015 1.30391 48.2895C1.42366 48.6993 1.37843 49.1571 1.41036 49.5935C-0.942106 42.8927 -0.3327 36.442 3.03633 30.2229H3.03899Z" fill="#BF373E"/>
<path d="M150.164 46.7618C149.975 45.0374 150.443 43.3502 150.441 41.6284C150.435 38.467 149.645 35.4998 148.506 32.5991C148.354 32.2132 148.261 31.854 148.312 31.4521C150.449 35.4465 151.034 39.731 150.622 44.1805C150.542 45.0427 150.539 45.9422 150.161 46.7618H150.164Z" fill="#BF373E"/>
<path d="M62.6305 0.635986C62.4894 0.952664 62.2339 1.10169 61.904 1.12564C59.3546 1.31192 56.8078 1.52747 54.309 2.11559C54.2611 2.12624 54.1813 2.00914 54.1147 1.95326C55.2351 1.20015 56.5603 1.37047 57.7951 1.1762C59.3945 0.926053 61.0151 0.808962 62.6278 0.635986H62.6305Z" fill="#BF373E"/>
<path d="M53.8406 1.93457C51.8368 2.53599 49.8143 3.02565 47.704 3.01766C49.7052 2.40293 51.7383 1.97715 53.8406 1.93457Z" fill="#BF373E"/>
<path d="M146.449 28.0061C144.988 26.569 143.796 24.9298 142.745 23.1787C144.267 24.5652 145.499 26.1778 146.449 28.0061Z" fill="#BF373E"/>
<path d="M99.043 2.47226C97.6087 2.25937 96.1637 2.10236 94.7745 1.6606C96.302 1.37852 97.7204 1.67923 99.043 2.47226Z" fill="#BF373E"/>
<path d="M103.08 3.01254C102.931 3.22277 102.747 3.54211 102.484 3.38776C101.491 2.80231 100.331 2.84755 99.2932 2.4537C100.632 2.12105 101.84 2.67457 103.08 3.01254Z" fill="#BF373E"/>
<path d="M142.758 23.1866C141.638 22.5134 140.637 21.7257 140.137 20.4563C141.092 21.2866 142.05 22.1169 142.758 23.1866Z" fill="#BF373E"/>
<path d="M148.32 31.4629C147.511 30.4091 146.686 29.3632 146.446 28.0007C147.311 29.0253 147.929 30.1829 148.32 31.4629Z" fill="#BF373E"/>
<path d="M140.153 20.475C139.777 20.5016 139.615 20.2701 139.519 19.9561C139.807 20.0386 140.041 20.1796 140.153 20.475Z" fill="#BF373E"/>
<path d="M107.338 7.69595C102.436 6.53835 97.5155 5.47388 92.5098 4.86448C87.0199 4.19653 81.5192 3.79203 75.9787 3.80534C70.707 3.81864 65.4565 4.00758 60.2246 4.62764C57.811 4.91238 55.4106 5.29026 53.0049 5.62823C52.659 5.67613 52.3183 5.81983 51.9697 5.65218C53.271 4.70747 54.8518 4.82722 56.2835 4.78997C58.3113 4.7394 60.2486 4.2258 62.2258 3.97299C63.937 3.75478 65.6534 3.75744 67.3566 3.59244C71.665 3.17198 76.0186 3.03892 80.335 3.33165C85.1118 3.65365 89.8859 4.11137 94.6441 4.76069C98.6278 5.30357 102.497 6.23498 106.382 7.17703C106.736 7.26218 107.234 7.12646 107.338 7.69329V7.69595Z" fill="#BF373E"/>
<path d="M18.1783 64.738C21.2813 66.5769 24.3043 68.5461 27.5909 70.063C31.6358 71.9311 35.7686 73.5544 40.0398 74.8185C40.5002 74.9542 40.9392 75.1671 41.3863 75.3427C39.3053 75.4119 37.5356 74.2942 35.5956 73.8179C34.0176 73.432 32.5273 72.7667 31.0105 72.2185C29.3153 71.6091 27.7213 70.6671 26.0793 69.882C23.647 68.7164 21.3984 67.165 19.0858 65.7546C18.6973 65.5177 18.1517 65.3607 18.1757 64.7327L18.1783 64.738Z" fill="#BF373E"/>
<path d="M94.3009 78.5495C96.5948 78.1078 98.8887 77.6793 101.18 77.2189C105.946 76.2662 110.622 74.9809 115.207 73.3576C115.409 73.2857 115.635 73.2804 115.851 73.2432C115.529 74.4008 114.363 74.0016 113.632 74.3582C111.636 75.3295 109.39 75.8405 107.29 76.3807C105.063 76.9528 102.715 77.517 100.36 77.7725C98.7051 77.9508 97.0685 78.3286 95.4372 78.6772C95.0114 78.7677 94.6628 78.7757 94.3062 78.5495H94.3009Z" fill="#BF373E"/>
<path d="M46.11 76.6813C47.877 76.6174 49.5375 77.2428 51.2407 77.5488C54.8811 78.2035 58.5269 78.7783 62.21 79.1189C62.7342 79.1668 63.2665 79.2067 63.6736 79.6086C61.6086 79.5873 59.5834 79.228 57.5423 78.9965C54.6709 78.6692 51.882 77.8123 48.984 77.7458C48.01 77.7245 47.201 77.0166 46.2004 77.1763C46.1951 77.1763 46.1392 76.8543 46.1073 76.6813H46.11Z" fill="#BF373E"/>
<path d="M65.2543 79.6085C66.1165 79.3318 66.984 79.5739 67.8436 79.6059C73.6422 79.8214 79.4356 79.88 85.2263 79.4222C85.3274 79.4143 85.4365 79.5367 85.543 79.6005C85.346 79.8108 85.0906 79.8454 84.8165 79.864C79.864 80.1833 74.8983 80.2898 69.9486 80.0636C68.3998 79.9917 66.7765 80.162 65.2543 79.6112V79.6085Z" fill="#BF373E"/>
<path d="M5.69493 32.7961C5.18399 34.6536 4.40959 36.4313 4.1009 38.3553C3.26263 43.5871 4.34306 48.4224 6.99092 52.9544C7.14793 53.2258 7.31824 53.476 7.29695 53.8033C6.70085 53.5053 6.44272 52.9092 6.17128 52.3796C3.97582 48.1191 2.96991 43.667 3.71769 38.829C4.053 36.6734 4.46814 34.6217 5.69493 32.7935V32.7961Z" fill="#BF373E"/>
<path d="M9.41516 56.7173C11.1768 58.4018 12.6964 60.3285 14.6257 61.8427C15.0275 62.1594 15.3921 62.5266 15.7727 62.8699C14.2425 62.8699 13.6597 61.4116 12.5527 60.7596C12.3744 60.6531 12.2919 60.3737 12.1109 60.2806C10.9027 59.6499 9.94207 58.3991 9.41516 56.7173Z" fill="#BF373E"/>
<path d="M15.77 62.8699C16.5976 63.4447 17.4519 63.9876 18.1544 64.7247C17.1139 64.4213 16.0388 64.1632 15.77 62.8699Z" fill="#BF373E"/>
<path d="M123.536 70.0205C124.425 69.3552 125.405 68.8629 126.472 68.5542C125.673 69.4004 124.713 69.93 123.536 70.0205Z" fill="#BF373E"/>
<path d="M8.08997 54.8518C8.56365 55.4532 9.12782 55.9934 9.42055 56.7253C8.58228 56.3793 8.24431 55.6821 8.08997 54.8518Z" fill="#BF373E"/>
<path d="M121.676 71.0955C122.073 70.3424 122.815 70.1828 123.55 70.0125C123.161 70.7815 122.267 70.6751 121.676 71.0955Z" fill="#BF373E"/>
<path d="M7.29163 53.79C7.71209 54.0322 7.93563 54.4207 8.09796 54.8572C7.43267 54.8013 7.33953 54.3116 7.29163 53.79Z" fill="#BF373E"/>
<path d="M105.188 35.7661C103.312 38.0254 101.467 40.314 99.5406 42.5281C99.0084 43.1375 99.0536 43.5021 99.5087 44.0795C100.374 45.1786 101.164 46.3362 101.986 47.4698C101.994 47.8557 102.178 48.1112 102.553 48.223L102.545 48.2096C103.101 50.1709 104.488 51.5042 105.983 52.7549L105.989 52.7602C106.005 53.2525 106.539 54.0482 105.518 54.0243C103.495 53.9737 101.137 54.8812 99.8839 52.2732C99.8094 52.1162 99.514 52.063 99.3198 51.9619L99.3224 51.9699C99.0749 50.6925 98.1941 49.7478 97.4995 48.7339C97.1749 48.2629 96.8928 47.5257 96.1104 47.4619L96.1237 47.4645C96.1184 47.2942 96.0332 47.1984 95.8656 47.1691L95.8709 47.1771C95.9348 46.589 95.7751 46.1579 95.0992 46.0967L95.0885 46.0754C95.1045 45.8199 95.022 45.631 94.7452 45.5778C94.4977 45.2345 94.2476 44.8885 94.0001 44.5452C94.2849 43.7708 93.4652 43.6058 93.1991 43.6005C92.5604 43.5872 92.9649 44.162 92.9383 44.4893C92.9197 44.6996 92.9649 44.9178 92.9782 45.1307C93.0128 45.1706 93.0208 45.2132 93.0022 45.2611C92.6695 45.5112 92.6589 45.8758 92.7015 46.2271C92.9197 48.0739 92.9623 49.9234 92.9356 51.7783C92.9011 53.9232 92.776 54.0669 90.7056 54.0695C90.3064 54.0695 89.9046 54.0323 89.5107 54.0802C88.6059 54.1866 88.3904 53.7608 88.3984 52.9252C88.433 49.1171 88.4117 45.3116 88.4117 41.5035C88.4117 37.1658 88.4064 32.8255 88.4197 28.4878C88.4197 28.0753 88.2147 27.4127 88.7337 27.3169C89.9019 27.1013 91.1713 26.9523 92.2677 27.3754C93.1618 27.7214 92.9277 28.8178 92.925 29.6427C92.9037 33.7143 92.8638 37.7832 92.8478 41.8548C92.8478 42.3311 92.8425 42.9086 93.396 43.1002C94.0267 43.3184 94.1917 42.7037 94.4685 42.3311C94.7559 41.94 95.0646 41.5594 95.0672 41.0352L95.0646 41.0378C95.7245 40.8382 96.1716 40.4657 96.1344 39.7046L96.129 39.7099C96.6453 39.7418 96.6985 39.3959 96.7065 39.01L96.7358 38.9328C96.805 38.8424 96.8742 38.7545 96.9407 38.6641L96.9487 38.6561C97.3266 38.6641 97.4969 38.4804 97.457 38.1026L97.449 38.1132C97.6193 38.0839 97.7044 37.9855 97.7071 37.8125L97.6938 37.8364C97.8907 37.7832 97.9706 37.6448 97.9759 37.4532L97.9652 37.384L98.0264 37.3521C98.1089 37.2616 98.1888 37.1712 98.2713 37.0833L98.2952 37.0647C99.0457 36.937 99.373 36.4793 99.3411 35.7368C99.4235 35.6383 99.506 35.5425 99.5859 35.4441L99.5726 35.4547C99.6631 35.3589 99.7535 35.2604 99.8414 35.1646L99.828 35.1806C100.004 35.1567 100.094 35.0609 100.086 34.8799L100.092 34.8852C101.457 34.9012 102.825 34.9411 104.19 34.9225C104.82 34.9145 105.23 35.0502 105.182 35.7794L105.188 35.7661Z" fill="#E62329"/>
<path d="M57.034 54.0083C56.9329 54.0349 56.8344 54.0589 56.7333 54.0855C53.5532 54.985 50.4184 54.5645 47.2942 53.7661L47.225 53.7103C46.424 52.8268 45.5857 51.9832 44.5132 51.4217L44.5186 51.427C44.5585 51.0092 44.5532 50.6207 43.9677 50.634H43.973C43.5765 49.6334 43.5126 48.4811 42.6478 47.6907L42.6531 47.6987C42.6531 45.5565 42.6531 43.4169 42.6504 41.2747C42.6212 41.1948 42.6371 41.1283 42.6983 41.0724C43.7947 39.9255 44.13 38.3261 45.0641 37.0833C45.0641 37.0833 45.0881 37.0647 45.0907 37.0647C45.458 37.078 45.6336 36.905 45.6043 36.5351L45.6096 36.5245C47.4086 35.5745 49.0931 34.3823 51.2965 34.4648C53.3589 34.5446 55.4453 34.3876 57.2176 35.7394C57.5662 36.0056 57.9601 35.9923 58.3566 35.9869H58.3539C58.7717 37.573 60.0544 38.531 61.0524 39.6966L61.0444 39.6806C61.2892 40.9633 61.5553 42.246 61.7735 43.534C62.0423 45.1147 61.8667 45.3143 60.2992 45.3143C56.3661 45.3143 52.4302 45.3037 48.497 45.3143C47.0121 45.3196 46.7752 45.6736 46.9163 47.1532C47.1185 49.2555 48.4837 50.4982 50.1975 51.2434C52.2253 52.1269 55.1659 51.9033 56.225 49.793L56.2144 49.801C56.5284 49.8409 56.8557 49.8409 57.0713 49.5934C57.9148 48.6301 59.0272 49.0452 60.0278 49.0452C60.7277 49.0452 60.8554 49.5455 60.5867 50.1629C60.3684 50.6659 59.8016 51.0331 59.9746 51.6904L59.9772 51.6878C59.0485 52.1987 58.1277 52.723 57.1883 53.2153C56.7679 53.4362 57.0686 53.7395 57.034 54.003V54.0083ZM47.3979 40.7291C46.9429 40.9873 46.424 41.256 46.4772 41.8575C46.5198 42.3444 47.0254 42.3471 47.4086 42.4269C47.6987 42.6904 48.0606 42.6585 48.4092 42.6585C50.9187 42.6585 53.4281 42.6638 55.9376 42.6585C56.3261 42.6585 56.7413 42.7223 57.0526 42.387C57.8457 41.5647 57.2788 39.7711 56.0254 39.1324C56.1265 38.2276 55.887 37.6528 54.8119 37.8338C54.6044 37.8684 54.3808 37.8018 54.1653 37.7806C52.9305 36.8279 51.6079 37.3814 50.3305 37.6076C49.322 37.7859 48.356 38.1345 48.199 39.3906C47.4778 39.5662 47.4485 40.1543 47.3979 40.7318V40.7291Z" fill="#E62329"/>
<path d="M73.2804 34.6936C73.323 34.6245 73.3842 34.6005 73.4614 34.6271C76.0746 34.4195 78.7012 34.0869 81.1495 35.4414C81.1787 35.4574 81.2346 35.4308 81.2798 35.4228V35.4175C81.5167 36.1493 81.6923 36.929 82.6557 37.0434C82.9111 37.2058 82.8872 37.4586 82.8739 37.7087C83.0336 39.4997 83.3183 41.2933 83.3236 43.0843C83.3316 46.1686 83.5099 49.2582 83.1453 52.3451C82.9431 54.0456 83.0602 54.0589 81.3091 54.0589C81.0004 54.0589 80.6864 54.0296 80.3804 54.0642C79.2494 54.1973 78.8156 53.7742 78.8369 52.5793C78.9034 48.9548 78.8662 45.3276 78.8529 41.7031C78.8529 41.1629 79.0498 40.503 78.2674 40.2635L78.2781 40.2821C78.3552 40.0266 78.318 39.819 78.0439 39.7099L78.0492 39.7206C77.7857 38.2223 76.7905 37.5278 75.3854 37.8657C75.2071 37.8631 75.0261 37.8604 74.8478 37.8578C74.2092 36.7587 73.4773 37.7354 72.836 37.8338C71.9818 37.9669 71.0583 38.2649 71.1674 39.4811L71.1808 39.4545C70.1163 40.298 69.8422 41.4823 69.8315 42.7437C69.8076 45.6656 69.8236 48.5876 69.8236 51.5122C69.8236 54.1946 69.4164 54.5166 66.718 53.9737C66.6328 53.9551 66.5503 53.9019 66.4625 53.8992C65.728 53.8753 65.5231 53.4894 65.5258 52.7815C65.5551 47.2463 65.5471 41.7111 65.5524 36.1759C65.5524 35.7821 65.4885 35.3243 65.9569 35.1434C67.0693 34.7149 68.2668 34.7575 69.3392 35.0662C70.1775 35.3084 69.757 36.2717 69.7384 36.945C69.7224 37.4905 69.9965 37.9296 70.4596 37.4639C71.3936 36.5298 72.6923 35.963 73.2831 34.6883L73.2804 34.6936Z" fill="#E62329"/>
<path d="M118.922 45.7799C116.841 45.7799 114.757 45.8278 112.676 45.7586C111.646 45.724 111.495 46.1418 111.649 47.0146C111.99 48.9573 113.419 50.4236 115.3 50.9585C117.671 51.6344 119.459 50.8893 120.867 48.9866C121.139 48.6193 121.474 48.5235 121.897 48.5315C122.871 48.5501 123.848 48.5661 124.822 48.5395C125.708 48.5155 125.902 48.7976 125.545 49.6439C124.276 52.659 121.924 54.1944 118.813 54.8012C114.193 55.7033 109.714 53.7527 107.607 49.8727C105.645 46.2642 106.055 40.7503 108.706 37.5862C111.553 34.1905 115.281 33.331 119.499 34.3502C123.009 35.1991 125.724 38.5814 126.269 42.7062C126.541 44.7642 125.642 45.7914 123.574 45.7878C122.022 45.7852 120.473 45.7878 118.922 45.7878C118.922 45.7852 118.922 45.7799 118.922 45.7772V45.7799ZM113.711 51.4189H113.709C113.216 50.3996 111.62 50.2346 111.678 48.7896C111.678 48.7683 111.604 48.7497 111.569 48.7204C110.651 47.9407 111.026 46.8789 111.157 45.9981C111.29 45.0986 112.258 45.3168 112.937 45.3142C116.836 45.3035 120.734 45.3168 124.633 45.3142C126.011 45.3142 126.147 45.1199 125.849 43.7467C125.367 41.5247 124.67 39.417 123.31 37.5303C121.982 35.6861 119.404 34.5711 117.205 35.1006C116.772 35.2044 116.33 35.1884 115.896 35.0474C115.159 34.8052 114.427 34.8851 113.677 35.0394C110.712 35.6435 109.057 37.8629 107.87 40.2633C106.492 43.0469 106.925 46.0513 107.812 48.9892C108.176 50.1974 109.52 50.6125 109.797 51.8739C109.922 52.4434 110.93 51.8979 111.231 52.5578C111.819 53.8538 113.067 53.9017 114.217 54.072C114.826 54.1625 115.486 53.9895 116.069 54.1386C119.851 55.1099 122.179 52.8825 124.414 50.4262C124.736 50.0723 124.678 49.7051 124.308 49.3857C123.651 48.8162 121.152 49.1968 121.022 50.0164C120.83 51.2166 120.085 51.1847 119.26 51.2246C118.77 51.2459 118.273 51.2672 118.001 51.7462C117.663 52.3396 118.52 52.4061 118.477 53.1167C117.237 51.339 115.359 51.7542 113.709 51.4135L113.711 51.4189Z" fill="#BF373E"/>
<path d="M21.8934 38.1292C25.3023 38.1212 28.7139 38.0573 32.1229 38.1398C33.3789 38.1691 33.6663 37.7513 33.6317 36.5671C33.5492 33.693 33.6371 30.811 33.5865 27.9343C33.5732 27.1146 33.8127 26.8272 34.6217 26.8565C35.8166 26.9017 37.0141 26.9044 38.2089 26.8618C38.9062 26.8379 39.1137 27.0907 39.1137 27.7746C39.1004 36.3196 39.1031 44.8646 39.1244 53.4069C39.1244 54.1254 38.9434 54.4527 38.153 54.4128C37.0061 54.3543 35.8485 54.3463 34.7015 54.4181C33.7967 54.474 33.5785 54.1094 33.5918 53.2685C33.6344 50.1709 33.5732 47.0707 33.6344 43.9731C33.6557 42.874 33.2938 42.4882 32.1894 42.5281C28.6979 42.6585 25.1985 42.3631 21.7071 42.6931L21.6193 42.6239C21.8322 41.8548 22.4708 42.1262 22.9472 42.1236C26.0927 42.1049 29.2408 42.1156 32.3863 42.1209C33.9032 42.1209 34.1374 42.3524 34.14 43.9119C34.1453 46.8365 34.132 49.7611 34.14 52.6831C34.14 53.1488 33.9777 53.8327 34.5791 53.9391C35.7899 54.1494 37.0407 54.2345 38.2488 53.8673C38.7305 53.7209 38.672 53.2472 38.672 52.8507C38.672 44.8752 38.6667 36.9024 38.6853 28.9269C38.6853 28.2376 38.4751 27.5351 37.9189 27.3595C36.873 27.0268 35.6622 26.9523 34.6723 27.3754C33.9857 27.6682 34.1374 28.6927 34.1374 29.4405C34.1374 32.0112 34.1374 34.5792 34.148 37.1499C34.1507 37.9376 33.9804 38.6428 33.0197 38.5683C29.6214 38.3075 26.2311 38.2383 22.8381 38.6188C22.4256 38.6641 22.0264 38.6694 21.8401 38.1877L21.8934 38.1292Z" fill="#BF373E"/>
<path d="M134.54 40.7689C134.54 44.9708 134.519 49.1755 134.559 53.3775C134.567 54.1678 134.413 54.4951 133.556 54.426C132.59 54.3488 131.605 54.3461 130.636 54.4206C129.604 54.5005 129.394 54.056 129.402 53.1113C129.442 47.8901 129.423 42.6689 129.42 37.4504C129.42 34.3528 129.465 31.2552 129.38 28.1603C129.351 27.0586 129.742 26.7845 130.735 26.859C131.616 26.9255 132.51 26.9308 133.388 26.8563C134.317 26.7765 134.586 27.0746 134.572 28.0272C134.516 32.2745 134.548 36.5217 134.548 40.7689H134.54ZM134.208 40.8274C134.208 37.1071 134.208 33.3868 134.208 29.6692C134.208 27.2635 134.133 27.189 131.677 27.2129C130.056 27.2289 129.936 27.3433 129.934 28.948C129.934 36.3886 129.934 43.8265 129.934 51.2672C129.934 54.1119 129.934 54.0534 132.755 54.096C133.979 54.1146 134.24 53.6276 134.226 52.5206C134.176 48.6246 134.208 44.726 134.208 40.8301V40.8274Z" fill="#BF373E"/>
<path d="M73.2804 34.6936C72.6896 35.9683 71.391 36.5352 70.4569 37.4692C69.9912 37.9349 69.7171 37.4958 69.7357 36.9503C69.757 36.277 70.1748 35.3137 69.3365 35.0715C68.2641 34.7602 67.0666 34.7176 65.9542 35.1487C65.4859 35.3297 65.5497 35.7874 65.5497 36.1812C65.5444 41.7164 65.5497 47.2517 65.5231 52.7869C65.5204 53.4947 65.7254 53.8806 66.4598 53.9046C66.545 53.9072 66.6275 53.9604 66.7153 53.9791C69.4137 54.5219 69.8209 54.1999 69.8209 51.5175C69.8209 48.5955 69.8049 45.6736 69.8289 42.749C69.8395 41.4902 70.1163 40.306 71.1781 39.4598C69.8848 42.4722 70.4915 45.6496 70.3771 48.7632C70.3185 50.3093 70.3398 51.8608 70.3771 53.4096C70.393 54.1361 70.1881 54.4528 69.4004 54.4102C68.2535 54.349 67.0985 54.3596 65.9489 54.4102C65.3448 54.4368 65.2011 54.2132 65.2038 53.6571C65.2197 47.5497 65.2251 41.4397 65.2091 35.3323C65.2091 34.7069 65.4034 34.4355 66.0341 34.4648C66.5636 34.4887 67.0959 34.4595 67.6281 34.4648C69.2248 34.4825 70.0719 35.3607 70.1695 37.0993C71.1834 36.1174 71.9658 35.0236 73.2777 34.6936H73.2804Z" fill="#BF373E"/>
<path d="M95.0699 41.0297C95.0699 41.5513 94.7586 41.9345 94.4712 42.3257C94.1944 42.6982 94.0321 43.313 93.3987 43.0948C92.8452 42.9032 92.8479 42.3257 92.8505 41.8493C92.8665 37.7778 92.9064 33.7088 92.9277 29.6373C92.933 28.8097 93.1672 27.7159 92.2704 27.37C91.174 26.9468 89.9046 27.0959 88.7364 27.3114C88.2175 27.4072 88.4224 28.0672 88.4224 28.4823C88.4091 32.82 88.4144 37.1604 88.4144 41.4981C88.4144 45.3062 88.433 49.1116 88.4011 52.9198C88.3931 53.7554 88.6086 54.1811 89.5134 54.0747C89.9073 54.0295 90.3091 54.0641 90.7083 54.0641C92.7787 54.0641 92.9038 53.9177 92.9383 51.7728C92.9676 49.9153 92.9224 48.0658 92.7042 46.2216C92.6616 45.8703 92.6722 45.5058 93.0049 45.2556C93.5318 45.8251 93.2311 46.517 93.2444 47.145C93.2896 49.1835 93.2311 51.2219 93.271 53.2604C93.287 54.08 93.098 54.4898 92.1719 54.4313C91.1128 54.3648 90.043 54.3834 88.9812 54.4446C88.2414 54.4872 88.103 54.1652 88.103 53.5105C88.1217 44.9123 88.127 36.3141 88.103 27.7186C88.103 26.9708 88.3984 26.8377 89.0424 26.8643C90.0616 26.9043 91.0862 26.9362 92.1001 26.859C93.0342 26.7898 93.295 27.1172 93.2843 28.0432C93.2364 32.3863 93.2524 36.7293 93.263 41.0723C93.263 41.5406 93.106 42.0463 93.4546 42.4987C94.2556 42.2884 94.402 41.3703 95.0673 41.0324L95.0699 41.0297Z" fill="#BF373E"/>
<path d="M56.2223 49.7982C55.1631 51.9085 52.2226 52.1294 50.1947 51.2485C48.481 50.5034 47.1158 49.2606 46.9135 47.1583C46.7725 45.6814 47.0093 45.3248 48.4943 45.3195C52.4275 45.3088 56.3633 45.3195 60.2965 45.3195C61.8639 45.3195 62.0396 45.1199 61.7708 43.5391C61.5526 42.2511 61.2865 40.9711 61.0416 39.6858C62.0343 41.3863 62.1434 43.2624 62.1247 45.1598C62.1167 45.9235 61.5366 45.7825 61.0682 45.7825C57.0472 45.7852 53.0289 45.7852 49.0079 45.7852C47.1584 45.7852 47.2196 45.7852 47.6001 47.6294C48.1244 50.1681 51.9351 52.4088 54.9928 50.5433C55.4026 50.2932 55.8125 50.0457 56.2196 49.7955L56.2223 49.7982Z" fill="#BF373E"/>
<path d="M21.7044 42.6904C21.7044 46.2324 21.6752 49.7717 21.7178 53.3137C21.7284 54.1839 21.4703 54.466 20.6027 54.4128C19.501 54.3463 18.3886 54.3702 17.2843 54.4261C16.5072 54.466 16.2198 54.2558 16.2225 53.4015C16.2517 44.8592 16.2411 36.3169 16.2145 27.7746C16.2145 27.08 16.4194 26.8272 17.1139 26.8565C18.1758 26.9017 19.2429 26.939 20.2994 26.8565C21.3638 26.774 21.755 27.0773 21.7231 28.219C21.6406 31.0505 21.6911 33.8846 21.7044 36.7161C21.7044 37.1898 21.5634 37.6927 21.8907 38.1265L21.8375 38.185C21.2148 37.9429 21.3771 37.4053 21.3745 36.9369C21.3718 34.7255 21.3878 32.5114 21.3745 30.3C21.3532 26.742 21.8029 27.3142 18.2609 27.1811C16.8878 27.1306 16.5365 27.6122 16.5471 28.9269C16.603 36.1838 16.5471 43.4408 16.587 50.6978C16.6083 54.6017 15.8659 53.9897 20.0572 54.0775C21.1429 54.1014 21.4091 53.6437 21.3931 52.6484C21.3452 49.7717 21.3665 46.895 21.3771 44.021C21.3771 43.5499 21.2334 43.039 21.6113 42.6238L21.6991 42.693L21.7044 42.6904Z" fill="#BF373E"/>
<path d="M78.262 40.2686C79.0444 40.5081 78.8475 41.1681 78.8475 41.7083C78.8608 45.3328 78.8981 48.9599 78.8315 52.5844C78.8102 53.7793 79.244 54.2024 80.375 54.0694C80.681 54.0321 80.9924 54.064 81.3037 54.064C83.0521 54.064 82.9377 54.0507 83.1399 52.3502C83.5072 49.2633 83.3289 46.1737 83.3182 43.0894C83.3129 41.2984 83.0282 39.5048 82.8685 37.7139C83.5817 38.797 83.6429 40.053 83.6589 41.2665C83.7174 45.2849 83.6589 49.3059 83.7068 53.3269C83.7174 54.221 83.4087 54.4792 82.5651 54.4286C81.5512 54.3674 80.5293 54.3514 79.5181 54.4233C78.6612 54.4845 78.4962 54.1332 78.5042 53.3615C78.5415 50.4023 78.5202 47.4404 78.5148 44.4812C78.5148 43.0734 78.5867 41.6604 78.2567 40.2712L78.262 40.2686Z" fill="#BF373E"/>
<path d="M58.3566 35.9974C57.9574 36.0001 57.5662 36.0134 57.2176 35.7499C55.4426 34.3981 53.3563 34.5551 51.2965 34.4752C49.0931 34.3901 47.4086 35.5823 45.6096 36.535C48.7232 33.3043 54.9609 33.0435 58.3566 36.0001V35.9974Z" fill="#BF373E"/>
<path d="M99.3198 51.9592C99.5141 52.0604 99.8068 52.1136 99.884 52.2706C101.137 54.8759 103.495 53.9711 105.518 54.0216C106.54 54.0456 106.002 53.2499 105.989 52.7576C106.489 53.1355 106.766 53.681 107.255 54.4181C105.124 54.4181 103.139 54.6071 101.215 54.341C100.209 54.2026 99.8042 52.8906 99.3198 51.9592Z" fill="#BF373E"/>
<path d="M59.9719 51.6982C59.8016 51.0409 60.3657 50.6737 60.584 50.1707C60.8554 49.5507 60.725 49.0504 60.0251 49.053C59.0219 49.053 57.9122 48.6379 57.0686 49.6012C56.853 49.8487 56.523 49.8487 56.2117 49.8088C56.4964 48.8242 57.1245 48.4223 58.165 48.5235C58.9952 48.6033 59.8388 48.5714 60.6744 48.5368C61.6378 48.4942 61.7309 48.9173 61.3317 49.6465C60.9379 50.3677 60.717 51.2059 59.9719 51.6982Z" fill="#BF373E"/>
<path d="M47.2942 53.7688C50.4157 54.5671 53.5532 54.9849 56.7333 54.0881C53.5373 55.4613 50.3944 55.2936 47.2942 53.7688Z" fill="#BF373E"/>
<path d="M81.2798 35.4253C81.2372 35.4332 81.1813 35.4599 81.1494 35.4439C78.7011 34.0894 76.0746 34.4194 73.4613 34.6296C76.2023 33.5651 78.8315 33.6024 81.2798 35.4253Z" fill="#BF373E"/>
<path d="M96.1132 47.4565C96.8929 47.5204 97.1776 48.2575 97.5023 48.7286C98.1968 49.7425 99.0777 50.6898 99.3252 51.9645C98.0638 50.5967 97.0339 49.0639 96.1132 47.4539V47.4565Z" fill="#BF373E"/>
<path d="M105.983 52.7523C104.485 51.5042 103.101 50.1683 102.545 48.207C103.841 49.6095 104.938 51.1609 105.983 52.7523Z" fill="#BF373E"/>
<path d="M42.6504 41.2798C42.6504 43.422 42.6504 45.5616 42.6531 47.7038C41.9452 45.5616 42.0304 43.422 42.6504 41.2798Z" fill="#BF373E"/>
<path d="M61.0523 39.7045C60.0544 38.5389 58.7717 37.5809 58.3539 35.9949C59.7058 36.9023 60.5759 38.1611 61.0523 39.7045Z" fill="#BF373E"/>
<path d="M71.1647 39.4864C71.0556 38.2703 71.9764 37.9722 72.8333 37.8391C73.4719 37.7407 74.2038 36.764 74.8451 37.8631C73.4533 38.0281 72.1281 38.3501 71.1674 39.4864H71.1647Z" fill="#BF373E"/>
<path d="M57.034 54.0083C57.0659 53.7449 56.7652 53.4415 57.1883 53.2206C58.1277 52.731 59.0485 52.2041 59.9772 51.6931C59.3119 52.864 58.2501 53.5346 57.0366 54.0083H57.034Z" fill="#BF373E"/>
<path d="M45.0667 37.0913C44.13 38.3341 43.7973 39.9308 42.7009 41.0804C43.1347 39.5396 43.7441 38.1052 45.0667 37.0913Z" fill="#BF373E"/>
<path d="M105.188 35.7659C105.238 35.0367 104.828 34.901 104.195 34.909C102.83 34.9276 101.465 34.8877 100.097 34.8717C100.496 34.2623 101.127 34.5231 101.646 34.5178C103.072 34.5018 104.506 34.3874 106.037 34.6189C105.877 35.1591 105.539 35.4652 105.188 35.7632V35.7659Z" fill="#BF373E"/>
<path d="M44.5105 51.4243C45.5856 51.9858 46.4212 52.8294 47.2222 53.7129C46.1045 53.202 45.1093 52.55 44.5105 51.4243Z" fill="#BF373E"/>
<path d="M75.38 37.8709C76.7851 37.5329 77.7804 38.2275 78.0438 39.7257C77.4371 38.7038 76.4817 38.1822 75.38 37.8709Z" fill="#BF373E"/>
<path d="M42.6504 47.696C43.5126 48.4864 43.5765 49.6387 43.9756 50.6393C43.14 49.8356 42.842 48.7898 42.6504 47.696Z" fill="#BF373E"/>
<path d="M82.6529 37.0459C81.6896 36.9315 81.5139 36.1517 81.2771 35.4199C81.9983 35.7393 82.3895 36.338 82.6529 37.0459Z" fill="#BF373E"/>
<path d="M92.9809 45.1227C92.965 44.9098 92.9224 44.6916 92.941 44.4813C92.9676 44.154 92.5631 43.5792 93.2018 43.5925C93.4679 43.5978 94.2902 43.7628 94.0028 44.5372C93.0528 43.667 93.4333 45.12 92.9809 45.12V45.1227Z" fill="#BF373E"/>
<path d="M96.1371 39.6992C96.1743 40.4603 95.7272 40.8302 95.0673 41.0325C95.3121 40.4976 95.6261 40.0212 96.1371 39.6992Z" fill="#BF373E"/>
<path d="M99.3464 35.7288C99.381 36.4712 99.051 36.9316 98.3005 37.0567C98.548 36.5324 98.8301 36.0401 99.3464 35.7288Z" fill="#BF373E"/>
<path d="M95.1018 46.0913C95.7751 46.1552 95.9374 46.5836 95.8735 47.1717C95.5329 46.871 95.2349 46.541 95.1018 46.0913Z" fill="#BF373E"/>
<path d="M43.9677 50.6391C44.5531 50.6232 44.5584 51.0117 44.5185 51.4322C44.1566 51.2911 44.0209 50.9957 43.9677 50.6391Z" fill="#BF373E"/>
<path d="M96.7119 39.0046C96.7039 39.3905 96.6507 39.7365 96.1344 39.7045C96.1956 39.3639 96.4458 39.1776 96.7119 39.0046Z" fill="#BF373E"/>
<path d="M102.553 48.2201C102.178 48.1084 101.994 47.8556 101.986 47.467C102.306 47.6214 102.505 47.8636 102.553 48.2201Z" fill="#BF373E"/>
<path d="M97.4623 38.0972C97.5022 38.4751 97.3319 38.656 96.954 38.6507C97.0258 38.3766 97.1749 38.1743 97.4623 38.0972Z" fill="#BF373E"/>
<path d="M45.6043 36.543C45.6336 36.9129 45.4606 37.0858 45.0907 37.0725C45.261 36.8969 45.434 36.7186 45.6043 36.543Z" fill="#BF373E"/>
<path d="M94.7479 45.5723C95.0247 45.6255 95.1072 45.8144 95.0912 46.0699C94.9768 45.9022 94.8624 45.7373 94.7479 45.5723Z" fill="#BF373E"/>
<path d="M78.0386 39.7151C78.3127 39.8242 78.3499 40.0318 78.2727 40.2872C78.0199 40.1675 78.0173 39.9466 78.0386 39.7151Z" fill="#BF373E"/>
<path d="M97.9813 37.4478C97.9786 37.642 97.8961 37.7777 97.6992 37.831C97.6992 37.6367 97.787 37.501 97.9813 37.4478Z" fill="#BF373E"/>
<path d="M100.094 34.8691C100.1 35.0501 100.012 35.1459 99.8361 35.1699C99.8467 35.0049 99.8973 34.8745 100.094 34.8691Z" fill="#BF373E"/>
<path d="M97.7124 37.8071C97.7124 37.9801 97.6246 38.0786 97.4543 38.1078C97.4516 37.9322 97.5261 37.8231 97.7124 37.8071Z" fill="#BF373E"/>
<path d="M96.9461 38.6587C96.8769 38.7492 96.8077 38.837 96.7412 38.9275C96.7172 38.7678 96.7838 38.6747 96.9461 38.6587Z" fill="#BF373E"/>
<path d="M95.8683 47.1665C96.0333 47.1958 96.1211 47.2916 96.1264 47.4619C95.9481 47.4433 95.8603 47.3501 95.8683 47.1665Z" fill="#BF373E"/>
<path d="M99.5913 35.4333C99.5088 35.5318 99.4263 35.6276 99.3464 35.7261C99.3385 35.5531 99.4289 35.4626 99.5913 35.4333Z" fill="#BF373E"/>
<path d="M98.2766 37.0752C98.1941 37.1657 98.1143 37.2562 98.0318 37.344C98.0131 37.163 98.1063 37.0858 98.2766 37.0752Z" fill="#BF373E"/>
<path d="M99.8494 35.1538C99.7589 35.2496 99.6685 35.3481 99.5806 35.4439C99.57 35.2549 99.6658 35.1618 99.8494 35.1538Z" fill="#BF373E"/>
<path d="M48.1963 39.3905C48.3533 38.1371 49.3193 37.7885 50.3279 37.6102C51.6052 37.384 52.9278 36.8305 54.1626 37.7832C54.1307 37.8257 54.0961 37.8657 54.0615 37.9082C51.8554 37.4026 49.8781 37.722 48.2974 39.4916C48.2628 39.4597 48.2282 39.4278 48.1963 39.3932V39.3905Z" fill="#BF373E"/>
<path d="M57.0526 42.3869C56.7413 42.7222 56.3261 42.6584 55.9376 42.6584C53.4281 42.6637 50.9186 42.661 48.4092 42.6584C48.0606 42.6584 47.6986 42.6903 47.4086 42.4269L47.4857 42.3417C50.6419 42.3284 53.8007 42.3177 56.9568 42.3044L57.0526 42.3869Z" fill="#BF373E"/>
<path d="M56.0253 39.1296C57.2787 39.771 57.8429 41.5646 57.0499 42.3869L56.9541 42.3044C56.8024 41.2133 56.5017 40.1702 55.9136 39.2254C55.9508 39.1935 55.9881 39.1616 56.0253 39.1296Z" fill="#BF373E"/>
<path d="M47.4086 42.4268C47.0254 42.347 46.5198 42.3443 46.4772 41.8573C46.424 41.2559 46.9402 40.9871 47.3979 40.729C47.4405 40.7636 47.4804 40.7982 47.523 40.8328C47.5097 41.3357 47.4964 41.8387 47.4831 42.3417L47.4059 42.4268H47.4086Z" fill="#BF373E"/>
<path d="M54.1625 37.7805C54.3781 37.8018 54.6043 37.8683 54.8092 37.8337C55.8843 37.6528 56.1238 38.2276 56.0227 39.1324C55.9854 39.1643 55.9482 39.1963 55.9136 39.2282C55.3521 38.7066 54.7693 38.2196 54.0614 37.9056C54.096 37.8657 54.1306 37.8231 54.1625 37.7805Z" fill="#BF373E"/>
<path d="M47.3979 40.7292C47.4485 40.1544 47.4778 39.5636 48.199 39.3879C48.2309 39.4225 48.2655 39.4545 48.3001 39.4864C48.0419 39.9361 47.7838 40.3832 47.5257 40.833C47.4831 40.7984 47.4432 40.7638 47.4006 40.7292H47.3979Z" fill="#BF373E"/>
<path d="M113.711 51.419C115.361 51.7596 117.24 51.3418 118.48 53.1222C118.523 52.4116 117.666 52.3424 118.004 51.7517C118.275 51.2727 118.776 51.2514 119.263 51.2301C120.087 51.1928 120.833 51.2248 121.024 50.0219C121.155 49.2023 123.653 48.8217 124.311 49.3912C124.681 49.7106 124.739 50.0778 124.417 50.4317C122.182 52.888 119.853 55.1154 116.072 54.144C115.486 53.995 114.826 54.168 114.22 54.0775C113.067 53.9072 111.819 53.8566 111.234 52.5633C110.933 51.9007 109.925 52.4489 109.799 51.8794C109.523 50.618 108.179 50.2002 107.814 48.9947C106.928 46.0568 106.494 43.0523 107.873 40.2688C109.062 37.8684 110.715 35.649 113.679 35.0449C114.43 34.8932 115.162 34.8107 115.899 35.0529C116.333 35.1966 116.774 35.2099 117.208 35.1061C119.406 34.5792 121.985 35.6942 123.313 37.5357C124.673 39.4225 125.37 41.5301 125.852 43.7522C126.15 45.1254 126.014 45.3196 124.635 45.3196C120.737 45.3196 116.838 45.309 112.94 45.3196C112.261 45.3196 111.292 45.1041 111.159 46.0036C111.029 46.8844 110.651 47.9462 111.572 48.7259C111.606 48.7552 111.681 48.7738 111.681 48.7951C111.62 50.2428 113.219 50.4051 113.711 51.4217C113.586 51.5015 113.459 51.5813 113.333 51.6612C113.379 51.7091 113.427 51.7543 113.472 51.8022C113.552 51.6772 113.634 51.5494 113.714 51.4243L113.711 51.419ZM121.125 42.3684C121.112 40.6307 120.548 39.0952 118.975 38.2649C117.182 37.3175 115.234 37.3441 113.594 38.5736C112.402 39.4677 111.229 40.5934 111.606 42.4057C111.907 43.0204 112.482 42.8794 112.99 42.8927C115.438 42.9592 117.892 42.7197 120.33 43.0257C120.91 43.0976 120.963 42.7117 121.125 42.3711V42.3684ZM121.562 51.6159C121.823 51.5787 121.91 51.4323 121.876 51.254C121.857 51.1635 121.716 51.0198 121.647 51.0305C121.423 51.0598 121.242 51.1955 121.314 51.4536C121.336 51.5334 121.498 51.5787 121.562 51.6159Z" fill="#E62329"/>
<path d="M21.6165 42.6237C21.2387 43.0388 21.385 43.5498 21.3824 44.0208C21.3717 46.8975 21.3504 49.7742 21.3983 52.6483C21.4143 53.6436 21.1482 54.0986 20.0624 54.0773C15.8711 53.9895 16.6136 54.6016 16.5923 50.6977C16.5524 43.4407 16.6082 36.1837 16.5524 28.9267C16.5417 27.6121 16.893 27.1304 18.2661 27.181C21.8081 27.314 21.3584 26.7419 21.3797 30.2999C21.393 32.5113 21.3744 34.7254 21.3797 36.9368C21.3797 37.4052 21.22 37.9427 21.8427 38.1849C22.029 38.6666 22.4282 38.6612 22.8407 38.616C26.2337 38.2354 29.6266 38.3046 33.0223 38.5654C33.983 38.6399 34.1533 37.9347 34.1506 37.147C34.14 34.5763 34.14 32.0083 34.14 29.4377C34.14 28.6899 33.9883 27.6627 34.6749 27.3726C35.6675 26.9521 36.8756 27.0266 37.9215 27.3566C38.4776 27.5323 38.6879 28.2348 38.6879 28.924C38.6719 36.8995 38.6772 44.8724 38.6746 52.8479C38.6746 53.2444 38.7331 53.7181 38.2515 53.8644C37.0433 54.2343 35.7925 54.1492 34.5817 53.9363C33.9803 53.8325 34.1426 53.1459 34.1426 52.6802C34.1346 49.7556 34.1479 46.831 34.1426 43.909C34.1426 42.3523 33.9058 42.1207 32.3889 42.1181C29.2434 42.1154 26.0953 42.1021 22.9498 42.1207C22.4708 42.1234 21.8348 41.8493 21.6219 42.621L21.6165 42.6237Z" fill="#E62329"/>
<path d="M134.205 40.8275C134.205 44.7235 134.173 48.6221 134.224 52.518C134.237 53.6224 133.976 54.1094 132.752 54.0934C129.934 54.0535 129.931 54.1094 129.931 51.2646C129.931 43.824 129.931 36.3861 129.931 28.9454C129.931 27.3408 130.051 27.2263 131.674 27.2104C134.128 27.1864 134.205 27.2583 134.205 29.6666C134.205 33.3869 134.205 37.1072 134.205 40.8249V40.8275Z" fill="#E62329"/>
<path d="M111.604 42.4057C114.779 42.3924 117.951 42.3817 121.125 42.3684C120.963 42.709 120.91 43.0949 120.33 43.0231C117.889 42.7197 115.436 42.9565 112.99 42.89C112.482 42.8767 111.907 43.0177 111.606 42.403L111.604 42.4057Z" fill="#BF373E"/>
<path d="M121.562 51.6158C121.498 51.5759 121.336 51.5333 121.314 51.4535C121.242 51.1953 121.423 51.057 121.647 51.0304C121.716 51.0224 121.857 51.1634 121.876 51.2539C121.91 51.4349 121.823 51.5812 121.562 51.6158Z" fill="#BF373E"/>
<path d="M113.711 51.4189C113.632 51.544 113.549 51.6717 113.469 51.7968C113.424 51.7489 113.376 51.7037 113.331 51.6558C113.456 51.5759 113.584 51.4961 113.709 51.4163L113.711 51.4189Z" fill="#BF373E"/>
</g>
<defs>
<clipPath id="clip0_114_1040">
<rect width="150.747" height="83.5498" fill="white"/>
</clipPath>
</defs>
</svg>
