<svg width="157" height="43" viewBox="0 0 157 43" fill="none" xmlns="http://www.w3.org/2000/svg">
<g clip-path="url(#clip0_114_1225)">
<path d="M68.4095 4.32894L68.4883 4.45036L68.4042 4.56651C68.3937 5.25282 68.1679 6.00248 68.9346 6.46706L69.0029 6.5832L68.9189 6.68879C68.3727 10.3738 70.5468 13.7947 69.9534 17.4955C69.9114 17.7648 70.1424 18.2505 70.3735 18.3614C71.8019 19.0424 71.9332 20.378 71.9752 21.6556C72.0172 22.9596 72.6368 23.7251 73.7186 24.2531C74.3593 24.9288 74.5483 24.7493 74.5431 23.873C74.5168 19.1057 74.5221 14.3332 74.5273 9.56602C74.5273 8.87443 74.6061 8.18812 74.6481 7.49653C75.4673 6.65184 75.3203 5.65933 75.2153 4.5929C74.9002 1.3778 75.5566 0.675654 78.7232 0.665095C84.0218 0.638699 89.3152 0.633419 94.6138 0.622861L94.5928 0.591185C94.7818 1.87406 95.1337 3.10942 95.1284 4.44508C95.0759 15.5475 95.0549 26.6499 95.1442 37.747C95.1547 39.1038 94.2462 40.45 95.0654 41.8068C94.7661 41.9916 94.4668 42.1763 94.1674 42.3664C93.0331 42.3453 91.9041 42.3083 90.7698 42.303C81.4434 42.303 72.117 42.3664 62.7905 42.2502C60.7635 42.2238 57.8017 42.7571 57.1768 40.2124C56.1896 36.1738 54.1941 32.3726 54.1415 28.1017C54.1258 26.9508 53.9367 25.953 52.4296 26.085L52.4664 26.0639C52.5714 25.4092 52.6344 24.7652 51.9675 24.3375C51.5264 23.9257 51.3793 23.4295 51.5316 22.8435C52.7027 21.3917 52.1198 18.6412 50.5391 18.1713C50.5023 18.3402 50.4656 18.5039 50.4288 18.6728C49.2105 19.1216 49.7987 20.151 49.7987 20.9113C49.7724 27.748 49.8092 34.5847 49.8092 41.4267C49.8092 41.8437 49.6411 42.2608 49.5519 42.6779C49.5519 36.6172 49.5519 30.5566 49.5519 24.4959C49.3418 24.4959 49.1265 24.4959 48.9164 24.4959C48.9164 28.788 48.9427 33.0801 48.9112 37.3722C48.8797 41.7909 48.4858 42.1394 44.1009 41.9071C43.9276 41.8965 43.7491 41.8912 43.5811 41.9282C39.3695 42.9207 35.1054 41.849 30.878 42.2186C30.1691 42.2819 29.6965 41.8649 29.5547 41.1944C29.3236 40.0857 29.0033 38.9612 28.998 37.842C28.956 26.4123 28.9665 14.9879 28.977 3.55816C28.977 2.43894 28.9245 0.839313 30.3266 0.897385C31.6342 0.944899 31.6342 2.49702 31.5817 3.65847C31.5712 3.92243 31.5344 4.1864 31.4767 4.4398C31.3349 5.02053 30.9568 5.70684 31.9493 5.84938C32.8998 5.98136 33.0363 5.33201 33.1518 4.54011C33.593 1.44115 34.5277 0.665095 37.7573 0.659816C44.143 0.649257 50.5496 0.353616 56.909 0.770681C60.711 1.01881 65.4477 -0.818392 67.9421 4.1336C67.9999 4.24975 68.2572 4.26031 68.42 4.32366L68.4095 4.32894Z" fill="#045A9C"/>
<path d="M153.345 23.287C154.49 27.3204 155.251 31.4224 155.488 35.6089C155.53 36.3321 155.734 36.9287 155.992 37.5569C155.083 38.2908 155.598 39.1091 155.808 39.9485C156.118 41.1944 155.556 41.6959 154.285 41.6959C149.422 41.7065 144.56 41.7857 139.697 41.8121C136.215 41.8279 136.215 41.8121 136.005 38.2169C135.869 35.8781 133.815 34.099 131.631 34.6058C129.703 35.0546 127.876 34.9331 125.959 34.5213C123.097 33.9037 120.703 36.0787 121.107 38.956C121.448 41.3844 120.135 42.1869 118.192 42.2608C114.879 42.3875 111.555 42.3136 108.236 42.2978C105.615 42.2872 102.932 42.6673 100.543 41.1363C101.236 37.1082 101.929 33.0801 102.622 29.052C103.546 27.4735 104.198 25.8633 104.618 24.0102C105.558 19.9135 105.516 15.7006 106.456 11.6038C106.96 9.41293 108.246 7.5071 108.01 4.96775C107.716 1.82656 109.029 0.87628 112.29 0.665107C112.988 0.622873 113.687 0.654549 114.385 0.654549C124.431 0.628152 134.472 0.601755 144.518 0.575359C144.518 0.575359 144.46 0.527845 144.46 0.533124C144.864 1.3567 145.631 1.15608 146.298 1.1772C147.721 1.21943 148.803 2.10108 148.986 3.28365C149.543 6.84718 150.772 10.2523 150.856 13.9531C150.924 16.8198 152.799 19.4911 152.641 22.5373C152.631 22.7696 153.098 23.0336 153.34 23.2817L153.345 23.287ZM130.691 21.6557C132.004 21.7084 132.203 21.1488 132.03 19.866C131.814 18.2347 130.255 16.9571 130.817 15.2043C131.253 13.8528 130.58 12.8339 129.997 11.7992C129.021 10.0728 128.506 10.7908 128.212 12.2215C127.288 13.3566 128.033 14.8876 127.309 16.0701C124.925 16.6403 125.303 18.7362 125.072 20.3886C124.925 21.4128 125.256 22.796 126.521 22.6904C127.907 22.5743 129.835 24.0155 130.685 21.6451L130.691 21.6557Z" fill="#045A9C"/>
<path d="M18.5058 0.591094C20.454 -0.0740998 21.4308 0.115956 21.4045 2.69754C21.2837 15.257 21.331 27.8165 21.4203 40.3813C21.4308 42.039 20.9372 42.8467 19.3617 42.8626C13.4172 42.9101 7.46741 42.9101 1.52287 42.9365C-0.0525374 42.9365 -2.3751e-05 41.8172 -2.3751e-05 40.735C-2.3751e-05 36.691 -2.3751e-05 32.6524 -2.3751e-05 28.6084C-2.3751e-05 20.6155 -2.3751e-05 12.6174 -2.3751e-05 4.61921C-2.3751e-05 0.554139 0.299304 0.184587 4.34285 0.0842796C7.74574 -0.000189391 11.1539 0.0367658 14.5568 0.0631624C15.1922 0.0684417 15.9904 -0.279993 16.421 0.575256C15.1397 2.02707 17.5343 2.31215 17.319 3.42608C16.8253 3.69005 16.505 3.52639 15.9799 3.26243C9.20036 -0.174407 2.47337 2.37022 1.30757 9.47618C0.798183 12.591 2.75169 17.2209 5.16207 18.5302C9.31589 20.7792 13.7375 20.7792 16.3422 18.3454C19.8239 15.1039 21.2312 12.0736 19.0782 6.47753C20.3333 5.75426 19.9657 4.53474 20.0444 3.42608C20.1337 2.12209 18.2065 1.97427 18.5058 0.585814V0.591094ZM20.5328 28.8829C20.5328 28.8829 20.5381 28.8829 20.5433 28.8829C20.5433 25.4567 20.5433 22.0357 20.5433 18.6094C20.5433 18.0023 20.6641 17.2579 20.0287 16.9464C19.1885 16.5293 19.178 17.5535 18.7368 17.8544C17.0564 19.0053 15.4757 20.6208 13.6063 21.1065C9.50494 22.1729 5.61893 21.4497 2.72018 17.8756C2.46812 17.5641 1.98499 17.1998 1.65941 17.242C0.992484 17.3265 1.09226 18.0075 1.08176 18.5196C1.06075 19.2218 1.07651 19.9239 1.07651 20.6261C1.07125 26.6867 1.18678 32.7474 1.00824 38.7975C0.913713 41.9387 0.971478 42.2924 4.06453 42.3029C8.26037 42.3188 12.4562 42.3241 16.6468 42.3029C19.7188 42.2871 20.4698 41.548 20.5223 38.3699C20.5801 35.2076 20.5328 32.0452 20.5328 28.8882V28.8829Z" fill="#225A84"/>
<path d="M68.4095 4.329C68.2467 4.26565 67.9894 4.2551 67.9316 4.13895C65.4372 -0.813045 60.7005 1.02416 56.8985 0.776028C50.5391 0.358962 44.1325 0.654604 37.7468 0.665162C34.5172 0.670442 33.5825 1.44122 33.1413 4.54546C33.0311 5.33207 32.8893 5.98671 31.9388 5.85473C30.9463 5.71746 31.3244 5.02587 31.4662 4.44515C31.5292 4.19174 31.5607 3.92778 31.5712 3.66381C31.6237 2.50236 31.6237 0.950245 30.3161 0.902731C28.9087 0.849938 28.9665 2.44957 28.9665 3.5635C28.9508 14.9932 28.9455 26.4229 28.9875 37.8474C28.9875 38.9666 29.3131 40.0911 29.5442 41.1997C29.686 41.8755 30.1586 42.2873 30.8675 42.2239C35.0949 41.8544 39.359 42.9261 43.5706 41.9335C43.7386 41.8966 43.9171 41.9019 44.0904 41.9124C48.4753 42.1447 48.8692 41.791 48.9007 37.3775C48.9322 33.0854 48.9059 28.7933 48.9059 24.5013C49.116 24.5013 49.3313 24.5013 49.5414 24.5013C49.5414 30.5619 49.5414 36.6226 49.5414 42.6832C42.9141 43.2323 36.2764 42.7624 29.6439 42.9366C27.7955 42.9841 28.3469 41.6643 28.3416 40.751C28.3101 32.5786 28.3258 24.401 28.3258 16.2286C28.3258 11.4825 28.3731 6.73637 28.2943 1.99027C28.2733 0.564855 28.5989 0.0210861 30.1533 0.0316447C42.0477 0.0897171 53.9472 0.036924 65.8416 0.0685999C68.8926 0.0738792 67.7006 2.81384 68.4095 4.33428V4.329Z" fill="#225A84"/>
<path d="M100.543 41.1364C102.937 42.6674 105.621 42.2873 108.236 42.2979C111.555 42.3137 114.879 42.3876 118.192 42.2609C120.13 42.187 121.448 41.3793 121.107 38.9561C120.703 36.0789 123.102 33.8985 125.959 34.5215C127.876 34.9385 129.703 35.06 131.631 34.6059C133.81 34.0938 135.863 35.8782 136.005 38.217C136.22 41.8122 136.22 41.8333 139.697 41.8122C144.56 41.7858 149.422 41.7013 154.285 41.6961C155.556 41.6961 156.118 41.1945 155.808 39.9486C155.598 39.1092 155.088 38.2909 155.992 37.5571C156.785 38.6129 156.464 39.938 156.863 41.0995C157.284 42.319 156.701 42.9261 155.451 42.9261C149.244 42.9261 143.031 42.8997 136.824 42.9367C135.511 42.942 135.595 42.0075 135.359 41.1945C134.358 37.6891 132.068 35.9328 128.49 35.9258C123.029 35.9152 123.008 35.9099 121.905 41.3582C121.674 42.4879 121.233 42.9684 119.994 42.9525C113.96 42.8892 107.926 42.8997 101.892 42.9367C100.511 42.9472 99.8494 42.6041 100.537 41.1364H100.543Z" fill="#225A84"/>
<path d="M144.518 0.580638C134.472 0.607035 124.431 0.633431 114.385 0.659828C113.687 0.659828 112.983 0.628152 112.29 0.670387C109.034 0.87628 107.716 1.83184 108.01 4.97303C108.252 7.5071 106.96 9.41821 106.456 11.6091C105.516 15.7059 105.552 19.9188 104.618 24.0155C104.192 25.8685 103.546 27.4787 102.622 29.0573C104.177 19.9029 105.741 10.7539 107.27 1.59955C107.432 0.607035 107.695 0.0157518 108.861 0.0210312C120.477 0.0632657 132.088 0.0632657 143.704 0.0791036C144.076 0.0791036 144.37 0.221645 144.523 0.591197L144.518 0.580638Z" fill="#225A84"/>
<path d="M52.4191 26.085C53.9315 25.953 54.1153 26.9508 54.1311 28.1017C54.1836 32.3674 56.1791 36.1738 57.1663 40.2124C57.7913 42.7571 60.753 42.2239 62.78 42.2503C72.1065 42.3664 81.4329 42.2978 90.7593 42.3031C91.8936 42.3031 93.0226 42.3453 94.1569 42.3664C93.5478 43.3484 92.571 42.8996 91.7728 42.9049C81.1913 42.9366 70.6098 42.8732 60.0336 42.9788C57.6442 43.0052 56.3681 42.3822 55.8535 39.8535C54.9135 35.2235 53.2173 30.7678 52.4191 26.0903V26.085Z" fill="#225A84"/>
<path d="M153.345 23.2871C153.098 23.039 152.631 22.7803 152.647 22.5427C152.804 19.4966 150.929 16.82 150.861 13.9586C150.777 10.2578 149.548 6.85263 148.992 3.2891C148.808 2.10653 147.726 1.23016 146.303 1.18265C145.636 1.16153 144.864 1.36215 144.465 0.538574C150.893 0.686395 149.548 0.0528769 150.667 5.67007C151.764 11.1817 152.589 16.7461 153.513 22.2893C153.566 22.6008 153.408 22.9493 153.35 23.2819L153.345 23.2871Z" fill="#225A84"/>
<path d="M95.0602 41.807C94.241 40.4502 95.1494 39.104 95.1389 37.7472C95.0497 26.6448 95.0707 15.5424 95.1232 4.44527C95.1284 3.1096 94.7766 1.87424 94.5875 0.59137C95.9056 0.485784 95.8794 1.34103 95.8794 2.29659C95.8689 14.9511 95.8846 27.6109 95.8584 40.2654C95.8584 40.8356 96.2207 41.7753 95.0549 41.8122L95.0602 41.807Z" fill="#225A84"/>
<path d="M73.7134 24.2532C72.6369 23.7253 72.0119 22.9598 71.9699 21.6558C71.9279 20.3782 71.8019 19.0426 70.3683 18.3615C70.1372 18.2507 69.9061 17.765 69.9482 17.4957C70.5468 13.8002 68.3727 10.3739 68.9136 6.68896C70.7621 11.5037 71.7966 16.5507 73.1305 21.508C73.372 22.4108 73.5191 23.3346 73.7081 24.2532H73.7134Z" fill="#225A84"/>
<path d="M94.6086 0.617727C89.3099 0.633565 84.0166 0.638844 78.7179 0.659961C75.5514 0.675799 74.8949 1.37795 75.21 4.58777C75.3151 5.65419 75.4568 6.6467 74.6429 7.49139C74.6009 5.48525 74.5851 3.47911 74.5063 1.47298C74.4696 0.491023 74.8109 0.0370025 75.8349 0.0422818C81.916 0.079237 87.9971 0.0845163 94.0834 0.13203C94.2567 0.13203 94.4353 0.44351 94.6086 0.612448V0.617727Z" fill="#225A84"/>
<path d="M17.319 3.42637C17.5291 2.31243 15.1397 2.03263 16.421 0.575539C17.1142 0.997884 17.8179 -0.728452 18.5058 0.586097C18.2065 1.97456 20.1337 2.12238 20.0445 3.42637C19.9709 4.53502 20.3333 5.75454 19.0782 6.47781C18.4901 5.4589 17.9072 4.44527 17.319 3.42637Z" fill="#045A9C"/>
<path d="M50.4183 18.6783C50.4551 18.5094 50.4919 18.3457 50.5286 18.1768C52.104 18.6413 52.6922 21.3919 51.5211 22.8489C50.996 21.5027 50.4341 20.1671 50.4183 18.6783Z" fill="#225A84"/>
<path d="M68.9294 6.4672C68.1627 6.00262 68.3885 5.25296 68.399 4.56665C68.9189 5.10514 68.9294 5.78089 68.9294 6.4672Z" fill="#225A84"/>
<path d="M51.957 24.3376C52.6239 24.7653 52.5609 25.4093 52.4559 26.064C51.8887 25.6047 51.9307 24.9712 51.957 24.3376Z" fill="#225A84"/>
<path d="M127.314 16.0754C128.033 14.8929 127.288 13.3619 128.217 12.2268C130.066 15.0988 130.302 18.3983 130.696 21.6557C130.265 21.624 129.824 21.5395 129.399 21.5712C126.201 21.8193 126.111 21.7085 126.847 18.6465C127.051 17.8018 127.167 16.936 127.319 16.0754H127.314Z" fill="#FDFEFE"/>
<path d="M130.696 21.6611C130.302 18.4038 130.066 15.1042 128.217 12.2323C128.511 10.8016 129.026 10.0836 130.003 11.8099C130.586 12.8394 131.258 13.8636 130.822 15.2151C130.26 16.9678 131.814 18.2454 132.035 19.8767C132.208 21.1543 132.009 21.7139 130.696 21.6664V21.6611Z" fill="#225A84"/>
<path d="M127.314 16.0754C127.157 16.9307 127.041 17.8018 126.841 18.6465C126.106 21.7085 126.196 21.8141 129.394 21.5712C129.824 21.5395 130.26 21.624 130.691 21.6557C129.84 24.0261 127.913 22.5848 126.526 22.701C125.256 22.8066 124.93 21.4234 125.077 20.3992C125.313 18.7468 124.935 16.6509 127.314 16.0807V16.0754Z" fill="#225A84"/>
<path d="M20.5328 28.8779C20.5328 32.0402 20.5748 35.2025 20.5223 38.3596C20.4646 41.5377 19.7189 42.2768 16.6468 42.2926C12.451 42.3138 8.25514 42.3138 4.06455 42.2926C0.971502 42.2821 0.913737 41.9284 1.00826 38.7872C1.18681 32.7318 1.07128 26.6712 1.07653 20.6158C1.07653 19.9136 1.06603 19.2115 1.08178 18.5093C1.09753 17.9972 0.992507 17.3215 1.65943 17.2317C1.98501 17.1895 2.46814 17.5538 2.72021 17.8653C5.62421 21.4394 9.50497 22.1573 13.6063 21.0962C15.4705 20.6105 17.0564 18.995 18.7369 17.8441C19.1727 17.5432 19.1885 16.519 20.0287 16.9361C20.6589 17.2529 20.5381 17.9972 20.5433 18.5991C20.5538 22.0254 20.5433 25.4464 20.5433 28.8726C20.5433 28.8726 20.5381 28.8726 20.5328 28.8726V28.8779Z" fill="#045A9C"/>
<path d="M17.319 3.42633C17.9071 4.44524 18.49 5.45887 19.0782 6.47777C21.2313 12.0738 19.8239 15.1042 16.3422 18.3457C13.7323 20.7794 9.31066 20.7794 5.16208 18.5304C2.75171 17.2212 0.792949 12.5912 1.30758 9.47642C2.47339 2.37047 9.20038 -0.174161 15.9799 3.26267C16.505 3.52664 16.8254 3.6903 17.319 3.42633Z" fill="#FDFEFE"/>
</g>
<defs>
<clipPath id="clip0_114_1225">
<rect width="157" height="43" fill="white"/>
</clipPath>
</defs>
</svg>
