<svg width="38" height="36" viewBox="0 0 38 36" fill="none" xmlns="http://www.w3.org/2000/svg">
<rect opacity="0.1" width="38" height="36" rx="6" fill="#ECC06F"/>
<g clip-path="url(#clip0_172_12)">
<path d="M12 14.0678C12.2626 11.0681 13.7947 8.98815 16.4066 7.76422C18.8507 6.61811 21.3604 6.74546 23.6877 8.26653C26.8249 10.3041 27.4888 13.2118 26.7008 16.2822C26.5622 16.8199 26.1318 17.2868 25.8181 17.775C25.1177 18.8503 24.4392 19.9328 23.6804 20.9657C23.4907 21.2204 23.0311 21.4397 22.7101 21.4256C22.1775 21.4043 21.7762 21.0011 21.9659 20.4563C22.265 19.6073 22.659 18.7937 23.0676 17.9872C23.25 17.6264 23.5491 17.3222 23.8117 17.0038C25.9056 14.4994 24.6435 11.5492 22.7539 10.1343C20.5433 8.48584 17.4061 8.76883 15.6405 10.9054C14.0136 12.8793 13.5613 14.9239 15.3122 17.117C15.9907 17.9589 16.5452 18.9069 17.0632 19.855C17.2383 20.1733 17.2748 20.6756 17.1435 21.0152C16.8881 21.6873 15.9907 21.659 15.5676 21.0011C14.6921 19.6427 13.7582 18.3197 12.9922 16.9119C12.518 16.0346 12.3137 15.0229 11.9927 14.0749L12 14.0678Z" fill="#ECC06F"/>
<path d="M19.5438 25.7764C18.4932 25.7764 17.4353 25.7835 16.3848 25.7764C15.8303 25.7694 15.3707 25.6066 15.3196 24.9558C15.2685 24.2978 15.5457 23.8097 16.2315 23.7955C18.4859 23.7531 20.7403 23.7531 22.9947 23.7955C23.6294 23.8097 23.9431 24.2624 23.8993 24.885C23.8556 25.55 23.3959 25.7694 22.7904 25.7764C21.7033 25.7835 20.6236 25.7764 19.5365 25.7764H19.5438Z" fill="#ECC06F"/>
<path d="M19.6751 29.9789C18.9237 29.9789 18.1722 29.9789 17.4207 29.9789C16.8225 29.9789 16.4504 29.6817 16.3847 29.0945C16.3191 28.4649 16.6766 28.0121 17.2748 27.9838C18.8653 27.906 20.4631 27.8848 22.0535 27.9838C22.3381 27.9979 22.7758 28.6771 22.7831 29.0521C22.7831 29.3563 22.2797 29.8657 21.9295 29.9294C21.2072 30.0638 20.4339 29.9718 19.6824 29.9718C19.6824 29.9718 19.6824 29.9789 19.6824 29.986L19.6751 29.9789Z" fill="#ECC06F"/>
</g>
<defs>
<clipPath id="clip0_172_12">
<rect width="15" height="23" fill="white" transform="translate(12 7)"/>
</clipPath>
</defs>
</svg>
