<svg width="31" height="31" viewBox="0 0 31 31" fill="none" xmlns="http://www.w3.org/2000/svg">
<path d="M23.6246 29.3874H7.37545C2.98379 29.3874 2.75129 26.972 2.55754 25.0216L2.04087 18.5503C1.92462 17.2974 2.28629 16.0445 3.08712 15.037C4.04295 13.8745 5.3992 13.2416 6.85879 13.2416H24.1413C25.575 13.2416 26.9313 13.8745 27.8484 14.9724L28.068 15.2695C28.7655 16.2253 29.0755 17.3878 28.9592 18.5632L28.4425 25.0087C28.2488 26.972 28.0163 29.3874 23.6246 29.3874ZM6.85879 15.1791C5.99337 15.1791 5.1667 15.5666 4.6242 16.2382L4.53379 16.3287C4.12045 16.8582 3.90087 17.6074 3.97837 18.3824L4.49504 24.8537C4.67587 26.7395 4.75337 27.4499 7.37545 27.4499H23.6246C26.2596 27.4499 26.3242 26.7395 26.505 24.8407L27.0217 18.3695C27.0992 17.6074 26.8796 16.8453 26.3759 16.2512L26.2467 16.0962C25.6655 15.4891 24.9292 15.1791 24.1284 15.1791H6.85879Z" fill="#ECC06F"/>
<path d="M26.4791 15.7838C25.9496 15.7838 25.5104 15.3446 25.5104 14.815V12.503C25.5104 8.65379 24.8387 7.98212 20.9896 7.98212H17.6958C16.2362 7.98212 15.7325 7.46545 15.1771 6.7292L13.5108 4.52045C12.9425 3.77129 12.8133 3.59045 11.6508 3.59045H10.0104C6.16123 3.59045 5.48956 4.26212 5.48956 8.11129V14.7634C5.48956 15.293 5.0504 15.7321 4.52081 15.7321C3.99123 15.7321 3.55206 15.293 3.55206 14.7634V8.11129C3.55206 3.1642 5.06331 1.65295 10.0104 1.65295H11.6637C13.6529 1.65295 14.2729 2.29879 15.0737 3.35795L16.7271 5.55379C17.0758 6.01879 17.1016 6.04462 17.7087 6.04462H21.0025C25.9496 6.04462 27.4608 7.55587 27.4608 12.503V14.815C27.4479 15.3446 27.0087 15.7838 26.4791 15.7838Z" fill="#ECC06F"/>
<path d="M18.8196 22.9291H12.1804C11.6508 22.9291 11.2117 22.4899 11.2117 21.9603C11.2117 21.4307 11.6508 20.9916 12.1804 20.9916H18.8196C19.3492 20.9916 19.7883 21.4307 19.7883 21.9603C19.7883 22.4899 19.3621 22.9291 18.8196 22.9291Z" fill="#ECC06F"/>
</svg>
