<svg width="28" height="28" viewBox="0 0 28 28" fill="none" xmlns="http://www.w3.org/2000/svg">
<g clip-path="url(#clip0_69_154)">
<path d="M2.58212 22.1992C2.50509 23.0746 2.43907 23.8876 2.36572 24.6968C2.3217 25.164 2.11998 25.5465 1.68717 25.7525C1.27271 25.9475 0.858251 25.8886 0.495139 25.6201C0.220054 25.4141 0.0293279 25.1309 0.0586703 24.7667C0.124691 23.9427 0.212718 23.1225 0.289742 22.3022C0.407112 21.1067 0.535485 19.9075 0.638183 18.712C0.711539 17.866 1.21036 17.4246 2.05029 17.5019C3.74114 17.6563 5.432 17.8035 7.12286 17.9617C7.48964 17.9948 7.85642 18.0315 8.21586 18.1125C8.7587 18.2302 9.11447 18.7709 9.05212 19.319C8.99344 19.8266 8.49828 20.3931 7.94078 20.3379C7.03483 20.2459 6.12888 20.1761 5.21927 20.0951C4.77546 20.0583 4.33533 20.0216 3.85851 19.9811C3.96121 20.1466 4.05291 20.3048 4.15561 20.4556C5.76577 22.8061 7.9041 24.4614 10.6513 25.2265C14.7592 26.3705 18.471 25.5428 21.7024 22.7399C23.859 20.8676 25.0951 18.4656 25.5389 15.6479C25.5866 15.3537 25.5939 15.052 25.6526 14.7614C25.7663 14.1986 26.2945 13.8382 26.8886 13.897C27.4351 13.9485 27.8826 14.423 27.8679 14.9858C27.8386 16.2071 27.5599 17.3841 27.1601 18.5318C26.2468 21.1545 24.699 23.3284 22.5166 25.0352C21.1229 26.124 19.5677 26.9112 17.8695 27.4151C15.9513 27.9853 14 28.1582 12.0267 27.8529C8.52763 27.3122 5.59338 25.7194 3.27167 23.0231C3.05526 22.773 2.8462 22.5155 2.58579 22.2029L2.58212 22.1992Z" fill="#ECC06F"/>
<path d="M25.4179 5.93698C25.4619 5.43672 25.5059 4.95853 25.5499 4.48402C25.5976 3.95065 25.6416 3.41728 25.704 2.88391C25.7883 2.17766 26.3348 1.74728 27.0207 1.82453C27.6332 1.89442 28.0587 2.48664 27.9927 3.16347C27.8423 4.63851 27.6956 6.11355 27.5489 7.59227C27.4975 8.10724 27.4498 8.62222 27.4058 9.13719C27.3508 9.72574 26.7933 10.2297 26.1991 10.1782C24.908 10.0678 23.6206 9.93541 22.3296 9.8177C21.607 9.75149 20.8808 9.69999 20.1582 9.62274C19.9528 9.60067 19.7438 9.53814 19.5604 9.4425C19.1203 9.21076 18.8818 8.64061 19.0139 8.21392C19.2009 7.61434 19.6521 7.2796 20.2206 7.3311C21.3356 7.43042 22.4506 7.53709 23.5656 7.64009C23.6133 7.64376 23.661 7.64009 23.7087 7.64009C23.727 7.61801 23.7454 7.59594 23.76 7.57755C23.2869 7.01108 22.8431 6.4115 22.3296 5.88181C21.0715 4.59069 19.6007 3.61591 17.8989 2.99426C16.219 2.37997 14.4915 2.24755 12.7273 2.38365C10.2478 2.5786 8.08384 3.55338 6.2316 5.17923C4.00157 7.13982 2.67016 9.61171 2.29971 12.5839C2.25203 12.9664 2.27404 13.3784 1.98795 13.7058C1.65051 14.092 1.1957 14.2281 0.737228 14.0589C0.275085 13.8823 0 13.5071 0 12.9958C0.0036678 11.9659 0.231072 10.9727 0.535499 10.0016C1.63951 6.46667 3.7815 3.7373 6.98716 1.88339C9.45559 0.448808 12.1404 -0.187556 14.9756 0.0478622C17.8879 0.286958 20.514 1.34634 22.7917 3.20393C23.7013 3.94329 24.4936 4.79668 25.1941 5.73467C25.2345 5.78985 25.2822 5.84502 25.3262 5.89652C25.3372 5.90756 25.3555 5.91124 25.4142 5.93331L25.4179 5.93698Z" fill="#ECC06F"/>
<path d="M13.3948 19.9995C13.3948 19.6905 13.3875 19.4183 13.3948 19.1461C13.3985 18.9879 13.3508 18.9033 13.1858 18.8739C12.0597 18.6789 11.1024 18.1345 10.2075 17.4503C10.0168 17.3032 9.99843 17.2076 10.1672 17.02C10.5266 16.6153 10.8604 16.185 11.1941 15.7583C11.3115 15.6075 11.3739 15.7141 11.4692 15.7767C12.0157 16.1372 12.5622 16.4976 13.1197 16.836C13.3508 16.9758 13.4022 16.9207 13.4022 16.6558C13.3985 16.0857 13.3911 15.5155 13.3985 14.9417C13.3985 14.7614 13.3398 14.6842 13.1711 14.618C12.6649 14.4267 12.1478 14.2501 11.671 14C10.8897 13.588 10.4899 12.9075 10.4606 12.0137C10.4019 10.3326 11.2712 9.19969 12.918 8.81713C13.2628 8.73621 13.4132 8.51428 13.3691 8.15134C13.3691 8.12559 13.3691 8.09984 13.3728 8.03731C13.4792 8.02628 13.5855 8.01156 13.6956 8.00788C14.0367 8.00053 14.3778 8.00788 14.7189 7.99685C14.8619 7.99317 14.9206 8.02628 14.9206 8.18445C14.9206 8.73253 14.928 8.72517 15.4488 8.85024C16.2667 9.04519 17.0076 9.40935 17.6935 9.89858C17.7192 9.91697 17.7375 9.95008 17.7705 9.98686C17.3891 10.5349 17.0113 11.083 16.6225 11.6458C16.109 11.2338 15.5478 10.9543 14.8913 10.7409C14.8913 10.877 14.8913 10.958 14.8913 11.0426C14.8913 11.587 14.9023 12.1314 14.8949 12.6758C14.8949 12.856 14.9573 12.9369 15.126 12.9958C15.6175 13.1724 16.12 13.3379 16.5858 13.5659C17.7778 14.1471 18.0896 15.2323 17.9576 16.3284C17.7852 17.7483 16.7032 18.6238 15.3278 18.8849C14.917 18.9622 14.9133 18.9548 14.9133 19.3778C14.9133 19.4477 14.9133 19.5176 14.9133 19.5875C14.9133 19.8548 14.7751 19.9884 14.4988 19.9884C14.132 19.9884 13.7689 19.9884 13.3948 19.9884V19.9995ZM14.8986 16.9354C15.3534 16.939 15.6615 16.608 15.6835 16.1004C15.7055 15.6038 15.3791 15.2065 14.8803 15.1587C14.8803 15.7105 14.8803 16.2585 14.8803 16.8066C14.8803 16.8471 14.8913 16.8912 14.8949 16.9317L14.8986 16.9354ZM13.3545 12.4293C13.3691 12.3484 13.3875 12.2895 13.3875 12.2307C13.3948 11.8114 13.3985 11.392 13.3985 10.9727C13.3985 10.8991 13.3618 10.8292 13.3398 10.7556C13.2628 10.7814 13.1711 10.7851 13.1051 10.8292C12.4852 11.2633 12.5952 12.0578 13.3545 12.4293Z" fill="#ECC06F"/>
<path d="M14.8986 16.939C14.8913 16.8985 14.8839 16.8581 14.8839 16.8139C14.8839 16.2659 14.8839 15.7178 14.8839 15.166" fill="white"/>
<path d="M13.3545 12.4293C12.5952 12.0578 12.4852 11.2632 13.105 10.8292C13.1674 10.785 13.2591 10.7777 13.3398 10.7556C13.3581 10.8292 13.3948 10.8991 13.3985 10.9726" fill="white"/>
</g>
<defs>
<clipPath id="clip0_69_154">
<rect width="28" height="28" fill="white"/>
</clipPath>
</defs>
</svg>
