<svg width="21" height="19" viewBox="0 0 21 19" fill="none" xmlns="http://www.w3.org/2000/svg">
<path d="M9.19806 4.44917C7.8425 4.80473 6.66475 5.12325 5.47957 5.42695C4.75364 5.61214 5.09437 6.05658 5.23511 6.42695C5.91659 8.22695 6.65732 10.0121 7.30176 11.827C7.77584 13.1603 7.59069 13.5529 6.41291 14.2418C4.78328 15.1973 2.04252 14.9825 0.649924 13.8344C0.0573309 13.3455 -0.172301 12.8492 0.138811 12.0862C0.857329 10.301 1.50176 8.4788 2.20546 6.68621C2.41287 6.16028 2.52401 5.83436 1.77586 5.61214C1.44253 5.51584 1.08697 4.90843 1.07215 4.52325C1.06474 4.25658 1.59066 3.78251 1.93881 3.72325C3.11658 3.52325 4.324 3.50103 5.50918 3.33066C6.20548 3.23436 6.87216 2.9751 7.56105 2.81954C8.58327 2.58251 9.27213 2.08621 9.29436 0.91584C9.30917 0.308433 9.724 -0.128604 10.324 0.0343593C10.7018 0.138063 11.2351 0.597322 11.2499 0.923248C11.3092 2.09362 11.924 2.61954 12.9906 2.80473C14.6499 3.09362 16.3018 3.41954 17.9684 3.6714C18.6055 3.76769 19.3536 3.61954 19.5314 4.45658C19.7166 5.31584 19.0944 5.63436 18.3907 5.82695C18.3092 5.84917 18.2499 5.93806 18.1388 6.02695C18.7758 7.73065 19.4425 9.43436 20.0499 11.1603C20.8499 13.4418 20.3685 14.2121 17.9314 14.7158C16.4425 15.027 15.0648 14.7899 13.7759 13.9603C13.2499 13.6195 12.9462 13.1825 13.1388 12.5825C13.7536 10.701 14.4129 8.82695 15.0573 6.95288C15.1536 6.66399 15.3536 6.38991 15.3684 6.10103C15.3833 5.89362 15.2055 5.53806 15.0425 5.49362C13.9018 5.1751 12.7388 4.92325 11.487 4.62695C11.4203 5.33066 11.3018 5.98991 11.3018 6.64917C11.2796 9.61954 11.3018 12.5825 11.2648 15.5529C11.2573 16.301 11.487 16.6121 12.2647 16.5677C13.0944 16.5158 13.9314 16.5751 14.761 16.5529C15.4277 16.5307 15.8573 16.7751 15.887 17.464C15.9092 18.1307 15.5018 18.5084 14.8647 18.5232C12.7759 18.5825 10.6796 18.6195 8.58327 18.6344C7.69438 18.6344 6.79805 18.5825 5.90916 18.5455C5.19805 18.5232 4.68698 18.227 4.7018 17.464C4.71661 16.7084 5.2351 16.5307 5.91658 16.5529C6.74621 16.5825 7.58324 16.5529 8.41287 16.5529C8.87954 16.5529 9.17586 16.4195 9.17586 15.8788C9.17586 15.4862 9.28695 15.0936 9.29436 14.701C9.29436 11.6121 9.29439 8.51584 9.27957 5.42695C9.27957 5.13065 9.24252 4.84177 9.2203 4.45658L9.19806 4.44917ZM16.8795 8.90843C16.7758 8.90103 16.6796 8.88621 16.5833 8.8788C16.2055 9.93065 15.8277 10.9825 15.4722 12.0418C15.4203 12.1899 15.4722 12.5307 15.5166 12.5381C16.2277 12.6418 16.9388 12.7603 17.6425 12.7084C17.7462 12.7084 17.9537 11.8566 17.8499 11.4714C17.6129 10.5973 17.2129 9.76029 16.8795 8.91584V8.90843ZM3.93881 8.93806C3.85733 8.93806 3.76842 8.93806 3.68694 8.94547C3.30916 9.8714 2.91659 10.7973 2.54622 11.7307C2.37585 12.1751 2.37585 12.6418 2.96103 12.7307C3.45733 12.8121 4.01288 12.8492 4.48696 12.7084C4.7314 12.6344 5.04991 12.0788 4.98324 11.8344C4.70916 10.8492 4.30178 9.89362 3.93881 8.93065V8.93806Z" fill="#ECC06F"/>
</svg>
