<svg width="38" height="36" viewBox="0 0 38 36" fill="none" xmlns="http://www.w3.org/2000/svg">
<rect opacity="0.1" width="38" height="36" rx="6" fill="#ECC06F"/>
<g clip-path="url(#clip0_172_18)">
<path d="M9.99999 17.2244C9.99999 14.7011 9.98574 12.1707 10.0143 9.64731C10.0356 7.23705 11.2049 6.07786 13.6574 6.04252C16.3523 6.00718 19.0544 5.97184 21.7493 6.04252C22.391 6.05665 23.161 6.33231 23.6386 6.74227C25.2214 8.12058 26.74 9.57663 28.1944 11.0892C28.615 11.5275 28.9572 12.2413 28.9643 12.828C29.0143 17.0053 29.0071 21.1897 28.943 25.367C28.9073 27.8126 27.6597 28.9718 25.2 28.986C21.4428 29.0072 17.6927 29.0142 13.9355 28.993C11.3047 28.9789 10.1283 27.8833 10.0428 25.2327C9.96435 22.561 10.0285 19.8892 10.0285 17.2244C10.0214 17.2244 10.0143 17.2244 10.0071 17.2244H9.99999ZM12.0604 17.6415C12.0604 20.1931 12.0604 22.7447 12.0604 25.3034C12.0604 26.6959 12.3099 26.9503 13.6859 26.9503C17.4931 26.9503 21.3073 26.9362 25.1144 26.9291C26.5475 26.9291 26.854 26.6817 26.8683 25.2752C26.9039 21.9107 26.8683 18.5462 26.8825 15.1817C26.8825 14.6163 26.633 14.3901 26.0983 14.383C25.3069 14.376 24.5156 14.3901 23.7242 14.3406C22.0773 14.2346 20.9366 13.1956 20.7227 11.5769C20.6158 10.7429 20.5516 9.90177 20.573 9.06065C20.5944 8.32555 20.3021 8.07817 19.5962 8.0923C17.7212 8.11351 15.8461 8.07817 13.9711 8.10644C12.481 8.12764 12.0675 8.57294 12.0675 10.0714C12.0675 12.5948 12.0675 15.1181 12.0675 17.6415H12.0604ZM26.3977 12.3827C26.4334 12.2908 26.469 12.1989 26.5047 12.1071C25.2499 10.9196 23.988 9.72506 22.6548 8.45985C22.6548 9.55542 22.6263 10.552 22.6762 11.5416C22.6904 11.7678 22.9756 12.1495 23.161 12.1707C24.2304 12.2908 25.3141 12.3191 26.3906 12.3827H26.3977Z" fill="#ECC06F"/>
<path d="M19.4465 23.7412C18.1561 23.7412 16.8657 23.7412 15.5824 23.7412C14.8837 23.7412 14.3204 23.508 14.2991 22.7446C14.2705 21.953 14.8623 21.7268 15.5396 21.7197C18.1204 21.7056 20.6942 21.6985 23.275 21.7338C23.6814 21.7338 24.1448 21.9247 24.4657 22.1721C24.6368 22.3064 24.7223 22.8648 24.5869 23.0203C24.3088 23.3313 23.881 23.6776 23.4889 23.6988C22.1486 23.7836 20.794 23.7271 19.4465 23.7271V23.7412Z" fill="#ECC06F"/>
<path d="M19.5036 19.5639C18.2987 19.5639 17.1009 19.5781 15.8961 19.5569C15.5539 19.5569 15.1403 19.5498 14.8837 19.3731C14.6128 19.1893 14.3347 18.7864 14.349 18.4896C14.3632 18.1998 14.6912 17.8534 14.9692 17.6767C15.2116 17.5212 15.5895 17.5424 15.9103 17.5424C18.2559 17.5353 20.6015 17.5353 22.9471 17.5424C24.1306 17.5424 24.7081 17.8888 24.6867 18.5602C24.6653 19.2671 24.152 19.5639 22.9328 19.5639C21.7921 19.5639 20.6443 19.5639 19.5036 19.5639Z" fill="#ECC06F"/>
<path d="M16.3167 13.3015C16.773 13.3722 17.272 13.3581 17.6784 13.5418C17.9636 13.6691 18.3272 14.072 18.3058 14.3335C18.2844 14.6445 17.9422 15.1534 17.6713 15.2029C16.8514 15.3372 15.9887 15.3796 15.1689 15.2665C14.848 15.2241 14.4274 14.7081 14.349 14.3476C14.2349 13.7892 14.6912 13.4641 15.2544 13.4075C15.6037 13.3722 15.9531 13.4075 16.3024 13.4075C16.3024 13.3793 16.3096 13.3157 16.3096 13.3157L16.3167 13.3015Z" fill="#ECC06F"/>
</g>
<defs>
<clipPath id="clip0_172_18">
<rect width="19" height="23" fill="white" transform="translate(10 6)"/>
</clipPath>
</defs>
</svg>
