<svg width="175" height="48" viewBox="0 0 175 48" fill="none" xmlns="http://www.w3.org/2000/svg">
<g clip-path="url(#clip0_67_259)">
<path d="M47.1152 34.2946C47.7971 33.9589 48.237 33.3283 48.8455 32.8999C49.9191 32.1441 51.0335 31.4905 52.3479 31.2279C52.7114 31.1549 52.7302 31.2842 52.6024 31.5333C51.6074 33.4742 50.3202 35.0837 48.0505 35.657C47.4462 35.8092 46.8764 35.9165 46.271 35.7529C46.138 35.7174 46.0438 35.7946 45.9505 35.8832C45.386 36.4179 44.8162 36.9495 44.2936 37.5354C44.7324 37.5489 45.0844 37.3946 45.4268 37.2101C46.7424 36.5024 48.1521 36.2105 49.6404 36.273C49.7955 36.2793 49.9505 36.3085 50.1044 36.3356C50.3045 36.37 50.3946 36.445 50.2228 36.6368C49.3105 37.6532 48.3396 38.5924 47.0231 39.0833C46.2648 39.3658 45.4886 39.5826 44.6706 39.5764C44.0998 39.5722 43.5479 39.4085 43.042 39.1771C42.7623 39.0489 42.5843 39.0937 42.3863 39.2303C41.9632 39.5232 41.5505 39.8297 41.141 40.1413C41.0624 40.2008 40.8592 40.2018 40.9566 40.3832C41.0195 40.501 41.1232 40.5156 41.2677 40.4791C42.312 40.2154 43.3771 40.2862 44.4371 40.3206C45.1367 40.3436 45.807 40.526 46.469 40.7397C46.7047 40.8158 46.7612 40.9263 46.5475 41.091C45.7306 41.7216 44.878 42.2616 43.816 42.4127C43.329 42.4815 42.8744 42.7244 42.3601 42.7035C41.1253 42.6525 39.9669 42.3887 38.9918 41.5767C38.8598 41.4662 38.7498 41.3516 38.5351 41.4433C37.8187 41.7456 37.0929 42.0239 36.3429 42.322C36.5943 42.6014 36.8729 42.4982 37.1138 42.4909C38.8881 42.444 40.4749 42.9798 41.9129 43.9846C42.092 44.1097 42.3821 44.2338 42.3507 44.4548C42.3161 44.6955 41.9956 44.7737 41.782 44.8457C40.8488 45.1615 39.8841 45.2814 38.8996 45.175C37.2374 44.9947 35.7596 44.4214 34.6211 43.1497C34.464 42.9746 34.288 42.961 34.1037 43.0381C33.4071 43.329 32.6562 43.4697 31.9125 43.845C32.4792 44.0534 33.0301 44.0701 33.5632 44.1629C35.3553 44.4735 36.809 45.3637 37.9957 46.7105C38.2974 47.0534 37.9905 47.1337 37.7485 47.1556C36.9316 47.2286 36.1094 47.2577 35.2956 47.1525C33.4658 46.9158 31.9544 46.0413 30.6756 44.755C30.4075 44.485 30.1791 44.4548 29.8492 44.5798C29.2491 44.806 28.6458 45.0187 28.0519 45.3971C28.6887 45.8453 29.2553 46.3186 29.7728 46.847C29.9309 47.0086 30.0964 47.1639 30.1833 47.3787C30.2755 47.6049 30.221 47.7727 30.0105 47.9082C29.8094 48.0375 29.6837 47.9843 29.5182 47.8269C28.938 47.2775 28.3357 46.7511 27.7461 46.2112C27.4392 45.9308 27.1753 45.8568 26.8181 46.1883C26.3468 46.624 25.8409 47.0232 25.3958 47.4892C25.2523 47.6393 25.092 47.7758 24.9265 47.8999C24.7768 48.0114 24.6081 48.0447 24.45 47.8999C24.3033 47.7654 24.2813 47.609 24.3578 47.4277C24.4688 47.165 24.6636 46.9659 24.8616 46.7709C25.3078 46.3311 25.7707 45.9089 26.2976 45.5649C26.4609 45.4586 26.5458 45.3741 26.3216 45.2355C25.667 44.83 24.893 44.7279 24.2028 44.4131C24.0666 44.3516 23.9891 44.4912 23.9127 44.584C22.9449 45.7442 21.6461 46.4186 20.2657 46.9169C19.056 47.3526 17.7656 47.2348 16.5067 47.1504C16.1328 47.1254 16.3799 46.8408 16.491 46.7032C17.0848 45.9673 17.7813 45.3554 18.6224 44.8936C19.697 44.3046 20.8606 44.0795 22.0578 43.9554C22.1908 43.9419 22.3427 43.994 22.4788 43.7845C21.9509 43.6 21.4335 43.4311 20.9245 43.2372C20.3799 43.0298 20.0049 42.9099 19.4289 43.4561C18.1165 44.6997 16.4166 45.199 14.5994 45.2001C13.8317 45.2001 13.0933 44.9749 12.3695 44.7414C11.9673 44.6122 11.9673 44.4339 12.335 44.1306C13.2619 43.3665 14.3281 42.9089 15.5117 42.7015C15.8521 42.642 16.1872 42.567 16.5349 42.592C16.7622 42.5701 17.0314 42.7359 17.1969 42.444C17.4682 42.4336 17.7405 42.4221 18.0117 42.4117C18.062 42.4732 18.1385 42.5003 18.1689 42.419C18.2118 42.3053 18.1092 42.2887 18.0243 42.2762C17.3655 42.0093 16.7046 41.7487 16.05 41.4725C15.8751 41.3985 15.762 41.3943 15.5892 41.5204C13.4965 43.0507 11.3075 42.9912 9.07343 41.8602C8.70161 41.6726 8.36121 41.4245 8.00301 41.2108C7.68461 41.0211 7.69403 40.8491 8.04281 40.7376C8.70266 40.527 9.37298 40.3352 10.0674 40.306C11.3326 40.2539 12.5979 40.255 13.8338 40.6062C13.9291 40.6334 14.0401 40.6094 14.2799 40.6094C13.3541 40.0736 12.5601 39.5534 11.7935 38.9937C11.6165 38.8644 11.4782 38.978 11.319 39.0625C10.1072 39.7056 8.865 39.6066 7.60501 39.2084C6.19838 38.7643 5.15729 37.8085 4.14657 36.8078C4.04497 36.7077 3.83026 36.6108 3.92243 36.4513C3.98108 36.3502 4.19056 36.2949 4.33614 36.2876C5.25155 36.2397 6.15544 36.2324 7.05618 36.5076C8.06271 36.8151 9.04515 37.1612 9.96684 37.6709C10.0517 37.7178 10.1281 37.7188 10.2287 37.6667C9.65682 37.0569 9.08914 36.4502 8.52146 35.8446C8.41777 35.7341 8.2879 35.6903 8.14126 35.7279C6.62676 36.1188 5.38666 35.4631 4.21465 34.6594C3.07405 33.8776 2.26548 32.7883 1.59935 31.5937C1.54279 31.4926 1.43072 31.3811 1.50927 31.2612C1.61296 31.1028 1.7575 31.2289 1.88633 31.2466C3.80093 31.5156 5.31439 32.5267 6.6896 33.7984C6.79748 33.8985 6.88127 34.0496 7.16301 34.034C6.69169 33.2491 6.25389 32.4985 5.78676 31.7647C5.71659 31.6552 5.52073 31.6031 5.37305 31.5666C3.11071 31.009 1.8769 29.3547 0.908076 27.4252C0.705932 27.0229 0.556157 26.5955 0.38753 26.1775C0.337256 26.0534 0.238802 25.9002 0.369724 25.7949C0.472367 25.7126 0.597005 25.8324 0.703838 25.8783C2.13351 26.4975 3.24059 27.5065 4.16751 28.7292C4.49115 29.1556 4.8127 29.583 5.13529 30.0093C5.14891 30.0166 5.16148 30.0229 5.17509 30.0302C5.15938 30.026 5.14472 30.0208 5.12901 30.0166C4.6933 28.8481 4.51734 27.5951 3.30029 26.7914C1.98269 25.921 1.18668 24.5712 0.629474 23.0951C0.262892 22.133 0 21.15 0 20.0117C1.7753 21.2324 2.78183 22.9294 3.60298 24.7744C3.44692 23.6601 3.44168 22.551 2.59331 21.6285C1.19715 20.1108 0.703838 18.2011 0.513215 16.2008C0.509025 16.1549 0.504836 16.109 0.500646 16.0632C0.409525 15.5232 0.446183 14.9801 0.452467 14.4381C0.51531 14.4287 0.5792 14.4193 0.642042 14.4099C1.94707 15.9933 2.7148 17.8269 3.1746 19.8554C3.42702 18.3752 3.29295 17.6278 2.5556 16.4207C2.31889 16.0329 2.14608 15.6181 1.99944 15.1949C1.78159 14.5684 1.5983 13.9304 1.40034 13.2977C1.54802 13.281 1.60458 13.2028 1.56478 13.059C1.56269 12.5117 1.56164 11.9645 1.55954 11.4183C1.59306 11.265 1.63496 11.1076 1.40453 11.0701C1.82767 10.6552 1.62029 10.0496 1.86014 9.57741C1.92717 9.44607 1.86014 9.25739 2.08323 9.13439C3.11699 10.9283 3.4752 12.8766 3.50348 14.9092C3.49091 15.1261 3.47939 15.3429 3.46682 15.5586C3.6323 15.3616 3.82712 15.1855 3.65744 14.9374C3.76323 14.2296 3.86482 13.5218 3.97584 12.8151C4.00936 12.6035 3.98318 12.4096 3.88996 12.2157C3.14213 10.6605 3.0751 9.00201 3.1746 7.32584C3.23325 6.32202 3.42388 5.34322 3.88368 4.43321C3.94442 4.31229 3.98003 4.133 4.13924 4.13717C4.30996 4.14238 4.31415 4.33627 4.35081 4.45823C4.84726 6.11146 5.06931 7.79075 4.77604 9.50965C4.7509 9.65976 4.69853 9.80256 4.7729 10.0058C5.0316 9.48672 5.11958 8.95927 5.24631 8.44746C5.68726 6.67122 6.24342 4.94503 7.43743 3.50131C7.68042 3.2084 7.95274 2.93842 8.22505 2.67053C8.36121 2.5371 8.55184 2.38283 8.73199 2.5027C8.887 2.6059 8.79064 2.82376 8.74979 2.98846C8.37274 4.49575 7.77992 5.90611 6.90955 7.20493C6.3513 8.0378 5.75115 8.8519 5.41913 9.81403C5.40656 9.84947 5.39399 9.88387 5.38142 9.91931C5.41075 9.90055 5.44008 9.88179 5.46836 9.86302C6.03604 9.25739 6.53668 8.58818 7.23109 8.10347C7.77782 7.72195 8.34446 7.38943 9.01059 7.26643C9.14046 7.24245 9.3049 7.18825 9.39707 7.32272C9.47143 7.43217 9.38974 7.55413 9.33423 7.66358C8.50994 9.29075 7.39972 10.6323 5.69145 11.4318C5.09025 11.7133 4.55504 12.1031 4.51629 12.9037C4.49115 13.4311 4.32672 13.9534 4.31938 14.509C4.49534 14.1869 4.6713 13.8637 4.84622 13.5416C5.44217 12.4419 6.35025 11.7696 7.58406 11.4975C8.01348 11.4026 8.02919 11.5183 7.90456 11.8634C7.49189 13.0037 6.86975 14.019 6.05279 14.9113C5.58462 15.4231 5.08816 15.9131 4.57285 16.3769C4.00622 16.8877 3.72552 17.486 3.76427 18.2543C3.78522 18.666 3.72343 19.0819 3.69934 19.4968C3.66058 19.6469 3.62812 19.797 3.70143 19.9544C3.88158 19.847 3.88577 19.6803 3.86901 19.5062C4.32462 18.1813 5.00961 17.0169 6.22037 16.2299C6.43194 16.0923 6.70426 15.8484 6.92107 16.0152C7.11274 16.1632 6.89907 16.4582 6.83833 16.6823C6.40576 18.2668 5.60661 19.6657 4.5341 20.8926C3.92871 21.5847 3.56318 22.2696 3.90148 23.1806C4.01983 23.5006 3.94338 23.8509 4.07639 24.1855C4.60322 22.5771 5.22118 21.0458 6.73673 20.019C6.87499 20.4798 6.82785 20.9113 6.79853 21.3272C6.67494 23.0983 5.9491 24.665 4.99494 26.1201C4.58228 26.7498 4.7928 27.298 4.952 27.8891C4.98133 27.9985 5.08292 28.059 5.19499 28.0496C5.37409 28.035 5.3301 27.8849 5.34791 27.7723C5.55424 26.4308 6.08526 25.2508 7.10017 24.3137C7.19653 24.2251 7.25728 24.0416 7.42486 24.1031C7.60501 24.1698 7.63643 24.3564 7.66366 24.5274C7.75478 25.1132 7.73698 25.7011 7.66785 26.2869C7.5275 27.4732 7.38401 28.6969 6.76396 29.7154C6.15544 30.714 6.26855 31.5176 6.89593 32.387C7.07399 32.634 7.18396 32.929 7.4301 33.1719C7.36516 32.804 7.25623 32.437 7.24157 32.0659C7.18187 30.6014 7.63329 29.2765 8.41987 28.0527C8.48166 27.9568 8.53194 27.8036 8.68066 27.8401C8.83882 27.8776 8.84929 28.0496 8.887 28.1757C9.35203 29.6976 9.3866 31.2383 9.07657 32.7914C8.99907 33.1813 8.95717 33.5857 8.82311 33.9558C8.57278 34.6438 8.71942 35.1983 9.24415 35.6914C9.65891 36.0823 9.95532 36.5878 10.4403 36.9131C10.4696 36.9527 10.5 36.9923 10.5293 37.0319C10.6026 36.9589 10.5576 36.912 10.4926 36.8703C9.93018 35.7081 9.62854 34.4999 9.84535 33.2011C9.94275 32.6205 10.0925 32.0555 10.347 31.5229C10.39 31.4343 10.4581 31.3144 10.5356 31.2946C10.6518 31.2654 10.6927 31.404 10.7346 31.4968C11.584 33.371 12.0951 35.3099 11.8563 37.3873C11.7778 38.068 12.0543 38.5632 12.8199 38.9572C13.0985 39.101 13.3572 39.2668 13.6159 39.4367C13.707 39.4961 13.8139 39.5388 13.8997 39.4461C13.9793 39.3616 13.8914 39.2939 13.8421 39.2261C13.3143 38.4944 12.9477 37.6844 12.7623 36.8078C12.5685 35.8884 12.6083 34.9555 12.7508 34.0308C12.8052 33.6744 12.9791 33.8099 13.1142 33.9819C13.9217 35.0076 14.6999 36.0562 15.0958 37.3186C15.3724 38.2015 15.7002 39.0729 15.7222 40.0204C15.7306 40.3623 15.8824 40.6271 16.2909 40.7782C17.134 41.0899 17.9416 41.4985 18.7816 41.8759C18.482 41.534 18.2191 41.2098 17.9301 40.9106C16.5622 39.4919 15.8803 37.8095 15.9358 35.8394C15.939 35.7237 15.8845 35.5746 16.006 35.5017C16.1589 35.4099 16.2637 35.56 16.3663 35.6361C17.8421 36.7348 18.8025 38.1921 19.3671 39.9204C19.5472 40.4718 19.7211 41.0253 19.7975 41.6038C19.8206 41.7758 19.8834 41.9551 20.0384 42.0437C20.848 42.5055 21.7456 42.7119 22.6506 42.9204C21.6954 42.0208 20.8847 41.0295 20.3265 39.863C19.9054 38.9832 19.564 38.067 19.564 37.0663C19.564 36.9391 19.4529 36.7963 19.6299 36.7004C19.7891 36.6139 19.8792 36.7327 19.9986 36.8005C22.0955 37.9846 23.2664 39.8443 23.9106 42.0864C24.0143 42.4471 24.2562 42.7765 24.0928 43.1997C24.0048 43.427 24.2279 43.5291 24.4196 43.5833C25.3319 43.8377 26.1907 44.214 27.0056 44.6903C27.2077 44.8081 27.3826 44.8186 27.589 44.6966C28.3242 44.2577 29.1202 43.9513 29.9299 43.6792C30.177 43.5958 30.3184 43.4697 30.3551 43.1695C30.5803 41.2911 31.4014 39.6764 32.653 38.2723C33.1464 37.7188 33.6648 37.1851 34.3309 36.8172C34.6577 36.6368 34.7583 36.7181 34.7656 37.0705C34.7855 38.19 34.2974 39.1563 33.8596 40.1413C33.3537 41.2775 32.5535 42.175 31.5983 42.9527C31.5481 42.9933 31.5093 43.0486 31.5041 43.1757C32.1828 42.9287 32.8615 42.6816 33.5412 42.4346C33.7643 42.3533 33.9989 42.2949 34.2063 42.1855C34.7101 41.9186 34.641 41.3672 34.7541 40.9336C35.2903 38.8665 36.3461 37.1413 38.0271 35.805C38.1172 35.7331 38.2178 35.6153 38.3455 35.6737C38.4806 35.7362 38.422 35.8863 38.4209 35.9978C38.4 37.9492 37.8491 39.6952 36.4184 41.1014C36.3199 41.1983 36.2256 41.3005 36.1356 41.4058C36.1188 41.4256 36.1293 41.4704 36.124 41.5798C36.9169 41.2901 37.714 41.0805 38.3853 40.6021C38.6974 40.3801 38.5623 39.9527 38.6105 39.6337C38.908 37.6834 39.7197 35.9634 40.8781 34.3894C41.0195 34.1966 41.1075 33.8182 41.4123 33.9078C41.6888 33.9902 41.5348 34.3342 41.5641 34.5625C41.7736 36.2407 41.3944 37.7855 40.4885 39.2105C40.4047 39.3418 40.1638 39.4857 40.3565 39.642C40.4948 39.7546 40.6602 39.5691 40.7985 39.4721C41.2614 39.1459 41.716 38.8071 42.1936 38.5048C42.6314 38.2265 42.5633 37.8074 42.5707 37.3999C42.7896 37.2331 42.7801 37.0903 42.5235 36.9756C42.4177 35.3255 42.734 33.7473 43.3489 32.2213C43.4065 32.0795 43.485 31.945 43.5667 31.8147C43.6411 31.6969 43.7479 31.5802 43.8914 31.5885C44.0611 31.599 44.0537 31.7689 44.1061 31.895C44.8047 33.5764 44.6895 35.2286 43.9553 36.8651C43.8453 36.8933 43.7793 36.9558 43.8013 37.0757C43.8045 37.0913 43.8631 37.1153 43.8694 37.109C43.9249 37.0517 43.9741 36.9881 44.0255 36.9266C44.6706 36.4419 45.143 35.7967 45.6552 35.1879C45.8029 35.0117 45.7809 34.797 45.7023 34.5937C45.0037 32.7873 45.0603 30.9141 45.2477 29.0409C45.2886 28.6365 45.5274 28.2508 45.7128 27.7567C46.912 29.4944 47.4514 31.2602 46.8722 33.273C46.9162 33.2835 46.9602 33.2939 47.0042 33.3043C47.4095 32.5788 47.8191 31.8543 48.2192 31.1267C48.3124 30.9579 48.1689 30.838 48.0924 30.7056C46.9906 28.7928 46.5748 26.7268 46.6931 24.5399C46.7015 24.3762 46.7287 24.1928 46.8586 24.1281C47.0084 24.052 47.1477 24.2053 47.2545 24.3106C48.0861 25.133 48.6643 26.1014 48.878 27.2564C48.9628 27.7119 48.9837 28.1789 49.033 28.6406C48.9984 28.8001 48.9335 28.9607 49.0466 29.1243C49.2697 29.0368 49.1964 28.8429 49.2225 28.6886C49.3053 28.3081 49.3346 27.9037 49.4844 27.5513C49.7756 26.8655 49.6007 26.2692 49.2079 25.7167C48.3082 24.4492 47.8861 23.0055 47.5593 21.519C47.4776 21.149 47.4148 20.7821 47.4221 20.3995C47.4284 20.0659 47.5059 19.9919 47.8054 20.1869C48.702 20.7685 49.2561 21.617 49.6823 22.5604C49.9327 23.1139 50.0709 23.7039 50.1704 24.3679C50.5265 23.6935 50.5559 22.9971 50.6658 22.3279C50.713 22.0392 50.5066 21.7775 50.3045 21.5493C49.0152 20.0868 48.0683 18.4315 47.4692 16.5802C47.4127 16.4051 47.3865 16.2206 47.3436 16.0308C47.7217 15.8901 47.9929 16.1028 48.2516 16.2956C49.4215 17.1691 50.1589 18.3366 50.5705 19.7199C50.5663 19.8575 50.5485 19.9992 50.7381 20.0868C50.78 19.969 50.8156 19.8627 50.7381 19.747C50.6156 19.084 50.6721 18.4075 50.5915 17.7372C50.5401 17.3047 50.3977 16.9857 50.1086 16.6928C49.3168 15.8901 48.4569 15.149 47.7992 14.2213C47.2744 13.4812 46.8272 12.7025 46.5727 11.8258C46.5402 11.7133 46.4355 11.5934 46.5287 11.485C46.6366 11.3578 46.7811 11.4308 46.9162 11.4673C48.3438 11.8529 49.2948 12.7796 49.9274 14.0743C50.0081 14.24 50.0343 14.4391 50.3359 14.6684C50.0028 13.7762 50.0301 12.9454 49.6855 12.2011C49.5745 11.9614 49.3357 11.8238 49.1011 11.6987C47.2776 10.7272 45.9045 9.33245 45.0603 7.44364C46.0762 7.1132 47.3278 7.9075 49.0633 9.99541C49.1733 9.7911 49.0445 9.62953 48.9628 9.47421C48.5994 8.78623 48.2076 8.1264 47.7133 7.50931C47.2797 6.96935 47.0346 6.28345 46.6837 5.6747C46.1694 4.7845 45.9139 3.79735 45.5766 2.84044C45.5295 2.70597 45.5337 2.56942 45.584 2.40576C45.894 2.40993 46.1139 2.59339 46.3286 2.78311C47.8672 4.14238 48.6015 5.9353 49.0979 7.85746C49.2047 8.27025 49.3304 8.67887 49.4896 9.09478C49.4928 7.38213 49.3838 5.65177 50.3244 4.04753C50.9057 4.87414 51.0617 5.79249 51.1864 6.71188C51.4346 8.53293 51.2628 10.3092 50.5768 12.0312C50.2511 12.8484 50.5307 13.6573 50.691 14.461C50.7014 14.5152 50.7769 14.5965 50.8229 14.5965C50.9748 14.5986 50.9528 14.4641 50.9549 14.3693C50.9685 13.9023 50.9738 13.4343 50.9853 12.9673C51.0178 11.6455 51.6399 10.5103 52.1468 9.3387C52.1793 9.26469 52.2317 9.22925 52.3039 9.23029C52.4464 9.23134 52.4495 9.35642 52.483 9.44919C52.637 9.87866 52.6841 10.3238 52.6632 10.7772C52.6527 10.895 52.6181 11.0201 52.7574 11.093C52.9732 13.1486 52.6946 15.1167 51.5718 16.8887C51.2419 17.4089 51.1413 17.9155 51.1654 18.493C51.178 18.8026 51.155 19.1132 51.1487 19.4238C51.0523 19.6083 51.0607 19.7845 51.1382 20.0034C51.3634 19.8064 51.2943 19.6062 51.3089 19.4249C51.7991 17.5851 52.5218 15.8589 53.8006 14.4047C53.8289 14.4214 53.8582 14.4318 53.8907 14.436C53.9787 16.3978 53.7786 18.3064 52.8706 20.0941C52.5532 20.7174 52.1594 21.2845 51.6933 21.8026C51.3445 22.1903 51.1466 22.6313 51.0576 23.1431C50.9738 23.6257 50.8355 24.1 50.7685 24.6035C51.7122 22.9544 52.6192 21.2855 54.3139 20.0712C54.3327 20.8634 54.2615 21.5513 54.0646 22.2101C53.4592 24.2376 52.4747 26.0149 50.5862 27.1573C50.3223 27.3168 50.1421 27.5409 50.0479 27.8349C49.896 28.3081 49.742 28.7793 49.6572 29.3109C50.8638 27.7974 52.1395 26.3974 54.0991 25.7751C53.3796 27.838 52.394 29.6684 50.6218 30.9819C50.1778 31.3113 49.6614 31.4666 49.1283 31.5666C48.8151 31.625 48.5941 31.7689 48.4328 32.0503C48.0013 32.7998 47.5499 33.5368 47.1058 34.2789C47.0712 34.2977 47.0052 34.305 47.0765 34.3613C47.0922 34.3394 47.1068 34.3165 47.1226 34.2946H47.1152ZM50.846 15.1167C50.9539 15.0927 50.9717 15.027 50.9528 14.9593C50.9423 14.9228 50.891 14.8696 50.8596 14.8707C50.7716 14.8748 50.759 14.9509 50.7758 15.0187C50.7852 15.0573 50.825 15.0896 50.846 15.1167ZM49.5221 29.486C49.5472 29.4673 49.5703 29.4485 49.5944 29.4308C49.5724 29.4141 49.5483 29.3828 49.5284 29.3849C49.5001 29.388 49.476 29.4162 49.4498 29.4339C49.4739 29.4506 49.497 29.4683 49.5221 29.486Z" fill="white"/>
<path d="M122.989 16.084C122.935 17.9384 122.334 19.6052 121.032 20.9301C119.992 21.9891 118.647 22.5479 117.204 22.9794C115.266 23.5579 113.314 23.2775 111.369 23.3568C110.238 23.4026 109.103 23.3714 107.97 23.3703C107.8 23.3703 107.615 23.4183 107.467 23.2911C107.264 23.116 107.16 22.9356 107.491 22.7866C107.633 22.723 107.782 22.6802 107.926 22.6219C108.495 22.3905 108.829 21.9912 108.83 21.3595C108.839 17.9134 108.901 14.4673 108.804 11.0211C108.865 10.8814 108.815 10.7991 108.672 10.7636C108.544 10.4165 108.294 10.2247 107.931 10.1403C107.751 10.0976 107.579 10.0006 107.417 9.90679C107.229 9.79839 107.272 9.60346 107.3 9.43876C107.328 9.27094 107.472 9.25426 107.622 9.25426C110.069 9.24592 112.516 9.23341 114.962 9.22611C115.327 9.22507 115.691 9.24488 116.056 9.25426C116.106 9.37726 116.163 9.4742 116.285 9.31159C117.839 9.3314 119.296 9.71916 120.661 10.4561C121.624 10.9763 122.163 11.8436 122.546 12.8088C122.789 13.4197 123.008 14.0534 122.988 14.7331C122.825 15.1834 122.83 15.6347 122.988 16.085L122.989 16.084ZM119.519 15.1479C119.498 14.9739 119.476 14.7998 119.455 14.6257C119.584 14.3641 119.473 14.2035 119.23 14.0993C119.013 12.6712 118.16 11.7028 116.916 11.0691C115.422 10.3081 113.8 10.4478 112.197 10.5228C111.93 10.5354 111.726 10.6625 111.781 10.9888C111.691 11.0638 111.688 11.1681 111.688 11.2723C111.688 14.5225 111.688 17.7727 111.688 21.0228C111.688 21.1771 111.666 21.3449 111.874 21.3991C111.913 22.0298 112.411 22.0642 112.85 22.0746C113.716 22.0955 114.584 22.0548 115.451 22.0402C115.646 22.157 115.753 22.0173 115.867 21.8995C117.608 21.5753 118.858 20.0284 119.238 18.2782C119.392 18.1354 119.568 18.002 119.46 17.7497C119.48 17.5413 119.498 17.3317 119.518 17.1233C119.714 16.4645 119.716 15.8057 119.518 15.1469L119.519 15.1479Z" fill="white"/>
<path d="M101.735 11.404C101.838 12.2337 101.678 13.0009 101.235 13.7202C100.898 14.2653 100.394 14.601 99.8245 14.8042C99.4788 14.9283 99.1908 15.2421 98.7718 15.1722C98.7352 15.166 98.6441 15.2598 98.6462 15.3036C98.6493 15.3932 98.7331 15.4443 98.8211 15.4703C99.2934 15.6079 99.7669 15.7434 100.238 15.8852C101.435 16.2448 102.089 16.9974 102.265 18.2639C102.46 18.7768 102.318 19.3053 102.343 19.8265C102.221 21.0377 100.947 22.3949 99.791 22.8494C98.5069 23.3539 97.2018 23.3717 95.8748 23.3571C94.2388 23.3383 92.6018 23.4269 90.9678 23.2966C90.8045 23.2831 90.5981 23.3341 90.5416 23.0975C90.4881 22.8755 90.6641 22.7983 90.8107 22.7066C90.8977 22.6524 90.9794 22.5815 91.0747 22.5503C91.8047 22.3095 91.9985 22.0812 91.9995 21.3307C92.0079 18.043 92.0047 14.7553 92.0079 11.4676C92.0079 10.7994 91.7911 10.3689 91.059 10.1448C90.9113 10.0999 90.7804 10.0009 90.6316 9.96234C90.463 9.91752 90.3478 9.85289 90.3268 9.66422C90.3017 9.43385 90.4567 9.36714 90.6295 9.31085C91.4475 9.31397 92.2655 9.32961 93.0825 9.31502C93.3496 9.31085 93.6408 9.413 93.8858 9.21391C95.1846 9.21182 96.4833 9.20661 97.7821 9.20869C97.9874 9.20869 98.2 9.17534 98.3937 9.27958C98.4587 9.35046 98.5236 9.35567 98.5886 9.27958C99.1269 9.42864 99.6789 9.54226 100.2 9.7351C100.902 9.99466 101.449 10.4387 101.612 11.2226C101.652 11.2831 101.692 11.3446 101.732 11.405L101.735 11.404ZM95.8675 15.0336C95.9806 15.0586 96.0937 15.0888 96.1859 14.9835C97.2479 14.9022 98.0303 14.4978 98.5142 13.4491C99.085 12.2108 98.2482 10.568 96.8593 10.471C96.3388 10.4345 95.8141 10.4648 95.2914 10.4616C95.0987 10.4616 94.9426 10.4898 94.9437 10.7358C94.951 12.0513 94.9552 13.3678 94.9636 14.6833C94.9657 14.9616 95.1102 15.0899 95.3972 15.0575C95.5522 15.0398 95.7104 15.0419 95.8664 15.0346L95.8675 15.0336ZM94.9395 18.9113H94.9364C94.9364 19.691 94.9426 20.4707 94.9332 21.2493C94.929 21.56 95.0537 21.7393 95.3291 21.9071C95.8392 22.2177 96.3524 22.2365 96.9117 22.1229C97.7433 21.954 98.4597 21.6163 98.8326 20.8136C99.1405 20.1507 99.3238 19.4398 99.1866 18.7101C99.0389 17.9262 98.7488 17.1694 98.0335 16.7254C97.2134 16.2167 96.2843 16.1166 95.327 16.175C95.0338 16.1927 94.9301 16.2813 94.9343 16.5721C94.9479 17.3518 94.9385 18.1316 94.9385 18.9102L94.9395 18.9113Z" fill="white"/>
<path d="M160.741 21.0761C160.754 19.5177 160.765 17.9604 160.777 16.402C160.819 16.3822 160.861 16.3634 160.903 16.3436C160.86 16.3238 160.819 16.3051 160.776 16.2853C160.773 14.7602 160.776 13.2352 160.768 11.7102C160.764 10.7241 160.334 10.2081 159.363 10.0476C159.086 10.0017 158.883 9.91625 158.891 9.61604C158.9 9.29186 159.172 9.3075 159.393 9.30333C160.629 9.27727 161.866 9.26684 163.103 9.23349C163.437 9.2241 163.662 9.36379 163.86 9.60666C164.747 10.6949 165.642 11.7769 166.53 12.8652C167.517 14.0743 168.52 15.271 169.474 16.5052C170.109 17.3266 170.755 18.1345 171.456 18.9017C171.524 18.9767 171.571 19.0955 171.695 19.0653C171.826 19.033 171.798 18.9027 171.807 18.8068C171.825 18.5827 171.846 18.3575 171.846 18.1334C171.848 16.1404 171.848 14.1473 171.843 12.1553C171.843 11.8968 171.823 11.6362 171.787 11.3798C171.671 10.574 171.38 10.2894 170.556 10.157C170.505 10.1487 170.442 10.1654 170.401 10.1414C170.164 9.99964 169.756 10.008 169.784 9.615C169.813 9.21055 170.177 9.23036 170.466 9.22827C171.791 9.22098 173.116 9.2241 174.442 9.2314C174.687 9.23244 174.965 9.24912 174.996 9.57331C175.027 9.89957 174.811 10.0007 174.513 10.0559C173.709 10.204 173.226 10.8158 173.227 11.6237C173.229 15.3669 173.217 19.1091 173.245 22.8523C173.249 23.4048 172.98 23.5903 172.544 23.5601C171.855 23.5121 171.185 23.3766 170.69 22.796C168.543 20.2766 166.426 17.7331 164.38 15.1324C163.743 14.3235 163.037 13.5688 162.361 12.7891C162.185 12.9173 162.246 13.0664 162.245 13.1956C162.242 15.812 162.241 18.4284 162.244 21.0459C162.244 21.9579 162.397 22.1685 163.248 22.501C163.361 22.5448 163.465 22.6094 163.58 22.6438C163.863 22.7262 163.819 22.9472 163.808 23.1515C163.795 23.3839 163.614 23.3579 163.46 23.3579C162.152 23.361 160.844 23.3641 159.537 23.3579C159.354 23.3579 159.133 23.3673 159.092 23.1025C159.058 22.8742 159.202 22.7429 159.377 22.6532C159.576 22.5511 159.793 22.4833 159.999 22.3926C160.474 22.1841 160.54 21.7161 160.692 21.3033C160.824 21.2533 160.914 21.1939 160.741 21.0782V21.0761Z" fill="white"/>
<path d="M154.245 10.7991C154.256 11.1931 154.272 11.5861 154.274 11.9801C154.274 12.1062 154.332 12.2803 154.152 12.3304C154.005 12.371 153.846 12.3741 153.719 12.2449C153.575 12.0969 153.415 11.9499 153.363 11.7487C153.208 11.1431 152.801 10.8408 152.206 10.7459C152.165 10.6208 152.109 10.5374 151.977 10.6646C150.917 10.6417 149.857 10.5948 148.797 10.6021C148.029 10.6083 148.024 10.6406 148.029 11.4047C148.037 12.6128 148.065 13.8199 148.061 15.0281C148.061 15.3627 148.158 15.4867 148.508 15.4732C149.22 15.4461 149.934 15.4388 150.646 15.4617C151.196 15.4794 151.579 15.296 151.787 14.7727C151.825 14.6789 151.836 14.5642 151.892 14.4933C152.088 14.2452 152.138 13.7626 152.602 13.8971C153.029 14.0201 152.809 14.4245 152.822 14.7007C152.864 15.667 152.808 16.6344 152.866 17.6017C152.879 17.8217 153.018 18.1813 152.603 18.2741C152.521 18.1406 152.395 18.1667 152.273 18.1834C151.953 17.9436 151.847 17.5652 151.692 17.2327C151.517 16.8564 151.248 16.7272 150.872 16.7251C150.018 16.7199 149.165 16.7188 148.312 16.7157C148.181 16.5666 148.127 16.6584 148.086 16.7876C147.941 18.3074 148.082 19.8283 148.072 21.3491C148.07 21.6253 148.174 21.8495 148.453 21.887C149.846 22.0757 151.245 22.2487 152.603 21.7098C153.32 21.4252 153.588 20.7341 153.945 20.1295C154.059 19.9346 154.073 19.6521 154.382 19.6219C154.487 19.7303 154.605 19.7251 154.73 19.6636C154.933 19.7689 154.886 19.9429 154.855 20.1128C154.554 20.265 154.537 20.4923 154.682 20.7622C154.671 20.8581 154.661 20.954 154.649 21.0499C154.547 21.0948 154.477 21.1625 154.489 21.2855C154.544 21.913 154.262 22.4999 154.271 23.1243C154.277 23.4693 153.982 23.3578 153.801 23.3578C151.656 23.3641 149.511 23.3609 147.365 23.3588C146.319 23.3578 145.271 23.3641 144.226 23.3401C144.013 23.3349 143.676 23.4318 143.616 23.1003C143.554 22.749 143.866 22.6271 144.129 22.5489C144.659 22.3894 144.826 22.0506 144.87 21.5149C145.121 18.4711 144.905 15.4231 144.989 12.3783C145.002 11.9134 145.014 11.4516 144.971 10.9836C144.931 10.5499 144.699 10.3331 144.339 10.1862C144.069 10.0767 143.8 9.96517 143.524 9.86822C143.383 9.81819 143.358 9.69102 143.32 9.58678C143.256 9.40957 143.452 9.41583 143.537 9.35745C143.697 9.24696 143.889 9.21777 144.086 9.21777C147.277 9.22194 150.468 9.22507 153.66 9.23028C153.728 9.23028 153.796 9.25321 153.864 9.26572C153.924 9.33661 153.999 9.33035 154.078 9.30742L154.082 9.31055C154.079 9.5013 154.053 9.69519 154.079 9.88178C154.121 10.1882 153.922 10.5406 154.242 10.798L154.245 10.7991Z" fill="white"/>
<path d="M132.313 21.3875C132.319 21.449 132.326 21.5105 132.332 21.572C132.292 21.7075 132.344 21.7899 132.481 21.8222C132.69 22.0255 132.959 22.014 133.219 22.0151C134.213 22.0182 135.208 22.0359 136.201 22.0015C136.792 21.9807 137.32 21.7534 137.661 21.2333C137.936 20.8132 138.202 20.3868 138.456 19.9542C138.615 19.6822 138.817 19.505 139.133 19.6499C139.439 19.7906 139.29 20.046 139.239 20.2784C139.049 21.1582 138.862 22.038 138.691 22.9219C138.622 23.2722 138.452 23.3775 138.087 23.3754C134.93 23.3556 131.774 23.3587 128.616 23.3545C128.511 23.3545 128.406 23.3524 128.302 23.3504C128.038 23.3462 127.695 23.3524 127.638 23.072C127.571 22.7458 127.934 22.7124 128.17 22.6353C128.96 22.3768 129.238 22.1558 129.243 21.1134C129.261 17.8903 129.251 14.6662 129.249 11.4421C129.249 10.6207 129.079 10.4497 128.298 10.1214C128.049 10.0161 127.493 10.0599 127.615 9.5835C127.728 9.14153 128.237 9.25515 128.565 9.24994C130.291 9.21867 132.018 9.23639 133.744 9.23743C135.087 9.23743 136.43 9.24994 137.773 9.23117C138.217 9.22492 138.374 9.35209 138.374 9.82221C138.374 10.5613 138.453 11.3024 138.543 12.0373C138.572 12.2729 138.454 12.3542 138.319 12.449C138.105 12.6002 138.049 12.3729 137.973 12.2666C137.813 12.0415 137.68 11.7965 137.534 11.5609C137.172 10.9751 136.638 10.6749 135.953 10.6686C134.767 10.6582 133.581 10.6686 132.396 10.6718C132.114 10.7374 132.203 10.9636 132.202 11.1377C132.197 12.3834 132.197 13.6301 132.202 14.8757C132.202 15.054 132.125 15.2687 132.36 15.3792C133.41 15.5856 134.469 15.4907 135.514 15.4011C136.009 15.3583 136.218 14.8215 136.357 14.3879C136.427 14.1711 136.561 14.0449 136.681 13.8865C136.828 13.8865 136.976 13.8865 137.124 13.8875C137.263 14.7069 137.158 15.5335 137.185 16.3559C137.202 16.8552 137.193 17.3545 137.195 17.8549C137.149 18.079 136.935 18.1561 136.799 18.3021C136.386 18.1176 136.401 17.6589 136.187 17.3441C135.91 16.9365 135.592 16.7041 135.078 16.7155C134.189 16.7353 133.3 16.7187 132.41 16.7176C132.107 16.7489 132.197 16.9834 132.197 17.1533C132.193 18.424 132.195 19.6947 132.199 20.9643C132.199 21.1134 132.155 21.2791 132.312 21.3896L132.313 21.3875Z" fill="white"/>
<path d="M74.1711 18.7597C74.9199 16.9991 75.5641 15.1968 76.2574 13.4154C76.7549 12.1364 77.4452 10.9334 77.7992 9.59605C77.8955 9.23226 78.1626 9.00398 78.6088 8.99877C79.8856 8.98417 79.9253 8.95603 80.3579 10.1829C80.8994 11.7194 81.5792 13.1996 82.2003 14.7017C83.078 16.8261 83.9242 18.9661 84.8491 21.0707C85.1654 21.791 85.5236 22.5092 86.4578 22.6593C86.66 22.6916 86.9354 22.8271 86.8757 23.1555C86.815 23.4849 86.5479 23.3525 86.3709 23.3535C84.6983 23.3639 83.0245 23.3598 81.3519 23.3587C81.2304 23.3587 81.1068 23.3619 80.9863 23.3462C80.7737 23.3181 80.5601 23.2847 80.5716 22.9908C80.581 22.7281 80.7371 22.6551 80.9759 22.6155C81.6514 22.504 82.0054 22.0485 81.8085 21.5544C81.6284 21.102 81.4409 20.6516 81.2231 20.2159C81.0398 19.85 80.9602 19.4487 80.7622 19.0829C80.6313 18.8421 80.5276 18.7608 80.2699 18.7618C78.8057 18.7691 77.3415 18.768 75.8783 18.7535C75.5704 18.7503 75.3986 18.8535 75.2928 19.1412C75.0173 19.8897 74.6979 20.6225 74.4465 21.3782C74.3135 21.7785 74.5167 22.1193 74.8738 22.333C75.1545 22.5008 75.4583 22.6186 75.7924 22.6603C75.939 22.6781 76.094 22.7573 76.0857 22.9637C76.0773 23.1555 75.9998 23.3441 75.8081 23.3421C74.3313 23.3254 72.8524 23.4671 71.3788 23.2691C71.3484 23.2305 71.317 23.193 71.2866 23.1544C71.2279 22.8344 71.4845 22.7218 71.6898 22.6332C72.5696 22.2548 73.0326 21.5606 73.3237 20.6881C73.5049 20.145 73.7783 19.6322 74.0098 19.1058C74.2161 19.061 74.2171 18.9223 74.1721 18.7608L74.1711 18.7597ZM78.0181 12.5773C77.7562 12.8014 77.6997 13.1131 77.5918 13.3633C77.0461 14.6245 76.5989 15.9275 76.0417 17.1836C75.8594 17.5954 76.004 17.5714 76.293 17.5714C77.4766 17.5724 78.6601 17.5724 79.8437 17.5776C80.1778 17.5787 80.205 17.4765 80.0846 17.168C79.7536 16.3174 79.3462 15.5012 79.0005 14.6569C78.7156 13.9616 78.5826 13.1819 78.0191 12.5773H78.0181Z" fill="white"/>
<path d="M16.1181 6.62658C15.5253 6.62658 14.9324 6.62658 14.3396 6.62762C14.0851 6.62762 13.8159 6.62762 13.8275 6.27321C13.8379 5.94277 14.0987 5.90629 14.3543 5.9042C15.4352 5.89899 16.5171 5.89899 17.598 5.89795C19.6037 5.89795 21.6095 5.89795 23.6152 5.89795C23.7723 5.89795 23.9294 5.9042 24.0865 5.90108C24.3421 5.89586 24.4877 6.02408 24.4929 6.26904C24.4981 6.52964 24.3285 6.62033 24.0823 6.62033C23.0884 6.61928 22.0944 6.6245 21.1004 6.62554C20.0363 6.62762 18.9722 6.637 17.9091 6.62241C17.5425 6.6172 17.4147 6.686 17.5268 7.09044C18.8213 11.7249 20.0971 16.3656 21.3906 21.0011C21.5089 21.4254 21.4869 21.8684 21.6796 22.2927C21.7917 22.5376 21.9038 22.6836 22.1227 22.7899C22.2473 22.8503 22.3782 22.9035 22.4882 22.9838C23.3743 23.6238 23.3513 24.5922 22.4411 25.2374C21.8724 25.6398 21.2492 25.8868 20.5673 26.0661C19.1377 26.4403 17.6912 26.5237 16.2312 26.4549C14.8916 26.3924 13.5771 26.1922 12.3852 25.5147C12.1412 25.3761 11.9233 25.2061 11.7296 25.0029C11.1242 24.366 11.1388 23.6603 11.8332 23.1245C12.1768 22.8587 12.336 22.5491 12.4449 22.1478C13.3614 18.7558 14.303 15.3702 15.2173 11.9772C15.4174 11.2339 15.4446 10.4344 15.7201 9.72561C16.0636 8.84166 16.2888 7.92436 16.6208 7.04041C16.7161 6.78711 16.6983 6.58697 16.3412 6.62554C16.2678 6.62554 16.1945 6.62554 16.1212 6.62554L16.1181 6.62658ZM17.2828 22.5376C17.2828 22.9181 17.2911 23.2996 17.2828 23.6801C17.2775 23.9136 17.355 24.0282 17.6095 24.0303C18.6904 24.0418 19.7661 24.0168 20.8061 23.6749C21.0533 23.5936 21.3696 23.5227 21.3696 23.2152C21.3696 22.892 21.0135 22.892 20.7883 22.7847C20.7422 22.7628 20.6867 22.7617 20.6365 22.7492C19.5671 22.4824 18.483 22.3615 17.3802 22.4251C17.3152 22.4344 17.2817 22.4699 17.2838 22.5355L17.2828 22.5376ZM16.7737 19.0863V9.19607C16.7276 9.19399 16.6826 9.1919 16.6365 9.18982C16.5988 9.3024 16.5559 9.41289 16.5245 9.52651C16.0877 11.1235 15.652 12.7204 15.2163 14.3173C14.5344 16.8191 13.8599 19.3219 13.1655 21.8194C13.0388 22.2739 13.1938 22.3 13.5541 22.1624C14.2537 21.8945 15.0183 21.9341 15.7305 21.71C16.0489 21.6099 16.5224 21.8642 16.7067 21.5818C16.868 21.3347 16.758 20.9115 16.7674 20.5665C16.7695 20.4977 16.7716 20.4278 16.7727 20.359C17.0387 20.2121 17.0387 20.064 16.7727 19.9171C16.7727 19.718 16.7727 19.5189 16.7727 19.3198C16.9811 19.2416 16.9822 19.1634 16.7727 19.0852L16.7737 19.0863ZM17.4912 9.21275C17.488 9.04701 17.4985 8.87502 17.2922 8.78224C17.2513 8.94381 17.2534 9.09183 17.3006 9.23985C17.3006 9.67244 17.2995 10.1061 17.2985 10.5387C17.2943 14.0891 17.2964 17.6394 17.2796 21.1898C17.2775 21.6433 17.3833 21.8434 17.8923 21.8153C18.8109 21.7642 19.7127 21.956 20.6145 22.1071C20.891 22.153 21.091 22.2093 20.9695 21.7819C20.2395 19.2009 19.5294 16.6148 18.8151 14.0296C18.371 12.4244 17.9311 10.818 17.4891 9.21171L17.4912 9.21275ZM16.7685 23.2058C16.7538 22.3208 16.8994 22.4188 16.0102 22.4355C15.6143 22.4428 15.2173 22.4855 14.8256 22.5418C14.2433 22.6262 13.6724 22.7722 13.1226 22.9786C12.8073 23.0974 12.7602 23.2809 13.0493 23.4987C13.1592 23.5811 13.2734 23.6415 13.4054 23.6936C14.1898 24.0022 15.0194 24.0366 15.8395 24.0814C16.7674 24.1325 16.7685 24.096 16.7695 23.2048L16.7685 23.2058Z" fill="white"/>
<path d="M34.9625 5.89994C36.4624 5.89994 37.9622 5.89994 39.4631 5.89994C39.5856 5.89994 39.7071 5.89785 39.8297 5.90202C40.081 5.9114 40.2916 6.00001 40.3041 6.27937C40.3178 6.59417 40.0748 6.62544 39.8339 6.62544C39.1541 6.62752 38.4723 6.6442 37.7936 6.61918C37.3861 6.60355 37.316 6.75053 37.4155 7.11119C38.8012 12.1345 40.1816 17.1598 41.561 22.1842C41.628 22.4291 41.739 22.6324 41.9883 22.7398C42.0836 22.7804 42.1706 22.8419 42.2585 22.8982C43.2012 23.5101 43.2515 24.4055 42.3926 25.1268C41.8166 25.6105 41.1232 25.8482 40.4214 26.0525C39.0232 26.46 37.581 26.5549 36.1419 26.4465C34.7918 26.3454 33.4312 26.1974 32.2362 25.4489C31.0998 24.737 30.995 23.7759 31.9785 22.8628C32.1733 22.6824 32.2582 22.4739 32.3221 22.2415C33.5506 17.8207 34.7771 13.3989 36.0057 8.97707C36.1817 8.3433 36.3398 7.70327 36.5472 7.07888C36.676 6.69007 36.5681 6.61397 36.1848 6.6171C34.2838 6.63378 32.3828 6.62544 30.4808 6.6244C30.3237 6.6244 30.1666 6.62231 30.0105 6.61397C29.7989 6.60146 29.6932 6.46804 29.69 6.27415C29.6869 6.08235 29.7832 5.93746 29.9906 5.91349C30.1289 5.89681 30.2692 5.90202 30.4085 5.90202C31.9262 5.90202 33.4438 5.90202 34.9615 5.90098L34.9625 5.89994ZM37.2228 9.10424C37.2228 10.0361 37.2228 10.9691 37.2228 11.901C36.9714 12.0542 36.9714 12.2074 37.2217 12.3628C37.2217 12.6942 37.2217 13.0257 37.2217 13.3572C36.9599 13.5803 36.9609 13.8033 37.2217 14.0264C37.2259 14.2338 37.2343 14.4413 37.2343 14.6487C37.2353 16.8471 37.25 19.0455 37.2248 21.2429C37.2196 21.7099 37.3589 21.8214 37.8124 21.8162C38.6692 21.8079 39.5333 21.8516 40.3555 22.1279C40.8718 22.3009 40.8896 22.0862 40.7786 21.6942C39.6998 17.9062 38.7655 14.0775 37.6291 10.3051C37.5129 9.91939 37.3264 9.53788 37.3725 9.11363C37.3443 8.98437 37.4595 8.75296 37.2374 8.76442C37.117 8.77068 37.1432 8.98124 37.2238 9.1032L37.2228 9.10424ZM36.5116 9.39716C35.7868 12.024 35.062 14.6518 34.3362 17.2787C33.913 18.812 33.4878 20.3443 33.0636 21.8777C33.0154 22.0507 32.8908 22.3249 33.2542 22.206C34.1686 21.9079 35.1102 21.8454 36.0591 21.7964C36.4823 21.7745 36.6991 21.6025 36.7012 21.1053C36.7085 19.673 36.6645 18.2418 36.697 16.8096C36.7525 14.3548 36.7211 11.8979 36.7263 9.44094C36.7493 9.25852 36.7881 9.0761 36.7012 8.88743C36.498 9.01564 36.5357 9.21786 36.5116 9.3982V9.39716ZM38.2607 22.4281C37.5778 22.4253 37.236 22.6734 37.2353 23.1723C37.2353 23.3621 37.2416 23.5528 37.2332 23.7425C37.2238 23.9646 37.3369 24.0719 37.5453 24.0584C38.6618 23.9875 39.7993 24.0719 40.8645 23.6227C41.0509 23.5445 41.3138 23.4809 41.3075 23.2422C41.3002 22.9826 41.0363 22.9159 40.8194 22.8461C39.9061 22.55 38.9604 22.4677 38.2618 22.4291L38.2607 22.4281ZM36.7127 22.9576C36.7336 22.3072 36.7284 22.2655 36.1073 22.3541C35.1154 22.4958 34.1047 22.5469 33.1474 22.8773C32.9589 22.942 32.7002 23.0035 32.7054 23.2537C32.7096 23.4767 32.9547 23.5142 33.1286 23.5789C33.9288 23.876 34.7667 24.0146 35.6108 24.0844C36.4844 24.1574 36.6383 24.0021 36.7033 23.165C36.7085 23.0963 36.7106 23.0264 36.7127 22.9576Z" fill="white"/>
<path d="M26.904 32.6935C23.3282 32.6935 19.7525 32.6945 16.1767 32.6914C15.7065 32.6914 15.2362 32.6466 14.7659 32.6591C14.3763 32.6695 14.0778 32.5622 13.9165 32.1942C13.7583 31.8335 13.7646 31.4614 14.0254 31.1654C14.5763 30.541 15.1304 30.0719 16.1223 30.0792C23.5 30.1334 30.8777 30.1084 38.2565 30.1073C39.2295 30.1073 40.1313 31.1091 39.9847 32.0618C39.9093 32.5517 39.5134 32.6768 39.0913 32.6862C38.3068 32.7029 37.5212 32.6914 36.7368 32.6914C34.2964 32.6914 31.856 32.6914 29.4156 32.6914C28.5787 32.6914 27.7408 32.6914 26.904 32.6914V32.6935Z" fill="white"/>
<path d="M159.086 34.182C159.094 36.1053 159.1 38.0285 159.107 39.9517C159.11 40.7501 159.084 41.1098 160.158 41.4558C160.31 41.5048 160.347 41.5653 160.349 41.7018C160.351 41.877 160.272 41.9541 160.099 41.9541C159.175 41.9531 158.25 41.9541 157.327 41.952C157.205 41.952 157.067 41.9447 157.024 41.8019C156.975 41.6403 157.086 41.5069 157.207 41.4652C158.188 41.1296 158.164 40.2967 158.172 39.5118C158.192 37.3634 158.126 35.213 158.205 33.0667C158.239 32.1775 157.865 31.7157 157.144 31.3989C156.963 31.3196 156.744 31.2957 156.81 31.0392C156.865 30.8255 157.075 30.8526 157.249 30.8537C158.017 30.8547 158.783 30.8672 159.551 30.8558C159.829 30.8516 159.995 30.9308 160.115 31.1987C160.606 32.3026 161.095 33.4096 161.633 34.4916C162.246 35.7258 162.913 36.9339 163.55 38.1577C163.684 38.4152 163.775 38.6956 163.909 38.9531C164.012 39.1501 164.126 39.1657 164.223 38.9291C165.063 36.8547 166.085 34.8638 167.029 32.8374C167.272 32.3172 167.481 31.7804 167.69 31.2456C167.791 30.9882 167.952 30.8579 168.234 30.8589C169.053 30.862 169.873 30.8558 170.693 30.8568C170.826 30.8568 171.008 30.8255 171.012 31.0246C171.014 31.1737 170.955 31.3321 170.767 31.3718C170.012 31.5302 169.76 32.0097 169.766 32.7498C169.787 35.3485 169.778 37.9472 169.762 40.5458C169.759 41.1025 170.171 41.263 170.547 41.4485C170.763 41.5549 170.964 41.6091 170.834 41.9041C170.647 41.877 170.46 41.8311 170.286 41.9489C169.385 41.9489 168.483 41.9499 167.583 41.951C167.446 41.8447 167.292 41.8801 167.142 41.9009C166.914 41.5663 167.113 41.4121 167.41 41.3693C167.968 41.288 168.172 40.9555 168.173 40.4374C168.176 37.9784 168.182 35.5194 168.185 33.0604C168.185 32.9624 168.228 32.8311 168.098 32.7915C167.975 32.755 167.938 32.854 167.891 32.9593C167.174 34.6198 166.445 36.2752 165.668 37.9107C165.147 39.0062 164.516 40.0549 164.16 41.2265C164.095 41.4392 164.005 41.6581 163.822 41.804C163.558 42.0146 163.336 42.0834 163.125 41.6925C162.606 40.7345 162.259 39.6984 161.756 38.7373C161.084 37.452 160.61 36.0729 159.844 34.8325C159.676 34.5594 159.55 34.2592 159.405 33.9715C159.481 33.7036 159.465 33.3398 159.202 33.3252C158.88 33.3064 159.033 33.6879 159.008 33.8996C158.997 33.9892 159.059 34.0872 159.087 34.182H159.086Z" fill="white"/>
<path d="M116.943 30.9109C117.107 31.1475 116.992 31.355 116.783 31.4102C115.836 31.6593 115.578 32.4672 115.364 33.2219C114.967 34.626 114.432 35.9842 114.052 37.3956C113.768 38.4515 113.392 39.4908 112.983 40.5144C112.826 40.9074 112.75 41.3609 112.634 41.7872C112.564 42.0457 112.515 42.1927 112.219 42.1875C111.934 42.1823 111.764 42.0478 111.683 41.7955C111.333 40.6937 110.883 39.6294 110.476 38.5485C110.058 37.4363 109.697 36.3021 109.255 35.2003C109.082 34.7688 109.002 34.2872 108.668 33.8838C108.275 34.627 108.085 35.4182 107.81 36.1739C107.225 37.7792 106.652 39.3876 105.98 40.9606C105.867 41.2254 105.835 41.5235 105.744 41.7997C105.668 42.0301 105.538 42.1458 105.242 42.0916C104.983 42.0447 104.932 41.9456 104.86 41.7121C104.479 40.4696 104.317 39.1666 103.776 37.9637C103.586 37.5415 103.577 37.0412 103.462 36.5815C103.318 36.0092 103.173 35.4338 102.985 34.8751C102.719 34.0829 102.564 33.2625 102.315 32.4651C102.121 31.8449 101.751 31.5582 101.193 31.3883C101.159 31.355 101.125 31.3206 101.091 31.2872C100.932 30.9818 101.08 30.8619 101.37 30.8609C102.573 30.8556 103.775 30.8577 104.979 30.8577C105.101 30.8577 105.245 30.8546 105.291 30.9912C105.343 31.1454 105.236 31.258 105.117 31.3362C105.016 31.4019 104.901 31.4446 104.79 31.4936C104.107 31.8011 103.983 32.0481 104.179 32.7862C104.487 33.938 104.8 35.0888 105.125 36.2354C105.342 37.0016 105.586 37.7604 105.817 38.5235C105.84 38.5996 105.805 38.7163 105.923 38.7257C106.046 38.7351 106.097 38.6392 106.128 38.5329C106.471 37.3623 106.933 36.226 107.289 35.0711C107.612 34.0287 108.054 33.028 108.338 31.9752C108.416 31.6833 108.552 31.4081 108.66 31.1235C108.735 30.9286 108.84 30.814 109.083 30.8369C109.3 30.8577 109.424 30.8744 109.538 31.1256C109.813 31.7323 109.891 32.4036 110.206 32.9946C110.372 33.3042 110.479 33.6451 110.615 33.9714C110.495 34.1089 110.588 34.159 110.709 34.1976C111.314 35.8424 111.92 37.4873 112.562 39.2313C112.845 38.2858 113.099 37.4373 113.353 36.5898C113.561 35.8987 113.805 35.217 113.97 34.5165C114.145 33.7733 114.435 33.0603 114.433 32.2681C114.431 31.7187 114.19 31.528 113.719 31.4832C113.403 31.4529 113.185 31.3393 113.19 30.9828C113.415 30.9714 113.64 30.9557 113.866 30.9505C114.891 30.9286 115.919 30.9995 116.944 30.9119L116.943 30.9109Z" fill="white"/>
<path d="M145.603 41.8674C145.532 41.6005 145.705 41.4494 145.909 41.4108C146.301 41.3358 146.385 41.0574 146.454 40.7458C146.709 40.6551 146.624 40.4351 146.627 40.2611C146.635 39.4709 146.642 38.6798 146.625 37.8896C146.619 37.5894 146.726 37.2725 146.543 36.9869C146.544 36.054 146.545 35.12 146.547 34.1871C146.598 34.1579 146.683 34.136 146.694 34.0964C146.719 33.9932 146.621 33.9827 146.547 33.9629C146.548 33.4803 146.551 32.9977 146.55 32.514C146.549 31.9167 146.111 31.4852 145.493 31.4675C145.458 31.4351 145.421 31.4028 145.385 31.3695C145.183 31.0505 145.284 30.8681 145.651 30.8681C147.544 30.8681 149.441 30.8128 151.328 30.9212C152.047 30.9629 152.77 31.3434 153.318 31.9C153.451 32.0356 153.572 32.1867 153.568 32.3941C153.529 32.5411 153.6 32.611 153.739 32.6308C153.798 33.1426 153.779 33.6544 153.74 34.1662C153.607 34.1818 153.535 34.2486 153.552 34.3903C153.499 34.8886 153.235 35.2732 152.824 35.5244C152.359 35.809 151.905 36.128 151.325 36.1874C150.992 36.2218 150.873 36.3511 151.154 36.6992C152.131 37.9053 153.069 39.1415 154.011 40.3757C154.431 40.9261 154.969 41.3201 155.572 41.6422C155.518 41.7423 155.463 41.8424 155.41 41.9424C154.73 41.9466 154.051 41.9487 153.372 41.957C153.03 41.9612 152.778 41.8299 152.583 41.5422C151.798 40.382 150.985 39.2406 150.124 38.1346C149.796 37.7145 149.476 37.2871 149.161 36.8587C148.981 36.6148 148.689 36.5793 148.44 36.498C148.259 36.4397 148.208 36.6544 148.209 36.8191C148.216 38.0825 148.194 39.3479 148.25 40.6092C148.27 41.0585 148.495 41.4734 149.087 41.4681C149.273 41.4661 149.444 41.5912 149.432 41.784C149.419 41.9987 149.203 41.9539 149.057 41.9549C147.942 41.957 146.828 41.9529 145.712 41.9497C145.677 41.9226 145.641 41.8945 145.605 41.8663L145.603 41.8674ZM151.767 33.9702C151.927 33.6565 151.946 33.3448 151.759 33.0342C151.494 32.1909 150.986 31.8344 149.988 31.7916C149.675 31.6196 149.361 31.6207 149.046 31.7802C148.799 31.8438 148.53 31.7353 148.293 31.8761C148.179 31.9084 148.119 31.9866 148.119 32.1023C148.117 33.275 148.116 34.4476 148.118 35.6203C148.118 35.7944 148.198 35.9424 148.388 35.932C148.676 35.9153 148.977 36.0164 149.254 35.8632C150.205 35.8622 151.06 35.6693 151.537 34.727C151.625 34.6707 151.667 34.5925 151.66 34.4883C151.758 34.3288 151.746 34.1464 151.767 33.9702Z" fill="white"/>
<path d="M25.9309 23.4445C25.9309 18.0731 25.9383 12.7027 25.9236 7.33227C25.9226 6.84965 26.0284 6.637 26.5499 6.68808C26.9815 6.73082 27.4214 6.71101 27.8571 6.6912C28.2457 6.67453 28.3755 6.83818 28.3724 7.21553C28.3598 8.74054 28.3682 10.2645 28.3682 11.7895C28.3682 15.9476 28.3661 20.1057 28.364 24.2638C28.364 24.9476 28.3609 24.9487 27.6644 24.9497C27.1763 24.9508 26.6882 24.9518 26.2001 24.9476C25.9519 24.9455 25.8262 24.8976 25.9058 24.5755C25.9823 24.2649 25.9278 23.923 25.9309 23.5946C25.9309 23.5446 25.9309 23.4945 25.9309 23.4445Z" fill="white"/>
<path d="M99.4715 41.8927C98.1843 42.0095 96.896 41.9688 95.6078 41.9084C95.4831 41.9021 95.2841 41.9574 95.2862 41.7531C95.2873 41.6175 95.4224 41.5102 95.5627 41.4727C96.431 41.2433 96.3985 40.9681 96.0665 40.2176C95.8947 39.8299 95.7921 39.4119 95.6664 39.0043C95.5533 38.6363 95.3648 38.4278 94.9228 38.4393C93.8429 38.4674 92.761 38.4529 91.6801 38.4445C91.4528 38.4424 91.2611 38.4727 91.1606 38.6968C90.8851 39.3128 90.5835 39.9247 90.4431 40.5866C90.3311 41.1151 90.6275 41.4143 91.2161 41.4622C91.4036 41.4779 91.6948 41.383 91.6696 41.7218C91.6466 42.0303 91.3701 41.9522 91.1763 41.9532C90.2693 41.9584 89.3633 41.9522 88.4563 41.9501C88.4123 41.8959 88.3704 41.898 88.3295 41.9542C87.9116 41.777 88.2007 41.5675 88.362 41.5133C89.1685 41.2423 89.3685 40.5449 89.6272 39.8695C89.9352 39.0679 90.2777 38.2798 90.595 37.4813C91.0003 36.4588 91.3868 35.4289 91.7953 34.4084C92.1179 33.6026 92.4415 32.7948 92.8071 32.0078C92.9108 31.7857 92.96 31.5554 93.0385 31.3312C93.2072 30.8549 93.5392 30.6485 94.0137 30.7465C94.1781 30.7809 94.1844 30.8872 94.2242 30.9956C94.7028 32.2871 95.2998 33.5307 95.8141 34.8066C96.4216 36.3118 97.1422 37.7701 97.669 39.3097C97.8554 39.8538 98.1634 40.3573 98.4231 40.8754C98.6441 41.3173 99.1521 41.4237 99.4757 41.7468C99.4736 41.7948 99.4715 41.8417 99.4705 41.8896L99.4715 41.8927ZM95.0317 37.4991C94.8338 37.1749 94.7699 36.8007 94.6358 36.4525C94.2619 35.4862 93.8545 34.5324 93.469 33.5703C93.4324 33.4775 93.4554 33.3608 93.3098 33.3514C93.1663 33.3431 93.1433 33.4671 93.1098 33.5526C92.606 34.817 92.1053 36.0825 91.6099 37.351C91.5481 37.5084 91.6089 37.621 91.7974 37.6325C92.4195 37.793 93.0543 37.6877 93.6827 37.7034C93.9236 37.7096 94.2001 37.8128 94.4117 37.5877C94.4818 37.5887 94.552 37.5898 94.6222 37.5918C94.8013 37.7492 94.9615 37.8201 95.0328 37.5001L95.0317 37.4991Z" fill="white"/>
<path d="M15.2341 29.5528C15.7987 28.8367 16.314 28.3916 17.2681 28.4218C19.8122 28.5042 22.3605 28.4385 24.9067 28.4593C25.3497 28.4625 25.4838 28.3322 25.4544 27.9037C25.4293 27.5222 25.3015 27.099 25.8828 26.8947C26.0923 26.8207 25.9718 26.3787 25.9603 26.1098C25.9446 25.7522 26.0619 25.6074 26.4348 25.6261C26.9218 25.6511 27.4109 25.6418 27.899 25.6292C28.1692 25.6219 28.2855 25.7231 28.2635 25.9941C28.2405 26.2849 28.2604 26.5736 28.3358 26.8572C28.3431 26.8832 28.3002 26.9468 28.3012 26.9468C28.9202 27.2137 28.6353 27.7588 28.6814 28.1935C28.7128 28.4906 28.9129 28.4468 29.0983 28.4479C30.2671 28.451 31.435 28.45 32.6038 28.45C34.1382 28.45 35.6747 28.4812 37.2081 28.4322C37.9277 28.4093 38.2513 28.8961 38.6608 29.3005C38.7896 29.4277 38.709 29.5215 38.555 29.5455C38.4178 29.5664 38.2775 29.5757 38.1392 29.5757C30.639 29.5757 23.1397 29.5757 15.6395 29.5757C15.5389 29.5757 15.4394 29.5643 15.2352 29.5528H15.2341Z" fill="white"/>
<path d="M132.078 41.948C131.104 41.9501 130.13 41.9564 129.157 41.9522C128.977 41.9522 128.718 42.0054 128.677 41.7708C128.646 41.5978 128.855 41.4894 129.022 41.4414C129.675 41.2538 129.788 40.7743 129.809 40.1749C129.898 37.6013 129.766 35.0297 129.795 32.4571C129.802 31.7681 129.551 31.52 128.847 31.472C128.81 31.4408 128.771 31.4095 128.733 31.3793C128.701 31.3417 128.668 31.3052 128.637 31.2677L128.598 30.9279C128.756 30.8414 128.93 30.8435 129.103 30.8445C130.762 30.8497 132.42 30.856 134.079 30.8622C134.779 31.0269 135.477 30.9873 136.176 30.8487C136.353 31.4314 136.207 32.0318 136.269 32.6207C136.138 32.7906 136.132 32.9408 136.337 33.0596C136.365 33.1993 136.305 33.2973 136.19 33.3713C136.11 33.3681 136.03 33.366 135.95 33.3629C135.637 33.2649 135.766 32.8824 135.537 32.7323C135.505 32.6937 135.475 32.6562 135.444 32.6176C135.324 32.1048 134.889 31.9838 134.471 31.9015C133.629 31.7337 132.773 31.8389 131.922 31.8494C131.655 31.8525 131.554 31.9672 131.555 32.2298C131.56 33.3212 131.56 34.4126 131.545 35.504C131.541 35.8355 131.65 35.9929 131.998 35.948C132.689 35.8594 133.383 35.848 134.079 35.8605C134.234 35.9897 134.265 35.873 134.296 35.7531C134.632 35.6562 134.75 35.3612 134.875 35.0881C134.985 34.8462 135.105 34.7128 135.371 34.8827C135.36 35.3435 135.325 35.8052 135.343 36.2639C135.357 36.61 135.222 36.9779 135.457 37.3011C135.451 37.4397 135.434 37.5783 135.439 37.7159C135.447 37.9036 135.294 37.9536 135.177 37.9922C135.039 38.038 134.972 37.9171 134.918 37.7972C134.833 37.6127 134.726 37.4376 134.633 37.2562C134.479 36.9581 134.251 36.7986 133.899 36.7934C133.22 36.783 132.541 36.7611 131.865 36.7215C131.624 36.7069 131.544 36.8049 131.545 37.0123C131.553 38.2767 131.563 39.5401 131.572 40.8045C131.574 41.1433 131.84 41.2642 132.077 41.4018C132.163 41.4519 132.289 41.4394 132.37 41.4946C132.513 41.5947 132.83 41.5186 132.79 41.7875C132.751 42.0502 132.485 41.9303 132.309 41.9512C132.231 41.8761 132.155 41.8772 132.077 41.9512L132.078 41.948Z" fill="white"/>
<path d="M77.1153 30.9362C77.4106 30.7788 77.729 30.8632 78.0359 30.8611C79.1304 30.8528 80.2249 30.8632 81.3194 30.8663C81.355 30.8976 81.3896 30.9299 81.4242 30.9612C81.3917 31.3333 81.0943 31.4063 80.8125 31.4803C80.1788 31.6471 79.9872 31.8806 79.9903 32.53C80.0018 35.0765 80.0165 37.6241 80.0301 40.1707C80.0333 40.7722 80.1736 40.9733 80.7748 41.0025C81.8693 41.0567 82.9764 41.1349 84.0562 40.9139C84.6124 40.8003 84.8795 40.2583 85.1497 39.7986C85.2282 39.6651 85.2817 39.5161 85.4063 39.4191C85.4922 39.3514 85.5686 39.2127 85.7153 39.3211C85.8368 39.4108 85.776 39.5109 85.7687 39.6328C85.7352 40.251 85.6001 40.8535 85.5247 41.4622C85.4775 41.8416 85.3791 41.9646 84.9968 41.9615C82.6946 41.9459 80.3925 41.9501 78.0893 41.948C77.8139 41.8093 77.5216 41.8917 77.2357 41.8865C77.0639 41.5737 77.3572 41.4789 77.5196 41.4195C78.1145 41.1985 78.3009 40.7951 78.2978 40.1832C78.2841 37.6752 78.3103 35.1662 78.3177 32.6571C78.3197 31.917 78.1448 31.695 77.4462 31.4646C77.2546 31.4011 77.0451 31.3208 77.0336 31.0592C77.0598 31.0175 77.0859 30.9768 77.1111 30.9351L77.1153 30.9362Z" fill="white"/>
<path d="M138.988 41.9509C138.825 41.9279 138.585 41.9717 138.599 41.7257C138.611 41.5276 138.831 41.4317 138.999 41.3702C139.715 41.1065 139.929 40.8438 139.924 40.1048C139.912 37.5947 139.894 35.0846 139.872 32.5745C139.866 31.8699 139.686 31.651 138.989 31.478C138.76 31.4217 138.67 31.2663 138.671 31.0693C138.672 30.8556 138.862 30.8525 139.019 30.8515C140.135 30.8494 141.25 30.8515 142.366 30.8525C142.508 30.8525 142.653 30.8588 142.661 31.0589C142.671 31.2643 142.549 31.4238 142.384 31.4519C141.595 31.5822 141.486 32.1086 141.493 32.7799C141.515 35.1524 141.507 37.5249 141.511 39.8973C141.374 40.0349 141.389 40.1746 141.505 40.3164C141.523 41.021 141.73 41.2941 142.416 41.4536C142.595 41.4953 142.722 41.561 142.711 41.7424C142.7 41.9352 142.522 41.9039 142.389 41.9144C141.368 41.9957 140.344 41.9415 139.322 41.9488C139.211 41.855 139.1 41.856 138.989 41.9488L138.988 41.9509Z" fill="white"/>
<path d="M27.1156 0C27.5481 0.966296 27.9367 1.82731 28.318 2.69145C28.5557 3.22933 28.8155 3.76199 29.0071 4.31654C29.3496 5.30785 28.7694 6.09069 27.723 6.09694C27.2873 6.09903 26.8453 6.05212 26.417 6.10737C25.5005 6.2262 24.7956 5.31411 25.2135 4.29986C25.7938 2.89263 26.4411 1.51251 27.1145 0H27.1156Z" fill="white"/>
<path d="M132.362 15.3783C132.128 15.2678 132.205 15.0521 132.204 14.8749C132.199 13.6292 132.199 12.3825 132.204 11.1368C132.204 10.9628 132.116 10.7366 132.398 10.6709C132.386 12.2407 132.374 13.8095 132.362 15.3794V15.3783Z" fill="white"/>
<path d="M132.313 21.3878C132.156 21.2773 132.201 21.1116 132.2 20.9625C132.196 19.6918 132.194 18.4212 132.198 17.1515C132.198 16.9816 132.109 16.7481 132.412 16.7158C132.405 18.0907 132.4 19.4656 132.389 20.8406C132.387 21.024 132.447 21.221 132.312 21.3878H132.313Z" fill="white"/>
<path d="M116.943 30.9112C115.917 30.9988 114.891 30.9279 113.865 30.9498C113.639 30.955 113.414 30.9706 113.189 30.9821C113.157 30.7757 113.294 30.7549 113.445 30.7559C114.525 30.758 115.606 30.7622 116.687 30.7653C116.801 30.7653 116.889 30.8091 116.943 30.9123V30.9112Z" fill="white"/>
<path d="M146.542 36.9883C146.725 37.2739 146.618 37.5908 146.624 37.891C146.641 38.6811 146.634 39.4713 146.626 40.2624C146.623 40.4365 146.708 40.6565 146.453 40.7471C146.448 39.588 146.444 38.4289 146.441 37.2697C146.441 37.1644 146.447 37.0612 146.542 36.9893V36.9883Z" fill="white"/>
<path d="M93.8879 9.2126C93.6418 9.41273 93.3517 9.30954 93.0846 9.31371C92.2677 9.32726 91.4497 9.31371 90.6317 9.30954C90.6735 9.25846 90.7144 9.16465 90.7563 9.1636C91.8005 9.15526 92.8469 9.03643 93.8879 9.2126Z" fill="white"/>
<path d="M135.457 37.2987C135.222 36.9756 135.357 36.6076 135.343 36.2615C135.325 35.8018 135.36 35.3411 135.371 34.8804C135.419 34.9273 135.505 34.9731 135.507 35.0201C135.517 35.78 135.606 36.543 135.457 37.2998V37.2987Z" fill="white"/>
<path d="M136.176 30.8476C135.478 30.9862 134.78 31.0258 134.079 30.8611C134.67 30.5953 135.313 30.8934 135.911 30.6933C136.05 30.6464 136.149 30.6923 136.175 30.8476H136.176Z" fill="white"/>
<path d="M102.344 19.8262C102.319 19.305 102.462 18.7765 102.266 18.2637C102.652 18.592 102.69 19.3269 102.344 19.8262Z" fill="white"/>
<path d="M159.086 34.1822C159.058 34.0874 158.996 33.9894 159.007 33.8997C159.032 33.6881 158.879 33.3066 159.201 33.3254C159.464 33.34 159.48 33.7038 159.404 33.9717C159.156 33.8309 159.127 34.0144 159.086 34.1822Z" fill="white"/>
<path d="M154.245 10.799C153.926 10.5415 154.124 10.1892 154.082 9.88275C154.057 9.69617 154.082 9.50228 154.085 9.31152C154.404 9.44599 154.24 9.72327 154.258 9.93592C154.281 10.2215 154.251 10.5113 154.245 10.799Z" fill="white"/>
<path d="M122.989 16.0839C122.832 15.6326 122.827 15.1822 122.989 14.7319C123.153 15.1833 123.174 15.6336 122.989 16.0839Z" fill="white"/>
<path d="M136.801 18.3002C136.937 18.1553 137.151 18.0771 137.197 17.853C137.353 17.9666 137.345 18.1178 137.246 18.245C137.13 18.3961 136.966 18.4076 136.801 18.3002Z" fill="white"/>
<path d="M3.65638 14.9373C3.82606 15.1854 3.63124 15.3605 3.46576 15.5586C3.47728 15.3418 3.48985 15.126 3.50242 14.9092C3.55374 14.9186 3.60506 14.9279 3.65638 14.9384V14.9373Z" fill="white"/>
<path d="M154.683 20.7632C154.538 20.4932 154.556 20.266 154.856 20.1138C154.857 20.3462 154.814 20.5662 154.683 20.7632Z" fill="white"/>
<path d="M17.1958 42.4461C17.0303 42.739 16.7612 42.5722 16.5339 42.5941C16.691 42.2647 16.9623 42.4398 17.1958 42.4461Z" fill="white"/>
<path d="M51.3016 19.4249C51.2869 19.6062 51.355 19.8053 51.1309 20.0034C51.0534 19.7835 51.045 19.6073 51.1414 19.4238C51.1948 19.4238 51.2482 19.4249 51.3016 19.4259V19.4249Z" fill="white"/>
<path d="M155.409 41.9438C155.463 41.8437 155.517 41.7436 155.571 41.6436C155.701 41.6707 155.899 41.6675 155.818 41.8698C155.745 42.0532 155.556 41.9698 155.409 41.9438Z" fill="white"/>
<path d="M49.2131 28.6896C49.1869 28.8438 49.2602 29.0377 49.0371 29.1253C48.923 28.9616 48.989 28.8011 49.0235 28.6416C49.0874 28.6572 49.1503 28.6739 49.2131 28.6896Z" fill="white"/>
<path d="M154.731 19.6646C154.607 19.7261 154.488 19.7313 154.383 19.6229C154.548 19.2362 154.623 19.5822 154.731 19.6646Z" fill="white"/>
<path d="M137.126 13.888C136.978 13.888 136.83 13.888 136.683 13.8869C136.831 13.6274 136.979 13.6222 137.126 13.888Z" fill="white"/>
<path d="M42.5152 36.9756C42.7707 37.0913 42.7812 37.2331 42.5623 37.3998C42.4586 37.2675 42.4942 37.1205 42.5152 36.9756Z" fill="white"/>
<path d="M77.2388 41.8865C77.5248 41.8927 77.817 41.8104 78.0924 41.948C77.8044 41.9699 77.5122 42.0616 77.2388 41.8865Z" fill="white"/>
<path d="M3.86481 19.504C3.88157 19.6781 3.87738 19.8449 3.69723 19.9522C3.62391 19.7948 3.65534 19.6447 3.69514 19.4946C3.75169 19.4978 3.80825 19.5009 3.86586 19.504H3.86481Z" fill="white"/>
<path d="M136.337 33.0585C136.132 32.9407 136.138 32.7895 136.269 32.6196C136.415 32.7468 136.383 32.9011 136.337 33.0585Z" fill="white"/>
<path d="M50.7287 19.7459C50.8062 19.8616 50.7706 19.9679 50.7287 20.0857C50.5391 19.9992 50.5569 19.8563 50.5611 19.7188C50.6166 19.7271 50.6732 19.7365 50.7287 19.7448V19.7459Z" fill="white"/>
<path d="M1.40347 11.0693C1.63494 11.1069 1.592 11.2643 1.55848 11.4175C1.35634 11.3675 1.38252 11.2174 1.40347 11.0693Z" fill="white"/>
<path d="M152.274 18.1823C152.397 18.1656 152.523 18.1395 152.604 18.273C152.446 18.4158 152.341 18.3647 152.274 18.1823Z" fill="white"/>
<path d="M74.1711 18.7598C74.2161 18.9213 74.214 19.06 74.0087 19.1048C74.0014 18.9609 74.014 18.8275 74.1711 18.7598Z" fill="white"/>
<path d="M52.7501 11.0922C52.6108 11.0192 52.6454 10.8942 52.6559 10.7764C52.8454 10.8347 52.9146 10.9296 52.7501 11.0922Z" fill="white"/>
<path d="M170.283 41.9488C170.456 41.831 170.644 41.8769 170.83 41.904C170.658 42.0322 170.47 41.9843 170.283 41.9488Z" fill="white"/>
<path d="M128.598 30.9268C128.611 31.0404 128.624 31.154 128.637 31.2666C128.46 31.1717 128.348 31.0696 128.598 30.9268Z" fill="white"/>
<path d="M110.708 34.1989C110.587 34.1603 110.494 34.1103 110.614 33.9727C110.706 34.0227 110.727 34.103 110.708 34.1989Z" fill="white"/>
<path d="M134.297 35.7511C134.266 35.871 134.235 35.9877 134.08 35.8585C134.127 35.772 134.204 35.7438 134.297 35.7511Z" fill="white"/>
<path d="M132.482 21.8224C132.345 21.7901 132.293 21.7078 132.333 21.5723C132.445 21.6192 132.498 21.7005 132.482 21.8224Z" fill="white"/>
<path d="M18.0243 42.2793C18.1091 42.2928 18.2118 42.3085 18.1688 42.4221C18.1374 42.5034 18.062 42.4753 18.0117 42.4148C18.0159 42.37 18.0201 42.3252 18.0243 42.2793Z" fill="white"/>
<path d="M98.5917 9.2784C98.5268 9.3545 98.4608 9.34929 98.3969 9.2784C98.421 9.24296 98.4378 9.18459 98.4692 9.17521C98.5446 9.15332 98.5718 9.21899 98.5917 9.2784Z" fill="white"/>
<path d="M167.138 41.8998C167.29 41.8789 167.443 41.8435 167.579 41.9498C167.426 41.9842 167.273 42.0207 167.138 41.8998Z" fill="white"/>
<path d="M108.674 10.7627C108.816 10.7981 108.868 10.8805 108.806 11.0202C108.68 10.9764 108.628 10.8951 108.674 10.7627Z" fill="white"/>
<path d="M101.735 11.4038C101.695 11.3433 101.655 11.2818 101.615 11.2214C101.761 11.2141 101.857 11.238 101.735 11.4038Z" fill="white"/>
<path d="M1.56373 13.0591C1.60353 13.2029 1.54697 13.2811 1.39929 13.2978C1.3731 13.1633 1.43595 13.0893 1.56373 13.0591Z" fill="white"/>
<path d="M153.737 32.6321C153.598 32.6113 153.528 32.5425 153.565 32.3955C153.684 32.4309 153.768 32.4904 153.737 32.6321Z" fill="white"/>
<path d="M0.642029 14.4098C0.578139 14.4191 0.515296 14.4285 0.452454 14.4379C0.465022 14.3785 0.463975 14.2743 0.491207 14.2659C0.601181 14.2336 0.625271 14.3253 0.642029 14.4098Z" fill="white"/>
<path d="M154.081 9.30942C154.002 9.33236 153.927 9.33861 153.867 9.26773C153.985 9.04049 154.032 9.18225 154.081 9.30942Z" fill="white"/>
<path d="M16.1181 6.62646C16.1914 6.62646 16.2647 6.62646 16.3381 6.62646C16.3202 6.68901 16.3129 6.7724 16.2281 6.7724C16.1443 6.7724 16.1359 6.69005 16.1181 6.62646Z" fill="white"/>
<path d="M160.741 21.0762C160.914 21.1919 160.824 21.2513 160.692 21.3013C160.662 21.2169 160.663 21.1387 160.741 21.0762Z" fill="white"/>
<path d="M154.491 21.2869C154.479 21.1638 154.548 21.0961 154.652 21.0513C154.701 21.1982 154.621 21.2587 154.491 21.2869Z" fill="white"/>
<path d="M135.95 33.3618C136.03 33.3649 136.11 33.367 136.19 33.3702C136.104 33.562 136.023 33.5588 135.95 33.3618Z" fill="white"/>
<path d="M146.545 33.9634C146.618 33.9832 146.717 33.9936 146.691 34.0968C146.682 34.1364 146.596 34.1573 146.545 34.1875C146.545 34.1124 146.545 34.0384 146.545 33.9634Z" fill="white"/>
<path d="M153.55 34.3916C153.533 34.2509 153.605 34.1842 153.738 34.1675C153.767 34.3176 153.665 34.3603 153.55 34.3916Z" fill="white"/>
<path d="M116.286 9.31172C116.164 9.47434 116.107 9.37739 116.057 9.25439C116.147 9.21791 116.227 9.22416 116.286 9.31172Z" fill="white"/>
<path d="M148.087 16.7867C148.129 16.6585 148.182 16.5668 148.313 16.7148C148.254 16.793 148.174 16.7982 148.087 16.7867Z" fill="white"/>
<path d="M141.504 40.3185C141.388 40.1767 141.372 40.037 141.51 39.8994C141.508 40.0391 141.506 40.1788 141.504 40.3185Z" fill="white"/>
<path d="M151.977 10.6645C152.109 10.5373 152.165 10.6207 152.206 10.7458C152.114 10.7614 152.029 10.7583 151.977 10.6645Z" fill="white"/>
<path d="M138.988 41.9512C139.099 41.8574 139.21 41.8574 139.321 41.9512C139.21 41.9512 139.099 41.9512 138.988 41.9512Z" fill="white"/>
<path d="M0.500649 16.0635C0.504838 16.1093 0.509028 16.1552 0.513217 16.2011C0.470275 16.1813 0.427332 16.1604 0.385437 16.1406C0.42419 16.1146 0.462943 16.0895 0.500649 16.0635Z" fill="white"/>
<path d="M160.777 16.2852C160.82 16.305 160.861 16.3237 160.904 16.3435C160.862 16.3633 160.82 16.3821 160.778 16.4019C160.778 16.3633 160.778 16.3237 160.778 16.2852H160.777Z" fill="white"/>
<path d="M132.078 41.948C132.156 41.874 132.232 41.8729 132.31 41.948C132.232 41.948 132.156 41.948 132.078 41.948Z" fill="white"/>
<path d="M25.931 23.4443C25.931 23.4944 25.931 23.5444 25.931 23.5944C25.8912 23.5694 25.8514 23.5444 25.8126 23.5194C25.8524 23.4944 25.8922 23.4694 25.932 23.4443H25.931Z" fill="white"/>
<path d="M77.1152 30.936C77.089 30.9777 77.0629 31.0184 77.0377 31.0601C77.0639 31.0184 77.0901 30.9777 77.1152 30.936Z" fill="white"/>
<path d="M53.8823 14.4362C53.8498 14.432 53.8205 14.4216 53.7922 14.4049C53.8498 14.3361 53.8823 14.3413 53.8823 14.4362Z" fill="white"/>
<path d="M99.4716 41.8928C99.4737 41.8449 99.4747 41.7979 99.4768 41.75C99.5355 41.8 99.5428 41.848 99.4716 41.8928Z" fill="white"/>
<path d="M88.3306 41.9562C88.3704 41.8999 88.4133 41.8978 88.4573 41.952C88.4154 41.953 88.3725 41.9551 88.3306 41.9562Z" fill="white"/>
<path d="M135.444 32.6162C135.475 32.6548 135.506 32.6923 135.537 32.7309C135.506 32.6933 135.475 32.6548 135.444 32.6162Z" fill="white"/>
<path d="M145.603 41.8677C145.639 41.8958 145.674 41.9229 145.71 41.9511C145.645 41.9605 145.612 41.9302 145.603 41.8677Z" fill="white"/>
<path d="M145.384 31.3706C145.42 31.4029 145.457 31.4352 145.492 31.4686C145.428 31.4665 145.392 31.4342 145.384 31.3706Z" fill="white"/>
<path d="M128.733 31.3779C128.771 31.4092 128.81 31.4405 128.847 31.4707C128.81 31.4394 128.771 31.4082 128.733 31.3779Z" fill="white"/>
<path d="M101.091 31.2886C101.125 31.3219 101.159 31.3553 101.193 31.3897C101.159 31.3563 101.125 31.3219 101.091 31.2886Z" fill="white"/>
<path d="M81.4252 30.9611C81.3907 30.9298 81.3551 30.8975 81.3205 30.8662C81.3854 30.8652 81.4242 30.8933 81.4252 30.9611Z" fill="white"/>
<path d="M50.8449 15.1166C50.824 15.0895 50.7842 15.0583 50.7747 15.0186C50.758 14.9509 50.7705 14.8748 50.8585 14.8706C50.8889 14.8696 50.9402 14.9217 50.9517 14.9592C50.9716 15.027 50.9538 15.0927 50.8449 15.1166Z" fill="white"/>
<path d="M111.781 10.9878C111.894 11.0743 111.884 11.1994 111.884 11.3193C111.881 14.6789 111.877 18.0385 111.872 21.3981C111.665 21.3429 111.687 21.1761 111.687 21.0218C111.687 17.7717 111.687 14.5215 111.687 11.2713C111.687 11.1671 111.69 11.0628 111.78 10.9878H111.781Z" fill="white"/>
<path d="M119.518 17.1243C119.395 16.4655 119.395 15.8067 119.518 15.1479C119.715 15.8067 119.714 16.4655 119.518 17.1243Z" fill="white"/>
<path d="M119.455 14.626C119.283 14.4915 119.221 14.3102 119.23 14.0996C119.473 14.2038 119.584 14.3644 119.455 14.626Z" fill="white"/>
<path d="M119.239 18.2785C119.222 18.0648 119.276 17.8803 119.461 17.75C119.569 18.0012 119.393 18.1357 119.239 18.2785Z" fill="white"/>
<path d="M115.451 22.0402C115.561 21.9099 115.668 21.7682 115.867 21.8995C115.753 22.0173 115.645 22.1559 115.451 22.0402Z" fill="white"/>
<path d="M95.8685 15.0346C95.945 14.8334 96.0445 14.7781 96.1869 14.9835C96.0948 15.0898 95.9816 15.0596 95.8685 15.0346Z" fill="white"/>
<path d="M17.4901 9.21273C17.4262 9.22212 17.3634 9.23045 17.2995 9.23984C17.2513 9.09182 17.2503 8.94275 17.2911 8.78223C17.4975 8.875 17.487 9.04699 17.4901 9.21273Z" fill="white"/>
<path d="M16.7727 20.3609C16.7727 20.2139 16.7727 20.0659 16.7727 19.9189C17.0387 20.0659 17.0387 20.2139 16.7727 20.3609Z" fill="white"/>
<path d="M16.7727 19.3219C16.7727 19.2438 16.7727 19.1656 16.7727 19.0874C16.9822 19.1656 16.9811 19.2438 16.7727 19.3219Z" fill="white"/>
<path d="M17.3792 22.4272C17.3467 22.4637 17.3142 22.5013 17.2828 22.5377C17.2807 22.4721 17.3153 22.4366 17.3792 22.4272Z" fill="white"/>
<path d="M37.2228 13.3574C37.2825 13.5805 37.2825 13.8036 37.2228 14.0266C36.962 13.8036 36.962 13.5805 37.2228 13.3574Z" fill="white"/>
<path d="M36.7273 9.44078C36.6561 9.42619 36.5839 9.4116 36.5126 9.397C36.5367 9.21771 36.499 9.01549 36.7022 8.88623C36.7891 9.07595 36.7514 9.25836 36.7273 9.43974V9.44078Z" fill="white"/>
<path d="M37.2238 11.9019C37.2751 12.0561 37.2762 12.2094 37.2238 12.3626C36.9735 12.2083 36.9735 12.054 37.2238 11.9019Z" fill="white"/>
<path d="M37.3715 9.11468C37.3223 9.11155 37.273 9.10738 37.2238 9.10426C37.1421 8.98125 37.117 8.77173 37.2364 8.76548C37.4584 8.75505 37.3432 8.98542 37.3715 9.11468Z" fill="white"/>
<path d="M148.292 31.8774C148.294 32.9636 148.313 34.0498 148.292 35.136C148.284 35.5717 148.349 35.8427 148.875 35.7478C149.004 35.7249 149.157 35.7343 149.254 35.8646C148.977 36.0178 148.677 35.9167 148.388 35.9334C148.198 35.9448 148.118 35.7968 148.118 35.6217C148.116 34.449 148.118 33.2763 148.119 32.1036C148.119 31.9879 148.178 31.9098 148.293 31.8774H148.292Z" fill="white"/>
<path d="M149.988 31.7927C149.672 31.9199 149.358 31.9293 149.046 31.7823C149.362 31.6228 149.675 31.6218 149.988 31.7927Z" fill="white"/>
<path d="M151.767 33.9717C151.625 33.6611 151.638 33.3484 151.759 33.0356C151.945 33.3463 151.927 33.6579 151.767 33.9717Z" fill="white"/>
<path d="M151.536 34.7285C151.455 34.5867 151.516 34.5168 151.659 34.4897C151.666 34.594 151.623 34.6732 151.536 34.7285Z" fill="white"/>
<path d="M91.7963 37.6314C92.011 37.4156 92.2854 37.5126 92.5274 37.522C93.1548 37.5459 93.7884 37.425 94.4106 37.5866C94.199 37.8117 93.9225 37.7086 93.6816 37.7023C93.0532 37.6867 92.4195 37.7919 91.7963 37.6314Z" fill="white"/>
<path d="M94.6211 37.5908C94.7394 37.4771 94.8945 37.5303 95.0317 37.499C94.9604 37.819 94.8002 37.7471 94.6211 37.5908Z" fill="white"/>
</g>
<defs>
<clipPath id="clip0_67_259">
<rect width="175" height="48" fill="white"/>
</clipPath>
</defs>
</svg>
