<svg width="89" height="43" viewBox="0 0 89 43" fill="none" xmlns="http://www.w3.org/2000/svg">
<g clip-path="url(#clip0_114_1225)">
<path d="M0.409512 4.32894L0.488277 4.45036L0.404255 4.56651C0.393749 5.25282 0.167946 6.00248 0.934647 6.46706L1.00291 6.5832L0.918892 6.68879C0.372749 10.3738 2.54682 13.7947 1.95341 17.4955C1.9114 17.7648 2.14246 18.2505 2.37352 18.3614C3.80188 19.0424 3.93317 20.378 3.97518 21.6556C4.01719 22.9596 4.63686 23.7251 5.71864 24.2531C6.3593 24.9288 6.54835 24.7493 6.5431 23.873C6.51684 19.1057 6.52209 14.3332 6.52734 9.56602C6.52734 8.87443 6.60611 8.18812 6.64812 7.49653C7.46733 6.65184 7.3203 5.65933 7.21527 4.5929C6.90019 1.3778 7.55661 0.675654 10.7232 0.665095C16.0218 0.638699 21.3152 0.633419 26.6138 0.622861L26.5928 0.591185C26.7819 1.87406 27.1337 3.10942 27.1284 4.44508C27.0759 15.5475 27.0549 26.6499 27.1442 37.747C27.1547 39.1038 26.2462 40.45 27.0654 41.8068C26.7661 41.9916 26.4668 42.1763 26.1674 42.3664C25.0331 42.3453 23.9041 42.3083 22.7698 42.303C13.4434 42.303 4.11697 42.3664 -5.20945 42.2502C-7.23648 42.2238 -10.1982 42.7571 -10.8232 40.2124C-11.8104 36.1738 -13.8059 32.3726 -13.8584 28.1017C-13.8742 26.9508 -14.0633 25.953 -15.5704 26.085L-15.5336 26.0639C-15.4286 25.4092 -15.3656 24.7652 -16.0325 24.3375C-16.4736 23.9257 -16.6207 23.4295 -16.4684 22.8435C-15.2973 21.3917 -15.8802 18.6412 -17.4609 18.1713C-17.4976 18.3402 -17.5344 18.5039 -17.5712 18.6728C-18.7895 19.1216 -18.2013 20.151 -18.2013 20.9113C-18.2276 27.748 -18.1908 34.5847 -18.1908 41.4267C-18.1908 41.8437 -18.3589 42.2608 -18.4481 42.6779C-18.4481 36.6172 -18.4481 30.5566 -18.4481 24.4959C-18.6582 24.4959 -18.8735 24.4959 -19.0836 24.4959C-19.0836 28.788 -19.0573 33.0801 -19.0888 37.3722C-19.1203 41.7909 -19.5142 42.1394 -23.8991 41.9071C-24.0723 41.8965 -24.2509 41.8912 -24.4189 41.9282C-28.6305 42.9207 -32.8946 41.849 -37.122 42.2186C-37.8309 42.2819 -38.3035 41.8649 -38.4453 41.1944C-38.6764 40.0857 -38.9967 38.9612 -39.002 37.842C-39.044 26.4123 -39.0335 14.9879 -39.023 3.55816C-39.023 2.43894 -39.0755 0.839313 -37.6734 0.897385C-36.3658 0.944899 -36.3658 2.49702 -36.4183 3.65847C-36.4288 3.92243 -36.4656 4.1864 -36.5233 4.4398C-36.6651 5.02053 -37.0432 5.70684 -36.0507 5.84938C-35.1002 5.98136 -34.9637 5.33201 -34.8481 4.54011C-34.407 1.44115 -33.4723 0.665095 -30.2427 0.659816C-23.857 0.649257 -17.4504 0.353616 -11.091 0.770681C-7.28899 1.01881 -2.55226 -0.818392 -0.0578613 4.1336C-9.53674e-05 4.24975 0.257214 4.26031 0.420006 4.32366L0.409512 4.32894Z" fill="#045A9C"/>
<path d="M85.3451 23.287C86.4898 27.3204 87.2513 31.4224 87.4876 35.6089C87.5296 36.3321 87.7344 36.9287 87.9917 37.5569C87.0832 38.2908 87.5979 39.1091 87.8079 39.9485C88.1178 41.1944 87.5559 41.6959 86.285 41.6959C81.4223 41.7065 76.5595 41.7857 71.6967 41.8121C68.2151 41.8279 68.2151 41.8121 68.005 38.2169C67.8685 35.8781 65.8152 34.099 63.6307 34.6058C61.7034 35.0546 59.8759 34.9331 57.9592 34.5213C55.0972 33.9037 52.7026 36.0787 53.1069 38.956C53.4483 41.3844 52.1354 42.1869 50.1924 42.2608C46.8788 42.3875 43.5547 42.3136 40.2358 42.2978C37.6154 42.2872 34.932 42.6673 32.5426 41.1363C33.2358 37.1082 33.929 33.0801 34.6221 29.052C35.5464 27.4735 36.1975 25.8633 36.6176 24.0102C37.5576 19.9135 37.5156 15.7006 38.4556 11.6038C38.9598 9.41293 40.2463 7.5071 40.01 4.96775C39.7159 1.82656 41.0288 0.87628 44.2899 0.665107C44.9883 0.622873 45.6868 0.654549 46.3852 0.654549C56.431 0.628152 66.4717 0.601755 76.5175 0.575359C76.5175 0.575359 76.4597 0.527845 76.4597 0.533124C76.8641 1.3567 77.6308 1.15608 78.2977 1.1772C79.7208 1.21943 80.8026 2.10108 80.9864 3.28365C81.5431 6.84718 82.7719 10.2523 82.8559 13.9531C82.9242 16.8198 84.7989 19.4911 84.6414 22.5373C84.6309 22.7696 85.0982 23.0336 85.3398 23.2817L85.3451 23.287ZM62.6907 21.6557C64.0035 21.7084 64.2031 21.1488 64.0298 19.866C63.8145 18.2347 62.2548 16.9571 62.8167 15.2043C63.2526 13.8528 62.5804 12.8339 61.9975 11.7992C61.0207 10.0728 60.5061 10.7908 60.212 12.2215C59.2878 13.3566 60.0335 14.8876 59.3088 16.0701C56.9247 16.6403 57.3028 18.7362 57.0717 20.3886C56.9247 21.4128 57.2555 22.796 58.5211 22.6904C59.9074 22.5743 61.8347 24.0155 62.6854 21.6451L62.6907 21.6557Z" fill="#045A9C"/>
<path d="M0.409508 4.329C0.246716 4.26565 -0.010601 4.2551 -0.068367 4.13895C-2.56276 -0.813045 -7.2995 1.02416 -11.1015 0.776028C-17.4609 0.358962 -23.8675 0.654604 -30.2532 0.665162C-33.4828 0.670442 -34.4175 1.44122 -34.8586 4.54546C-34.9689 5.33207 -35.1107 5.98671 -36.0612 5.85473C-37.0537 5.71746 -36.6756 5.02587 -36.5338 4.44515C-36.4708 4.19174 -36.4393 3.92778 -36.4288 3.66381C-36.3763 2.50236 -36.3763 0.950245 -37.6839 0.902731C-39.0912 0.849938 -39.0335 2.44957 -39.0335 3.5635C-39.0492 14.9932 -39.0545 26.4229 -39.0125 37.8474C-39.0125 38.9666 -38.6869 40.0911 -38.4558 41.1997C-38.314 41.8755 -37.8414 42.2873 -37.1325 42.2239C-32.9051 41.8544 -28.641 42.9261 -24.4294 41.9335C-24.2614 41.8966 -24.0829 41.9019 -23.9096 41.9124C-19.5247 42.1447 -19.1308 41.791 -19.0993 37.3775C-19.0678 33.0854 -19.0941 28.7933 -19.0941 24.5013C-18.884 24.5013 -18.6687 24.5013 -18.4586 24.5013C-18.4586 30.5619 -18.4586 36.6226 -18.4586 42.6832C-25.0859 43.2323 -31.7236 42.7624 -38.3561 42.9366C-40.2045 42.9841 -39.6531 41.6643 -39.6584 40.751C-39.6899 32.5786 -39.6741 24.401 -39.6741 16.2286C-39.6741 11.4825 -39.6269 6.73637 -39.7057 1.99027C-39.7267 0.564855 -39.4011 0.0210861 -37.8467 0.0316447C-25.9523 0.0897171 -14.0527 0.036924 -2.15841 0.0685999C0.892632 0.0738792 -0.299427 2.81384 0.409508 4.33428V4.329Z" fill="#225A84"/>
<path d="M32.5426 41.1364C34.9372 42.6674 37.6207 42.2873 40.2358 42.2979C43.5547 42.3137 46.8788 42.3876 50.1924 42.2609C52.1302 42.187 53.4483 41.3793 53.1069 38.9561C52.7026 36.0789 55.1024 33.8985 57.9592 34.5215C59.8759 34.9385 61.7034 35.06 63.6307 34.6059C65.81 34.0938 67.8633 35.8782 68.005 38.217C68.2203 41.8122 68.2203 41.8333 71.6967 41.8122C76.5595 41.7858 81.4223 41.7013 86.285 41.6961C87.5559 41.6961 88.1178 41.1945 87.8079 39.9486C87.5979 39.1092 87.0885 38.2909 87.9917 37.5571C88.7847 38.6129 88.4644 39.938 88.8635 41.0995C89.2836 42.319 88.7007 42.9261 87.4508 42.9261C81.2437 42.9261 75.0314 42.8997 68.8243 42.9367C67.5114 42.942 67.5954 42.0075 67.3591 41.1945C66.3579 37.6891 64.0683 35.9328 60.4903 35.9258C55.0289 35.9152 55.0079 35.9099 53.9051 41.3582C53.6741 42.4879 53.233 42.9684 51.9936 42.9525C45.9598 42.8892 39.926 42.8997 33.8922 42.9367C32.5111 42.9472 31.8494 42.6041 32.5373 41.1364H32.5426Z" fill="#225A84"/>
<path d="M76.5175 0.580638C66.4717 0.607035 56.431 0.633431 46.3852 0.659828C45.6868 0.659828 44.9831 0.628152 44.2899 0.670387C41.034 0.87628 39.716 1.83184 40.01 4.97303C40.2516 7.5071 38.9598 9.41821 38.4556 11.6091C37.5156 15.7059 37.5524 19.9188 36.6177 24.0155C36.1923 25.8685 35.5464 27.4787 34.6221 29.0573C36.1765 19.9029 37.7414 10.7539 39.2696 1.59955C39.4324 0.607035 39.695 0.0157518 40.8608 0.0210312C52.4768 0.0632657 64.0875 0.0632657 75.7035 0.0791036C76.0764 0.0791036 76.3705 0.221645 76.5228 0.591197L76.5175 0.580638Z" fill="#225A84"/>
<path d="M-15.5809 26.085C-14.0685 25.953 -13.8847 26.9508 -13.8689 28.1017C-13.8164 32.3674 -11.8209 36.1738 -10.8337 40.2124C-10.2087 42.7571 -7.24698 42.2239 -5.21995 42.2503C4.10647 42.3664 13.4329 42.2978 22.7593 42.3031C23.8936 42.3031 25.0226 42.3453 26.1569 42.3664C25.5478 43.3484 24.571 42.8996 23.7728 42.9049C13.1913 42.9366 2.60983 42.8732 -7.96642 42.9788C-10.3558 43.0052 -11.6319 42.3822 -12.1465 39.8535C-13.0865 35.2235 -14.7827 30.7678 -15.5809 26.0903V26.085Z" fill="#225A84"/>
<path d="M85.3451 23.2871C85.0983 23.039 84.6309 22.7803 84.6466 22.5427C84.8042 19.4966 82.9294 16.82 82.8612 13.9586C82.7771 10.2578 81.5483 6.85263 80.9917 3.2891C80.8079 2.10653 79.7261 1.23016 78.303 1.18265C77.6361 1.16153 76.8641 1.36215 76.465 0.538574C82.8927 0.686395 81.5483 0.0528769 82.6669 5.67007C83.7644 11.1817 84.5889 16.7461 85.5131 22.2893C85.5656 22.6008 85.4081 22.9493 85.3503 23.2819L85.3451 23.2871Z" fill="#225A84"/>
<path d="M27.0602 41.807C26.241 40.4502 27.1494 39.104 27.1389 37.7472C27.0497 26.6448 27.0707 15.5424 27.1232 4.44527C27.1284 3.1096 26.7766 1.87424 26.5875 0.59137C27.9056 0.485784 27.8794 1.34103 27.8794 2.29659C27.8689 14.9511 27.8846 27.6109 27.8584 40.2654C27.8584 40.8356 28.2207 41.7753 27.0549 41.8122L27.0602 41.807Z" fill="#225A84"/>
<path d="M5.71338 24.2532C4.63685 23.7253 4.01194 22.9598 3.96993 21.6558C3.92792 20.3782 3.80189 19.0426 2.36827 18.3615C2.13721 18.2507 1.90614 17.765 1.94815 17.4957C2.54681 13.8002 0.372745 10.3739 0.913636 6.68896C2.76212 11.5037 3.79663 16.5507 5.13048 21.508C5.37204 22.4108 5.51908 23.3346 5.70813 24.2532H5.71338Z" fill="#225A84"/>
<path d="M26.6086 0.617727C21.3099 0.633565 16.0166 0.638844 10.7179 0.659961C7.55136 0.675799 6.89495 1.37795 7.21003 4.58777C7.31505 5.65419 7.45684 6.6467 6.64288 7.49139C6.60087 5.48525 6.58512 3.47911 6.50635 1.47298C6.46959 0.491023 6.81093 0.0370025 7.83494 0.0422818C13.916 0.079237 19.9971 0.0845163 26.0834 0.13203C26.2567 0.13203 26.4353 0.44351 26.6086 0.612448V0.617727Z" fill="#225A84"/>
<path d="M0.929393 6.4672C0.162694 6.00262 0.388506 5.25296 0.399008 4.56665C0.918893 5.10514 0.929393 5.78089 0.929393 6.4672Z" fill="#225A84"/>
<path d="M59.3141 16.0754C60.0335 14.8929 59.2878 13.3619 60.2173 12.2268C62.0658 15.0988 62.3021 18.3983 62.6959 21.6557C62.2653 21.624 61.8242 21.5395 61.3988 21.5712C58.2008 21.8193 58.1115 21.7085 58.8467 18.6465C59.0515 17.8018 59.167 16.936 59.3193 16.0754H59.3141Z" fill="#FDFEFE"/>
<path d="M62.6959 21.6611C62.3021 18.4038 62.0658 15.1042 60.2173 12.2323C60.5114 10.8016 61.026 10.0836 62.0027 11.8099C62.5856 12.8394 63.2578 13.8636 62.822 15.2151C62.2601 16.9678 63.8145 18.2454 64.035 19.8767C64.2083 21.1543 64.0088 21.7139 62.6959 21.6664V21.6611Z" fill="#225A84"/>
<path d="M59.314 16.0754C59.1565 16.9307 59.041 17.8018 58.8414 18.6465C58.1062 21.7085 58.1955 21.8141 61.3936 21.5712C61.8242 21.5395 62.2601 21.624 62.6907 21.6557C61.8399 24.0261 59.9127 22.5848 58.5263 22.701C57.2555 22.8066 56.9299 21.4234 57.077 20.3992C57.3133 18.7468 56.9352 16.6509 59.314 16.0807V16.0754Z" fill="#225A84"/>
</g>
<defs>
<clipPath id="clip0_114_1225">
<rect width="157" height="43" fill="white" transform="translate(-68)"/>
</clipPath>
</defs>
</svg>
