<svg width="35" height="33" viewBox="0 0 35 33" fill="none" xmlns="http://www.w3.org/2000/svg">
<path d="M18.8738 12.449C19.2281 13.7495 19.5679 15.0248 19.9222 16.2974C20.866 19.6854 21.8127 23.0705 22.7624 26.4557C23.015 27.3599 23.2735 28.2641 23.5581 29.1599C23.5929 29.2716 23.8165 29.3944 23.9559 29.3972C24.8504 29.4167 25.7419 29.4027 26.6364 29.4027C26.8165 29.4027 26.9994 29.3972 27.1795 29.4223C27.8184 29.5116 28.1001 29.8381 28.1001 30.4604C28.1001 31.0297 28.103 31.5963 28.1001 32.1656C28.1001 32.7851 27.9665 32.9526 27.3334 32.9693C26.163 33 24.9898 32.9944 23.8194 32.9944C16.173 32.9972 8.52943 32.9972 0.882966 33C0.191793 33 -0.00568455 32.8242 0.000123627 32.1544C0.00302771 31.507 0.00012363 30.8567 0.0698217 30.2121C0.124999 29.693 0.490914 29.4279 1.03688 29.4083C1.41151 29.3944 1.78614 29.3776 2.15786 29.4055C2.45408 29.4279 2.53539 29.333 2.53249 29.0595C2.51797 27.9348 2.51506 26.8101 2.52087 25.6855C2.52668 24.6585 3.08136 24.1366 4.16168 24.1199C4.58568 24.1143 5.00677 24.1087 5.43077 24.1255C5.67761 24.1338 5.77345 24.0613 5.77054 23.8101C5.76183 21.4212 5.76183 19.0324 5.75602 16.6435C5.75602 16.1607 5.7415 16.1914 5.23038 16.1356C5.00096 16.1104 4.72507 15.9904 4.57696 15.823C3.96711 15.1309 3.70283 14.302 3.77253 13.4034C3.81319 12.862 4.20234 12.5327 4.72217 12.3736C5.76764 12.0555 6.82182 11.7597 7.8702 11.4527C12.0869 10.2136 16.3037 8.96616 20.5262 7.73544C22.1525 7.26101 23.7875 6.81729 25.4225 6.38193C25.8058 6.28147 25.9365 6.13077 25.9539 5.72332C26.0149 4.45074 26.1514 3.18374 26.2676 1.91396C26.3053 1.51209 26.3373 1.10185 26.4418 0.713941C26.6016 0.122304 26.9936 -0.0925827 27.6209 0.0357913C28.6547 0.247887 29.5056 0.783709 30.2868 1.44232C32.4155 3.24514 33.6556 5.52517 34.1783 8.17917C34.6488 10.5541 34.4194 12.8844 33.6178 15.1672C33.5656 15.3179 33.5133 15.5049 33.3971 15.5942C33.0806 15.8342 33.0951 16.1411 33.0951 16.4705C33.0951 20.6789 33.0951 24.8873 33.0864 29.0985C33.0864 29.3246 33.1474 29.4251 33.3855 29.4083C33.4813 29.4027 33.5772 29.4111 33.6759 29.4139C34.5152 29.4251 34.9537 29.8186 34.9828 30.6195C35.0031 31.1637 35.006 31.7079 34.9886 32.2521C34.974 32.7014 34.733 32.9442 34.2625 32.9553C33.2258 32.9777 32.1861 32.9749 31.1465 32.9777C30.8067 32.9777 30.5714 32.8102 30.5656 32.4837C30.554 31.7218 30.5366 30.9572 30.6034 30.1981C30.6469 29.7097 31.0564 29.439 31.5937 29.3944C32.1135 29.3497 32.1048 29.3497 32.1048 28.8641C32.1048 24.9906 32.1048 21.1198 32.1077 17.2463C32.1077 16.9449 32.1251 16.6435 32.1106 16.3421C32.1048 16.2221 32.07 16.0853 31.9944 15.9932C31.3555 15.209 30.6818 14.4527 30.0603 13.6546C29.221 12.5802 28.4079 11.4834 27.6093 10.3811C27.4321 10.1383 27.255 10.0601 26.9791 10.1383C26.0178 10.4062 25.0566 10.6713 24.0982 10.942C22.4574 11.4053 20.8166 11.8713 19.1758 12.3374C19.0625 12.3681 18.9522 12.4127 18.8651 12.4434L18.8738 12.449ZM15.0927 13.5848C14.9126 13.6099 14.7993 13.6099 14.6919 13.6406C14.0327 13.8304 13.3793 14.0286 12.72 14.2183C10.8846 14.7514 9.05216 15.2872 7.21387 15.809C6.90023 15.8984 6.77245 16.0184 6.77245 16.3532C6.77826 18.8565 6.76665 21.3598 6.75213 23.8659C6.75213 24.0668 6.82182 24.1338 7.02801 24.1227C7.31842 24.1087 7.60883 24.1031 7.89634 24.1227C8.72981 24.1785 9.23512 24.6529 9.26706 25.4538C9.30772 26.4948 9.31934 27.5385 9.32224 28.5823C9.32224 29.4279 9.31063 29.4167 10.1906 29.4111C10.4432 29.4111 10.5565 29.3134 10.6204 29.0902C11.9301 24.5636 13.2457 20.0398 14.5583 15.516C14.7384 14.8965 14.9039 14.2714 15.0927 13.5848ZM32.5288 15.1616C32.6333 14.9551 32.7263 14.8323 32.7582 14.6955C32.9818 13.702 33.2868 12.7141 33.3884 11.7095C33.644 9.20058 33.1241 6.82566 31.7708 4.6433C30.8328 3.12793 29.587 1.91117 27.8997 1.15209C27.4031 0.928828 27.3537 0.962317 27.2956 1.46744C27.1824 2.45815 27.0575 3.44607 26.9617 4.43679C26.9152 4.91679 26.8107 5.42471 26.9239 5.87681C27.1504 6.76147 27.5047 7.61265 27.8155 8.47778C28.0391 9.10011 28.2685 9.71128 28.6954 10.2527C29.6567 11.4722 30.5743 12.7225 31.5182 13.9504C31.8231 14.3467 32.1571 14.7207 32.5259 15.1616H32.5288ZM6.92347 14.9132C7.07738 14.8714 7.18193 14.8435 7.28648 14.8128C11.7036 13.5206 16.1178 12.2285 20.5349 10.9392C22.5416 10.3532 24.5513 9.77826 26.558 9.195C26.9907 9.06941 27.0052 9.04151 26.8745 8.63685C26.741 8.2294 26.5841 7.82474 26.4854 7.40892C26.4186 7.12427 26.2966 7.0852 26.0324 7.16334C24.3974 7.64335 22.7565 8.11219 21.1186 8.58941C17.7848 9.56337 14.4538 10.5401 11.1228 11.5169C9.56618 11.9718 8.00959 12.4295 6.45591 12.8871C6.28747 12.9374 6.07838 12.9485 6.18002 13.2192C6.36588 13.7076 6.53141 14.2044 6.72018 14.6928C6.75503 14.7821 6.86248 14.8462 6.92637 14.9104L6.92347 14.9132ZM14.0472 32.0539C17.3433 32.0567 20.6395 32.0567 23.9356 32.0567C24.8881 32.0567 25.8436 32.0456 26.7961 32.0567C27.0662 32.0595 27.1679 31.9702 27.1591 31.719C27.1475 31.4065 27.1504 31.0939 27.1591 30.7814C27.1649 30.5386 27.072 30.4046 26.799 30.4269C26.6916 30.4353 26.5812 30.4269 26.4738 30.4269C18.5659 30.4269 10.6552 30.4269 2.74739 30.4269C2.22756 30.4269 1.70773 30.4381 1.1908 30.4353C0.993321 30.4353 0.906199 30.4995 0.914911 30.6976C0.926527 30.9879 0.917815 31.2781 0.917815 31.5656C0.917815 31.8911 1.09206 32.0539 1.44055 32.0539C5.64276 32.0539 9.84498 32.0539 14.0472 32.0539ZM17.0181 29.3999C18.6705 29.3972 20.3258 29.3999 21.9783 29.3916C22.167 29.3916 22.3529 29.3134 22.5416 29.2716C22.4429 29.079 22.3529 28.8837 22.2425 28.6967C22.2048 28.6297 22.1176 28.5906 22.0509 28.5404C21.2116 27.9376 20.3694 27.3348 19.5301 26.732C18.7867 26.199 18.0432 25.6631 17.294 25.1357C17.1546 25.038 17.0268 24.865 16.7945 25.0352C15.3744 26.0734 13.9426 27.0976 12.5225 28.1357C12.235 28.345 11.9679 28.5851 11.7268 28.839C11.6165 28.9562 11.5816 29.1404 11.5148 29.2967C11.6716 29.333 11.8314 29.3972 11.9882 29.3972C13.6668 29.4055 15.3424 29.4027 17.021 29.4027L17.0181 29.3999ZM5.90704 29.3944C6.60692 29.3944 7.30681 29.3888 8.00669 29.3972C8.2245 29.3999 8.33776 29.3609 8.33776 29.1153C8.33485 27.9906 8.34937 26.866 8.35228 25.7441C8.35228 25.4036 8.13737 25.1524 7.83245 25.1524C6.5895 25.1441 5.34655 25.1413 4.10069 25.1524C3.64185 25.158 3.4647 25.345 3.4618 25.7776C3.45308 26.8799 3.4618 27.9795 3.45599 29.0818C3.45599 29.3246 3.55763 29.4027 3.80448 29.3999C4.50436 29.3888 5.20425 29.3972 5.90413 29.3944H5.90704ZM20.1167 21.4491C20.079 21.3877 20.0674 21.3515 20.0441 21.3291C19.1206 20.4947 18.1942 19.6658 17.2765 18.8258C17.0907 18.6556 16.9571 18.6863 16.7857 18.837C16.1846 19.3728 15.5602 19.8863 14.9736 20.4361C14.6222 20.7654 14.3202 21.1421 13.9746 21.5217C13.9455 21.4715 13.9572 21.5133 13.9833 21.5301C14.9504 22.2222 15.9145 22.9198 16.8932 23.5952C16.9745 23.651 17.1952 23.6147 17.294 23.545C17.9154 23.1068 18.5224 22.6464 19.1322 22.1915C19.4633 21.9459 19.7915 21.6947 20.1196 21.4463L20.1167 21.4491ZM16.9745 17.1179C16.9745 17.1179 17.0036 17.1179 17.0297 17.0984C17.5757 16.6267 18.1216 16.1579 18.6589 15.6751C18.7112 15.6277 18.7286 15.4993 18.7053 15.4239C18.4875 14.6314 18.2581 13.8444 18.0287 13.0546C17.9677 12.8425 17.8341 12.7532 17.596 12.8257C17.2185 12.943 16.8264 13.0183 16.4605 13.1634C16.3008 13.2276 16.1207 13.3951 16.0742 13.5513C15.8651 14.2239 15.6909 14.9104 15.5283 15.5942C15.4992 15.717 15.5428 15.9123 15.6328 15.9932C16.0597 16.3756 16.5128 16.73 16.9774 17.1123L16.9745 17.1179ZM20.593 22.3701C20.4071 22.4789 20.2503 22.5571 20.1138 22.6575C19.4517 23.1403 18.7954 23.6343 18.1303 24.1143C17.9096 24.2734 17.9241 24.385 18.1361 24.5385C19.2048 25.3115 20.2677 26.0929 21.3335 26.8715C21.5281 27.0139 21.7256 27.1562 21.9231 27.2985C21.9521 27.2818 21.9783 27.265 22.0073 27.2455C21.5426 25.6408 21.078 24.0361 20.593 22.3673V22.3701ZM13.568 22.3924C13.0772 24.0529 12.6155 25.6185 12.1537 27.1869C12.1828 27.2064 12.2089 27.226 12.2379 27.2455C13.539 26.2827 14.8371 25.3199 16.2165 24.2985C15.3395 23.6678 14.4944 23.0594 13.5651 22.3924H13.568ZM32.735 32.0511C33.0835 32.0511 33.432 32.0484 33.7805 32.0511C33.9779 32.0511 34.0622 31.9758 34.0563 31.7804C34.0447 31.4121 34.0622 31.0409 34.036 30.6725C34.0302 30.5888 33.8937 30.4437 33.8153 30.4437C33.1183 30.4269 32.4213 30.4241 31.7244 30.4437C31.6285 30.4465 31.4659 30.6111 31.4572 30.7088C31.4252 31.0632 31.4543 31.4232 31.4485 31.7804C31.4456 31.9981 31.553 32.0567 31.7621 32.0511C32.0874 32.04 32.4126 32.0484 32.7379 32.0484L32.735 32.0511ZM17.6395 17.863C18.351 18.5133 19.0277 19.1328 19.7073 19.7524C19.7537 19.7245 19.8031 19.6965 19.8496 19.6714C19.5795 18.6919 19.3065 17.7151 19.0132 16.6546C18.5253 17.0844 18.1129 17.4472 17.6395 17.863ZM14.4015 19.5068C14.4363 19.5263 14.4712 19.5458 14.5031 19.5682C14.6135 19.4872 14.7326 19.4147 14.8342 19.3254C15.1711 19.0268 15.4992 18.7226 15.8332 18.4212C16.2398 18.0547 16.2311 17.69 15.8071 17.3272C15.6096 17.1598 15.4063 17.0007 15.1798 16.8165C14.9039 17.7654 14.6512 18.6361 14.3986 19.5068H14.4015ZM5.68342 15.3374C5.72989 15.2956 5.77635 15.2537 5.82282 15.2118C5.62534 14.6369 5.43948 14.0565 5.22748 13.4872C5.15488 13.289 4.99225 13.2946 4.88189 13.4676C4.818 13.5709 4.7454 13.716 4.77444 13.8193C4.88189 14.2183 4.99515 14.623 5.17811 14.9914C5.25652 15.1476 5.50918 15.223 5.68342 15.3346V15.3374Z" fill="#ECC06F"/>
</svg>
