<svg width="97" height="97" viewBox="0 0 97 97" fill="none" xmlns="http://www.w3.org/2000/svg">
<path d="M19.7326 9.20631C22.5683 7.19931 25.624 5.57803 28.7038 3.99292C31.6782 2.96832 34.5892 1.74483 37.7052 1.16322C39.212 0.873922 40.7188 0.587637 42.2255 0.298339C43.7262 0.198893 45.227 0.0994463 46.7247 0C48.2315 0 49.7352 0 51.242 0C52.7427 0.198893 54.2435 0.397786 55.7412 0.599692L60.2584 1.50073C63.3594 2.33849 66.3216 3.55596 69.2689 4.81862C70.0675 5.23449 70.8691 5.64734 71.6676 6.06321C72.2975 6.59359 72.9966 7.01247 73.7651 7.30478C75.2688 8.39568 76.7725 9.48657 78.2763 10.5775C79.771 11.9034 81.2657 13.2294 82.7574 14.5553C82.9262 14.7452 83.0919 14.938 83.2607 15.1279C86.9703 19.2896 90.0019 23.9003 92.3916 28.9358C92.913 30.3221 93.4373 31.7083 93.9587 33.0945C94.3625 34.5983 94.7663 36.105 95.1701 37.6088C95.7608 40.5861 96.1194 43.5936 96.3725 46.6132C96.3484 48.1169 96.3243 49.6207 96.3002 51.1214C96.2248 51.1937 96.2218 51.2721 96.2911 51.3504C96.2399 51.5704 96.1887 51.7934 96.1374 52.0134C96.0862 52.815 96.035 53.6136 95.9838 54.4152C95.2545 57.8596 94.6367 61.3312 93.3982 64.6491C92.2349 67.7832 90.6679 70.7214 89.0647 73.6445C88.3776 74.4702 87.7568 75.3441 87.2867 76.3175C86.6961 76.6701 86.4731 77.318 86.0813 77.8303C83.6223 80.7895 80.9433 83.5349 77.9508 85.9607C77.4446 86.3585 76.7846 86.5634 76.4411 87.1631C75.5491 87.7598 74.6601 88.3595 73.7681 88.9562C70.8208 90.5714 67.8495 92.1415 64.7064 93.3529C61.5784 94.4378 58.3479 95.1188 55.1234 95.83C54.4243 95.8903 53.7251 95.9476 53.026 96.0078C52.8 96.056 52.574 96.1043 52.351 96.1525C51.9803 96.1796 51.6066 96.2067 51.236 96.2369C49.7292 96.2369 48.2254 96.2368 46.7187 96.2399C45.8297 96.2188 44.9407 96.1947 44.0517 96.1736C43.8438 96.1254 43.6389 96.0801 43.4309 96.0319C43.0271 96.0018 42.6203 95.9686 42.2165 95.9385C39.1788 95.378 36.1261 94.8717 33.188 93.8712C31.6902 93.3378 30.1895 92.8014 28.6918 92.268C25.6451 90.6588 22.6015 89.0406 19.7537 87.0878C18.2228 85.8101 16.6949 84.5323 15.1641 83.2576C14.9561 83.0647 14.7512 82.8689 14.5433 82.676C13.2505 81.2627 11.9547 79.8493 10.6619 78.436C10.5715 78.3395 10.4781 78.2431 10.3876 78.1467C8.31736 75.2507 6.22898 72.3667 4.70113 69.1302C3.44147 66.183 2.30839 63.1875 1.36214 60.1258C1.14517 58.607 0.873952 57.0972 0.41891 55.6266C0.304396 54.1259 0.189882 52.6252 0.0753686 51.1274C0.0512604 49.6207 0.0241387 48.1169 3.05176e-05 46.6102C0.295356 45.1426 -0.0511997 43.6238 0.337545 42.1622C0.560546 40.6404 0.783547 39.1216 1.00655 37.5997C1.87444 34.5531 2.85685 31.5425 4.01404 28.5923C5.52985 25.4703 7.31988 22.505 9.22141 19.606C9.86631 19.1359 10.1918 18.4096 10.6679 17.8039C11.4695 16.8938 12.2741 15.9867 13.0757 15.0767C13.7748 14.3835 14.477 13.6904 15.1761 13.0003C16.0832 12.1927 16.9933 11.3851 17.9004 10.5775C18.5091 10.1194 19.1178 9.66136 19.7235 9.2033L19.7326 9.20631ZM1.87444 48.1862C1.77801 73.4878 22.6286 95.0495 49.3615 94.3624C73.9489 93.7296 94.8175 73.9458 94.4258 47.2701C94.0551 21.9867 73.4305 1.51882 47.3093 1.90153C22.0259 2.2722 1.76294 22.9992 1.87444 48.1862Z" fill="#090909"/>
<path d="M87.7237 31.0634C84.3937 30.1503 81.341 29.3818 78.1949 29.0925C74.8107 28.7791 71.4295 28.4989 68.0182 28.7098C59.3423 29.2402 50.8442 30.9519 42.3038 32.4255C36.2557 33.4682 30.1593 34.2667 23.9876 34.0226C19.1268 33.8298 14.3986 32.989 9.79395 31.3888C8.73018 31.0182 8.76935 30.6264 9.18823 29.8007C16.0108 16.3544 26.7601 8.22689 41.6921 5.69854C45.5735 5.0416 49.47 4.909 53.3363 5.4876C57.941 6.17468 62.4553 7.27462 66.6802 9.35094C74.214 13.0576 80.2893 18.3855 84.7222 25.5275C85.7769 27.2272 86.6358 29.0473 87.7206 31.0664L87.7237 31.0634Z" fill="#EC2725"/>
<path d="M74.9735 62.5426C75.2869 62.5576 75.6003 62.5757 75.9137 62.5908C75.9529 62.8499 76.0553 63.094 76.3446 63.0971C77.7128 63.1151 79.0387 63.6546 80.4249 63.4285L80.3978 63.4135C81.8895 64.3236 83.6645 64.3416 85.2556 64.9413C85.9789 65.2125 86.8226 65.2939 87.0788 66.2221L87.1089 66.1889C86.7202 66.2582 86.6961 66.5144 86.7805 66.8278L86.8106 66.7916C86.4309 66.8549 86.3977 67.1081 86.461 67.4184L86.4942 67.3793C86.1265 67.4516 86.0904 67.7047 86.1506 68.0091L86.1808 67.9729C85.8161 68.0513 85.798 68.3104 85.8433 68.6058L85.8764 68.5726C85.5148 68.6359 85.5027 68.8981 85.5238 69.1814L85.5419 69.1663C84.8397 69.1814 84.8608 69.6274 84.9693 70.1246L84.9995 70.0884C84.6318 70.1397 84.6077 70.4018 84.6318 70.6941L84.6589 70.667C84.3666 70.7122 84.3275 70.9051 84.3757 71.1492C83.6675 72.0894 82.9563 73.0296 82.2481 73.9668C81.9377 74.0633 81.8805 74.2953 81.9196 74.5786L81.9287 74.5635C81.7358 74.5967 81.6364 74.7112 81.6273 74.904L81.6545 74.8739C81.4375 74.9161 81.3531 75.0457 81.3923 75.2626L81.4224 75.2355C80.7112 75.2928 80.3225 75.6273 80.4159 76.3867L80.4279 76.3686C80.3225 76.4801 80.217 76.5946 80.1145 76.7061L80.1447 76.673C80.0362 76.7905 79.9307 76.905 79.8222 77.0225L79.8614 76.9834C79.6625 77.0195 79.554 77.1401 79.5359 77.339L79.5781 77.2938C79.3762 77.3299 79.2677 77.4474 79.2647 77.6554C79.0809 78.0502 78.7766 78.3334 78.4029 78.5444C78.1829 78.5383 78.0654 78.6438 78.0443 78.8608L78.0895 78.8216C77.8695 78.8156 77.7519 78.9211 77.7309 79.138L77.77 79.0989C77.5651 79.1079 77.4446 79.2104 77.4174 79.4153L77.4476 79.3882C77.2547 79.4002 77.1342 79.4966 77.1101 79.6955C77.1101 79.6955 77.1251 79.6805 77.1282 79.6805C76.9383 79.6986 76.8298 79.801 76.8087 79.9909L76.8208 79.9818C76.6219 79.9879 76.5164 80.0903 76.5074 80.2892L76.5164 80.2771C76.4139 80.3826 76.3085 80.4881 76.206 80.5936L76.2211 80.5845C76.0312 80.6026 75.6425 80.4218 75.9077 80.8979C73.9308 82.0853 72.3156 83.803 70.2181 84.8185C69.736 84.7522 69.4196 84.9391 69.299 85.4212L69.3231 85.3971C69.0338 85.364 68.7807 85.4001 68.7053 85.7437L68.7475 85.7075C68.6029 85.7949 68.4613 85.8793 68.3166 85.9667C68.3166 85.9667 68.2172 85.9938 68.2172 85.9968C68.0544 86.0902 67.8887 86.1836 67.726 86.2771L67.6868 86.3464L67.6084 86.3343C67.4457 86.4157 67.283 86.4971 67.1202 86.5784L67.0359 86.6055C66.8641 86.6929 66.6923 86.7833 66.5205 86.8707L66.4753 86.934L66.4 86.9129C65.5833 86.8406 64.7847 86.8075 64.4261 87.7778L64.3207 87.82C63.8174 87.7025 63.3443 87.7868 62.8651 87.9797C60.2313 89.0375 57.4649 89.5648 54.7015 90.1434C53.9722 90.2971 52.9506 89.61 52.4956 90.7582C52.2726 90.7732 52.0496 90.7913 51.8236 90.8064C51.031 90.1434 50.0938 90.487 49.25 90.5261C43.2803 90.7943 37.5787 89.6582 32.0519 87.4614C31.1508 87.1028 30.3462 86.3494 29.2493 86.6176C29.2493 86.6176 29.2885 86.6507 29.2885 86.6477C29.2011 86.3042 28.963 86.2469 28.6586 86.3132L28.6858 86.3373C28.6164 85.9757 28.3693 85.9426 28.071 86.0028L28.0921 86.0119C28.0107 85.6623 27.7486 85.6653 27.4713 85.6955L27.4924 85.7135C27.4171 85.367 27.1489 85.373 26.8807 85.3821L26.8957 85.3941C26.8837 84.7281 26.4527 84.7221 25.9645 84.8035C25.9645 84.8035 25.9887 84.8065 25.9887 84.8095C25.9073 84.472 25.6572 84.4569 25.3829 84.487L25.395 84.4961C25.3407 84.252 25.1599 84.1887 24.9399 84.1827C24.9399 84.1827 24.8767 84.1706 24.8737 84.1706C24.7411 84.0742 24.6085 83.9808 24.4759 83.8843L24.4849 83.8964C24.503 83.2153 24.0419 83.2485 23.5778 83.2877L23.5869 83.2937C23.5688 83.0797 23.4483 82.9893 23.2403 83.0104L23.2735 83.0285C23.2162 82.6699 22.948 82.6729 22.6768 82.6819L22.6919 82.694C22.6798 82.4951 22.5683 82.3957 22.3724 82.3836L22.3905 82.3956C22.3423 82.1937 22.2097 82.1124 22.0078 82.1335L22.044 82.1727C22.0319 81.7899 21.7727 81.7598 21.4804 81.7779L21.4895 81.7869C21.4744 81.591 21.3659 81.4946 21.1761 81.4795L21.1851 81.4886C21.17 81.2897 21.0646 81.1902 20.8687 81.1842L20.8837 81.1963C20.8506 80.9944 20.727 80.9009 20.5281 80.907L20.5492 80.9371C20.5613 80.1204 19.9737 80.0421 19.371 79.9818L19.383 79.9909C19.2775 79.8854 19.1751 79.7799 19.0696 79.6775L19.0817 79.6895C19.0636 79.4997 18.9581 79.3972 18.7683 79.3761L18.7803 79.3882C18.6748 79.2857 18.5694 79.1802 18.4609 79.0778L18.4759 79.0928C18.3675 78.9874 18.262 78.8819 18.1535 78.7794L18.1746 78.7975C18.0661 78.692 17.9606 78.5835 17.8521 78.4781L17.8732 78.4992C17.7678 78.3907 17.6593 78.2852 17.5538 78.1767L17.5719 78.1948C17.4664 78.0893 17.3609 77.9808 17.2525 77.8754L17.2705 77.8935C17.1651 77.788 17.0626 77.6795 16.9571 77.574L16.9722 77.5891C16.8667 77.4836 16.7643 77.3781 16.6588 77.2727L16.6739 77.2877C16.5684 77.1823 16.4629 77.0768 16.3544 76.9713L16.3665 76.9864C16.3846 76.4259 16.1495 76.0944 15.5528 76.0883L15.4624 76.0401V75.9407C15.4504 75.7086 15.3901 75.5098 15.1068 75.4887L15.143 75.5278C15.137 75.332 15.0466 75.2054 14.8477 75.1692L14.8627 75.1873C14.7573 75.0818 14.6518 74.9733 14.5463 74.8679L14.5584 74.8829C14.6006 74.3978 14.5945 73.9488 13.9105 73.994L13.9466 74.0211C13.8442 73.9035 13.7417 73.783 13.6392 73.6655L13.6573 73.6866C13.6664 73.2345 13.7176 72.7524 13.0335 72.7795L13.0576 72.7916C12.9552 72.6801 12.8527 72.5686 12.7533 72.4571L12.7683 72.4782C12.7472 72.216 12.7412 71.9448 12.4037 71.8754L12.4308 71.9146C12.4941 71.4294 12.5092 70.9774 11.8251 70.9774L11.8552 70.9955C11.7588 70.8659 11.6624 70.7393 11.5659 70.6098L11.5117 70.5043C11.5237 70.2903 11.4514 70.1276 11.2314 70.0583L11.2555 70.0854C11.2465 69.8202 11.2405 69.549 10.906 69.4676L10.9331 69.5068C10.9843 69.1994 10.9602 68.9403 10.5685 68.8951L10.6106 68.9342C10.5263 68.7896 10.4449 68.6419 10.3605 68.4973L10.3063 68.3948C10.3696 68.0754 10.3726 67.7861 9.95068 67.7228L9.96575 67.7349C9.92959 66.0774 9.93562 66.0563 11.6563 66.5144C15.4353 67.5179 19.2926 67.9036 23.1831 67.9488C27.173 67.997 31.1448 67.8795 35.1287 67.4034C41.1527 66.6831 47.0773 65.4175 53.0652 64.5014C57.9772 63.748 62.8531 62.648 67.8766 62.8168C69.7751 62.8801 71.6797 62.8439 73.5812 62.8198C74.0544 62.8138 74.5938 63.0187 74.9825 62.5396L74.9735 62.5426Z" fill="#2C2F80"/>
<path d="M26.9078 48.0477C26.9078 45.4982 26.9439 42.9458 26.8897 40.3963C26.8716 39.4802 27.0193 39.0794 28.0891 39.0975C32.54 39.1608 36.994 39.1427 41.448 39.1035C42.2797 39.0975 42.5359 39.3085 42.548 40.1703C42.5992 43.6178 42.6323 43.6178 39.221 43.6178C37.5184 43.6178 35.8157 43.6901 34.1191 43.5907C33.0343 43.5274 33.2452 44.1753 33.1759 44.8021C33.0975 45.5284 33.3236 45.7544 34.0679 45.7333C35.867 45.679 37.6721 45.7484 39.4711 45.7032C40.2577 45.6821 40.5801 45.8147 40.5831 46.7368C40.5922 50.2234 40.6344 50.2204 37.1266 50.1933C36.1774 50.1843 35.2161 50.2837 34.2788 50.1782C33.2482 50.0637 33.2271 50.567 33.1638 51.3686C33.0825 52.4113 33.652 52.3329 34.3421 52.3299C36.7439 52.3118 39.1457 52.357 41.5475 52.3088C42.328 52.2937 42.5359 52.5107 42.551 53.2972C42.6203 56.8351 42.6504 56.8351 39.1577 56.8351C35.4541 56.8351 31.7535 56.805 28.0499 56.8562C27.1278 56.8683 26.8626 56.6392 26.8867 55.696C26.959 53.1466 26.9108 50.5941 26.9108 48.0447L26.9078 48.0477Z" fill="#090909"/>
<path d="M71.1614 38.8323C72.7796 38.6967 74.3497 38.8594 75.8775 39.4018C76.6852 39.6881 77.4265 40.0889 78.0654 40.6434C79.9277 42.2556 79.771 43.1115 77.5018 43.9281C76.9925 44.112 76.4802 44.2988 75.989 44.5248C75.1242 44.9196 74.4642 45.1245 73.747 44.0728C73.072 43.0813 70.6762 42.9698 69.5733 43.5906C69.2568 43.7684 68.9645 43.9402 68.9796 44.3591C68.9947 44.793 69.3382 44.9768 69.6546 45.0642C70.8902 45.4108 72.1317 45.7362 73.3854 46.0075C74.9855 46.354 76.5405 46.8 77.9117 47.7342C80.6359 49.5905 80.7474 53.4991 78.1015 55.485C75.4526 57.4709 72.3788 57.6336 69.2598 57.3353C67.8947 57.2057 66.5206 56.9435 65.2368 56.3619C64.3177 55.9461 63.4709 55.4609 62.7808 54.7075C61.3554 53.1555 61.4006 52.9416 63.3865 52.1942C63.941 51.9863 64.5166 51.8236 65.0379 51.5523C66.0203 51.034 66.7044 51.1033 67.6114 51.9471C69.073 53.3032 70.9956 53.1254 72.8369 52.7698C73.3371 52.6734 73.8615 52.3841 73.9127 51.8688C73.97 51.2932 73.3763 51.0159 72.9243 50.8924C71.2096 50.4253 69.4557 50.0938 67.7501 49.5996C66.2734 49.1686 64.8089 48.6051 63.8687 47.2792C62.0184 44.6664 63.0008 41.1286 65.951 39.7213C67.6024 38.9347 69.3533 38.6575 71.1614 38.8323Z" fill="#090909"/>
<path d="M8.26913 48.0266C8.26913 45.4259 8.26612 42.8253 8.26913 40.2246C8.26913 39.6972 8.11846 39.0734 9.02251 39.1096C12.7141 39.2603 16.4207 38.7992 20.1002 39.3868C23.2946 39.8991 24.8315 41.3065 25.3498 44.1723C25.7867 46.6072 24.4939 49.0964 22.0048 50.4555C20.049 51.5223 17.9245 52.2064 15.824 52.8995C14.6819 53.2762 14.3655 53.8668 14.5584 54.9215C14.8326 56.4223 14.3263 57.0702 12.7081 56.8592C11.575 56.7116 10.4087 56.7839 9.26058 56.8472C8.45296 56.8924 8.24503 56.6001 8.25708 55.8226C8.29927 53.2219 8.27215 50.6212 8.27215 48.0206H8.26612L8.26913 48.0266ZM14.5614 48.6926C15.5799 48.3521 16.5503 48.0598 17.4544 47.5505C18.4759 46.9749 19.3137 46.2396 18.9732 44.9799C18.6447 43.7595 17.5448 43.6058 16.4448 43.6178C16.1435 43.6208 15.8421 43.648 15.5438 43.6118C14.8025 43.5244 14.483 43.7293 14.5342 44.5731C14.6186 45.9171 14.5553 47.2702 14.5553 48.6956L14.5614 48.6926Z" fill="#090909"/>
<path d="M44.9256 47.8458C44.9256 45.2451 44.9286 42.6414 44.9226 40.0407C44.9226 39.5194 44.8623 39.0674 45.6579 39.1035C49.4007 39.2753 53.1586 38.7962 56.8923 39.3959C59.9059 39.881 61.3765 41.2221 61.94 44.2145C62.3317 46.2818 61.4307 48.8191 58.9807 50.2355C56.9164 51.4289 54.6503 52.125 52.4323 52.9175C51.3143 53.3183 50.7839 53.8276 51.0853 55.0391C51.4288 56.4132 51.0009 57.0641 49.4489 56.8562C47.9813 56.6573 45.9924 57.471 45.1517 56.5428C44.4224 55.7382 44.9377 53.7915 44.9256 52.348C44.9106 50.8472 44.9226 49.3465 44.9226 47.8458H44.9256ZM51.034 48.8101C52.0858 48.4123 52.9778 48.129 53.8216 47.7403C55.4428 46.9899 56.0666 45.7062 55.4308 44.5761C54.9787 43.7715 52.128 43.1477 51.2781 43.66C50.9497 43.8589 51.034 44.1632 51.034 44.4525C51.034 45.8478 51.034 47.2461 51.034 48.8131V48.8101Z" fill="#090909"/>
<path d="M87.8352 38.8474C87.8352 44.6334 87.8231 50.2204 87.8502 55.8075C87.8533 56.5458 87.7297 56.8924 86.8859 56.8532C85.4394 56.7869 83.9899 56.805 82.5404 56.8472C81.8202 56.8683 81.6153 56.6332 81.6213 55.91C81.6575 51.3174 81.6514 46.7248 81.6424 42.1322C81.6424 41.3999 81.8322 41.0262 82.6429 40.7821C84.3666 40.2638 86.0301 39.5375 87.8352 38.8504V38.8474Z" fill="#090909"/>
<path d="M74.9734 62.5426C74.5847 63.0187 74.0453 62.8168 73.5721 62.8229C71.6706 62.844 69.7691 62.8831 67.8675 62.8198C62.844 62.6481 57.9681 63.751 53.0561 64.5044C47.0712 65.4205 41.1466 66.6892 35.1196 67.4064C31.1357 67.8826 27.1639 68.0001 23.174 67.9519C19.2835 67.9037 15.4262 67.5179 11.6473 66.5174C9.92655 66.0624 9.92052 66.0805 9.95668 67.7379C9.50164 66.9454 9.0466 66.1498 8.48608 65.1794C14.4709 66.9845 20.4136 67.7319 26.4467 67.5722C31.5275 67.4366 36.5691 66.8248 41.5866 65.9871C48.6081 64.8148 55.5844 63.3532 62.6662 62.5788C66.7495 62.1297 70.866 61.9489 74.9674 62.5456L74.9734 62.5426Z" fill="#282765"/>
<path d="M29.2402 86.6178C30.3371 86.3466 31.1418 87.103 32.0428 87.4616C37.5696 89.6585 43.2712 90.7916 49.241 90.5264C50.0848 90.4872 51.025 90.1467 51.8145 90.8066C49.5182 91.4364 47.1526 91.2165 44.8684 91.0266C39.9412 90.6168 35.1528 89.4204 30.6084 87.3983C30.1292 87.1844 29.6923 86.88 29.2372 86.6178H29.2402Z" fill="#282765"/>
<path d="M52.4865 90.7582C52.9416 89.61 53.9631 90.2941 54.6924 90.1434C57.4558 89.5648 60.2252 89.0375 62.856 87.9797C63.3352 87.7869 63.8083 87.7025 64.3116 87.82C60.5567 89.5467 56.609 90.5111 52.4865 90.7582Z" fill="#282765"/>
<path d="M87.0758 66.2192C86.8196 65.2911 85.9758 65.2127 85.2526 64.9385C83.6614 64.3388 81.8865 64.3207 80.3948 63.4106C82.7303 63.4257 84.8367 64.372 87.0065 65.053C87.8804 65.3272 87.3741 65.8064 87.0758 66.2162V66.2192Z" fill="#282765"/>
<path d="M80.4219 63.4286C79.0357 63.6516 77.7098 63.1122 76.3416 63.0971C76.0493 63.0941 75.9499 62.85 75.9107 62.5908C77.4597 62.627 78.9875 62.7807 80.4219 63.4286Z" fill="#282765"/>
<path d="M64.4171 87.7778C64.7787 86.8105 65.5743 86.8406 66.3909 86.9129C65.8003 87.3559 65.1644 87.6935 64.4171 87.7778Z" fill="#282765"/>
<path d="M19.3559 79.9819C19.9586 80.0392 20.5462 80.1206 20.5342 80.9372C20.0369 80.7504 19.6241 80.4581 19.3559 79.9819Z" fill="#282765"/>
<path d="M80.4098 76.3868C80.3164 75.6304 80.7052 75.2929 81.4164 75.2356C81.2386 75.7569 80.883 76.1216 80.4098 76.3868Z" fill="#282765"/>
<path d="M23.5688 83.2877C24.0328 83.2486 24.4939 83.2154 24.4758 83.8965C24.1293 83.7608 23.7405 83.6855 23.5688 83.2877Z" fill="#282765"/>
<path d="M84.9663 70.1248C84.8578 69.6246 84.8367 69.1786 85.5389 69.1665C85.4726 69.5613 85.3008 69.8928 84.9663 70.1248Z" fill="#282765"/>
<path d="M25.9555 84.8065C26.4437 84.7251 26.8747 84.7311 26.8867 85.3971C26.5311 85.2705 26.1424 85.1982 25.9555 84.8065Z" fill="#282765"/>
<path d="M13.9044 73.9941C14.5885 73.9489 14.5945 74.3979 14.5524 74.8831C14.1636 74.7143 14.0491 74.3437 13.9044 73.9941Z" fill="#282765"/>
<path d="M15.5468 76.0884C16.1435 76.0944 16.3755 76.4289 16.3605 76.9864C15.9657 76.7996 15.7156 76.4801 15.5468 76.0884Z" fill="#282765"/>
<path d="M11.819 70.9775C12.5031 70.9775 12.488 71.4296 12.4247 71.9147C12.0631 71.7068 11.8883 71.3753 11.819 70.9775Z" fill="#282765"/>
<path d="M13.0275 72.7797C13.7115 72.7556 13.6603 73.2347 13.6513 73.6867C13.2685 73.5059 13.136 73.1503 13.0275 72.7797Z" fill="#282765"/>
<path d="M69.287 85.4214C69.4075 84.9362 69.7239 84.7493 70.2061 84.8187C70.0313 85.2194 69.6818 85.3551 69.287 85.4214Z" fill="#282765"/>
<path d="M26.8746 85.3821C27.1428 85.3701 27.411 85.3671 27.4863 85.7136C27.2453 85.6744 26.971 85.6895 26.8746 85.3821Z" fill="#282765"/>
<path d="M28.6496 86.3132C28.954 86.2439 29.192 86.3042 29.2794 86.6477C29.0414 86.5875 28.743 86.6477 28.6496 86.3132Z" fill="#282765"/>
<path d="M68.6933 85.7467C68.7716 85.4032 69.0217 85.367 69.311 85.4002C69.2267 85.7316 68.9343 85.6985 68.6933 85.7467Z" fill="#282765"/>
<path d="M27.4653 85.6955C27.7425 85.6654 28.0017 85.6654 28.0861 86.0119C27.836 85.9908 27.5497 86.0391 27.4653 85.6955Z" fill="#282765"/>
<path d="M81.9136 74.5817C81.8744 74.2984 81.9317 74.0664 82.2421 73.97C82.1758 74.199 82.2782 74.5154 81.9136 74.5817Z" fill="#282765"/>
<path d="M28.062 86.003C28.3603 85.9427 28.6074 85.9728 28.6767 86.3375C28.4357 86.2923 28.1403 86.3495 28.062 86.003Z" fill="#282765"/>
<path d="M75.8986 80.898C75.6334 80.4249 76.0222 80.6027 76.212 80.5846C76.1066 80.6901 76.0011 80.7925 75.8986 80.898Z" fill="#282765"/>
<path d="M21.4684 81.7779C21.7607 81.7598 22.0198 81.7899 22.0319 82.1726C21.7968 82.1094 21.5588 82.0521 21.4684 81.7779Z" fill="#282765"/>
<path d="M86.7774 66.8249C86.693 66.5115 86.7171 66.2553 87.1059 66.186C87.0396 66.4211 87.0607 66.7013 86.7774 66.8249Z" fill="#282765"/>
<path d="M15.1008 75.4888C15.3841 75.5099 15.4443 75.7057 15.4564 75.9408C15.3359 75.7901 15.2183 75.6394 15.1008 75.4888Z" fill="#282765"/>
<path d="M86.1506 68.0092C86.0903 67.7049 86.1265 67.4517 86.4941 67.3794C86.4339 67.6175 86.467 67.9098 86.1506 68.0092Z" fill="#282765"/>
<path d="M10.5624 68.8953C10.9542 68.9375 10.9753 69.1996 10.9271 69.507C10.6137 69.4166 10.6257 69.1333 10.5624 68.8953Z" fill="#282765"/>
<path d="M85.5238 69.1815C85.5057 68.8982 85.5148 68.636 85.8764 68.5728C85.8221 68.8138 85.8493 69.1001 85.5238 69.1815Z" fill="#282765"/>
<path d="M85.8432 68.606C85.795 68.3107 85.8161 68.0515 86.1808 67.9731C86.1265 68.2142 86.1657 68.5065 85.8432 68.606Z" fill="#282765"/>
<path d="M86.461 67.4156C86.3977 67.1052 86.4309 66.8521 86.8106 66.7888C86.7413 67.0239 86.7593 67.3071 86.461 67.4156Z" fill="#282765"/>
<path d="M9.94464 67.7229C10.3695 67.7862 10.3635 68.0725 10.3002 68.3949C10.1797 68.1719 10.0622 67.9489 9.94464 67.7229Z" fill="#282765"/>
<path d="M84.3696 71.1523C84.3214 70.9082 84.3606 70.7154 84.6529 70.6702C84.5926 70.851 84.6318 71.0921 84.3696 71.1523Z" fill="#282765"/>
<path d="M12.3977 71.8755C12.7352 71.9448 12.7412 72.216 12.7623 72.4782C12.5062 72.3577 12.4459 72.1226 12.3977 71.8755Z" fill="#282765"/>
<path d="M22.6647 82.6822C22.9359 82.6731 23.2041 82.6701 23.2614 83.0287C23.0022 83.0167 22.7611 82.9745 22.6647 82.6822Z" fill="#282765"/>
<path d="M84.6258 70.6943C84.6017 70.402 84.6258 70.1399 84.9934 70.0886C84.9362 70.3297 84.9422 70.61 84.6258 70.6943Z" fill="#282765"/>
<path d="M10.8999 69.4678C11.2344 69.5522 11.2404 69.8204 11.2495 70.0856C10.9421 69.9861 10.9481 69.7119 10.8999 69.4678Z" fill="#282765"/>
<path d="M25.3739 84.487C25.6481 84.4599 25.9012 84.475 25.9796 84.8095C25.7265 84.7944 25.4613 84.8095 25.3739 84.487Z" fill="#282765"/>
<path d="M67.7169 86.2771C67.8796 86.1837 68.0454 86.0902 68.2081 85.9968C68.1086 86.2048 67.9459 86.2982 67.7169 86.2771Z" fill="#282765"/>
<path d="M66.5145 86.8709C66.6863 86.7835 66.858 86.6931 67.0298 86.6057C66.9213 86.8167 66.7465 86.898 66.5145 86.8709Z" fill="#282765"/>
<path d="M81.6213 74.9072C81.6334 74.7143 81.7298 74.5968 81.9227 74.5667C81.8232 74.6812 81.7208 74.7927 81.6213 74.9072Z" fill="#282765"/>
<path d="M81.3893 75.2657C81.3471 75.0487 81.4315 74.9191 81.6514 74.877C81.5641 75.0065 81.4767 75.1361 81.3893 75.2657Z" fill="#282765"/>
<path d="M14.8416 75.1692C15.0405 75.2054 15.1309 75.3319 15.1369 75.5278C15.0375 75.4073 14.9411 75.2897 14.8416 75.1692Z" fill="#282765"/>
<path d="M80.1085 76.7062C80.214 76.5947 80.3195 76.4802 80.4219 76.3687C80.3165 76.4802 80.211 76.5947 80.1085 76.7062Z" fill="#282765"/>
<path d="M16.3454 76.9714C16.4508 77.0769 16.5563 77.1824 16.6648 77.2879C16.5593 77.1824 16.4539 77.0769 16.3454 76.9714Z" fill="#282765"/>
<path d="M12.7472 72.457C12.8497 72.5685 12.9521 72.68 13.0516 72.7915C12.8527 72.7674 12.7623 72.6469 12.7472 72.457Z" fill="#282765"/>
<path d="M68.3076 85.9699C68.4522 85.8825 68.5939 85.7981 68.7385 85.7107C68.6752 85.9277 68.5185 85.997 68.3076 85.9699Z" fill="#282765"/>
<path d="M17.5447 78.1768C17.6502 78.2852 17.7587 78.3907 17.8642 78.4992C17.6713 78.4781 17.5628 78.3726 17.5447 78.1768Z" fill="#282765"/>
<path d="M16.9481 77.574C17.0535 77.6794 17.156 77.7879 17.2615 77.8934C17.0656 77.8753 16.9661 77.7638 16.9481 77.574Z" fill="#282765"/>
<path d="M17.8431 78.478C17.9516 78.5835 18.057 78.692 18.1655 78.7975C17.9727 78.7794 17.8642 78.6709 17.8431 78.478Z" fill="#282765"/>
<path d="M78.0382 78.8609C78.0593 78.6439 78.1798 78.5354 78.3968 78.5445C78.2763 78.6499 78.1557 78.7554 78.0382 78.8609Z" fill="#282765"/>
<path d="M18.1444 78.7766C18.2529 78.8821 18.3584 78.9876 18.4669 79.09C18.271 79.075 18.1655 78.9695 18.1444 78.7766Z" fill="#282765"/>
<path d="M77.7249 79.1382C77.7459 78.9212 77.8665 78.8158 78.0835 78.8218C77.9629 78.9273 77.8424 79.0327 77.7249 79.1382Z" fill="#282765"/>
<path d="M18.4488 79.0779C18.5543 79.1803 18.6597 79.2858 18.7682 79.3883C18.5814 79.3672 18.4669 79.2738 18.4488 79.0779Z" fill="#282765"/>
<path d="M77.4114 79.4153C77.4386 79.2104 77.5591 79.1079 77.764 79.0989C77.6465 79.2044 77.529 79.3098 77.4114 79.4153Z" fill="#282765"/>
<path d="M79.2587 77.6556C79.2587 77.4476 79.3702 77.3301 79.5721 77.2939C79.4666 77.4145 79.3642 77.535 79.2587 77.6556Z" fill="#282765"/>
<path d="M18.7562 79.3762C18.946 79.3943 19.0515 79.4998 19.0696 79.6896C18.9641 79.5842 18.8617 79.4817 18.7562 79.3762Z" fill="#282765"/>
<path d="M77.101 79.6956C77.1282 79.4967 77.2457 79.4002 77.4386 79.3882C77.4084 79.581 77.2939 79.6835 77.101 79.6956Z" fill="#282765"/>
<path d="M19.0575 79.6775C19.163 79.783 19.2655 79.8884 19.3709 79.9909C19.2655 79.8854 19.163 79.78 19.0575 79.6775Z" fill="#282765"/>
<path d="M76.7997 79.9911C76.8208 79.8012 76.9293 79.6987 77.1191 79.6807C77.104 79.8765 76.9925 79.973 76.7997 79.9911Z" fill="#282765"/>
<path d="M76.5013 80.2893C76.5104 80.0904 76.6159 79.988 76.8148 79.9819C76.7997 80.1748 76.6882 80.2712 76.5013 80.2893Z" fill="#282765"/>
<path d="M24.4668 83.8813C24.5994 83.9778 24.732 84.0712 24.8646 84.1676C24.6476 84.1917 24.509 84.1043 24.4668 83.8813Z" fill="#282765"/>
<path d="M20.5131 80.9071C20.715 80.904 20.8355 80.9944 20.8687 81.1964C20.6758 81.1933 20.5523 81.1029 20.5131 80.9071Z" fill="#282765"/>
<path d="M20.8536 81.1843C21.0495 81.1904 21.1579 81.2928 21.17 81.4887C20.9862 81.4676 20.8626 81.3862 20.8536 81.1843Z" fill="#282765"/>
<path d="M21.164 81.4797C21.3568 81.4918 21.4653 81.5912 21.4774 81.7871C21.2875 81.772 21.1821 81.6696 21.164 81.4797Z" fill="#282765"/>
<path d="M79.5299 77.339C79.551 77.1401 79.6595 77.0196 79.8553 76.9834C79.7468 77.1009 79.6384 77.2215 79.5299 77.339Z" fill="#282765"/>
<path d="M24.9309 84.1829C25.1509 84.1889 25.3287 84.2522 25.3859 84.4963C25.2352 84.3908 25.0816 84.2883 24.9309 84.1829Z" fill="#282765"/>
<path d="M21.9927 82.1335C22.1946 82.1094 22.3272 82.1908 22.3754 82.3957C22.2489 82.3083 22.1193 82.2209 21.9927 82.1335Z" fill="#282765"/>
<path d="M22.3604 82.3838C22.5562 82.3958 22.6677 82.4923 22.6798 82.6942C22.4929 82.6731 22.3754 82.5797 22.3604 82.3838Z" fill="#282765"/>
<path d="M10.3545 68.4973C10.4389 68.642 10.5202 68.7896 10.6046 68.9343C10.3997 68.8589 10.3454 68.6962 10.3545 68.4973Z" fill="#282765"/>
<path d="M11.5599 70.6099C11.6563 70.7394 11.7528 70.866 11.8492 70.9956C11.6382 70.9534 11.5509 70.8208 11.5599 70.6099Z" fill="#282765"/>
<path d="M17.2434 77.8755C17.3489 77.981 17.4543 78.0895 17.5628 78.1949C17.3699 78.1768 17.2615 78.0714 17.2434 77.8755Z" fill="#282765"/>
<path d="M11.2224 70.0613C11.4424 70.1306 11.5147 70.2933 11.5026 70.5073C11.4092 70.3596 11.3158 70.2089 11.2224 70.0613Z" fill="#282765"/>
<path d="M23.2283 83.0106C23.4362 82.9925 23.5567 83.0829 23.5748 83.2938C23.4603 83.2004 23.3428 83.104 23.2283 83.0106Z" fill="#282765"/>
</svg>
