<svg width="27" height="29" viewBox="0 0 27 29" fill="none" xmlns="http://www.w3.org/2000/svg">
<path d="M24.7162 22.1486C24.7162 22.5836 24.6262 23.0307 24.435 23.4657C24.2437 23.9007 23.9962 24.3115 23.67 24.6982C23.1187 25.3507 22.5112 25.8219 21.825 26.124C21.15 26.4261 20.4187 26.5832 19.6312 26.5832C18.4837 26.5832 17.2575 26.2932 15.9637 25.7011C14.67 25.109 13.3762 24.3115 12.0937 23.3086C10.8 22.2936 9.57375 21.1698 8.40375 19.9253C7.245 18.6686 6.19875 17.3515 5.265 15.974C4.3425 14.5965 3.6 13.219 3.06 11.8536C2.52 10.4761 2.25 9.159 2.25 7.90234C2.25 7.08067 2.385 6.29525 2.655 5.57025C2.925 4.83317 3.3525 4.1565 3.94875 3.55234C4.66875 2.79109 5.45625 2.4165 6.28875 2.4165C6.60375 2.4165 6.91875 2.489 7.2 2.634C7.4925 2.779 7.75125 2.9965 7.95375 3.31067L10.5637 7.26192C10.7662 7.564 10.9125 7.84192 11.0137 8.10775C11.115 8.3615 11.1712 8.61525 11.1712 8.84484C11.1712 9.13484 11.0925 9.42484 10.935 9.70275C10.7887 9.98067 10.575 10.2707 10.305 10.5607L9.45 11.5153C9.32625 11.6482 9.27 11.8053 9.27 11.9986C9.27 12.0953 9.28125 12.1798 9.30375 12.2765C9.3375 12.3732 9.37125 12.4457 9.39375 12.5182C9.59625 12.9169 9.945 13.4365 10.44 14.0648C10.9462 14.6932 11.4862 15.3336 12.0712 15.974C12.6787 16.6144 13.2637 17.2065 13.86 17.7503C14.445 18.2819 14.9287 18.6444 15.3112 18.8619C15.3675 18.8861 15.435 18.9223 15.5137 18.9586C15.6037 18.9948 15.6937 19.0069 15.795 19.0069C15.9862 19.0069 16.1325 18.9344 16.2562 18.8015L17.1112 17.8953C17.3925 17.5932 17.6625 17.3636 17.9212 17.2186C18.18 17.0494 18.4387 16.9648 18.72 16.9648C18.9337 16.9648 19.1587 17.0132 19.4062 17.1219C19.6537 17.2307 19.9125 17.3878 20.1937 17.5932L23.9175 20.4328C24.21 20.6503 24.4125 20.904 24.5362 21.2061C24.6487 21.5082 24.7162 21.8103 24.7162 22.1486Z" stroke="#202F66" stroke-miterlimit="10"/>
<path d="M20.8125 10.8749C20.8125 10.1499 20.2838 9.03825 19.4963 8.132C18.7763 7.29825 17.82 6.64575 16.875 6.64575" stroke="#202F66" stroke-linecap="round" stroke-linejoin="round"/>
<path d="M24.75 10.8748C24.75 6.19859 21.2287 2.4165 16.875 2.4165" stroke="#202F66" stroke-linecap="round" stroke-linejoin="round"/>
</svg>
