<svg width="38" height="36" viewBox="0 0 38 36" fill="none" xmlns="http://www.w3.org/2000/svg">
<rect opacity="0.1" width="38" height="36" rx="6" fill="#ECC06F"/>
<g clip-path="url(#clip0_172_11)">
<path d="M19.0061 28C17.0775 28 15.155 28 13.2264 28C11.219 27.994 10.0728 26.9159 10.0364 24.9172C10 22.3915 9.96969 19.8598 10.0667 17.3402C10.097 16.6558 10.4367 15.7957 10.9279 15.3414C13.1415 13.3245 15.434 11.3864 17.7567 9.49063C18.6301 8.78199 19.5701 8.86073 20.4434 9.58754C22.5964 11.3743 24.7251 13.1913 26.8477 15.0265C27.6543 15.723 27.9697 16.6739 27.9818 17.7096C28 20.0839 28.0121 22.4642 27.9818 24.8384C27.9515 26.9098 26.8053 27.994 24.719 28C22.8147 28 20.9165 28 19.0121 28H19.0061ZM22.5782 26.2557C23.3787 26.2557 24.0519 26.2557 24.7251 26.2557C25.9441 26.2557 26.2291 26.0074 26.2352 24.7839C26.2534 22.4097 26.2594 20.0354 26.2231 17.6551C26.217 17.2675 26.0593 16.7587 25.7864 16.5164C23.785 14.7418 21.7412 13.0157 19.7035 11.2895C19.2426 10.9019 18.7332 10.9079 18.2662 11.3016C16.2345 13.0399 14.2028 14.7782 12.1894 16.5407C11.9892 16.7163 11.8012 17.0434 11.7952 17.3038C11.7648 19.9809 11.7588 22.6519 11.8073 25.329C11.8073 25.6379 12.1833 26.177 12.432 26.2012C13.4084 26.3041 14.403 26.2436 15.44 26.2436C15.44 25.862 15.44 25.5894 15.44 25.3169C15.44 23.6937 15.44 22.0644 15.44 20.4412C15.44 18.8846 16.0222 18.2487 17.5748 18.176C18.4724 18.1336 19.376 18.1457 20.2736 18.1639C22.0263 18.2063 22.5842 18.7877 22.5842 20.5502C22.5842 22.4218 22.5842 24.2872 22.5842 26.2617L22.5782 26.2557ZM17.1745 26.2072H20.8315C20.8315 24.263 20.8437 22.3733 20.8134 20.4776C20.8134 20.2959 20.5222 19.9748 20.3464 19.9627C19.4488 19.9082 18.5452 19.9082 17.6476 19.9567C17.4778 19.9627 17.1988 20.2837 17.1927 20.4594C17.1624 22.3551 17.1745 24.2509 17.1745 26.2072Z" fill="#ECC06F"/>
</g>
<defs>
<clipPath id="clip0_172_11">
<rect width="18" height="19" fill="white" transform="translate(10 9)"/>
</clipPath>
</defs>
</svg>
