<svg width="98" height="98" viewBox="0 0 98 98" fill="none" xmlns="http://www.w3.org/2000/svg">
<g clip-path="url(#clip0_114_1190)">
<path d="M31.4545 74.2765C27.5445 74.2765 23.6365 74.2619 19.7284 74.2895C18.9956 74.2943 18.6991 74.0949 18.6215 73.4918C18.0361 68.9605 17.4158 64.4308 16.8342 59.8995C16.7528 59.2704 16.5143 58.7873 15.8785 58.4063C11.6545 55.8804 7.50216 53.2703 3.20833 50.8303C1.38418 49.7943 0.490525 48.6449 0.275349 46.7448C-0.730743 37.8135 0.990664 29.3815 6.25956 21.5136C8.98706 17.4427 12.1624 13.6458 16.303 10.4877C23.0956 5.3046 31.0726 2.06538 40.11 0.693823C49.5564 -0.740964 58.7586 0.04371 67.6467 3.09486C73.8635 5.23002 79.3941 8.25523 84.0485 12.3391C91.1106 18.5371 95.3017 25.9347 97.1626 34.3132C98.1571 38.7862 98.1726 43.2754 97.6938 47.784C97.6182 48.4909 97.3158 49.021 96.5908 49.4669C92.6149 51.91 88.6739 54.3954 84.7212 56.8661C83.8683 57.3995 83.0308 57.9491 82.1682 58.4695C81.7882 58.6998 81.668 58.9964 81.6215 59.3661C81.0438 63.9282 80.4371 68.4871 79.8807 73.0509C79.7857 73.8339 79.4833 74.1371 78.4637 74.1387C70.9034 74.1468 63.3451 74.2149 55.7849 74.249C55.1064 74.2522 54.5753 74.3932 54.0305 74.7629C50.7641 76.9694 47.6547 76.924 44.4213 74.6397C44.0026 74.343 43.5722 74.3073 43.0818 74.3073C39.2047 74.3122 35.3277 74.3089 31.4506 74.3089C31.4506 74.2976 31.4506 74.2862 31.4506 74.2765H31.4545Z" fill="#EE252A"/>
<path d="M14.0698 81.7148C16.4271 81.7148 18.7843 81.7164 21.1415 81.7131C21.6611 81.7131 22.1651 81.7715 22.671 81.8801C25.7029 82.5351 25.9762 83.3733 26.0092 85.8716C26.015 86.3158 25.7378 86.5168 25.2493 86.5379C22.9909 86.6401 20.7325 86.619 18.4741 86.5476C18.0011 86.5331 17.8422 86.3045 17.7801 85.9251C17.565 84.6232 17.2529 84.2568 15.8125 84.1093C14.0853 83.9326 12.329 83.9018 10.6192 84.2795C9.47357 84.5324 9.28166 84.8048 9.31074 85.8716C9.34369 87.0972 9.68875 87.5739 10.7627 87.7765C11.1989 87.8592 11.6564 87.8754 12.1061 87.89C15.169 87.984 18.2396 87.9597 21.2947 88.2143C22.547 88.318 23.6868 88.6763 24.7104 89.26C25.385 89.6442 25.9258 90.1743 26.0576 90.8796C26.2941 92.1603 26.4686 93.446 26.1701 94.743C25.7707 96.4728 24.5087 97.4974 22.324 97.6206C16.6849 97.94 11.036 98.0519 5.39493 97.6547C2.47358 97.4488 0.88205 95.8713 0.922759 93.4346C0.930513 92.9645 1.07203 92.7602 1.68266 92.7667C4.07286 92.791 6.46305 92.7894 8.85131 92.7699C9.37083 92.765 9.47551 92.9353 9.52398 93.3309C9.67906 94.5679 10.3013 95.0558 11.7727 95.0818C13.1606 95.1061 14.5506 95.0964 15.9366 95.0429C17.1986 94.9959 17.7995 94.3863 17.8635 93.2109C17.9352 91.8847 17.5204 91.3157 16.2119 91.1584C13.7151 90.8569 11.1911 90.9266 8.67878 90.8471C7.26172 90.8017 5.83497 90.8196 4.45474 90.5018C2.37471 90.0236 1.52564 89.0816 1.52564 87.274C1.52564 86.4115 1.53145 85.5441 1.62838 84.6865C1.76214 83.4997 2.62284 82.7264 3.89257 82.2692C4.81725 81.9369 5.7962 81.7634 6.80811 81.7634C9.22932 81.7618 11.6525 81.7634 14.0737 81.7634C14.0737 81.7472 14.0737 81.7326 14.0737 81.7164L14.0698 81.7148Z" fill="#EE252A"/>
<path d="M29.7717 89.8225C29.7717 87.4717 29.7989 85.1226 29.7543 82.7718C29.7407 82.086 30.016 81.8947 30.8069 81.9142C32.4198 81.9547 34.0365 81.9061 35.6513 81.9142C37.0082 81.9206 37.0179 81.9336 37.0315 83.0344C37.0431 84.1142 37.0839 85.1971 37.0257 86.2753C36.9869 87.0048 37.3533 87.1151 38.0706 86.9383C40.5965 86.3174 43.1669 86.3806 45.7529 86.5736C46.7009 86.6433 47.5965 86.8427 48.4572 87.1588C49.8199 87.6598 50.5818 88.4753 50.5585 89.7917C50.5197 92.0874 50.5701 94.383 50.5585 96.6787C50.5527 97.8362 50.4848 97.8849 49.0658 97.8881C47.484 97.893 45.9002 97.8476 44.3184 97.867C43.7136 97.8751 43.5411 97.679 43.5391 97.2072C43.5333 95.2082 43.448 93.2093 43.5004 91.2119C43.5217 90.4159 43.1282 89.97 42.3217 89.7528C40.7922 89.3394 39.2647 89.3832 37.7992 89.97C37.2699 90.1824 37.0238 90.5456 37.0296 91.0725C37.049 93.0439 37.0063 95.0169 37.0238 96.9883C37.0296 97.5817 36.859 97.8508 36.0526 97.8638C34.2439 97.8946 32.4392 97.9189 30.6286 97.8654C29.8881 97.8444 29.7175 97.5898 29.7233 97.0321C29.7465 94.6278 29.733 92.2236 29.733 89.8193H29.7698L29.7717 89.8225Z" fill="#EE252A"/>
<path d="M68.4957 93.078C66.4603 93.078 64.4248 93.0942 62.3913 93.0699C61.6547 93.0618 61.362 93.2612 61.3833 93.9097C61.424 95.2326 61.9144 95.693 63.5157 95.7319C64.388 95.753 65.2603 95.74 66.1307 95.7692C67.1019 95.8016 67.7475 95.4158 68.0731 94.6911C68.2767 94.2372 68.5713 94.0864 69.1451 94.0945C70.8898 94.1172 72.6345 94.075 74.3772 94.088C75.5248 94.0961 75.6624 94.2712 75.4221 95.2099C75.0324 96.7355 73.3944 97.859 71.2368 97.9206C67.1368 98.0389 63.033 98.0098 58.9311 97.9303C58.1557 97.9157 57.3841 97.8055 56.6533 97.585C55.2905 97.1732 54.3503 96.4372 54.0634 95.1937C53.604 93.2093 53.54 91.2314 54.0867 89.2503C54.4182 88.0473 55.3312 87.3032 56.6649 86.8622C57.5741 86.5606 58.524 86.3774 59.4894 86.3515C63.4924 86.2477 67.4974 86.1521 71.4869 86.5898C74.1911 86.8865 75.486 88.0424 75.6217 90.3105C75.6644 91.0109 75.6217 91.7145 75.6605 92.4165C75.6915 92.9564 75.4027 93.1136 74.7959 93.1088C72.6965 93.091 70.5971 93.1023 68.4957 93.1023C68.4957 93.0958 68.4957 93.0893 68.4957 93.0812V93.078Z" fill="#EE252A"/>
<path d="M90.4708 89.8581C90.4708 87.4847 90.4902 85.1112 90.4572 82.7377C90.4475 82.1216 90.6433 81.8882 91.4265 81.9093C93.0374 81.9547 94.6522 81.9093 96.265 81.9125C97.5948 81.9157 97.6627 81.9611 97.6685 83.1122C97.6898 87.3744 97.7053 91.6366 97.6956 95.8972C97.6918 97.8832 97.6627 97.8929 95.3171 97.9027C94.0919 97.9092 92.861 97.807 91.6436 97.8767C90.5309 97.94 90.3894 97.4957 90.4029 96.7338C90.4417 94.4413 90.4165 92.1489 90.4165 89.8549C90.4339 89.8549 90.4514 89.8549 90.4708 89.8549V89.8581Z" fill="#ED252A"/>
<path d="M86.301 89.8549C86.301 92.2559 86.2739 94.657 86.3204 97.0564C86.334 97.7097 86.0878 97.8719 85.3395 97.8557C83.5987 97.82 81.856 97.8524 80.1152 97.8751C79.396 97.8848 79.0917 97.6676 79.0859 97.0256C79.0316 92.2786 79.0393 87.5301 79.0975 82.7831C79.1052 82.1038 79.4367 81.8914 80.1986 81.9028C81.9394 81.9287 83.6821 81.9368 85.4248 81.906C86.1052 81.8947 86.3185 82.0925 86.3127 82.6502C86.2855 85.0512 86.301 87.4522 86.301 89.8533H86.3049L86.301 89.8549Z" fill="#ED252A"/>
<path d="M70.9983 49.0259C73.2296 47.1745 75.4608 45.323 77.694 43.4732C80.8654 40.7625 84.1027 38.1053 87.2974 35.4157C87.6619 35.1093 88.0127 34.9293 88.3985 35.3833C90.054 38.6079 90.0559 41.9395 89.298 45.3165C89.1952 45.7754 88.7707 46.0591 88.3578 46.3136C83.7344 49.154 79.1072 51.9895 74.4664 54.8088C74.0263 55.0763 73.8577 55.3665 73.8053 55.8059C73.3827 59.405 72.9078 62.9993 72.5084 66.5984C72.4387 67.2275 72.0102 67.1788 71.5334 67.1966C67.1426 67.3685 62.748 67.2972 58.3553 67.349C57.1592 67.3636 55.9632 67.4058 54.771 67.3701C53.9917 67.3474 53.447 67.5614 52.9236 68.051C51.2894 69.5782 49.4032 69.9365 47.3464 69.1891C46.5555 68.9006 45.9682 68.3899 45.4137 67.8678C45.0396 67.516 44.6519 67.362 44.0781 67.3636C38.5533 67.3815 33.0285 67.375 27.5037 67.3798C25.9801 67.3798 25.9917 67.3863 25.823 66.1088C25.4043 62.9198 24.9585 59.7341 24.563 56.5436C24.4874 55.9291 24.2121 55.5027 23.6228 55.1298C18.9626 52.1987 14.3257 49.2448 9.67128 46.3071C8.56245 45.6067 8.42869 44.5886 8.32983 43.5656C8.0565 40.7398 8.37054 37.9708 9.48325 35.2747C9.76627 34.5905 10.0706 34.8126 10.468 35.1482C13.7422 37.9108 17.0163 40.6734 20.2905 43.4359C25.036 47.4404 29.7834 51.4432 34.5289 55.446C34.6433 55.5416 34.7654 55.6308 34.8914 55.7135C35.0523 55.8189 35.2598 55.8951 35.4265 55.7913C35.6804 55.6308 35.4885 55.4395 35.3625 55.3017C34.4979 54.3598 33.6392 53.4146 32.7416 52.4937C28.3838 48.0208 24.0125 43.5559 19.6469 39.0862C16.9756 36.3528 14.3218 33.6064 11.6234 30.8925C11.1077 30.3737 11.1969 29.8435 11.2803 29.2907C11.4683 28.0667 12.0654 26.9383 12.7593 25.8861C13.7073 24.4465 14.9072 23.1333 16.2855 21.9433C16.7314 21.5591 17.0066 21.5299 17.3653 22.0471C19.9144 25.7337 22.483 29.4091 25.0631 33.0811C26.992 35.8243 28.9576 38.5495 30.8865 41.2927C32.7978 44.0115 34.6763 46.7465 36.5799 49.4701C37.3282 50.5418 38.1036 51.5988 38.8712 52.6607C39.0806 52.9509 39.2841 53.4681 39.7222 53.2784C40.2301 53.0579 39.8037 52.591 39.6369 52.2862C38.7103 50.5953 37.7469 48.9173 36.7873 47.2393C33.0557 40.7187 29.3221 34.1982 25.5846 27.6792C23.869 24.688 22.1592 21.6952 20.4088 18.7171C20.0734 18.1464 20.1761 17.7395 20.6142 17.2531C22.828 14.7921 25.6544 13.0346 29.0856 11.9274C29.8377 11.6858 30.1847 11.7166 30.4367 12.4786C31.6386 16.115 32.9471 19.7255 34.1878 23.3538C36.1651 29.1351 38.1055 34.9261 40.0847 40.7074C41.2634 44.1541 42.4846 47.5911 43.6865 51.033C43.7137 51.1108 43.7466 51.187 43.7737 51.2648C43.8571 51.5194 44.0258 51.7544 44.3631 51.6896C44.7023 51.6231 44.5899 51.3281 44.5511 51.1351C44.3514 50.1511 44.1362 49.1702 43.9056 48.191C42.7638 43.3224 41.6297 38.4539 40.4666 33.5886C39.5129 29.5955 38.5145 25.6105 37.5492 21.6191C36.6594 17.9453 35.8103 14.2652 34.8856 10.5979C34.7131 9.91378 34.9612 9.56846 35.6203 9.22314C38.7103 7.60678 42.1027 7.20147 45.6599 7.38467C46.2977 7.41709 46.5187 7.62785 46.542 8.18069C46.8405 14.7921 47.1681 21.4018 47.4996 28.0116C47.7555 33.1103 48.0288 38.2075 48.2963 43.3046C48.4281 45.8402 48.5619 48.3758 48.6957 50.9098C48.6995 50.9908 48.6957 51.0735 48.7112 51.153C48.7693 51.4253 48.6511 51.8712 49.0911 51.8663C49.5234 51.8615 49.4381 51.4205 49.4633 51.1384C49.8491 46.8551 49.8549 42.5572 50.0487 38.2674C50.4636 29.041 50.8164 19.8114 51.1983 10.5834C51.2332 9.74842 51.3185 8.91349 51.3553 8.07855C51.3708 7.73485 51.4483 7.52734 51.9446 7.51923C55.2924 7.45924 58.5918 7.59219 61.6644 8.90214C63.0504 9.49226 63.1357 9.62358 62.8449 10.9189C61.581 16.5641 60.3403 22.2108 59.0648 27.8543C58.0994 32.1181 57.0817 36.3739 56.1105 40.6377C55.3816 43.8428 54.6876 47.0545 53.9781 50.2629C53.9665 50.3164 53.9316 50.3683 53.9355 50.4202C53.9549 50.7169 53.6718 51.1757 54.1565 51.2486C54.5984 51.3167 54.6721 50.8352 54.7729 50.5353C56.6513 44.955 58.5104 39.3715 60.3966 33.7929C61.9842 29.0994 63.6029 24.4124 65.2022 19.7206C66.0415 17.2596 66.879 14.7969 67.6815 12.3278C67.8851 11.7004 68.1855 11.5772 68.8912 11.869C72.0955 13.1952 75.1255 14.7013 77.3237 17.1526C77.6998 17.5708 77.7735 17.9308 77.504 18.4106C74.5342 23.7088 71.5741 29.0119 68.6275 34.3198C66.4544 38.235 64.3066 42.1584 62.1451 46.0785C61.0518 48.0613 59.9546 50.0424 58.8574 52.0236C58.8167 52.0965 58.7643 52.1662 58.7275 52.2408C58.5724 52.5634 58.3049 52.9769 58.7546 53.1811C59.2296 53.3968 59.3827 52.9055 59.5533 52.6575C61.5248 49.7798 63.4672 46.8875 65.4328 44.0066C67.542 40.9133 69.6724 37.8297 71.7815 34.7364C74.6079 30.5909 77.4265 26.4422 80.2373 22.2886C81.0185 21.1359 80.9953 21.1278 82.0654 22.0989C84.093 23.939 85.8493 25.9169 86.7837 28.339C87.0997 29.1561 87.1249 29.816 86.3941 30.5715C82.5655 34.5321 78.8145 38.5463 75.0402 42.5426C72.3068 45.4365 69.5774 48.3353 66.846 51.2308C66.4467 51.8598 65.8613 52.3673 65.2894 52.8812L65.2971 52.8731C64.9405 53.7226 64.0371 54.2641 63.5796 55.0666C65.1227 53.7096 66.941 52.5959 68.3736 51.1335C69.1374 50.3537 69.9709 49.5933 71.0022 49.0275L70.9983 49.0259Z" fill="#FDEE17"/>
<path d="M70.9984 49.0259C68.4706 51.2405 65.997 53.5005 63.1532 55.4541C63.6029 54.4262 64.4462 53.6464 65.2953 52.8715C65.3205 53.1795 65.2914 53.4 65.8012 53.0871C67.447 52.0755 68.5365 50.6115 70.0602 49.5058C70.3393 49.3032 70.5293 48.9692 71.0003 49.0259H70.9984Z" fill="#D84826"/>
<path d="M88.3985 35.3833C87.8537 35.0801 87.5319 35.3687 87.1714 35.6719C84.1298 38.227 81.0786 40.7739 78.0254 43.3192C77.9382 43.3906 77.8045 43.423 77.692 43.4732C78.5488 42.4178 79.741 41.6234 80.7956 40.7253C82.9648 38.8787 85.167 37.058 87.3536 35.2261C87.7956 34.8564 88.1988 34.6392 88.3985 35.3833Z" fill="#F8AD31"/>
<path d="M65.2875 52.8797C65.6946 52.2555 66.2626 51.7383 66.8441 51.2292C66.6406 51.9864 66.0319 52.4792 65.2875 52.8797Z" fill="#D84826"/>
<path d="M64.9095 90.6948C64.136 90.6948 63.3625 90.7207 62.591 90.6867C61.7284 90.6477 61.4705 90.2457 61.8544 89.5939C62.1296 89.1254 62.6104 88.866 63.2074 88.7671C64.293 88.5872 65.3844 88.6066 66.4758 88.7396C66.8771 88.7882 67.2066 88.9617 67.4838 89.1854C67.8735 89.4983 68.3852 89.8242 68.1972 90.3365C68.0092 90.8488 67.3753 90.6461 66.9352 90.6818C66.2645 90.7353 65.5841 90.6964 64.9075 90.6948H64.9095Z" fill="#FBF6F6"/>
</g>
<defs>
<clipPath id="clip0_114_1190">
<rect width="98" height="98" fill="white"/>
</clipPath>
</defs>
</svg>
