<svg width="38" height="36" viewBox="0 0 38 36" fill="none" xmlns="http://www.w3.org/2000/svg">
<rect opacity="0.1" width="38" height="36" rx="6" fill="#ECC06F"/>
<path d="M27.8035 14.7071C28.1531 15.5463 28.4507 16.283 28.7706 17.0133C29.4624 18.5956 30.1542 20.178 30.8683 21.7475C31.1733 22.4138 30.9427 22.8558 30.236 23.1889C27.982 24.2716 25.7057 24.3677 23.4071 23.3042C22.4103 22.843 22.2243 22.5547 22.5888 21.645C23.3997 19.595 24.2775 17.5706 25.1329 15.5335C25.2371 15.29 25.3635 15.0466 25.5346 14.6942C23.7121 14.2714 21.9417 13.8614 20.0596 13.4258C20.0596 13.8486 20.0596 14.2138 20.0596 14.5725C20.0596 18.1216 20.0671 21.6642 20.0224 25.2133C20.015 25.918 20.1861 26.2191 21.0713 26.1614C22.1053 26.0973 23.1542 26.1358 24.1956 26.1486C24.8726 26.155 25.4603 26.3536 25.4603 27.0327C25.4603 27.7245 24.8875 27.9808 24.1584 27.9872C20.6696 27.9936 17.1808 27.9872 13.6919 28C12.9331 28 12.4943 27.6861 12.4719 27.0775C12.4571 26.4817 12.9703 26.1806 13.6175 26.1614C14.778 26.1294 15.9459 26.1358 17.1064 26.155C17.6345 26.1614 17.8949 26.0205 17.8875 25.5272C17.88 21.613 17.8875 17.6924 17.8875 13.7782C17.8875 13.7269 17.8428 13.6821 17.761 13.4963C16.0277 13.8422 14.2722 14.1946 12.3827 14.5725C12.5761 15.0274 12.7249 15.3861 12.8811 15.7449C13.6919 17.6796 14.5102 19.6142 15.3062 21.5617C15.7227 22.5739 15.5888 22.843 14.4953 23.3363C12.2562 24.342 10.0394 24.2908 7.83006 23.2402C7.08617 22.8878 6.82581 22.4202 7.11593 21.7347C7.95653 19.7552 8.80456 17.7756 9.66003 15.7961C9.80881 15.4566 9.96503 15.1171 10.1436 14.7199C9.80137 14.6942 9.56333 14.6558 9.33272 14.6558C8.66322 14.6558 8.16481 14.4572 8.14994 13.8166C8.12762 13.1503 8.66322 12.8941 9.32528 12.8236C10.1733 12.7403 11.0437 12.7724 11.8768 12.6186C13.5431 12.3111 15.1871 11.9203 16.8386 11.5488C17.6048 11.3758 17.8726 10.9274 17.9098 10.2547C17.9246 9.87676 18.1106 9.37707 18.4305 9.16567C19.1 8.73004 20.0596 9.2041 19.9629 9.99848C19.8067 11.3053 20.6919 11.6897 21.8449 11.8755C23.9725 12.215 26.1149 12.4969 28.2498 12.8044C28.5176 12.8428 28.8747 12.8044 29.0384 12.9453C29.3582 13.2016 29.7599 13.5603 29.7599 13.8678C29.7599 14.1241 29.2615 14.4444 28.9045 14.6174C28.6515 14.7455 28.2647 14.675 27.8109 14.7007L27.8035 14.7071ZM11.4677 17.5386C11.3263 17.5899 11.1924 17.6027 11.1701 17.6475C10.575 18.9672 9.97247 20.2805 9.42943 21.6194C9.38479 21.7347 9.72698 22.1127 9.92783 22.1319C10.7089 22.2088 11.4974 22.2088 12.2785 22.2152C13.0894 22.2152 13.2753 21.8628 13.0075 21.235C12.4943 20.0306 11.9958 18.8135 11.4677 17.5386ZM26.8811 17.5002C26.6877 17.6347 26.4868 17.7052 26.4347 17.8205C25.8917 19.0505 25.3412 20.2805 24.8726 21.5297C24.8205 21.677 25.1999 22.1063 25.4231 22.1383C26.1669 22.2344 26.9257 22.2152 27.6845 22.2216C28.5772 22.2216 28.6887 21.8116 28.4135 21.1774C27.9077 19.9986 27.4167 18.8071 26.8736 17.5002H26.8811Z" fill="#ECC06F"/>
</svg>
