<svg width="179" height="37" viewBox="0 0 179 37" fill="none" xmlns="http://www.w3.org/2000/svg">
<path d="M20.4105 0.0390378C20.6281 0.226419 20.6362 0.476261 20.6362 0.73391C20.6362 3.33383 20.6281 5.94155 20.6281 8.54146C20.6281 9.22853 20.757 9.34564 21.4661 9.34564C24.8665 9.34564 28.275 9.34564 31.6754 9.34564C31.8446 9.34564 32.0139 9.34564 32.175 9.36907C32.4409 9.4081 32.6021 9.55645 32.6021 9.83752C32.6021 10.1264 32.6021 10.4153 32.6021 10.7042C32.6021 11.0008 32.4329 11.1492 32.1508 11.1882C31.9977 11.2116 31.8446 11.2038 31.6835 11.2038C28.267 11.2038 24.8504 11.2038 21.4419 11.2038C20.757 11.2038 20.6281 11.3288 20.6281 11.9924C20.6281 13.2494 20.6281 14.5142 20.6281 15.7713C20.6281 16.3959 20.5717 16.4739 19.9271 16.6067C18.0415 16.997 16.3574 17.7778 14.9151 19.0192C12.3849 21.2131 11.1198 23.9614 11.4905 27.2406C11.9256 31.1053 14.1899 33.7364 17.7917 35.3448C18.944 35.8523 20.1608 36.1177 21.4258 36.2114C21.5709 36.2271 21.8126 36.2505 21.8287 36.1021C21.8448 35.9382 21.595 35.9382 21.4581 35.9148C20.056 35.6649 18.7426 35.1886 17.5661 34.4079C15.2535 32.8776 13.795 30.793 13.4969 28.0838C13.1424 24.8514 14.3913 22.2047 17.0182 20.2138C21.6353 16.716 28.6376 17.8715 31.6593 22.6029C34.1089 26.4364 33.1258 31.3395 29.3306 34.08C27.6384 35.298 25.6804 35.9772 23.6659 36.5081C22.9407 36.7033 22.1994 36.8282 21.45 36.8751C21.3372 36.8829 21.2002 36.8595 21.1438 37H20.6442C20.2897 36.8907 19.9271 36.8907 19.5725 37H19.0004C18.944 36.8595 18.807 36.8829 18.6942 36.8673C18.2591 36.8126 17.8159 36.7814 17.3808 36.7189C14.1496 36.2036 11.3052 34.8842 8.93616 32.6902C5.90641 29.8717 4.39153 26.413 4.39959 22.3296C4.40765 18.824 4.39959 15.3184 4.39959 11.8128C4.39959 11.2351 4.33513 11.1804 3.73884 11.1804C2.69938 11.1804 1.65992 11.1804 0.620455 11.1804C0.378719 11.1804 0.169215 11.1414 0 10.9696V10.6261C0.209504 10.6105 0.354546 10.4543 0.531818 10.3606C5.49546 7.72167 10.4591 5.08272 15.4227 2.44376C16.9457 1.63178 18.4686 0.819793 19.9915 0C20.1366 0 20.2816 0 20.4186 0L20.4105 0.0390378Z" fill="#232F62"/>
<path d="M179 10.4483C178.779 10.588 178.873 10.8182 178.866 11.0073C178.81 11.8459 178.818 11.8377 178.043 11.6732C177.307 11.517 176.556 11.4924 175.805 11.4759C175.488 11.4759 175.401 11.5828 175.409 11.9034C175.417 13.7203 175.409 15.529 175.409 17.3459C175.409 18.4146 175.409 19.4916 175.409 20.5604C175.409 20.9796 175.369 21.0125 174.958 20.9961C174.27 20.9632 173.574 20.9632 172.886 20.9961C172.475 21.0125 172.443 20.9961 172.443 20.5604C172.443 17.724 172.443 14.8877 172.443 12.0514C172.443 11.4924 172.443 11.4842 171.897 11.4924C171.027 11.4924 170.165 11.5335 169.327 11.7883C169.05 11.8706 168.986 11.7555 169.002 11.5088C169.034 10.8265 169.073 10.1523 169.105 9.46997C169.121 9.11646 169.279 8.98492 169.619 9.00136C171.771 9.10823 173.93 9.07535 176.081 9.06713C176.888 9.06713 177.695 9.03424 178.502 9.00136C178.684 9.00136 178.85 9.00136 178.992 9.14112V9.72482C178.905 9.84814 178.889 9.97146 178.992 10.0866V10.4483H179Z" fill="#232F62"/>
<path d="M92.2694 15.4912V15.0222C92.2694 13.1795 92.2694 11.345 92.2694 9.50219C92.2694 9.00859 92.2845 9.00859 92.7157 9.03327C93.3662 9.06618 94.0167 9.08263 94.6596 9.01682C94.9017 8.99214 94.9924 9.09086 95 9.32943C95 9.43638 95 9.55155 95 9.65849C95 13.2288 95 16.7992 95 20.3696C95 21.003 95 20.9948 94.4403 20.9783C94.0015 20.9701 93.5628 20.9536 93.1317 20.9948C92.8216 21.0277 92.6324 20.9043 92.4509 20.6493C90.9986 18.6091 89.5387 16.5689 88.0789 14.5287C88.0411 14.4711 88.0032 14.4135 87.9579 14.3559C87.9125 14.3065 87.8747 14.216 87.799 14.2654C87.7612 14.2901 87.7461 14.3641 87.7461 14.4217C87.7385 14.5287 87.7461 14.6438 87.7461 14.7508C87.7461 16.6676 87.7461 18.5761 87.7461 20.493C87.7461 20.9865 87.7234 20.9948 87.2695 20.9865C86.6568 20.9701 86.0366 20.9619 85.4239 20.9865C85.1213 21.003 84.9928 20.929 85.0003 20.5752C85.0003 16.8568 85.0003 13.1466 85.0003 9.42815C85.0003 9.10731 85.076 8.96746 85.4088 9.00859C85.9761 9.08263 86.5509 9.08263 87.1183 9.00859C87.4208 8.96746 87.6023 9.0744 87.7688 9.3212C89.1605 11.2791 90.5523 13.2288 91.9517 15.1868C92.0273 15.2855 92.0727 15.4254 92.2694 15.4747V15.4912Z" fill="#232F62"/>
<path d="M145.002 15.099C144.98 14.1151 145.129 13.1714 145.516 12.2762C146.409 10.1954 147.979 9.2034 150.032 9.02597C150.881 8.95339 151.729 9.02597 152.547 9.33245C154.586 10.0825 155.621 11.7036 155.918 13.9376C156.06 14.9861 156.03 16.0346 155.732 17.0508C155.07 19.2929 153.619 20.5349 151.513 20.9059C150.479 21.0914 149.452 21.0027 148.447 20.6397C146.423 19.9058 145.077 17.9379 145.01 15.6232C145.01 15.4458 145.01 15.2684 145.01 15.0829L145.002 15.099ZM153.083 15.2119C153.091 14.4619 153.001 13.7441 152.748 13.0424C152.079 11.1955 149.683 11.1632 148.767 12.2117C147.934 13.1634 147.837 14.3086 147.949 15.5103C148.016 16.1797 148.187 16.8249 148.552 17.3814C149.184 18.3492 150.077 18.6477 151.104 18.4702C152.071 18.3009 152.652 17.6153 152.934 16.6233C153.068 16.1636 153.098 15.6878 153.083 15.2119Z" fill="#232F62"/>
<path d="M104.038 9.00411C105.715 9.02024 107.238 9.44776 108.437 10.69C109.183 11.4643 109.612 12.4 109.823 13.4406C110.082 14.7151 110.082 15.9815 109.653 17.2237C108.891 19.3855 107.311 20.5632 105.075 20.91C103.835 21.1036 102.604 20.9907 101.437 20.5148C99.387 19.6678 98.3256 18.0868 98.0583 15.9411C97.9124 14.7473 98.034 13.5777 98.4958 12.4646C99.306 10.5206 100.805 9.43969 102.855 9.08477C103.244 9.02024 103.641 8.98798 104.038 9.00411ZM106.833 15.199C106.825 14.586 106.768 13.981 106.582 13.4003C106.209 12.1984 105.399 11.5773 104.159 11.5127C102.863 11.4482 101.907 12.0048 101.461 13.1744C100.935 14.5699 101.056 15.9573 101.802 17.2479C102.425 18.3288 103.471 18.6434 104.654 18.4659C105.747 18.2965 106.371 17.5786 106.663 16.5542C106.784 16.1186 106.841 15.6669 106.825 15.2071L106.833 15.199Z" fill="#232F62"/>
<path d="M72 15.0067C72 13.1607 72 11.3228 72 9.47678C72 8.99878 72.0314 8.9823 72.4796 9.01527C73.1635 9.05647 73.8553 9.07295 74.5393 9.00702C74.8931 8.96582 74.9638 9.10592 74.9638 9.42733C74.9638 10.6141 74.9638 11.7926 74.9638 12.9794C74.9638 13.3859 75.163 13.5892 75.5613 13.5892C76.5755 13.5892 77.5896 13.5727 78.6038 13.5975C78.9654 13.6057 79.0597 13.4656 79.0519 13.1112C79.0362 11.8997 79.0519 10.6965 79.0519 9.48502C79.0519 9.00702 79.0833 8.99054 79.5236 9.01527C80.184 9.05647 80.8522 9.05647 81.5126 9.01527C81.9843 8.99054 82 8.99054 82 9.50151C82 12.0316 82 14.5535 82 17.0836C82 18.2456 82 19.3994 82 20.5614C82 20.8911 81.9057 21.0147 81.5755 20.9982C80.9151 20.9652 80.2469 20.9735 79.5865 20.99C79.0519 20.9982 79.044 21.0065 79.044 20.4296C79.044 19.1686 79.044 17.9159 79.044 16.655C79.044 16.177 79.0283 16.1688 78.5802 16.144C77.5189 16.0699 76.4654 16.0946 75.4041 16.144C75.0739 16.1523 74.956 16.2512 74.9638 16.6056C74.9796 17.9077 74.9638 19.2181 74.9638 20.5202C74.9638 21.0065 74.9481 21.0065 74.4921 20.9982C73.816 20.9982 73.1399 20.9982 72.4638 20.9982C72.0236 20.9982 72 20.9982 72 20.5449C72 18.6989 72 16.861 72 15.015V15.0067Z" fill="#232F62"/>
<path d="M159 15.0682C159 13.2432 159 11.4264 159 9.60141C159 9.12072 159.033 9.10443 159.517 9.07184C160.953 8.98222 162.381 8.99851 163.817 9.00666C164.449 9.00666 165.081 9.11257 165.68 9.30811C167.404 9.87027 168.019 11.1249 167.937 12.844C167.88 13.9765 167.305 14.8319 166.361 15.4267C166.025 15.6385 166.041 15.7933 166.222 16.1029C167.1 17.5531 167.953 19.0115 168.815 20.4617C168.897 20.6002 169.078 20.7387 168.963 20.9098C168.864 21.0646 168.667 20.975 168.52 20.9668C167.707 20.9424 166.887 20.918 166.074 20.975C165.729 20.9994 165.541 20.8935 165.385 20.5921C164.687 19.2641 163.973 17.9523 163.267 16.6325C163.07 16.274 162.619 16.0948 162.242 16.2414C162.036 16.3229 162.094 16.5021 162.094 16.6488C162.094 17.8464 162.094 19.0359 162.094 20.2336C162.094 20.975 162.094 20.9668 161.355 20.9587C160.715 20.9505 160.067 20.9505 159.427 20.975C159.098 20.9913 159 20.8691 159.008 20.5595C159.016 18.7263 159.008 16.8932 159.008 15.0601L159 15.0682ZM162.086 12.6892C162.086 13.0396 162.086 13.3899 162.086 13.7402C162.086 13.9846 162.184 14.0905 162.43 14.0824C162.832 14.0743 163.235 14.0987 163.629 14.0824C164.351 14.0335 164.786 13.5691 164.827 12.8277C164.876 11.9804 164.531 11.4834 163.784 11.3368C163.325 11.2472 162.865 11.2797 162.406 11.3123C162.151 11.3286 162.069 11.4508 162.077 11.6871C162.086 12.0211 162.077 12.3633 162.077 12.6974L162.086 12.6892Z" fill="#232F62"/>
<path d="M130.51 20.9694C130.139 20.9694 129.768 20.9448 129.398 20.9694C129.103 20.9939 128.944 20.8792 128.823 20.6004C128.301 19.4527 127.771 18.3214 127.242 17.1818C127.189 17.0671 127.166 16.8949 127.022 16.8867C126.848 16.8785 126.833 17.0671 126.78 17.19C126.266 18.3132 125.751 19.4281 125.252 20.5594C125.108 20.8792 124.927 20.9939 124.594 20.9694C123.845 20.912 123.096 20.9284 122.34 20.9694C122.234 20.9694 122.105 21.0185 122.03 20.8956C121.946 20.7644 122.06 20.666 122.113 20.5676C123.036 18.7805 123.966 16.9851 124.904 15.2061C125.048 14.9356 125.04 14.7388 124.904 14.4765C123.996 12.8123 123.104 11.148 122.211 9.47564C122.151 9.36087 122.007 9.24609 122.113 9.09033C122.211 8.94276 122.362 9.01655 122.491 9.03294C123.217 9.09033 123.951 9.10672 124.67 9.02474C124.995 8.98375 125.169 9.11492 125.305 9.41825C125.797 10.525 126.289 11.6235 126.788 12.7221C126.841 12.8451 126.856 13.0418 127.03 13.0254C127.174 13.0172 127.196 12.8451 127.249 12.7303C127.756 11.6317 128.27 10.5414 128.77 9.44285C128.921 9.11492 129.095 8.99195 129.451 9.03294C130.162 9.12312 130.88 9.09853 131.599 9.03294C131.72 9.02474 131.849 8.95916 131.939 9.09853C132.03 9.24609 131.909 9.35267 131.856 9.45924C130.956 11.1235 130.063 12.7959 129.148 14.4519C128.989 14.7388 128.982 14.952 129.133 15.2471C130.041 16.9769 130.933 18.7149 131.834 20.4529C131.902 20.5922 132.068 20.7316 131.97 20.912C131.879 21.0677 131.697 20.9694 131.561 20.9694C131.213 20.9694 130.865 20.9694 130.517 20.9694H130.51Z" fill="#232F62"/>
<path d="M53.4037 21C52.3997 21 51.4028 20.9918 50.3988 21C50.1139 21 50 20.9016 50 20.5654C50 16.8587 50 13.1521 50 9.44544C50 9.11742 50.1068 8.98621 50.3988 9.00262C52.3783 9.11742 54.365 9.08462 56.3445 9.00262C56.7504 8.98621 56.7931 9.03542 56.7718 9.48645C56.7433 10.1425 56.6934 10.7903 56.6578 11.4464C56.6436 11.717 56.551 11.8072 56.316 11.7252C55.1981 11.3562 54.0517 11.5038 52.9195 11.4792C52.7771 11.4792 52.6987 11.553 52.6987 11.7252C52.6987 12.2828 52.6987 12.8405 52.6987 13.3981C52.6987 13.6687 52.8625 13.6687 53.0263 13.6687C53.895 13.6687 54.7566 13.6687 55.6253 13.6687C55.7321 13.6687 55.839 13.6687 55.9386 13.6687C56.1665 13.6687 56.2591 13.7835 56.2377 14.0541C56.195 14.6446 56.1594 15.2432 56.138 15.8337C56.1238 16.1289 56.0098 16.2273 55.7749 16.1863C54.8634 16.0141 53.9448 16.0633 53.0263 16.0551C52.7842 16.0551 52.6845 16.1453 52.6916 16.4323C52.7059 17.0145 52.6916 17.5968 52.6916 18.179C52.6916 18.3512 52.6916 18.5316 52.9124 18.5234C54.1157 18.507 55.3191 18.6136 56.5083 18.302C56.5795 18.2856 56.6507 18.261 56.7219 18.2364C56.9142 18.179 57.0067 18.2692 56.9996 18.4906C56.964 19.2205 56.9284 19.9421 56.8857 20.672C56.8714 20.9508 56.6934 20.9754 56.5012 20.9754C55.4687 20.9754 54.4362 20.9754 53.3966 20.9754L53.4037 21Z" fill="#232F62"/>
<path d="M112.009 14.9981C112.009 13.1758 112.009 11.3535 112.009 9.52296C112.009 9.01402 112.041 8.98119 112.548 9.00582C114.762 9.10432 116.976 9.07969 119.189 9.00582C119.786 8.98119 119.81 9.03044 119.761 9.62146C119.712 10.2043 119.68 10.7871 119.647 11.3699C119.622 11.7639 119.557 11.8214 119.181 11.7147C118.283 11.4602 117.36 11.493 116.445 11.4848C116.093 11.4848 115.742 11.4848 115.391 11.4848C115.154 11.4848 115.072 11.5751 115.072 11.8132C115.08 12.3139 115.088 12.8146 115.072 13.3071C115.064 13.6027 115.178 13.6847 115.456 13.6847C116.469 13.6765 117.49 13.6847 118.503 13.6847C118.626 13.6847 118.748 13.6847 118.863 13.6847C119.051 13.693 119.157 13.7915 119.14 13.9885C119.1 14.6452 119.051 15.2936 119.002 15.9503C118.985 16.213 118.797 16.2212 118.601 16.1966C117.564 16.0324 116.526 16.0817 115.489 16.0652C115.178 16.0652 115.056 16.1391 115.064 16.4757C115.088 17.0585 115.08 17.6413 115.064 18.2241C115.064 18.454 115.137 18.5525 115.374 18.5443C116.82 18.5114 118.283 18.651 119.704 18.2487C119.917 18.1913 120.015 18.2734 119.998 18.4786C119.957 19.2338 119.908 19.9808 119.859 20.736C119.843 21.0069 119.622 20.9986 119.426 20.9986C118.52 20.9822 117.613 20.9658 116.706 20.9576C115.293 20.9494 113.871 20.933 112.458 20.9986C112.098 21.0151 111.992 20.8837 112 20.539C112.009 18.692 112 16.8451 112 14.9899L112.009 14.9981Z" fill="#232F62"/>
<path d="M134.008 15.0585C134.008 13.2578 134.008 11.4653 134.008 9.66461C134.008 9.11056 134.034 9.10241 134.589 9.07797C135.993 9.01279 137.407 8.98019 138.811 9.01279C139.795 9.03723 140.746 9.21648 141.579 9.76239C142.731 10.512 143.059 11.6364 142.992 12.8912C142.874 14.9933 141.595 16.2073 139.375 16.4029C138.778 16.4518 138.18 16.5251 137.583 16.4273C137.297 16.3784 137.179 16.4681 137.188 16.7695C137.196 18.0162 137.188 19.2546 137.188 20.5012C137.188 21.0064 137.171 21.0064 136.666 20.9983C135.943 20.982 135.22 20.9901 134.496 20.9983C134.05 20.9983 134 20.982 134 20.542C134 18.7169 134 16.8999 134 15.0748L134.008 15.0585ZM137.196 12.8015V13.3067C137.196 14.4637 137.247 14.5044 138.458 14.3659C139.232 14.2763 139.779 13.6408 139.812 12.7934C139.846 11.9867 139.408 11.4653 138.593 11.3186C138.222 11.2534 137.852 11.286 137.482 11.3186C137.28 11.3349 137.205 11.4245 137.205 11.6201C137.205 12.0193 137.205 12.4186 137.205 12.8097L137.196 12.8015Z" fill="#232F62"/>
<path d="M65.0592 9.0081C66.7253 9.0081 68.1054 9.26608 69.3928 9.91911C69.8388 10.1448 69.8472 10.169 69.6537 10.6044C69.3928 11.1768 69.1404 11.7411 68.8711 12.3055C68.7112 12.6521 68.6355 12.6683 68.3241 12.4425C67.4069 11.7734 66.3719 11.459 65.2191 11.5073C64.0915 11.5476 63.2585 12.0555 62.7704 13.0149C62.1814 14.1759 62.1225 15.3932 62.5853 16.5945C63.0986 17.9489 64.5543 18.6825 66.1195 18.4487C66.9862 18.3197 67.7772 18.0053 68.4588 17.4732C68.7196 17.2636 68.8543 17.32 68.9973 17.5861C69.2918 18.1504 69.6032 18.7067 69.9229 19.263C70.0323 19.4645 70.0492 19.6097 69.8135 19.7386C67.5163 20.9883 65.0929 21.4236 62.5601 20.5207C60.4732 19.7709 59.4214 18.1746 59.0932 16.1188C58.9081 14.9659 58.9922 13.8292 59.4045 12.7328C60.2881 10.3867 62.4927 8.99197 65.0592 9.00003V9.0081Z" fill="#232F62"/>
<path d="M42.9891 9.07873C44.5747 9.05407 46.0572 9.07873 47.5318 9.00477C47.9837 8.98012 48.0234 9.03764 47.9917 9.4978C47.9441 10.1798 47.8886 10.8536 47.841 11.5357C47.8252 11.7657 47.7617 11.8726 47.516 11.7904C46.6518 11.5274 45.756 11.5028 44.868 11.4781C44.5509 11.4781 44.4479 11.5767 44.4479 11.9137C44.4558 14.6911 44.4479 17.4602 44.4479 20.2376C44.4479 21.0676 44.4717 21.0183 43.7026 20.9854C43.1556 20.9608 42.6007 20.969 42.0457 20.9854C41.4511 21.0018 41.4511 21.0101 41.4511 20.3773C41.4511 18.0437 41.4511 15.7018 41.4511 13.3681C41.4511 12.8668 41.4432 12.3738 41.4511 11.8726C41.4511 11.5932 41.356 11.4781 41.0785 11.4864C40.1509 11.4946 39.2234 11.5192 38.3196 11.7904C38.0421 11.8726 37.9866 11.774 38.0025 11.511C38.0421 10.829 38.0738 10.147 38.1055 9.47315C38.1293 9.07051 38.2086 8.98834 38.6129 9.00477C40.1034 9.07873 41.5938 9.05407 42.9733 9.07873H42.9891Z" fill="#232F62"/>
</svg>
