<svg width="163" height="51" viewBox="0 0 163 51" fill="none" xmlns="http://www.w3.org/2000/svg">
<g clip-path="url(#clip0_114_1082)">
<path d="M119.228 37.8879C119.228 41.4645 119.178 45.0443 119.255 48.6177C119.282 49.8946 118.819 50.3393 117.726 50.3044C117.035 50.2822 116.34 50.2345 115.654 50.2822C114.639 50.352 113.852 50.3425 114.016 48.8051C114.111 47.8999 113.529 48.173 113.039 48.4557C111.745 49.2022 110.498 50.1329 109.115 50.5934C106.764 51.378 104.389 50.9841 102.258 49.6882C97.0573 46.5277 95.7156 41.7758 96.4102 35.8264C96.7961 32.5294 98.0636 29.6992 100.501 27.5234C103.79 24.5852 108.328 23.8928 112.336 27.2947C112.766 27.66 113.253 28.0919 113.725 27.9649C114.342 27.7997 114.016 27.0533 114.028 26.5895C114.045 25.7859 114.384 25.6048 115.043 25.6461C115.782 25.6906 116.527 25.662 117.269 25.662C119.311 25.6652 119.27 25.6652 119.246 27.7838C119.21 31.1476 119.237 34.5146 119.237 37.8816C119.234 37.8816 119.228 37.8816 119.225 37.8816L119.228 37.8879ZM107.904 45.8702C108.86 45.921 109.786 45.6891 110.712 45.2222C114.957 43.0876 115.363 35.4993 112.419 32.1704C109.667 29.0576 104.71 29.4832 102.706 33.4251C101.379 36.0329 101.418 38.5867 102.101 41.3533C102.76 44.0215 105.544 46.1116 107.907 45.8702H107.904Z" fill="#34378E"/>
<path d="M154.81 39.26C152.587 39.26 150.361 39.3204 148.137 39.2346C146.992 39.1901 146.805 39.6571 147.018 40.7212C147.502 43.1193 148.689 44.914 150.925 45.6128C153.267 46.3465 155.428 45.94 157.075 43.7927C157.452 43.3036 157.796 42.789 158.15 42.2808C158.696 41.493 159.307 41.1182 160.061 41.9854C160.195 42.141 160.317 42.2109 160.495 42.2966C163.205 43.5926 163.422 44.4629 161.317 46.7182C158.221 50.0311 154.564 51.7178 150.079 50.6632C145.323 49.5452 142.459 45.9177 141.657 40.9403C141.203 38.1261 141.556 35.3785 142.046 32.6436C142.334 31.03 143.361 29.769 144.382 28.6477C147.553 25.1632 151.403 24.3437 155.748 25.5508C159.218 26.5132 162.982 31.2937 162.685 35.4579C162.635 36.1503 162.887 36.8619 162.973 37.5702C163.119 38.774 162.65 39.3077 161.48 39.2791C159.257 39.2283 157.031 39.2632 154.807 39.2632L154.81 39.26ZM147.223 34.7559C150.488 34.7559 153.641 34.7559 156.793 34.7559C157.037 34.7559 157.277 34.7273 157.523 34.7114C157.194 31.9798 155.238 30.0231 152.673 29.8103C150.586 29.6388 147.941 31.9607 147.223 34.7591V34.7559Z" fill="#34378E"/>
<path d="M74.1533 38.2022C74.0434 45.6191 68.7686 51.0634 61.7929 50.9586C55.0012 50.8569 49.9639 45.0569 50.0767 37.4717C50.1806 30.4963 55.6424 24.9218 62.3153 24.979C68.9675 25.0361 74.2601 30.9442 74.1533 38.2022ZM62.0838 45.8383C66.1 45.924 68.6974 42.9605 68.7894 38.18C68.8814 33.5075 66.2217 30.2454 62.2025 30.1025C58.3318 29.9659 55.4673 33.2725 55.3901 37.9704C55.3129 42.6746 57.9281 45.7493 62.0808 45.8383H62.0838Z" fill="#1DA455"/>
<path d="M21.7019 37.8115C21.7019 34.3207 21.7672 30.8299 21.6692 27.3422C21.6276 25.8906 22.0967 25.4681 23.3671 25.6111C24.2458 25.7095 25.1452 25.6142 26.0357 25.6333C26.4305 25.6396 26.8639 25.6555 26.855 26.2813C26.8342 28.1903 27.6535 27.2501 28.3035 26.7546C30.9395 24.7407 33.7713 24.493 36.71 25.7858C39.7378 27.1167 40.9162 29.896 41.0201 33.1137C41.1893 38.5008 41.0943 43.8975 41.1329 49.2878C41.1388 50.1518 40.7619 50.3837 40.0376 50.336C39.4469 50.2979 38.8532 50.3297 38.2595 50.336C36.6724 50.3466 35.87 49.4763 35.8522 47.725C35.8136 43.2844 35.8611 38.8407 35.7126 34.4065C35.6206 31.6049 34.4748 30.3661 32.2396 30.1279C29.7106 29.8579 28.0364 31.0554 27.3685 33.6727C26.9737 35.2133 26.8876 36.7951 26.8965 38.3896C26.9143 41.8805 26.8787 45.3713 26.9203 48.8622C26.9322 49.904 26.6887 50.3519 25.6053 50.3583C21.6959 50.3773 21.6959 50.4186 21.6959 46.2321C21.6959 43.4306 21.6959 40.6258 21.6959 37.8242H21.7019V37.8115Z" fill="#1DA455"/>
<path d="M75.492 38.0086C75.492 34.3589 75.5276 30.7092 75.4742 27.0627C75.4593 25.9605 75.7888 25.5381 76.8218 25.6238C77.6559 25.6937 78.5019 25.6556 79.342 25.6302C80.2028 25.6048 80.8677 25.6683 80.7787 26.942C80.7312 27.644 80.8944 27.6663 81.687 27.0183C84.038 25.0902 86.665 24.5756 89.4968 25.357C92.6463 26.2274 94.7301 29.175 94.831 33.2218C94.9616 38.5073 94.8815 43.7991 94.9171 49.0846C94.923 49.9232 94.6915 50.2821 93.8336 50.3425C89.7669 50.6188 89.7996 50.6474 89.7254 46.3307C89.6512 42.1601 89.9836 37.98 89.479 33.8221C89.2089 31.5891 88.0928 30.3408 86.2613 30.1248C83.8183 29.8389 82.1708 30.8585 81.4139 33.0089C80.752 34.8894 80.7668 36.8492 80.7371 38.7931C80.6896 42.0934 80.7074 45.3937 80.7668 48.6939C80.7876 49.9041 80.4284 50.3647 79.247 50.3615C75.495 50.3552 75.495 50.3996 75.495 46.4196C75.495 43.6181 75.495 40.8133 75.495 38.0117L75.492 38.0086Z" fill="#1DA455"/>
<path d="M0.0385871 34.5685C0.0385871 32.0306 0.0771761 29.4927 0.0207767 26.9579C-0.00297035 25.9066 0.347299 25.6239 1.30609 25.6111C5.18874 25.5635 5.17983 25.5286 5.1917 29.5912C5.20358 33.3425 5.12937 37.1001 5.28669 40.8451C5.45886 44.9426 8.26102 46.9247 11.5233 45.4635C12.6038 44.9807 13.2627 44.1263 13.6308 42.9701C13.9722 41.9028 14.0375 40.8006 14.0375 39.6857C14.0375 35.5628 14.0791 31.4398 14.0227 27.3169C14.0048 25.9987 14.4145 25.4841 15.6493 25.6207C16.43 25.7064 17.2315 25.6842 18.0181 25.6207C18.9858 25.5444 19.339 25.9796 19.3301 26.9897C19.2856 31.6367 19.3004 36.2838 19.244 40.9308C19.1995 44.4471 18.1636 47.4329 15.1922 49.3895C11.5678 51.7814 4.35759 52.0259 1.11908 46.1115C0.311679 44.6377 0.0623341 42.9383 0.0563974 41.2262C0.0474922 39.006 0.0563974 36.7857 0.0563974 34.5654H0.0474922L0.0385871 34.5685Z" fill="#1DA455"/>
<path d="M41.5632 16.3235C36.1756 16.3172 31.5449 15.2277 26.9113 14.1954C18.3208 12.2832 9.83713 12.4293 1.50784 15.6184C0.430316 16.0313 -0.0327524 15.9805 -0.000100141 14.5479C0.112699 9.98983 -0.724387 11.073 3.49666 9.67855C6.89843 8.55728 10.4189 7.97601 13.9662 7.65201C17.3501 7.34073 20.6628 8.02048 23.9755 8.58905C26.5076 9.02421 29.0159 9.82466 31.5212 10.1614C36.8168 10.876 42.1836 11.5463 47.5297 10.371C48.2866 10.2058 48.6725 10.4441 48.6102 11.3112C48.6072 11.3652 48.6102 11.416 48.6102 11.47C48.7823 15.5167 48.7853 15.5358 44.9324 16.0472C43.6114 16.2219 42.2757 16.2632 41.5603 16.3204L41.5632 16.3235Z" fill="#1DA455"/>
<path d="M38.6635 8.5222C33.5935 8.44279 28.3869 6.53378 23.0082 5.79051C16.0117 4.82489 9.12208 5.12982 2.41056 7.66457C0.0239802 8.56349 0.0269487 8.57302 0.0358538 5.86992C0.0358538 5.33946 0.0803796 4.80583 0.0239803 4.2849C-0.0680397 3.44634 0.303009 3.02706 1.00355 2.79518C8.003 0.466891 15.0559 -0.838603 22.4323 0.603475C27.3717 1.5691 32.3081 2.62683 37.3277 3.11917C40.5484 3.43681 43.7453 3.32246 46.9274 2.80788C48.1296 2.61413 48.7203 2.70942 48.6639 4.31031C48.5422 7.66775 48.6283 7.69316 45.556 8.21091C43.4099 8.56984 41.2489 8.79219 38.6664 8.5222H38.6635Z" fill="#1DA455"/>
<path d="M0.035599 21.0053C0.0415358 18.5087 0.0266939 18.4579 2.30641 17.7019C9.29993 15.3863 16.3677 14.7256 23.6491 16.1328C29.5057 17.2636 35.3475 18.7755 41.3763 18.5373C42.0561 18.5119 42.4063 18.7342 42.3588 19.5061C42.3351 19.8746 42.3529 20.2462 42.3529 20.6178C42.3529 24.4136 42.3292 24.366 38.7077 23.953C34.1364 23.4289 29.6512 22.3902 25.1392 21.5104C17.4274 20.0048 9.81643 20.3097 2.33907 22.9938C0.0385674 23.8164 0.0296623 23.7879 0.035599 21.0053Z" fill="#1DA455"/>
<path d="M134.34 27.8411C135.148 27.2248 135.661 26.9167 136.083 26.5006C138.066 24.5344 140.274 24.8362 142.56 25.6811C143.026 25.8526 143.278 26.2147 143.429 26.6531C143.64 27.2566 142.017 30.9952 141.458 31.2112C141.171 31.3224 140.897 31.1953 140.621 31.0365C138.051 29.5372 135.168 31.081 134.607 34.6925C134.245 37.0113 134.429 39.3332 134.394 41.652C134.355 44.1359 134.364 46.623 134.406 49.1069C134.42 49.9836 134.147 50.2536 133.31 50.2886C129.347 50.4537 129.27 50.422 129.252 46.1974C129.226 39.7843 129.241 33.3711 129.199 26.958C129.193 26.0432 129.339 25.5541 130.321 25.6589C131.054 25.7383 131.811 25.7351 132.541 25.6462C133.845 25.4874 134.682 25.8082 134.337 27.8411H134.34Z" fill="#34378E"/>
<path d="M43.5017 37.9769C43.5017 34.3876 43.5403 30.7983 43.4809 27.209C43.4631 26.0845 43.7005 25.5572 44.8523 25.6017C49.4384 25.7828 48.6874 24.76 48.732 29.6071C48.7913 35.9408 48.7142 42.2745 48.7616 48.6083C48.7706 49.8852 48.4529 50.3616 47.1914 50.3489C43.4957 50.3203 43.4957 50.3743 43.4957 46.3721C43.4957 43.5737 43.4957 40.7753 43.4957 37.9769H43.5046H43.5017Z" fill="#1DA455"/>
<path d="M126.732 42.0935C126.732 44.4154 126.703 46.7342 126.747 49.0561C126.765 49.9646 126.584 50.3457 125.613 50.3457C121.725 50.3457 121.707 50.387 121.683 46.2005C121.662 42.3508 121.701 38.501 121.662 34.6512C121.653 33.7682 121.876 33.4315 122.734 33.495C124.007 33.5871 125.676 33.0567 126.465 33.7364C127.302 34.4543 126.691 36.3093 126.735 37.6656C126.783 39.1394 126.747 40.6196 126.747 42.0966C126.744 42.0966 126.738 42.0966 126.735 42.0966L126.732 42.0935Z" fill="#34378E"/>
<path d="M121.677 28.4063C121.707 26.5746 122.557 25.6576 124.227 25.6555C125.897 25.6534 126.733 26.5354 126.735 28.3014C126.737 30.0675 125.889 30.9675 124.191 31.0014C124.141 31.0014 124.093 31.0046 124.043 31.0046C122.438 31.0088 121.649 30.1416 121.677 28.4031V28.4063Z" fill="#34378E"/>
<path d="M43.8817 20.9673C44.1073 20.259 43.3681 19.0646 44.3062 18.6263C45.541 18.0514 46.945 18.1244 48.3016 18.2737C48.5539 18.3023 48.6162 18.4548 48.6133 18.693C48.6044 19.9 48.6133 21.1102 48.5866 22.3173C48.5777 22.7175 48.3343 23.0161 47.9573 23.0891C46.9065 23.2956 45.8557 23.5306 44.7959 23.6386C44.2616 23.6926 43.7837 23.4417 43.8698 22.6476C43.9262 22.1298 43.8817 21.5962 43.8817 20.9641V20.9673Z" fill="#34378E"/>
</g>
<defs>
<clipPath id="clip0_114_1082">
<rect width="163" height="51" fill="white"/>
</clipPath>
</defs>
</svg>
