<svg width="130" height="101" viewBox="0 0 130 101" fill="none" xmlns="http://www.w3.org/2000/svg">
<path d="M64.3531 74.9956C44.3526 75.3137 26.1204 58.3576 27.0329 35.8004C27.7907 17.0514 43.8364 -0.194418 65.0042 0.00165598C85.4708 0.193373 102.011 16.8749 102 37.5999C101.989 58.0047 84.848 75.2832 64.3509 74.9934L64.3531 74.9956ZM101.401 37.6958C101.281 17.4958 85.5013 1.05392 65.3157 0.66395C44.7663 0.265267 28.3569 16.498 27.7058 36.1381C27.0002 57.4099 43.8843 74.2353 64.2682 74.3791C83.8005 74.5185 101.199 58.606 101.401 37.6936V37.6958Z" fill="black"/>
<path d="M51.6795 99.6678C49.6205 100.267 48.3019 99.6678 47.4605 97.8435C47.0155 96.8768 46.2551 96.0516 45.8182 95.0808C44.9728 93.1917 43.6379 92.5 41.3686 93.1836V99.7285H38.2985V83.9609C41.3403 84.1025 44.3337 84.1389 47.3068 84.418C49.2241 84.596 50.7936 85.5345 51.1172 87.6743C51.4408 89.8424 50.2961 91.2339 48.4879 92.2088C48.2533 92.3342 48.0349 92.4919 47.6061 92.763C48.9531 95.0444 50.3082 97.346 51.6795 99.6719V99.6678ZM41.4172 92.1238C43.8847 92.3059 46.2551 92.4272 47.3917 90.0528C47.869 89.0536 47.8124 87.3143 47.2299 86.392C45.8789 84.2441 43.5651 84.8306 41.4131 85.0005V92.1238H41.4172Z" fill="black"/>
<path d="M57.743 98.2803C58.4306 97.7626 58.8917 97.4106 59.3691 97.0466C61.0923 98.5797 62.953 99.7972 65.2263 99.0732C66.2982 98.7334 67.7383 97.7504 67.896 96.8605C68.0538 95.9706 67.0425 94.4901 66.1364 93.8955C64.9634 93.131 63.3858 92.9692 61.9741 92.5809C59.4823 91.8932 58.0949 90.4936 58.0625 88.5803C58.0302 86.6549 59.5551 84.867 61.8608 84.1591C64.5872 83.3177 67.1396 83.5685 69.4533 85.3726C68.825 86.2625 68.1077 86.4351 67.3014 85.8904C65.6915 84.7982 63.9925 84.4018 62.1885 85.3524C60.3439 86.3232 60.1498 88.4832 61.97 89.5228C63.2644 90.263 64.8177 90.5907 66.2942 90.9588C69.5828 91.7719 71.124 93.2442 70.946 95.554C70.7437 98.1185 68.8183 99.8741 65.6834 100.117C62.9934 100.323 60.3196 100.214 57.7349 98.2803H57.743Z" fill="black"/>
<path d="M92.405 99.6638C90.3299 100.254 89.2984 99.6557 88.6228 97.71C87.4255 94.2636 87.2678 94.5387 83.5463 94.1828C80.4923 93.8915 78.5831 94.6682 77.7862 97.7667C77.5758 98.5878 76.9084 99.2957 76.4513 100.056C76.2167 99.9146 75.9821 99.777 75.7515 99.6355C76.6778 97.5401 77.5839 95.4367 78.5305 93.3495C79.7763 90.6069 81.002 87.8603 82.353 85.1704C82.6079 84.6648 83.3967 84.1874 83.971 84.147C84.6344 84.0985 85.7549 84.3533 85.9612 84.8023C88.186 89.713 90.2732 94.6884 92.405 99.6638ZM83.6029 85.3524C82.2681 88.2729 81.1314 90.7606 79.9786 93.2848H86.8309C85.763 90.6636 84.7639 88.2082 83.5989 85.3524H83.6029Z" fill="black"/>
<path d="M111.611 95.9826C110.866 99.3966 108.1 100.699 103.941 100.234C98.9902 99.6757 96.7655 96.9494 96.8585 91.5452C96.9354 86.9177 99.5889 83.9648 104.026 83.6857C107.954 83.443 111.68 84.9356 111.518 87.9936H109.261C108.581 86.3473 108.039 84.5068 105.656 84.3531C103.314 84.2034 101.741 84.976 100.936 87.1968C99.9044 90.0445 99.7588 92.9893 100.628 95.9017C101.114 97.5197 101.838 99.2105 103.784 99.4249C106.025 99.6717 108.427 100.003 109.532 97.099C109.702 96.6541 110.612 96.4963 111.611 95.9866V95.9826Z" fill="black"/>
<path d="M24.1287 99.0852H31.1711C31.1751 99.247 31.1792 99.4088 31.1832 99.5706H20.921V84.2358H31.2075C31.2196 84.3855 31.2277 84.5352 31.2399 84.6808H24.1529V91.4846H29.9293C29.9293 91.6909 29.9293 91.8972 29.9252 92.1035H24.1287V99.0852Z" fill="black"/>
<path d="M118.851 84.2358H129.073C129.085 84.3976 129.093 84.5595 129.106 84.7253H121.982V91.4279H127.54C127.54 91.6221 127.54 91.8203 127.544 92.0145H122.019V99.0731H129.114C129.114 99.243 129.118 99.4169 129.122 99.5868H118.851V84.2399V84.2358Z" fill="black"/>
<path d="M0 84.3492C2.39871 83.5402 3.27244 84.4665 3.83874 86.4405C4.93495 90.2671 6.28195 94.0249 7.69367 98.3167C9.33596 93.7782 10.776 89.7048 12.305 85.6679C12.5599 84.9923 13.2071 84.4624 13.6722 83.8638C13.8624 83.9973 14.0484 84.1307 14.2385 84.2642C12.4102 89.1223 10.6101 93.9926 8.69684 98.8183C8.50268 99.3037 7.64917 99.7567 7.07073 99.7972C6.47207 99.8376 5.44058 99.51 5.27878 99.0853C3.45042 94.2231 1.75555 89.3124 0 84.3451V84.3492Z" fill="black"/>
<path d="M82.1948 6.21799C81.6889 7.13741 81.2899 7.86293 80.8625 8.64291C79.9401 8.20281 79.0439 7.77578 78.0932 7.3226C77.8751 7.77142 77.6898 8.15487 77.4761 8.59497C78.5467 9.15272 79.5891 9.7388 80.6772 10.2247C80.8996 10.3249 81.4229 10.1506 81.5756 9.93924C82.2254 9.0329 82.7858 8.06555 83.4639 6.9849C85.228 8.28342 86.9092 9.52093 88.6755 10.8173C88.0257 11.5755 87.4762 12.2182 86.8939 12.8979C86.0741 12.2574 85.337 11.6822 84.528 11.0526C84.2446 11.4077 83.9851 11.7323 83.6536 12.1463C84.7875 13.1354 85.8669 14.0788 87.04 15.1006C87.9733 14.0592 88.8652 13.0657 89.8661 11.9524C91.4491 13.8239 92.8665 15.4993 94.3711 17.2793C93.6581 17.8131 93.0409 18.275 92.3672 18.7783C93.3528 19.3404 94.1879 20.3993 95.3632 18.9548C97.921 23.6368 100.241 28.2056 101 33.3495C100.928 33.4345 100.904 33.4803 100.884 33.4803C100.743 33.4716 100.599 33.4541 100.396 33.4345C100.374 33.8158 100.352 34.1971 100.322 34.7156C99.4867 34.7635 98.6777 34.8093 97.8142 34.8572C97.7488 34.367 97.6965 33.9836 97.6441 33.5979C97.1469 33.5108 96.6912 33.4323 96.1352 33.3343C96.2398 34.72 96.3423 36.0817 96.4557 37.5871H100.695C100.464 39.5371 100.254 41.3171 100.043 43.0971C100.008 43.3847 99.9512 43.6679 99.925 43.9555C99.877 44.5046 99.6153 44.7399 99.0571 44.5983C98.4313 44.4414 97.8033 44.2954 97.1339 44.1342C97.2909 43.0514 97.4435 42.0012 97.6092 40.8552C97.0837 40.7942 96.7043 40.7506 96.2551 40.7005C95.9367 42.3585 95.6358 43.9381 95.3218 45.5809C96.6607 45.9665 97.9341 46.3347 99.3384 46.7378C98.4815 48.9361 97.6485 51.0669 96.7828 53.2913C95.8735 52.8534 95.1452 52.5005 94.3318 52.1083C94.7592 51.1104 95.1496 50.1954 95.5791 49.191C95.1474 49.0189 94.7614 48.8642 94.273 48.6703C93.5861 50.1148 92.9276 51.4961 92.232 52.9602C93.3942 53.6356 94.5106 54.2826 95.8539 55.0648C94.467 57.0104 93.1173 58.9015 91.7217 60.8624C90.9672 60.1804 90.3589 59.6292 89.7003 59.0344C90.361 58.1564 91.0043 57.3002 91.7239 56.3415C91.3445 56.0714 91.0065 55.8295 90.6096 55.5441C89.5782 56.7729 88.5577 57.9908 87.4849 59.2697C88.4356 60.1804 89.3929 61.0977 90.4701 62.1282C89.5281 63.0084 88.7191 63.8167 87.8512 64.5575C86.9746 65.307 86.0392 65.9867 85.0405 66.7667C84.5215 66.0412 84.0483 65.3767 83.5054 64.6207C84.3819 63.9017 85.2324 63.2023 86.1438 62.455C85.8015 62.0628 85.5464 61.7665 85.2215 61.394C83.9916 62.3199 82.7901 63.2219 81.5145 64.1827C82.1948 65.3287 82.8555 66.4377 83.6253 67.7319C81.7129 68.721 79.818 69.7036 77.8359 70.7276C77.4586 69.7951 77.1381 69.0042 76.7958 68.1567C77.7399 67.7123 78.6405 67.2896 79.685 66.7972C79.4473 66.3593 79.2533 65.9998 79.0199 65.5706C77.6985 66.1305 76.4163 66.673 75.0535 67.2504C75.4634 68.5293 75.8668 69.7864 76.3291 71.2309C74.3492 71.7276 72.4194 72.2113 70.3936 72.7189C70.2279 71.7146 70.0949 70.9084 69.9553 70.0675C70.8995 69.8474 71.7652 69.647 72.7486 69.4182C72.6374 68.9171 72.5393 68.4813 72.4412 68.0347C71.0303 68.2809 69.7242 68.5075 68.2959 68.7559C68.4289 70.1437 68.5598 71.4945 68.7015 72.9586H62.5371C62.5807 72.0849 62.6177 71.3006 62.6635 70.3943H65.6117V68.928H61.5667C61.4141 70.1655 61.2527 71.4727 61.063 73C58.9697 72.5904 56.981 72.2026 54.8724 71.7886C55.1929 70.7886 55.4393 70.0152 55.7075 69.1785C56.4838 69.3703 57.1729 69.6143 57.8794 69.6796C58.1934 69.708 58.6971 69.4552 58.8388 69.1829C59.1223 68.6469 58.7472 68.3463 58.2065 68.2155C57.0922 67.9476 55.9823 67.6578 54.7764 67.3528C54.3578 68.6142 53.9413 69.8714 53.455 71.3398C51.4576 70.4814 49.5256 69.6491 47.4868 68.7733C47.96 67.9018 48.3634 67.1589 48.7973 66.3593C49.7393 66.7994 50.6094 67.2068 51.5688 67.6556C51.7978 67.2024 51.9875 66.8321 52.2099 66.3898C50.9517 65.7471 49.7481 65.1305 48.455 64.4703C47.7354 65.6163 47.0311 66.7405 46.2286 68.0195C44.4667 66.7166 42.7659 65.4551 40.9647 64.1217C41.6647 63.3679 42.2469 62.7404 42.8269 62.1151C43.6359 62.7383 44.3991 63.3287 45.2103 63.954C45.5134 63.5313 45.7424 63.2089 46.0193 62.821C44.9181 61.8689 43.83 60.9256 42.6569 59.9125C41.7388 60.9103 40.8405 61.8885 39.8003 63.0193C38.202 61.1129 36.7693 59.4048 35.2931 57.6466C36.0956 57.1019 36.7802 56.64 37.5238 56.1367C38.1933 56.9843 38.8343 57.7969 39.5212 58.6641C39.9224 58.3264 40.2452 58.0518 40.6289 57.7272C39.7022 56.4309 38.8038 55.1781 37.8465 53.8404C36.7301 54.4766 35.5853 55.128 34.3489 55.8339C33.034 54.0779 32.236 52.0778 31.4967 50.0538C31.4444 49.9121 31.7017 49.5439 31.8958 49.4503C32.4453 49.1845 33.0362 49.008 33.7231 48.7552C34.1614 49.7444 34.591 50.7139 35.0707 51.7946C35.5439 51.5701 35.9429 51.3806 36.3747 51.1758C35.7641 49.6137 35.1884 48.1452 34.6106 46.6659C33.5552 46.9643 32.5216 47.1735 31.56 47.5548C30.8055 47.8533 30.5656 47.5657 30.437 46.9273C30.0096 44.7747 29.5844 42.62 29.1439 40.3933C30.0968 40.267 30.8775 40.1602 31.8522 40.0317C31.9525 40.8748 32.0179 41.6831 32.1509 42.4784C32.3799 43.864 32.3973 43.8619 33.7907 43.461C33.6053 41.5023 33.4178 39.5349 33.2194 37.4455C32.0746 37.4455 30.9581 37.4194 29.8439 37.4564C29.1941 37.4782 29.0044 37.1972 29.0763 36.6045C29.1984 35.598 29.3533 34.5936 29.3925 33.5827C29.4099 33.1535 29.1723 32.7134 29 32.1011C29.1548 28.393 31.7301 25.3558 32.8792 21.7522C34.3751 22.3376 35.5947 22.2562 36.5382 21.5082C35.6769 21.0137 34.8548 20.5409 33.8234 19.9483C35.2015 18.0092 36.5295 16.1399 37.9468 14.1442C38.6773 14.7847 39.2879 15.3207 39.9857 15.9307C39.301 16.8632 38.6337 17.7717 37.9687 18.6803L38.1758 18.9025C39.5387 17.9024 40.9015 16.9024 42.5238 15.7128C41.2657 14.6453 40.2495 13.7847 39.0916 12.7999C41.052 11.1484 42.7942 9.67997 44.5038 8.23984C44.6673 8.33135 44.7458 8.34878 44.7829 8.39889C45.7365 9.70176 45.5839 10.8558 44.325 11.8609C44.0764 12.0613 43.854 12.2944 43.5727 12.5581C43.8562 12.9045 44.1004 13.203 44.4384 13.6147C45.6987 12.6692 46.9264 11.7476 48.1955 10.7955C47.4715 9.61679 46.7759 8.48822 46.0128 7.24635C47.9578 6.25067 49.8658 5.27243 51.8392 4.26151C52.2034 5.16785 52.5108 5.93258 52.8619 6.80407C51.933 7.25071 51.0411 7.67991 50.0228 8.16795C50.2234 8.58626 50.4 8.95882 50.6225 9.42071C51.9591 8.85642 53.237 8.31392 54.6107 7.73438C54.1964 6.43151 53.7995 5.17657 53.3503 3.76912C55.3477 3.25712 57.2514 2.76909 59.2422 2.25709C59.4079 3.1874 59.5519 3.99788 59.7154 4.91294C59.1637 5.04802 58.6142 5.18528 58.0625 5.31601C57.2107 5.5179 56.9555 6.06621 57.2972 6.96094C58.6055 6.71474 59.9335 6.46419 61.3726 6.19185C61.2527 4.83233 61.1393 3.54253 61.0107 2.08061H67.1795C67.1053 2.83663 67.0268 3.64493 66.944 4.5186H64.1354V6.00884H67.2296C67.6221 5.84543 67.0901 4.57306 68.2087 5.17221C68.3352 4.13732 68.4529 3.18086 68.5968 2C70.6531 2.40088 72.6483 2.7887 74.7373 3.19612C74.4735 4.14604 74.2554 4.93255 74.0199 5.78443C72.9863 5.56874 72.0181 5.36612 70.9955 5.1526C70.9017 5.6341 70.8232 6.0437 70.7294 6.52519C71.9811 6.86943 73.1782 7.23328 74.395 7.50126C74.5803 7.54265 74.9837 7.19624 75.0797 6.95004C75.4831 5.91733 75.8058 4.85412 76.2179 3.62532C78.248 4.50988 80.1538 5.33779 82.1926 6.22453L82.1948 6.21799ZM53.6752 36.4782C53.6098 36.4281 53.5444 36.378 53.479 36.3279C53.0691 36.6721 52.7114 37.147 52.2404 37.3344C51.4598 37.6438 51.3333 38.2103 51.414 38.8748C51.6321 40.6657 51.6975 42.5089 52.1925 44.2257C53.1127 47.4175 54.1572 50.5941 56.9177 52.8229C58.3264 53.958 59.6391 55.213 61.0063 56.4004C61.2767 56.6357 61.5885 56.9603 61.9003 56.9821C63.985 57.1324 66.1306 57.4679 67.9514 56.0213C68.9152 55.2565 69.7831 54.3654 70.7447 53.5985C73.9109 51.0778 76.1198 47.9469 76.9288 43.9381C77.2341 42.4195 77.4216 40.8727 77.62 39.3345C78.2524 34.4433 75.9344 31.0641 71.3858 29.9094C69.7504 29.4932 68.0343 29.393 66.3552 29.1577C64.9815 28.966 63.6077 28.7873 62.005 28.5694C61.4533 29.0161 60.6073 29.637 59.8353 30.3407C59.0045 31.0989 58.3024 32.0009 57.4389 32.7134C56.6147 33.3931 55.8863 34.0751 55.6421 35.1731H62.3539C61.8131 35.4389 61.486 35.7222 61.1415 35.7461C60.2126 35.8093 59.2597 35.8769 58.3482 35.7396C55.81 35.3561 54.3774 35.9814 53.503 38.1471C54.506 37.5501 55.3499 36.9553 56.2701 36.5218C57.6766 35.8572 58.5423 36.025 59.1201 37.049C57.2645 36.3082 55.9387 37.2102 54.6325 38.2887C57.1641 36.9183 59.5235 36.7985 61.6103 39.1798C59.9923 39.8683 58.418 40.9402 56.6146 40.3084C55.2736 39.8378 54.0787 38.9467 52.7681 38.2168C53.093 37.5937 53.3852 37.0359 53.6774 36.4804L53.6752 36.4782ZM35.3629 36.3889C35.4872 36.3671 35.6093 36.3431 35.7336 36.3213C35.8252 36.5893 35.98 36.8551 35.9996 37.1274C36.0846 38.3562 36.065 39.5937 36.2024 40.816C36.9329 47.387 39.7371 52.9907 44.2857 57.7337C45.3738 58.8688 46.6386 59.834 47.9883 61.0236C48.0908 60.1325 48.1475 59.5225 48.2326 58.9168C48.3198 58.3089 48.3917 57.6945 48.5487 57.1041C48.793 56.1934 48.5967 55.5376 47.7899 54.9624C46.6168 54.1258 46.318 53.0952 46.7062 51.836C46.9351 51.0974 46.2286 49.0036 45.6421 48.4938C44.2945 47.3195 43.3045 45.9926 43.9434 44.3433C42.659 42.7028 41.4946 41.2147 40.2779 39.6635C38.4309 39.8922 36.813 38.7005 36.4335 36.7157C36.3899 36.4913 36.2635 36.2625 36.1195 36.0817C35.5308 35.3431 34.918 34.6241 34.3162 33.8986C34.2443 34.0925 34.0894 34.4977 33.9368 34.9008C33.0995 34.8529 32.3123 34.8093 31.3986 34.757C31.4815 33.8223 31.5578 32.9792 31.6559 31.8833C31.0345 32.3016 30.2713 32.5391 30.1884 32.9247C29.9246 34.1382 29.918 35.4063 29.8003 36.7963H33.8321C34.0676 39.2887 34.2922 41.6461 34.5212 44.0775C33.7122 44.2213 32.8531 44.3738 31.9656 44.5285C31.7366 43.2366 31.5295 42.0797 31.3158 40.877C30.8208 40.9097 30.3977 40.938 29.8133 40.9772C30.2211 42.9947 30.6027 44.888 31.0105 46.9012C32.4562 46.5286 33.7623 46.1931 35.0075 45.875C35.7837 47.8053 36.5208 49.6376 37.2905 51.5505C36.5317 51.9209 35.7401 52.3087 34.881 52.727C34.3751 51.6224 33.9172 50.6224 33.444 49.5897C32.9882 49.7553 32.6306 49.8838 32.0201 50.1039C32.8356 51.7771 33.6097 53.3676 34.4231 55.0408C35.7706 54.2805 36.9242 53.629 38.0646 52.9863C39.2094 54.6138 40.328 56.2021 41.4881 57.8514C40.8317 58.4091 40.1819 58.9625 39.5125 59.5312C38.7842 58.6335 38.1278 57.8274 37.4366 56.9755C37.0419 57.2544 36.7279 57.4745 36.2329 57.8231C37.3952 59.2436 38.5007 60.5944 39.7763 62.1522C40.8579 61.004 41.789 60.0149 42.6721 59.0758C44.0982 60.2763 45.4523 61.4158 46.8806 62.6184C46.39 63.3243 45.8906 64.0433 45.376 64.7884C44.4776 64.1544 43.6861 63.5945 42.8204 62.9823C42.5326 63.3744 42.2883 63.7078 41.9656 64.1479C43.3416 65.1479 44.615 66.0717 45.98 67.063C46.6189 66.076 47.1292 65.2046 47.7267 64.3963C47.9992 64.028 48.4375 63.784 48.9173 63.3875C48.5793 62.8799 48.2217 61.9082 47.5282 61.3809C45.0533 59.492 42.8771 57.3372 41.0149 54.8535C37.6198 50.3261 35.9233 45.1625 35.3738 39.5894C35.2691 38.5327 35.3585 37.4586 35.3585 36.391L35.3629 36.3889ZM81.5625 60.6489C81.6911 60.7382 81.8176 60.8253 81.9462 60.9147C83.6972 59.1564 85.6118 57.5289 87.1709 55.6138C91.9289 49.7662 94.1116 43.0339 93.6319 35.4716C93.5599 34.343 93.7038 33.1644 92.3301 32.6524C92.075 32.5565 91.8351 32.4214 91.5865 32.3059C91.4709 32.5848 91.3314 32.855 91.2463 33.1426C90.7644 34.7722 90.2586 36.378 88.3484 36.9858C89.0222 38.524 88.5664 39.938 87.9973 41.3847C87.4543 42.766 86.327 44.1385 87.8883 45.7748H84.1682C84.105 46.4916 84.1748 47.1735 83.9676 47.7552C83.4857 49.1104 83.1063 50.4372 83.3069 51.9144C83.3876 52.5135 83.2698 53.2957 82.9297 53.7707C81.412 55.8905 81.8394 58.3307 81.5581 60.6532L81.5625 60.6489ZM80.5703 63.9801C82.2079 62.7949 83.7823 61.6576 85.3806 60.5007C85.9476 61.1652 86.4818 61.7905 87.064 62.4724C86.1678 63.2263 85.313 63.9453 84.4016 64.7122C84.6676 65.0934 84.9205 65.4529 85.2672 65.9453C86.7435 64.6686 88.1085 63.4877 89.7548 62.0628C88.5839 61.0868 87.535 60.2131 86.5451 59.3874C87.9472 57.6989 89.1944 56.1977 90.4832 54.6465C91.2006 55.1149 91.9114 55.579 92.6572 56.0648C91.9485 57.0562 91.3009 57.9603 90.5987 58.9407C90.9934 59.2436 91.3205 59.4963 91.7937 59.858C92.873 58.285 93.8805 56.8143 94.9337 55.2805C93.5992 54.4809 92.4675 53.8012 91.4142 53.1715C92.3039 51.3174 93.126 49.6028 93.9655 47.8576C94.7963 48.1474 95.5726 48.4175 96.4448 48.7204C96.1548 49.4219 95.8888 50.0821 95.6096 50.7357C95.1517 51.8033 95.2128 51.9122 96.6105 52.1867C97.232 50.5854 97.8622 48.9557 98.5207 47.2563C97.0554 46.7704 95.7732 46.3478 94.5695 45.9491C94.9707 43.9229 95.348 42.0252 95.7492 40.0012C96.5626 40.0883 97.3977 40.1776 98.3092 40.2757C98.1893 41.1385 98.0999 41.8182 97.9995 42.4958C97.8316 43.6309 97.993 43.7921 99.321 43.6549C99.502 42.145 99.6938 40.609 99.8661 39.0687C99.9228 38.5567 99.744 38.2647 99.1465 38.2473C98.0366 38.2124 96.9267 38.1057 95.8713 38.0338C95.5312 35.9596 96.0305 33.8158 94.611 32.0162C94.3035 32.624 94.02 33.258 94.1181 33.8289C94.6786 37.0969 94.4343 40.3258 93.6995 43.5198C91.9834 50.9775 88.0649 57.006 81.8394 61.5073C81.5036 61.7513 81.194 62.0759 80.9737 62.4267C80.4656 63.2415 80.0208 64.0956 79.5018 65.0194C79.7788 65.5858 80.1233 66.2896 80.5049 67.0717C79.5433 67.5314 78.6427 67.9628 77.6876 68.4203C77.8839 68.9127 78.0474 69.3223 78.2524 69.8343C79.818 69.0413 81.255 68.3158 82.7792 67.5445C81.9811 66.2569 81.2812 65.1261 80.5703 63.9779V63.9801ZM30.1448 29.9638C31.8696 27.637 34.0589 25.9484 36.5709 24.6478C38.3372 23.7305 40.1601 23.4495 42.127 24.0116C42.683 24.1706 43.3983 24.0094 43.9783 23.8133C44.9966 23.4691 45.9561 22.9571 46.9635 22.578C47.1903 22.493 47.513 22.6629 47.7921 22.7131C47.7921 22.8046 47.7921 22.8961 47.7921 22.9854C45.823 23.3819 44.2879 24.3907 43.3721 26.175C43.0385 26.8221 42.8771 27.5563 42.6372 28.2514C43.5247 28.4736 44.4035 28.8026 45.3041 28.8766C45.7816 28.9159 46.3311 28.5782 46.7825 28.3015C47.5828 27.8091 48.3351 27.2404 49.1004 26.6936C51.2134 25.1837 53.4027 24.9484 55.7032 26.2556C56.2069 26.5411 56.7498 26.7568 57.2448 27.0531C59.7067 28.528 63.1912 27.1511 63.9653 23.6804C64.1223 22.9789 63.8476 22.7653 63.2893 22.8547C62.8925 22.9179 62.4738 23.1444 62.1664 23.4124C61.5645 23.9353 61.0477 24.5519 60.4699 25.1031C59.5715 25.9615 58.5335 26.4278 57.3102 25.8853C55.6269 25.138 53.9805 24.3079 52.3037 23.5453C50.9801 22.944 49.6914 22.1161 48.0298 22.7457C48.1301 22.3013 48.2805 22.0115 48.455 21.737C49.9421 19.397 52.5915 19.9352 54.9007 19.238C54.4537 18.4646 54.131 17.7282 53.6491 17.1181C53.0015 16.2989 52.1445 15.7586 51.0193 15.8545C50.1558 15.9285 49.7481 16.5691 49.9792 17.3905C50.0817 17.7521 50.11 18.1639 50.0555 18.5365C49.7982 20.2925 48.6948 21.3535 47.1009 21.9614C45.2081 22.6847 43.2652 22.469 41.3071 22.2969C39.3032 22.1204 37.236 21.7784 35.4196 23.0834C34.6259 23.6543 33.7951 24.1989 33.0929 24.87C31.6254 26.2753 30.4195 27.8679 30.147 29.966L30.1448 29.9638ZM76.1438 66.0041C75.4307 65.9105 74.9357 65.8146 74.4364 65.7863C73.937 65.7601 73.4028 65.6969 72.934 65.8298C67.6897 67.3114 62.4477 67.246 57.1598 66.0325C56.1502 65.8015 55.0316 66.1087 53.9718 66.0303C52.2055 65.8974 52.7398 67.575 52.0747 68.2983C52.0311 68.3463 51.9526 68.3637 51.8065 68.4421C50.9539 68.0434 50.0468 67.6208 49.0394 67.1501C48.817 67.5968 48.6338 67.9628 48.3765 68.4792C49.9181 69.1698 51.3813 69.8256 52.9142 70.5119C53.4419 69.0674 53.9086 67.7885 54.3599 66.5554C56.1306 67.0085 57.8292 67.4443 59.6238 67.904C59.4908 68.7711 59.3556 69.6404 59.2117 70.5686C58.1345 70.3529 57.162 70.1568 55.9256 69.9106C56.0433 70.5076 56.039 71.3006 56.2396 71.3572C57.609 71.7429 59.0242 71.9738 60.483 72.2658C60.7076 70.745 60.9016 69.4487 61.0761 68.27H66.2571V71.0479H63.3308V72.3246H67.9492C67.8293 70.8409 67.7246 69.5511 67.6112 68.1676C68.6165 68.0107 69.541 67.8931 70.4547 67.7166C72.8642 67.2525 72.862 67.2438 73.5031 69.6121C73.5184 69.6687 73.4704 69.745 73.4421 69.8452C72.5633 70.0696 71.6693 70.2984 70.7251 70.5402C70.8428 71.0457 70.9388 71.4488 71.0631 71.9847C72.5895 71.5751 74.0461 71.1851 75.507 70.7951C75.2345 69.9237 75.0382 69.3049 74.8463 68.6861C74.464 67.4486 74.8965 66.5546 76.1438 66.0041ZM49.3577 30.9268C47.8335 31.4541 46.257 31.5347 44.7175 30.7634C44.6281 30.7177 44.4929 30.6828 44.4079 30.7155C42.8575 31.3321 41.8893 30.5368 41.113 29.2819C40.6987 30.1817 40.714 30.2754 41.3747 31.1708C43.2456 33.709 43.3045 35.7505 41.7301 38.5044C41.4728 38.9532 41.4139 39.7898 41.6647 40.2016C42.3123 41.267 43.0908 42.291 43.9914 43.1494C44.8614 43.9795 45.8034 43.6287 46.1349 42.6331C45.5614 42.3171 44.8941 42.1167 44.4885 41.6766C44.1549 41.3149 44.0372 40.6722 44.0175 40.145C44.011 39.9728 44.7349 39.5458 44.9137 39.6395C45.3608 39.8748 45.6922 40.3367 46.0585 40.718C46.1283 40.7899 46.1196 40.938 46.1894 41.0099C46.499 41.3302 46.813 41.864 47.1466 41.8814C47.5043 41.8988 48.0341 41.5045 48.2304 41.1472C48.6861 40.3149 48.9849 39.3955 49.3447 38.5218C47.7289 37.7723 47.2339 36.7897 47.8837 35.513C48.1453 34.9967 48.7145 34.6415 49.1026 34.1775C49.2771 33.9683 49.4493 33.6785 49.4537 33.4214C49.4689 32.6458 49.4013 31.868 49.3577 30.929V30.9268ZM47.8183 15.3577C48.7668 16.0941 49.4428 16.3272 50.2103 15.373C50.4567 15.0679 51.2265 15.057 51.7345 15.1137C53.2435 15.2836 54.3752 16.251 54.8353 17.5495C55.3826 19.1007 56.3181 20.0899 57.694 20.8023C57.7246 20.8176 57.7485 20.8524 57.7791 20.8699C58.5968 21.3731 59.2902 21.7283 60.2693 20.92C62.0421 19.4559 64.3338 20.1531 64.6893 22.2141C64.9946 23.9811 66.2615 24.7 67.6374 25.3733C67.8685 25.4866 68.1913 25.4147 68.4725 25.4277C65.0861 23.9005 65.1886 21.0202 65.2911 18.482C64.469 17.8458 63.7385 17.3926 63.1542 16.7978C62.7333 16.3708 62.5392 16.1834 61.9309 16.5778C61.3726 16.9395 60.4546 17.3142 59.9596 17.0941C58.527 16.4514 57.0181 15.7695 56.2461 14.2204C56.1982 14.1224 56.1785 14.0069 56.1131 13.9241C55.9278 13.691 55.7686 13.3969 55.5244 13.2618C54.1048 12.4644 52.6635 11.7062 51.124 10.8783C50.4044 11.3619 50.0119 12.2007 50.1318 13.3424C50.1624 13.6322 49.8266 14.0439 49.5496 14.264C49.035 14.6692 48.4419 14.9743 47.8226 15.3577H47.8183ZM76.7151 8.91525C77.0356 8.10041 77.3474 7.30735 77.6789 6.45765C78.7212 6.93261 79.661 7.36182 80.6423 7.80846C80.8472 7.39232 81.0326 7.0154 81.2921 6.48816C79.7482 5.79532 78.2916 5.14171 76.7783 4.46195C76.2572 5.85197 75.7818 7.12216 75.2955 8.4185C73.5075 7.94136 71.7848 7.47947 69.9815 6.99797C70.1668 6.09381 70.3435 5.23757 70.5157 4.40312C71.2135 4.53385 71.8132 4.55999 72.3409 4.76479C73.3854 5.17003 73.8389 4.83669 73.828 3.59918C72.3452 3.30505 70.8123 3.00003 69.203 2.67976C69.0308 3.88459 68.8912 4.9173 68.7364 5.94783C68.623 6.70603 69.1442 6.91083 69.6958 7.16791C70.6924 7.63198 71.6584 8.16359 72.6396 8.66251C72.7595 8.72352 72.9078 8.79106 73.0299 8.77363C74.6872 8.5209 75.9759 9.28781 77.1665 10.2813C78.5075 11.399 79.9467 12.2792 81.6584 12.7585C82.4172 12.972 83.115 13.5036 83.7605 13.996C84.8224 14.8065 85.8189 15.7041 86.8416 16.5669C87.6288 17.2292 88.3462 17.2902 89.044 16.4079C89.3493 16.0222 89.7701 15.7237 90.1561 15.3708C90.88 16.2902 91.5451 17.129 92.4587 18.2903C92.7444 17.5996 93.1849 16.9939 93.0453 16.7935C92.1447 15.5037 91.1177 14.3032 89.9162 12.8043C88.911 14.0461 88.0693 15.0875 87.2276 16.129C85.566 14.6932 84.1857 13.5014 82.7792 12.2879C83.3004 11.5733 83.8041 10.8804 84.3231 10.168C85.1953 10.802 86.0021 11.3924 86.8591 12.0156C87.1534 11.606 87.3824 11.29 87.7073 10.8412C86.3575 9.85209 85.0601 8.89999 83.6842 7.88907C82.8773 9.14837 82.1447 10.2922 81.4207 11.4229C79.866 10.595 78.3723 9.79763 76.7107 8.91525H76.7151ZM100.143 31.6414C99.8792 30.6087 99.72 29.5324 99.3275 28.5498C98.307 25.9855 96.1504 24.3754 94.1269 22.676C91.5146 20.4842 88.3309 20.0158 85.0863 19.774C82.6418 19.591 80.2498 19.2903 78.3309 17.519C78.1608 17.3621 77.7639 17.4188 77.4761 17.4318C76.4948 17.4776 75.4787 17.7434 74.5432 17.5626C73.1935 17.3033 72.0683 17.7173 70.8995 18.1966C69.7002 18.689 68.4856 19.1443 67.3038 19.6062C68.3483 20.3186 69.6239 20.2315 70.9344 20.1531C71.8939 20.0964 72.8642 20.2642 73.8324 20.3078C74.408 20.3339 75.0273 20.4537 75.5528 20.2925C77.2166 19.7783 78.8389 19.2358 80.6379 19.5452C82.0596 19.7892 83.5337 19.7631 84.9423 20.055C86.6977 20.4189 88.4661 20.8481 90.1255 21.5039C92.0204 22.2533 93.198 23.9375 94.2228 25.5933C95.723 28.0182 97.3127 30.3037 100.145 31.6393L100.143 31.6414ZM52.9033 48.2171C52.8183 48.2498 52.7311 48.2825 52.646 48.3151C52.7354 48.9688 52.7376 49.6485 52.9295 50.2716C53.9587 53.6421 56.0477 56.2892 58.7342 58.4897C59.1833 58.858 59.9684 59.3482 60.339 59.1869C61.9439 58.4919 63.4551 59.2828 64.9771 59.3503C66.787 59.431 68.4616 59.0671 69.831 58.1651C72.4521 56.4396 74.4146 53.9667 76.2332 51.4176C77.0291 50.3 76.9942 49.9318 76.0108 48.8598C75.6379 49.435 75.3457 50.0864 74.879 50.5723C73.1738 52.3479 71.3378 54.0016 69.6958 55.8317C68.3417 57.3416 66.6583 57.7751 64.7765 57.9473C62.7922 58.1259 61.0368 57.8274 59.7438 56.1041C59.3818 55.6204 58.8606 55.2326 58.3547 54.8862C55.8907 53.202 53.9304 51.1061 52.9011 48.2193L52.9033 48.2171ZM30.1601 31.5957C30.2495 31.7024 30.341 31.8092 30.4304 31.9138C31.2285 31.2384 32.1858 30.6828 32.7942 29.8658C34.0371 28.1969 35.5962 26.9463 37.3428 25.9027C37.816 25.6195 38.4876 24.992 39.0611 26.0334C38.6032 26.223 38.202 26.3646 37.8226 26.552C36.6712 27.1184 36.3332 28.0945 37.0899 29.1076C37.5195 29.6849 38.1911 30.1294 38.8343 30.4867C39.8025 31.0249 40.3869 31.7046 40.4 32.8681C40.4261 35.0903 39.7371 35.9226 37.1924 36.5653C37.236 36.768 37.2622 36.9793 37.3298 37.1754C37.6874 38.2037 38.5007 38.7528 39.495 38.9292C40.4152 39.0926 40.9102 38.3824 41.3529 37.6917C42.6089 35.7374 42.4388 33.9226 40.9473 31.7547C40.5265 31.1425 40.3389 30.3342 40.195 29.5869C40.1449 29.3233 40.5134 28.7437 40.738 28.7176C41.0694 28.6806 41.4597 28.9769 41.7912 29.1882C42.3516 29.5412 42.8836 29.9377 43.4266 30.3168C43.516 30.1904 43.6054 30.064 43.6926 29.9377C43.3089 29.661 42.9447 29.3516 42.5369 29.1141C41.9896 28.796 41.7323 28.4561 42.0528 27.8004C42.4737 26.9332 42.816 26.0291 43.3263 24.8221C41.6691 24.785 40.0489 24.3907 38.6512 24.785C34.9202 25.8395 32.1422 28.2731 30.1644 31.5979L30.1601 31.5957ZM88.6885 26.674C87.7095 25.1576 86.1155 24.6042 84.2424 25.0029C83.5228 25.1554 82.7487 25.1576 82.0095 25.1009C79.8551 24.9397 78.2655 23.7196 76.8219 22.2403C76.4665 21.8764 76.0326 21.5888 75.6597 21.286C76.279 22.5845 76.9244 23.7719 77.415 25.0225C77.8184 26.0487 78.0256 27.1489 78.344 28.21C78.3876 28.3538 78.5446 28.528 78.6841 28.5716C79.6196 28.8505 80.6074 29.1926 81.4731 28.491C81.9964 28.0662 82.3627 28.2056 82.8119 28.5128C83.2524 28.8113 83.7038 29.0923 84.1595 29.3669C84.8071 29.7568 85.5638 30.0314 86.0915 30.5434C86.7239 31.1578 87.3257 31.4889 88.2241 31.2471C87.8163 29.6414 87.6375 28.0858 88.6885 26.6761V26.674ZM56.9679 11.5145C57.3451 11.6626 57.4956 11.7541 57.657 11.7803C59.0394 12.0047 60.0578 12.6561 60.5418 14.0461C60.6378 14.3206 60.9736 14.7106 61.1982 14.7128C62.6156 14.7193 63.2174 15.7455 63.9522 16.6824C64.4865 17.3621 65.5811 17.2924 65.8363 16.5342C66.2571 15.2902 66.5275 13.9851 66.7259 12.6866C66.7913 12.2618 66.5493 11.4905 66.244 11.3619C64.8005 10.7519 64.2205 9.85209 64.916 8.31392C61.5754 7.6712 59.5562 9.97846 56.9635 11.5145H56.9679ZM90.5944 24.0944C89.1792 22.1923 87.6244 20.6455 85.0317 20.6171C83.4835 20.5997 81.9179 20.4319 80.4002 20.1313C78.9283 19.8393 77.6331 20.1814 76.4033 20.6607C77.077 21.3775 77.7312 22.1052 78.4159 22.8002C79.9685 24.3754 81.931 24.6521 84.0178 24.5432C84.8333 24.4996 85.6597 24.4822 86.4709 24.5519C87.8796 24.6739 89.3231 25.2316 90.5922 24.0944H90.5944ZM78.1717 63.6882C77.4695 64.8146 76.5755 64.7536 75.6575 64.625C73.6143 64.3396 71.9658 63.2568 70.3413 62.0781C69.6522 61.5792 68.8345 61.2545 68.0735 60.8515C69.1987 62.004 70.3696 63.0237 71.6431 63.893C73.8803 65.4202 77.0029 65.5749 78.7888 64.2067C80.5202 62.8799 80.88 60.8537 80.9105 58.8601C80.9388 57.0126 81.0827 55.2979 82.1556 53.6988C82.5524 53.1083 82.5306 52.2368 82.6985 51.4939C82.5481 51.4372 82.3998 51.3828 82.2493 51.3261C81.7587 51.9296 81.1416 52.4721 80.7971 53.1519C79.842 55.0474 79.6283 57.1237 79.4124 59.2174C79.0461 62.7622 77.7094 63.3788 74.7133 61.8384C73.2763 61.0998 71.8001 60.4092 70.2846 59.8514C69.1311 59.4266 67.9187 59.4963 66.811 60.309C68.8236 59.9844 70.2846 61.0214 71.7216 62.1369C73.586 63.5836 75.688 64.1326 78.1717 63.6882ZM54.2029 4.15039C54.6303 5.55784 55.0185 6.84546 55.411 8.1418C54.1746 8.66469 53.032 9.14619 51.8196 9.66037C52.0769 10.1048 52.2513 10.4077 52.4301 10.717C53.479 10.3074 54.4297 9.85645 55.4284 9.56014C57.8423 8.8477 60.2649 8.15487 62.7115 7.5688C63.4812 7.38361 64.3818 7.40757 65.145 7.61673C66.0739 7.87164 66.4468 7.49908 66.8895 6.67117H63.49C63.4158 5.72996 63.3482 4.88462 63.2719 3.92163H66.4926V2.61876H61.7215C61.8349 4.08067 61.9396 5.4293 62.0443 6.76049C60.2562 7.09602 58.6011 7.4054 56.8501 7.7322C56.6037 6.86943 56.3639 6.03062 56.1088 5.13517C57.1162 4.8868 58.0146 4.66675 58.889 4.45323C58.9849 3.31159 58.4856 2.99567 57.5239 3.25276C56.4533 3.54035 55.3848 3.83012 54.2051 4.14821L54.2029 4.15039ZM77.8708 31.2079C78.0779 33.0816 78.2611 34.7396 78.4639 36.5806C80.1429 34.7025 81.5385 35.8071 82.9166 36.7331C84.4822 34.6437 84.7984 34.574 87.1687 35.7135C87.4914 35.8681 87.849 36.0925 88.1761 36.0708C88.6231 36.0403 89.0571 35.8028 89.4953 35.6546C89.4692 35.5479 89.443 35.4411 89.4147 35.3344C88.1434 35.452 87.1861 34.977 86.6672 33.8332C86.3575 33.1513 86.098 32.4301 85.9519 31.6981C85.7797 30.8375 85.2912 30.3734 84.4016 29.9791C84.6414 31.1795 84.9772 32.2515 83.9436 33.0315C83.4377 32.1992 82.9624 31.4148 82.4129 30.5085C81.0675 32.1099 79.5803 31.9312 77.8686 31.21L77.8708 31.2079ZM49.9618 56.6335C49.868 56.6182 49.7742 56.603 49.6826 56.5877C49.4973 56.8187 49.2138 57.0235 49.1462 57.2849C48.9478 58.054 48.6752 58.8536 48.7297 59.6227C48.8126 60.8144 48.8322 62.1805 49.4275 63.1304C50.991 65.6272 53.6447 66.1392 56.3661 64.7732C57.8794 64.015 59.397 63.2633 60.8798 62.4507C61.1328 62.3134 61.22 61.8755 61.3835 61.5748C60.8798 61.5617 60.6247 61.6968 60.3674 61.821C58.6142 62.6642 56.8763 63.5378 55.097 64.3178C54.6587 64.5095 54.0852 64.3897 53.5728 64.4137C54.8288 63.7143 56.0979 63.2982 57.2928 62.7252C59.2749 61.7753 61.0194 60.1695 63.6077 60.6162C63.3679 60.1543 63.0386 59.6859 62.742 59.7055C61.715 59.7708 60.6182 59.8209 59.6936 60.2175C57.6417 61.0998 55.7097 62.2546 53.6731 63.1718C51.5383 64.1348 50.3543 63.2633 50.3848 60.8951C50.4022 59.4811 50.4109 58.0649 50.4066 56.6487C50.4022 55.603 49.9639 54.7685 49.1222 54.1432C48.5051 53.6857 47.8989 53.2151 47.2448 52.7183C47.1554 53.7205 47.7245 54.2521 48.5269 54.701C49.2771 55.1193 50.0948 55.5485 49.9661 56.6357L49.9618 56.6335ZM76.7565 25.2011C76.5668 22.4037 74.2445 20.5191 71.268 20.6607C69.2968 20.7522 67.2667 21.1095 65.8079 19.1225C65.7861 19.8916 65.8014 20.5387 65.9147 21.1705C66.3487 23.6172 67.9776 24.931 70.3609 24.5192C72.5742 24.1358 74.6981 24.0137 76.7587 25.2033L76.7565 25.2011ZM62.8685 27.9354C63.2174 28.0618 63.5074 28.2274 63.8149 28.2644C65.1799 28.4365 66.5515 28.5629 67.9187 28.7198C71.3509 29.1185 74.6675 29.783 76.9811 32.7199C77.0095 32.7569 77.1119 32.7351 77.1817 32.7395C77.173 29.9486 75.8341 28.2949 73.176 27.8156C70.0295 27.247 67.0944 26.2034 64.6239 24.0856C64.0722 25.2948 63.5052 26.5389 62.8663 27.9354H62.8685ZM45.2103 10.3271C45.2256 10.1789 45.2408 10.0307 45.2561 9.88259C44.8396 9.74751 44.2443 9.36842 44.0372 9.52093C42.7136 10.4926 41.475 11.5798 40.1688 12.6626C41.3006 13.8588 42.2731 14.8893 43.3568 16.0375C44.1004 15.7216 45.0947 15.4013 45.9779 14.8893C46.8457 14.386 47.5806 13.6561 48.4135 13.0809C50.2496 11.8151 50.5636 10.6887 49.5802 8.73659C49.4537 8.48604 49.3686 8.21588 49.24 7.89561C50.1711 7.42936 51.0629 6.9849 52.308 6.36179C51.7018 5.95001 51.1807 5.36612 50.9321 5.46634C49.6041 5.99359 48.3438 6.69078 46.9329 7.3945C47.7005 8.68866 48.3743 9.82377 49.0634 10.9828C47.4715 12.155 45.9168 13.3032 44.325 14.4775C43.758 13.8304 43.1889 13.179 42.574 12.4774C43.4877 11.7345 44.3512 11.0308 45.2147 10.3292L45.2103 10.3271ZM76.9942 55.982C76.8634 55.8818 76.7325 55.7816 76.6017 55.6814C77.7225 53.8534 79.5585 52.4678 80.3065 50.0756C79.7526 50.6812 79.3928 51.0734 79.0352 51.4656C79.7083 49.8519 79.592 48.7458 78.6863 48.1474C76.8328 52.4656 73.7255 55.8143 70.1756 58.9473C72.4957 59.8885 73.0408 57.3917 74.6981 57.0954C73.7888 57.8383 72.8795 58.5791 72.0007 59.298C72.7399 60.2458 73.2545 60.0933 73.7582 59.5878C75.1407 58.2022 76.5777 56.8644 77.8751 55.4025C78.8826 54.2652 79.709 52.9689 80.6139 51.7444C80.5529 51.7009 80.4918 51.6551 80.4308 51.6115C79.2838 53.0691 78.139 54.5267 76.992 55.9864L76.9942 55.982ZM72.4106 65.3462C71.3465 64.5575 70.4045 63.8581 69.4712 63.1631C68.7633 63.9039 67.9063 64.1987 66.9004 64.0477C66.2811 63.954 65.7294 63.8625 65.0818 64.2263C64.0155 64.8233 62.8402 64.5183 62.0791 63.54C61.6888 63.0367 61.3159 62.9147 60.7948 63.1675C59.5497 63.7731 58.3133 64.4006 57.0747 65.0194C57.1096 65.1174 57.1445 65.2176 57.1816 65.3157C62.2209 66.5902 67.2667 66.5946 72.4128 65.3462H72.4106ZM79.4626 12.9001C78.3069 12.0068 77.3016 11.192 76.2528 10.436C75.7033 10.0395 75.1058 9.67344 74.4756 9.42724C73.514 9.05033 72.3103 9.46864 71.8197 10.3445C70.8668 12.0482 70.978 13.9568 70.8297 15.8414C71.2768 15.5778 71.6038 15.2531 71.9484 14.9481C72.8446 14.1551 73.9065 13.4818 75.0797 13.7498C76.7194 14.1224 78.0103 13.4448 79.4604 12.9023L79.4626 12.9001ZM37.6808 21.53C38.9892 21.53 40.219 21.4102 41.4161 21.5583C43.3459 21.798 45.2103 21.8132 47.0681 21.1204C48.1584 20.7152 48.8911 20.0485 49.3447 19.0114C46.0258 17.1835 39.7284 18.4951 37.6808 21.53ZM54.7219 58.797C54.807 58.6989 54.892 58.6009 54.977 58.5028C55.4677 58.8688 56.0215 59.1739 56.4337 59.6118C57.2601 60.4898 58.0429 60.516 58.9697 59.6336C55.8471 57.213 53.4507 54.2587 52.1772 50.5069C51.1349 50.9557 50.9997 51.5898 51.4336 52.4612C51.7389 53.0735 51.9766 53.7205 52.2034 54.3676C52.3015 54.6487 52.2906 54.9689 52.3298 55.2696L52.0071 55.3415C51.5121 54.2587 51.015 53.178 50.4851 52.019C49.7393 54.0691 54.0634 60.3351 56.6953 60.9582C55.967 60.1608 55.3456 59.4811 54.7263 58.8013L54.7219 58.797ZM98.2329 25.5476C98.126 25.2273 98.1064 24.955 97.9647 24.7872C96.8548 23.4712 95.8561 22.0246 94.5695 20.9069C91.9834 18.6563 88.9459 17.58 85.4264 17.7085C83.2241 17.7892 80.9214 18.4232 78.7648 17.1835C79.1791 17.6105 79.6087 18.0724 80.1189 18.1966C81.9659 18.6432 83.8237 19.092 85.7055 19.3208C88.4552 19.6563 91.1831 20.0376 93.488 21.6934C95.0929 22.8481 96.5669 24.1837 98.2329 25.5476ZM90.2084 25.0617C91.6607 25.7938 92.5023 26.87 93.1587 28.1707C93.7104 29.2623 94.4191 30.2754 95.058 31.3233C96.0087 32.8855 97.6899 32.7983 99.1792 33.1186C99.3428 33.1535 99.5826 32.8375 99.8399 32.6436C98.935 31.9007 98.0192 31.3691 97.4043 30.5978C95.8953 28.7132 94.5564 26.6936 93.0911 24.7741C92.0793 23.4473 91.0261 22.1226 89.1704 21.7871C89.9511 22.5213 90.7317 23.2556 91.5146 23.9941C91.1504 24.2926 90.7361 24.6303 90.2062 25.0617H90.2084ZM86.013 44.8031C86.0784 44.7682 86.1438 44.7312 86.2071 44.6963C86.4382 43.8749 86.6388 43.0427 86.9092 42.2343C87.184 41.4173 87.6026 40.6461 87.8316 39.8182C88.3854 37.8072 87.6026 36.4172 85.6379 35.7766C84.8965 35.5348 83.9655 35.9749 83.8041 36.6677C83.6035 37.524 83.4356 38.3867 83.235 39.3301C85.1037 39.7463 85.5289 41.1646 85.5551 42.9098C85.5638 43.5438 85.8538 44.1734 86.0152 44.8052L86.013 44.8031ZM83.4879 14.4143C83.3483 14.2553 83.2175 14.0418 83.03 13.9067C81.8983 13.0875 80.7033 13.1093 79.4473 13.6278C78.0452 14.2052 76.6475 14.6736 75.0491 14.3751C74.4255 14.2575 73.5772 14.5385 73.043 14.9263C71.8982 15.7608 70.893 16.7826 69.831 17.7282C70.35 17.7521 70.7229 17.5539 71.1176 17.421C72.3867 16.9917 73.6383 16.6998 75.0186 17.0789C76.7129 17.543 78.1172 16.6715 78.1521 15.2226C79.9009 14.959 81.665 14.691 83.4879 14.4165V14.4143ZM56.6517 27.7982C54.5409 25.8395 51.7542 25.6587 49.5387 27.2862C48.021 28.4017 46.632 29.7743 44.5147 29.7721C44.7306 29.9987 44.9159 30.1577 45.134 30.2362C47.284 31.0183 49.1179 30.2274 50.9714 29.1838C51.9395 28.6392 53.0821 28.3646 54.1768 28.0879C54.9618 27.8897 55.7969 27.8897 56.6517 27.7982ZM48.1148 51.8621C48.6643 50.1758 49.9072 49.0624 51.233 47.9731C51.6757 47.6092 52.0573 46.9077 52.0682 46.3521C52.0813 45.6484 51.6866 44.936 51.4751 44.2518C50.5592 44.7159 49.711 45.1103 48.8955 45.5678C47.0594 46.594 46.3071 48.5962 47.151 50.1213C47.4519 50.666 47.755 51.2107 48.1148 51.8621ZM78.2589 41.6526C78.1891 41.962 78.1085 42.5328 77.9296 43.0732C77.4238 44.607 77.8664 45.8663 78.8564 47.0755C79.8616 48.3043 80.76 49.6224 81.6977 50.8926C83.3069 49.5113 83.4596 48.069 81.9768 46.4109C81.4447 45.8162 80.7949 45.3172 80.3174 44.6876C79.5542 43.681 78.8913 42.5982 78.2567 41.6548L78.2589 41.6526ZM63.5314 21.5583C62.8249 20.5038 61.5231 20.7479 59.5104 22.5845C57.2514 21.3361 56.063 21.6041 54.1615 23.8503C54.9378 24.1793 55.6814 24.5257 56.4467 24.809C58.575 25.5999 59.0765 25.4212 60.6618 23.8525C61.5187 23.0028 62.5545 22.3318 63.5336 21.5583H63.5314ZM67.306 11.3336C67.657 13.4274 67.4586 15.4209 66.3378 17.2772C65.8886 18.0201 66.1415 18.5975 67.0007 18.6345C67.5785 18.6585 68.4137 18.4863 68.7059 18.0876C69.3033 17.2772 69.8463 16.288 69.9989 15.3098C70.3849 12.8086 69.4822 11.5951 67.306 11.3336ZM77.3344 29.966C78.1455 27.7502 77.6026 26.4975 75.893 25.5367C73.647 24.273 71.4141 25.1728 69.1311 25.3014C69.2467 26.2665 69.9553 26.3777 70.6095 26.5563C73.0386 27.2186 75.7905 27.1903 77.3344 29.9682V29.966ZM67.9252 6.96747C67.3496 7.44243 66.6736 7.91521 66.111 8.49911C65.797 8.82592 65.4852 9.35752 65.5288 9.75623C65.5637 10.0612 66.1197 10.4273 66.51 10.5515C67.8031 10.9632 69.1267 11.2792 70.4372 11.6321C70.8341 10.9001 71.3618 9.92835 71.9789 8.78888C70.6662 8.19845 69.2903 7.58187 67.923 6.96747H67.9252ZM86.2441 31.7264C86.6279 32.5674 86.8133 33.0728 87.0793 33.5347C87.5328 34.3191 88.1456 34.9967 89.1508 34.7875C90.1888 34.5696 90.6663 33.8136 90.7928 32.7548C90.8408 32.3539 91.1003 31.7787 91.4077 31.6632C91.7195 31.5477 92.2668 31.8179 92.6048 32.0641C93.2198 32.5151 93.9568 32.4279 93.9742 31.7417C93.9895 31.1512 93.7562 30.4301 93.3724 29.9987C93.1195 29.7154 92.3802 29.7242 91.9049 29.8244C91.4818 29.9137 91.109 30.2885 90.7361 30.5673C89.4932 31.4955 88.3026 32.5609 86.2463 31.7264H86.2441ZM79.1726 55.0648C77.4805 56.8405 75.7382 58.6684 73.9022 60.5987C74.7046 60.9648 75.422 61.3983 76.2005 61.6249C77.7247 62.0694 78.2785 61.7404 78.5402 60.1761C78.8259 58.4549 78.9763 56.7097 79.1748 55.0648H79.1726ZM51.0586 56.7468C51.0586 58.4505 51.0259 60.0759 51.0717 61.699C51.0978 62.6337 51.8567 63.2219 52.7027 62.9191C53.7254 62.5531 54.6892 62.028 55.5854 61.614C54.0503 59.9647 52.6068 58.4091 51.0586 56.7468ZM80.2432 39.4478C81.0522 39.877 81.6846 40.2125 82.1621 40.4674C82.4282 39.609 82.6637 38.9183 82.8468 38.2124C82.8926 38.036 82.8272 37.7113 82.7029 37.6329C81.9026 37.1296 81.1155 36.5523 80.2367 36.2516C79.637 36.0468 78.8847 36.9989 78.9349 37.6612C79.0308 38.9183 79.1093 40.1776 79.2162 41.4326C79.238 41.7006 79.3514 41.9598 79.4364 42.2757C79.7243 41.2735 79.975 40.3955 80.2454 39.4521L80.2432 39.4478ZM85.2324 45.095C85.0339 43.9969 84.8028 42.9882 84.6807 41.9685C84.5738 41.0731 84.2707 40.3912 83.3396 40.0992C83.2524 40.4522 83.1674 40.7877 83.0409 41.2931C82.2319 41.0775 81.4861 40.8814 80.7404 40.6831C80.5529 41.4979 80.8843 42.1995 81.5756 42.7856C82.0444 43.1821 82.6418 43.535 82.9057 44.0492C83.4639 45.1386 84.3318 45.2039 85.2302 45.0972L85.2324 45.095ZM50.1057 32.1055C50.8427 30.4671 51.994 29.4758 53.8344 29.637C54.6936 29.7111 55.5396 29.9486 56.3879 30.1381C58.1018 30.5194 60.3478 29.6261 61.3726 28.1729C60.4917 28.2731 59.5715 28.3973 58.6469 28.4801C56.7716 28.6479 54.8876 28.7394 53.0189 28.9638C51.3987 29.1577 50.1951 30.4824 50.1035 32.1055H50.1057ZM92.8992 28.5629C92.2799 27.8984 91.7588 26.9332 90.9869 26.65C90.4461 26.4517 89.3078 26.9964 88.8935 27.552C88.1478 28.5477 88.3593 29.7743 88.9611 30.9922C89.6044 30.5238 90.1582 30.0706 90.7623 29.6937C91.3554 29.3233 91.9986 29.0335 92.8992 28.5629ZM56.5318 20.9178C54.5606 19.7151 51.0935 20.0659 49.796 21.6498C50.6639 21.9941 51.5078 22.4298 52.4062 22.652C52.9818 22.7958 53.7189 22.8024 54.2313 22.554C55.0512 22.1575 55.7446 21.4973 56.5318 20.9156V20.9178ZM37.8226 30.9769C37.683 31.648 37.7266 32.4846 37.3407 33.0053C36.922 33.5696 36.1065 33.8419 35.437 34.2581C35.8077 35.2036 36.6211 35.6655 37.8422 35.513C38.8605 35.3866 39.5932 34.5805 39.7218 33.4432C39.8897 31.9639 39.6084 31.624 37.8247 30.9747L37.8226 30.9769ZM78.8259 15.9394C79.7417 17.1334 84.3231 17.7173 86.1744 16.9438C83.8979 14.7302 82.1032 14.9045 78.8259 15.9394ZM53.9762 35.7984C54.3294 35.4041 54.7655 35.0555 55.0207 34.6045C55.6574 33.4803 56.4031 32.5282 57.6461 31.9966C58.1541 31.7787 58.551 31.2994 58.998 30.9377C57.5109 31.0183 55.9823 30.5935 54.892 31.7722C53.8802 32.8637 53.5619 34.1775 53.9783 35.7984H53.9762ZM37.9032 15.1442C36.8042 16.7042 35.799 18.1334 34.7174 19.6694C35.509 20.1356 36.1435 20.5082 36.7693 20.8764C37.0485 20.323 37.284 19.848 37.5216 19.3753C37.0572 17.8632 38.6795 17.2423 38.9892 15.9634C38.71 15.7521 38.4048 15.5211 37.9032 15.1442ZM49.3621 18.1029C48.9391 16.8153 48.2108 16.3708 47.1074 16.2619C43.9717 15.9503 41.5121 17.4166 39.1178 19.1487C42.3341 17.421 45.666 16.7913 49.3621 18.1029ZM45.9342 47.8663C46.4336 47.1561 46.7868 46.3565 47.3909 45.8641C48.2413 45.1691 49.2749 44.7007 50.2321 44.1385C51.3159 43.5024 51.4336 42.5895 50.6312 41.8269C49.5605 42.7551 48.4964 43.6723 47.4388 44.5961C46.8959 45.071 46.318 45.5177 45.8405 46.0515C45.291 46.6637 45.267 47.3173 45.9342 47.8685V47.8663ZM56.8218 12.545C56.6583 13.8152 56.9723 14.4121 58.0451 14.9655C58.4441 15.1725 58.8257 15.4514 59.1485 15.7651C60.0578 16.6519 60.8776 16.6497 61.5536 15.8588C61.0652 15.4884 60.3347 15.2183 60.121 14.7237C59.4734 13.2269 58.3482 12.6125 56.824 12.545H56.8218ZM68.8127 62.8472C68.7822 62.6816 68.7538 62.516 68.7233 62.3504C66.9505 62.2633 66.3814 59.8754 64.3796 60.1434C64.3993 61.8842 65.8711 63.394 67.5284 63.3592C67.9601 63.3505 68.3853 63.0258 68.8127 62.8472ZM50.5767 34.4868C52.1358 33.1339 53.5553 31.9029 55.073 30.5869C52.0551 30.1773 50.1406 31.7438 50.5767 34.4868ZM78.3549 29.2056C77.8926 29.9333 78.0845 30.4322 78.7343 30.685C79.2576 30.8876 79.9118 31.1599 80.3784 31.0074C81.0588 30.7852 81.6235 30.21 82.3017 29.7394C82.764 30.1795 83.3353 30.7242 83.9066 31.2689L84.1791 31.0728C83.7147 30.4584 83.2829 29.8135 82.7661 29.247C82.5939 29.0575 82.0793 28.9071 81.9266 29.0183C80.7796 29.8527 79.5934 29.5281 78.357 29.2056H78.3549ZM59.5061 38.1144C58.8475 38.0665 58.189 37.8856 57.5894 38.0076C56.8916 38.1493 55.7751 38.1384 55.9103 39.2321C56.0433 40.3084 57.0944 40.036 57.8292 40.0447C59.445 40.0622 59.7481 39.7223 59.5083 38.1144H59.5061ZM36.9918 30.3952C36.3681 29.3669 36.0759 29.2841 35.1775 29.881C34.4383 30.3712 34.1854 31.722 34.6869 32.4824C35.1383 33.1644 35.9124 33.282 36.5513 32.709C36.9656 32.3364 37.4192 31.8942 36.6908 31.2885C36.3877 31.5325 36.1239 31.7438 35.8513 31.9617C35.3258 31.0009 35.6071 30.637 36.9918 30.3952ZM44.7458 46.0515C45.5636 45.3281 46.3878 44.583 47.2295 43.8597C47.9142 43.2714 48.6643 42.7507 49.3076 42.1211C49.8593 41.5807 50.1602 40.8988 49.6434 40.06C49.4973 42.2104 46.9853 42.2692 46.3137 43.9534C46.2613 44.0863 45.9299 44.1342 45.7184 44.1712C44.4973 44.3826 44.2509 44.8837 44.748 46.0515H44.7458ZM50.8405 35.1056C49.6434 34.6241 48.7079 34.9814 48.322 36.0054C48.0167 36.8093 48.4593 37.1449 49.144 37.3257C50.0926 37.5763 50.3826 37.2015 50.8427 35.1056H50.8405ZM53.2042 11.0177L53.3198 11.4033C55.605 12.0003 57.1663 10.582 58.8323 9.45121C58.7996 9.35752 58.769 9.26384 58.7363 9.17015C56.8916 9.78673 55.0468 10.4011 53.2021 11.0177H53.2042ZM65.1603 63.3265C64.783 62.8232 64.5192 62.2611 64.0787 61.9474C63.7233 61.6946 63.1563 61.6925 62.6832 61.6816C62.5022 61.6772 62.1358 62.0345 62.1642 62.1086C62.319 62.5226 62.4782 63.0302 62.8096 63.2677C63.5161 63.7753 64.3295 63.7753 65.1625 63.3243L65.1603 63.3265ZM80.3283 42.4631C80.6074 44.6702 82.3889 45.5286 83.296 46.9927C83.4596 44.8118 81.7129 43.9032 80.3283 42.4631ZM51.5884 37.0904C53.0691 36.3366 53.1694 36.0664 53.0538 33.1208C52.2295 34.4324 50.9495 35.3431 51.5884 37.0904ZM48.8846 53.0517C49.4907 52.2194 49.9443 51.4438 50.5483 50.8141C51.172 50.1649 52.0769 49.7357 51.8327 48.4284C50.2627 49.6899 48.8715 50.8817 48.8824 53.0517H48.8846ZM77.3169 49.4154C78.5097 47.6768 78.5053 47.4938 77.2842 46.1495C76.6104 47.5025 76.6082 48.2345 77.3169 49.4154ZM91.5603 18.4471L91.6955 18.2685C91.1962 17.6497 90.6968 17.031 90.1452 16.3468C89.6938 16.7456 89.3667 17.0331 88.9459 17.4057C89.938 17.8001 90.7492 18.1247 91.5603 18.4471ZM33.6468 30.2688C32.9643 31.0118 32.1684 31.4628 32.7527 32.3887C32.9207 32.6545 33.3001 32.7874 33.6468 33.0249V30.2688Z" fill="black"/>
<path d="M72.965 37.2696C71.1098 35.7858 69.2952 36.5477 67.4949 37.6012C67.4423 37.4907 67.3922 37.3825 67.3397 37.272C67.6023 37.0486 67.8363 36.7711 68.1348 36.6089C69.8396 35.6753 71.5635 35.5201 73.3279 36.4936C75.4506 37.6647 75.4577 37.6506 77.0408 36.108C77.1243 37.1873 76.4558 37.7917 75.1832 37.8787C75.0089 38.262 74.9444 38.6805 74.6961 38.8992C72.9507 40.4371 69.8491 40.7263 67.7742 39.5953C67.1606 39.2614 67.1988 38.4125 67.9318 37.8505C69.0468 36.9945 70.329 36.6771 71.733 36.9616C72.1484 37.0462 72.5567 37.1662 72.9698 37.2696H72.965ZM71.2387 37.486C70.6991 37.5259 70.4269 37.4766 70.2335 37.573C69.8085 37.787 69.202 37.9915 69.0659 38.3466C68.7842 39.0873 69.3811 39.5906 70.0497 39.6047C70.9976 39.6235 71.9956 39.5388 72.891 39.2472C73.6742 38.9933 73.6383 38.2761 72.8647 37.9328C72.2702 37.6694 71.5993 37.5777 71.2387 37.4836V37.486Z" fill="black"/>
<path d="M57.6316 52.5337C57.9499 52.172 58.2421 51.8394 58.5342 51.5069C58.5651 51.6282 58.5936 51.7496 58.6245 51.8687C59.444 51.8687 60.2659 51.8687 61.0854 51.8687C61.855 51.8687 62.6246 51.8889 63.3919 51.8754C64.3088 51.8574 65.2257 51.7833 66.1426 51.79C66.7245 51.7945 67.3136 51.9922 67.8814 51.9316C68.2804 51.8889 68.6462 51.5608 69.3185 51.2036C69.48 51.3564 69.8553 51.7091 70.1712 52.0079C68.031 53.4122 65.8219 51.7496 63.8527 52.7741C61.8574 51.6844 59.7884 53.4863 57.6316 52.5314V52.5337Z" fill="black"/>
<path d="M62.6106 47.6758C61.7072 46.7308 61.5536 45.7256 61.7549 44.4725C62.0966 42.3277 62.0808 40.1412 62.2212 37.9732C62.245 37.6003 62.3033 37.2274 62.3722 36.6414C62.6742 36.9378 62.8305 37.0189 62.8278 37.0953C62.7033 39.6246 62.6927 42.1655 62.3854 44.6809C62.1708 46.4552 62.6132 47.1014 64.9127 47.333C64.4491 48.1043 64.2477 48.1298 62.5708 47.6388L62.6106 47.6781V47.6758Z" fill="black"/>
<path d="M77.0432 35.4652C76.2179 35.4652 75.3857 35.5324 74.5741 35.4413C74.0239 35.3805 73.4966 35.1071 72.9647 34.9183C71.2223 34.3041 69.7046 34.545 68.4024 35.884C68.07 36.2269 67.5358 36.394 67.0957 36.6414C67.0429 36.5459 66.9879 36.4504 66.9352 36.3528C67.788 35.7299 68.5606 34.9313 69.5212 34.5407C70.3557 34.2021 71.4309 34.1435 72.3434 34.2889C73.9046 34.5385 75.4223 35.042 77.0478 35.463L77.0432 35.4652Z" fill="black"/>
<path d="M59.7667 53.6329H68.0337L68.1487 53.7544C67.3869 53.9722 66.6347 54.3299 65.8634 54.3757C64.2583 54.472 62.639 54.4491 61.0315 54.3757C60.5644 54.3551 60.1141 53.9997 59.6541 53.798L59.7691 53.6306L59.7667 53.6329Z" fill="black"/>
<path d="M60.4631 50.799C62.7346 50.2382 65.0185 49.3001 67.3396 50.799H60.4631Z" fill="black"/>
<path d="M62.5531 47.6746C62.6804 47.8723 62.8076 48.0721 62.8901 48.1991C62.0699 48.2553 61.2214 48.3302 60.373 48.3677C59.3666 48.4135 59.0743 48.0971 59.3454 47.1584C59.5316 47.454 59.6824 47.6913 59.6942 47.7121C60.7878 47.7121 61.6905 47.7121 62.5908 47.7121L62.5554 47.6767L62.5531 47.6746Z" fill="black"/>
<path d="M68.1004 46.3496C68.3713 48.0434 67.5272 48.5526 64.9127 48.3184C65.7785 47.1693 67.7159 48.4246 68.1004 46.3496Z" fill="black"/>
</svg>
