<svg width="591" height="499" viewBox="0 0 591 499" fill="none" xmlns="http://www.w3.org/2000/svg">
<path opacity="0.4" d="M535.297 287.426C536.498 282.892 537.581 278.311 538.949 273.814C540.911 267.372 540.21 261.61 536.296 255.896C527.839 243.513 521.309 230.164 518.383 215.3C517.205 209.335 516.194 203.359 516.265 197.203C516.325 192.921 517.74 193.004 520.702 195.02C532.407 203.001 538.556 214.656 542.505 227.79C543.552 231.286 544.492 234.805 545.955 239.994C548.619 231.453 549.868 224.331 550.748 217.149C551.141 214 549.059 211.626 547.12 209.3C535.785 195.772 525.817 181.385 519.739 164.636C518.192 160.389 517.027 155.999 515.635 151.692C515.326 150.726 514.945 149.724 515.647 148.913C516.622 147.791 517.729 148.507 518.859 148.913C527.887 152.181 533.537 159.399 539.103 166.556C544.028 172.903 546.764 180.49 549.63 188.745C553.163 175.074 549.702 160.997 540.781 152.062C531.015 142.28 520.928 132.796 514.101 120.509C511.151 115.2 508.486 109.808 506.666 103.951C505.239 99.3698 506.5 98.8449 510.651 99.9901C524.651 103.867 534.738 112.397 541.411 125.209C542.196 126.724 543.029 128.215 544.028 130.076C546.514 118.624 541.72 105.8 532.264 100.563C513.09 89.9336 499.018 74.7713 489.99 54.873C503.348 52.4871 517.669 61.7443 533.822 82.9191C533.144 77.9207 530.706 73.471 528.22 69.2599C522.284 59.2272 515.587 49.6479 509.771 39.5436C503.122 27.9959 498.281 15.6251 495.355 2.57428C494.76 -0.062127 495.581 -0.479658 498.138 0.450838C501.064 1.51256 503.217 3.45706 505.394 5.43735C518.347 17.2475 525.591 32.3979 530.658 48.8247C532.668 55.3501 534.667 61.8875 536.665 68.4248C536.629 70.3693 537.307 72.0752 538.366 73.8169C539.424 72.0633 539.222 70.3932 538.711 68.7111C538.354 53.1551 537.783 37.5872 544.432 22.914C545.134 21.3751 544.932 18.8222 547.192 18.9653C549 19.0727 549.499 21.4109 550.201 22.914C554.876 33.0421 556.85 43.9575 557.576 54.873C558.694 71.8724 556.731 88.5379 550.189 104.643C546.097 114.723 549.476 125.03 552.14 135.051C552.211 136.053 551.26 137.675 552.854 137.795C554.031 137.878 554.59 136.542 553.853 135.242C553.746 122.215 554.662 109.247 558.218 96.6857C560.407 88.9435 563.987 81.7023 568.864 74.3657C571.814 78.8989 572.587 83.7661 573.087 88.2754C575.906 113.983 573.943 138.892 559.027 161.2C557.183 163.956 556.493 166.807 556.505 170.111C556.529 176.625 556.196 183.15 556.006 189.676C555.732 190.427 555.613 191.513 556.374 191.632C557.742 191.847 557.671 190.678 557.54 189.688C561.287 167.559 570.422 148.018 585.695 130.267C587.372 140.956 585.957 150.786 584.696 160.305C581.948 180.991 574.121 199.72 559.669 215.264C557.992 217.066 556.743 219.607 556.125 222.016C554.269 229.317 552.818 236.725 551.807 244.48C561.644 225.321 572.218 206.806 591 192.968C590.905 202.333 589.156 210.385 586.968 218.259C580.782 240.483 569.447 259.153 549.131 271.321C547.572 272.251 546.419 273.599 545.586 275.222C542.279 281.64 540.757 288.666 537.831 296.337C542.362 294.058 544.099 290.67 546.228 287.748C555.47 275.079 566.699 264.807 581.163 258.413C583.031 257.59 585.16 255.276 587.027 257.184C588.835 259.034 585.945 260.537 585.35 262.266C580.223 277.178 572.765 290.623 562.036 302.373C554.007 311.177 544.563 316.939 533.108 319.528C531.062 319.993 529.207 320.566 528.148 322.295C523.771 329.441 519.525 336.67 515.754 344.365C521.927 342.349 525.853 337.255 530.813 333.76C542.66 325.409 554.983 318.371 569.209 315.102C570.363 314.839 571.671 314.291 572.599 315.197C573.943 316.521 572.516 317.786 571.98 318.895C562.417 338.841 548.762 354.779 527.494 362.569C520.286 365.206 512.733 367.818 504.704 365.039C503.36 364.573 500.969 364.585 500.196 365.42C494.284 371.814 487.123 377.063 481.259 384.961C487.147 384.901 491.025 382.479 494.867 380.356C509.057 372.53 524.259 369.715 540.305 370.526C542.719 370.645 545.717 370.633 546.633 372.673C547.549 374.737 544.634 376.181 543.278 377.767C529.944 393.311 513.244 403.022 492.999 406.183C484.887 407.448 476.799 406.362 469.531 402.473C465.546 400.338 462.751 400.863 459.456 403.427C453.997 407.674 448.311 411.647 442.173 416.132C447.454 418.59 451.867 416.526 455.995 415.655C473.23 412.017 489.871 414.653 506.286 419.771C510.247 421 506.678 422.765 505.632 423.648C495.236 432.416 483.02 437.092 469.793 439.633C452.914 442.878 437.594 439.753 424.058 428.968C421.607 427.012 419.752 426.94 416.802 428.241C409.713 431.378 402.314 433.824 394.904 436.603C396.414 439.419 398.841 438.655 400.732 438.524C421.191 437.069 439.235 443.928 456.15 454.605C458.041 455.798 460.693 457.003 460.479 459.782C460.289 462.371 457.517 463.063 455.662 463.54C446.003 466.033 436.428 468.908 426.187 468.037C407.31 466.427 390.491 460.426 377.371 446.111C375.372 443.928 372.875 444.095 370.805 444.751C363.359 447.101 356.055 449.893 348.407 452.625C349.775 455.177 351.809 455.094 353.855 455.261C376.158 457.098 395.522 465.425 411.235 481.637C412.924 483.379 415.957 485.299 414.815 487.9C413.721 490.393 410.355 489.821 407.809 489.797C395.475 489.654 382.926 491.55 370.995 486.981C357.019 481.637 344.482 473.871 333.943 463.134C331.469 460.605 329.554 459.663 325.843 461.094C318.944 463.755 312.009 466.2 305.229 470.34C312.271 474.527 317.945 479.704 323.476 485.049C324.332 485.872 325.403 486.6 325.938 487.614C327.496 490.548 331.255 493.662 327.758 496.966C324.178 500.354 321.561 496.763 318.968 494.366C312.866 488.723 306.645 483.212 300.483 477.641C298.271 475.636 296.487 475.505 293.894 477.641C287.018 483.319 280.476 489.331 274.077 495.523C272.126 497.408 269.854 501.022 266.393 497.551C263.241 494.378 265.001 491.67 267.511 488.95C273.042 482.973 278.847 477.283 285.532 472.666C288.529 470.59 289.338 469.397 285.401 467.811C278.704 465.115 272.495 461.238 265.037 460.45C262.718 460.2 261.409 460.474 259.982 462.132C248.444 475.434 233.195 482.949 216.935 487.971C205.218 491.586 192.681 490.071 180.501 489.606C176.742 489.463 178.336 486.826 179.68 485.061C185.854 476.913 193.193 470.089 202.28 465.282C215.412 458.339 229.389 454.438 244.281 453.77C244.34 450.871 242.116 451.062 240.617 450.585C234.146 448.497 227.581 446.696 221.193 444.381C218.945 443.57 217.922 443.761 216.316 445.55C206.563 456.358 194.216 462.156 180.037 465.067C173.126 466.487 166.418 468.944 159.269 468.312C151.145 467.584 143.08 466.355 135.504 463.015C131.543 461.273 131.566 459.186 134.826 456.657C145.59 448.306 157.378 442.604 170.867 439.586C179.716 437.605 188.542 438.786 197.237 437.2C197.665 437.45 198.094 437.689 198.522 437.939C198.676 437.665 199.021 437.319 198.95 437.116C198.664 436.281 197.927 436.245 197.19 436.341C189.791 433.382 182.345 430.531 175.03 427.382C172.793 426.416 171.414 426.952 169.772 428.408C160.411 436.651 148.945 438.655 137.038 439.884C126.226 441.005 116.175 438.667 106.242 434.945C98.8916 432.189 92.6587 427.525 86.1404 423.326C82.9883 421.298 85.4029 420.522 86.866 419.771C92.1472 417.087 97.9162 415.572 103.673 414.927C118.161 413.305 132.661 413.544 146.958 416.944C148.159 417.23 149.313 417.29 150.645 415.5C143.271 410.275 135.908 405.05 128.521 399.849C126.571 398.477 125.31 400.087 123.823 401.006C119.41 403.738 114.688 404.978 109.406 405.587C84.3324 408.509 66.2286 395.721 49.35 379.807C47.0544 377.636 44.8062 375.417 42.5581 373.21C42.4511 373.103 42.4749 372.84 42.344 372.101C49.802 369.154 57.712 371.123 65.3484 370.359C65.8599 370.383 66.3595 370.395 66.871 370.419C81.5847 372.471 95.0614 378.531 109.43 382.945C104.113 377.242 98.8321 371.516 93.4795 365.862C92.0878 364.394 90.2441 364.764 88.4599 365.11C76.1132 367.46 65.0749 364.442 54.4053 357.941C38.7399 348.409 27.2377 335.251 18.4 319.42C17.7458 318.239 16.2946 317.237 17.1748 315.782C18.2929 313.945 19.5894 315.818 20.7908 315.961C40.6669 318.323 56.9745 327.807 71.1887 341.454C72.8659 343.065 74.3289 345.045 77.7427 345.498C73.4606 337.613 69.8565 329.847 65.1819 322.808C62.7078 319.086 57.3433 318.979 53.192 317.44C36.5751 311.332 25.6439 298.794 16.5801 284.36C11.0728 275.592 6.8264 266.167 3.54346 255.968C18.2453 258.067 30.1282 268.183 54.2031 298.615C55.5948 296.79 54.8692 295.096 54.0247 293.402C53.5013 292.364 52.8114 291.374 52.5021 290.277C49.5522 279.827 43.7476 272.192 34.9455 265.118C14.9743 249.084 4.72104 226.86 1.56893 201.474C1.25967 198.993 -1.7259 195.557 1.44999 193.994C4.45935 192.515 6.48145 196.416 8.56303 198.277C21.4807 209.777 31.1392 223.603 37.146 239.911C37.4196 240.674 37.7289 241.366 38.6686 241.485C40.31 235.449 36.9082 219.452 32.5547 214.692C21.0168 202.058 13.5826 187.242 9.22913 170.827C5.7083 157.562 5.9224 143.938 6.13651 130.351C6.56472 130.339 6.99293 130.327 7.43303 130.315C19.0542 144.57 26.643 160.938 32.2216 178.331C32.745 179.965 32.8164 181.826 34.7195 182.625C35.3856 185.536 33.6014 188.9 36.4443 192.491C37.0985 188.065 37.146 184.689 36.4799 181.289C36.4799 171.364 34.8266 162.333 28.5105 153.828C21.5283 144.427 19.185 132.546 18.3524 121.093C17.3413 107.207 16.6277 93.0949 20.4578 79.3164C20.9811 77.4196 20.9098 74.9622 23.146 74.6639C25.2394 74.3895 25.5249 76.8232 26.3218 78.374C34.9812 95.3138 38.2404 113.435 38.2523 132.283C38.2523 135.254 38.276 135.254 40.0484 138.188C41.4281 131.651 43.1053 125.221 44.0688 118.695C45.0441 112.134 43.6406 105.907 40.8572 99.7396C34.5173 85.6986 34.3865 70.6676 35.3262 55.6603C36.0279 44.4705 37.265 33.3165 42.6533 23.1406C43.474 21.6017 43.819 19.2159 45.6983 19.0369C48.2557 18.8103 47.5777 21.5898 48.1011 23.0333C50.5514 29.8689 51.7409 36.9311 52.7281 44.1723C53.7511 51.6401 54.5837 58.9409 53.9414 66.4803C53.6321 70.1307 51.2175 73.6261 53.2039 77.9207C55.7732 75.4393 56.6058 72.3496 57.1649 69.2718C61.1734 47.2381 69.1904 27.0058 83.5592 9.61265C85.4386 7.33413 87.5916 5.24648 89.7802 3.24233C91.3503 1.8108 93.2772 -0.312645 95.4302 1.01152C97.6426 2.37148 96.3223 4.94824 95.787 6.97625C90.7437 26.2423 82.5363 44.0172 70.9984 60.2531C66.6687 66.3491 63.136 72.9222 59.6865 80.5093C63.7426 79.3999 64.9678 76.2505 66.8591 74.0555C74.0673 65.6691 82.5006 59.0125 92.742 54.7775C96.0249 53.4176 99.3673 52.3081 103.661 53.5607C97.3928 69.57 87.6153 82.5254 73.7461 92.3314C69.3926 95.4092 64.9678 98.5347 60.198 100.849C52.9898 104.356 50.147 110.393 49.0051 117.681C48.3152 122.095 47.9108 126.557 47.9108 131.687C55.9992 114.651 66.4309 100.61 87.6748 99.2386C83.8091 114.043 76.3035 126.104 66.6093 136.852C61.3161 142.721 55.6304 148.281 49.8139 153.637C43.8666 159.101 40.9524 165.471 41.7612 173.619C42.2013 178.045 41.7374 182.506 41.1308 187.039C45.1155 182.339 46.5548 176.482 49.6474 171.448C55.0357 162.679 61.447 155.116 70.3918 149.939C72.1998 148.889 74.4479 147.111 76.3392 148.758C78.0639 150.249 76.0656 152.301 75.6136 154.114C70.4156 174.919 59.2345 192.36 45.4367 208.357C42.7604 211.459 41.1546 214.823 41.7374 219.201C42.6295 225.917 45.1393 232.347 44.949 239.421C48.2319 230.641 50.1351 221.587 55.2141 213.702C60.2694 205.864 65.1462 197.991 74.21 193.147C76.2083 200.567 74.6263 207.451 73.4844 214.227C70.8081 230.093 64.3731 244.503 56.249 258.294C50.7179 267.682 51.2889 274.232 58.1878 285.147C59.7103 265.189 67.4181 249.013 82.6671 235.592C85.9501 249.55 84.5108 262.254 81.8464 274.983C79.2534 287.354 74.9118 299.057 69.012 310.187C68.3459 311.428 67.2516 312.859 68.1913 314.016C72.6399 319.492 74.5549 326.506 79.4556 333.08C80.2525 323.584 79.2534 315.15 81.0138 306.823C83.1191 296.862 87.3061 287.962 92.968 279.671C94.6451 277.214 95.787 277.56 96.584 280.65C99.8907 293.522 102.579 306.083 100.581 319.85C99.0343 330.491 97.0003 341.013 95.2399 351.594C95.0733 352.56 94.8949 353.694 95.2399 354.541C98.4633 362.521 104.732 367.842 111.274 373.115C108.229 363.345 106.587 353.682 107.289 343.744C107.872 335.525 109.133 327.401 112.559 319.802C113.165 318.442 113.463 316.164 115.282 316.438C116.412 316.605 117.816 318.382 118.173 319.695C120.421 327.866 124.715 335.155 126.618 343.649C129.83 358 131.186 372.137 129.556 386.655C129.294 388.981 129.77 390.985 131.769 392.429C138.275 397.176 144.781 401.924 151.252 406.648C153.072 404.418 151.823 403.284 150.931 401.96C141.356 387.752 137.05 372.077 138.239 354.97C138.501 351.177 136.217 345.331 140.071 344.114C144.21 342.814 145.792 348.946 148.338 351.94C161.375 367.245 168 385.724 170.676 405.026C172.02 414.713 175.363 419.341 183.879 422.181C190.267 424.304 196.321 427.43 203.173 430.4C202.804 426.559 200.02 425.402 198.248 423.612C182.488 407.71 173.852 388.754 173.579 366.184C173.555 364.693 172.782 362.677 174.364 361.806C176.231 360.78 177.67 362.605 178.991 363.643C192.729 374.546 203.173 387.871 209.251 404.549C212.01 412.112 214.401 419.652 215.341 427.704C215.674 430.603 216.554 433.943 220.206 435.16C228.187 437.82 236.109 440.624 244.102 443.248C245.161 443.594 246.422 443.296 249.11 443.296C226.998 424.543 215.317 401.566 212.332 373.163C219.671 374.952 224.583 379.211 229.377 383.314C248.658 399.813 259.173 421.119 262.432 446.123C262.813 449.034 264.359 449.547 266.417 450.322C275.933 453.889 285.662 457.026 293.846 463.337C295.476 464.602 296.522 464.292 298.021 463.528C307.477 458.732 316.934 453.889 327.104 450.752C331.636 449.356 330.565 445.145 330.958 442.258C333.67 422.312 343.447 405.992 356.353 391.259C361.563 385.307 367.427 379.95 374.183 375.656C377.87 373.306 379.214 374.296 378.858 378.376C377.954 388.647 374.671 398.322 370.793 407.746C364.869 422.145 355.699 434.241 343.697 443.964C344.874 446.051 345.969 444.751 346.932 444.417C352.463 442.485 357.84 439.538 363.525 438.715C373.576 437.247 377.192 431.402 378.917 422.109C383.175 399.073 395.427 380.618 413.245 365.73C414.387 364.776 415.636 363.142 417.325 364.072C418.705 364.824 418.015 366.589 418.051 367.89C418.503 387.418 412.317 404.632 400.066 419.735C397.104 423.385 393.393 426.213 389.67 429.219C393.881 429.243 397.247 427.131 400.851 425.7C420.037 418.065 419.823 418.041 422.749 398.334C425.806 377.863 436.083 360.756 448.644 344.83C449.334 343.959 449.893 343.351 450.987 343.566C452.629 343.888 452.343 345.283 452.403 346.381C453.545 368.653 451.63 390.15 435.679 408.736C441.222 408.581 444.207 404.907 447.99 403.07C460.265 397.117 465.154 388.074 463.179 373.819C460.919 357.487 464.678 341.478 471.399 326.351C472.885 323.011 474.456 317.977 477.643 317.941C480.617 317.905 479.808 323.441 481.105 326.316C487.623 340.786 485.173 355.137 480.843 369.476C480.403 370.944 480.117 372.316 481.117 373.222C482.377 374.367 483.674 373.091 484.578 372.28C489.122 368.188 492.714 363.261 496.449 358.454C497.603 356.962 497.876 355.209 497.281 353.407C491.489 335.728 490.68 317.547 491.513 299.128C491.81 292.675 494.201 286.865 495.569 280.757C496.223 277.846 498.162 277.584 499.791 280.507C508.403 296.015 515.611 311.821 510.782 330.336C510.223 332.471 510.449 334.821 511.484 337.601C515.849 329.775 520.238 321.961 524.532 314.1C525.436 312.454 524.294 311.058 523.426 309.734C513.898 295.06 510.544 278.49 508.011 261.503C506.964 254.512 507.416 247.844 508.189 241.02C508.379 239.35 508.748 237.513 509.949 236.797C511.686 235.747 512.626 237.883 513.696 238.885C526.186 250.468 531.3 265.452 533.227 281.878C533.43 283.644 533.465 285.433 533.584 287.211C533.156 288.917 532.311 290.647 533.965 292.388C535.249 290.79 535.701 289.179 535.452 287.366L535.297 287.426Z" fill="#EFA703"/>
</svg>
