<svg width="60" height="60" viewBox="0 0 60 60" fill="none" xmlns="http://www.w3.org/2000/svg">
<path d="M0.0266952 30.1479C0.0266952 25.9325 -0.0402112 21.7172 0.0378193 17.5018C0.149291 11.5936 2.40103 6.69437 7.31695 3.23015C10.1038 1.26822 13.2696 0.147116 16.6695 0.113483C25.4312 0.0237949 34.204 -0.0995266 42.9657 0.135905C51.7609 0.371337 58.8505 6.31319 59.6977 15.4053C59.8538 17.0646 59.943 18.7238 59.943 20.3943C59.9653 27.8496 60.0767 35.3162 59.9095 42.7715C59.7758 48.59 57.4683 53.4668 52.6081 56.9198C49.7655 58.9378 46.5329 59.902 43.0772 59.9244C34.4493 59.9917 25.8213 60.0589 17.1934 59.9132C9.27887 59.7787 3.05872 55.2718 0.84042 47.8501C0.36109 46.2357 0.104724 44.498 0.0601355 42.8051C-0.0513366 38.5898 0.0266952 34.3744 0.0266952 30.1591V30.1479ZM39.8334 24.363C39.8334 21.9302 47.3501 53.2889 45.7895 51.3158C42.3004 46.8986 36.9017 55.2632 36.9017 55.2632C36.9017 55.2632 31.2389 44.4966 34.8617 48.9474C29.6448 69.6556 14.3889 50.262 14.2105 51.3158C13.7089 54.2755 22.0424 39.3521 21.708 42.3343C21.6188 43.1639 22.0313 44.2626 22.5998 44.9128C23.3132 45.72 24.3164 45.2267 25.119 44.6886C23.9932 45.5743 26.3118 43.8814 25.119 44.6886C26.022 43.9711 30.3025 41.4486 31.2277 42.1885C32.387 43.1078 33.6355 43.9262 34.8617 44.7559C35.5975 45.2491 36.3554 45.7873 37.2807 45.1707C38.2393 44.5204 38.4957 43.5675 38.3174 42.4912C37.838 39.5315 37.2695 36.5718 36.9017 33.6009C36.7902 32.7264 36.9908 31.6389 37.459 30.9214C38.7744 28.9034 39.8334 26.8518 39.8222 24.3742L39.8334 24.363Z" fill="white"/>
<path d="M28.304 21.8989C25.9724 22.3943 23.6409 22.8655 21.322 23.3971C20.4524 23.5904 20.5784 24.122 20.8556 24.7865C22.1285 27.9158 23.3762 31.045 24.5483 34.1984C25.3927 36.4577 25.1532 37.1102 22.8721 38.1009C19.9734 39.3695 17.1126 39.2607 14.3525 37.5693C13.0796 36.7839 12.7142 35.7932 13.2183 34.5004C14.3525 31.5404 15.5372 28.6044 16.6967 25.6564C16.8983 25.1611 17.1 24.6657 17.352 24.0374C16.7723 23.9649 16.2682 24.0374 15.9909 23.8441C15.3986 23.4213 14.9323 22.8413 14.4029 22.3339C14.9323 21.8868 15.4112 21.1619 16.0035 21.0411C17.3772 20.7753 18.8392 20.9203 20.2129 20.6666C22.5066 20.2437 24.7751 19.6517 27.0437 19.0959C28.1023 18.8301 28.556 18.1535 28.493 17.0782C28.43 16.0996 28.493 15.0122 29.8919 15.0001C31.316 14.988 31.5681 16.0271 31.4925 17.1024C31.4169 18.3106 31.9084 19.0234 33.1561 19.2409C36.332 19.8087 39.4953 20.4008 42.6713 20.9565C43.0746 21.029 43.5157 20.9686 43.9316 21.0169C44.776 21.1015 45.6582 21.3794 45.4313 22.3339C45.2927 22.9017 44.5869 23.7112 44.0576 23.7716C42.5452 23.9408 42.6965 24.4724 43.1376 25.5477C44.4105 28.5682 45.5195 31.637 46.7672 34.6696C47.3091 35.9986 46.8806 36.8443 45.7338 37.6055C43.1754 39.297 39.4323 39.3453 36.6471 37.7867C35.1725 36.9652 34.6936 35.8657 35.2608 34.3917C36.4959 31.2021 37.8065 28.0487 39.092 24.8711C39.2181 24.5449 39.3693 24.2308 39.5583 23.7716C36.9495 23.1434 34.429 22.5393 31.7194 21.8868C31.6689 22.1647 31.5429 22.5272 31.5429 22.8896C31.5303 28.7615 31.5429 34.6213 31.4925 40.481C31.4925 41.6167 31.795 42.1363 33.0805 42.0638C34.5928 41.9792 36.1178 42.0154 37.6301 42.1121C38.5501 42.1725 39.4701 42.4866 39.3315 43.6344C39.2055 44.6614 38.4493 45.0118 37.4159 44.9997C32.5007 44.9876 27.5856 44.9876 22.6705 44.9997C21.5362 44.9997 20.6288 44.6735 20.6288 43.4532C20.6288 42.1725 21.5866 41.9913 22.7083 42.0275C24.2206 42.0759 25.7456 42.0275 27.2705 42.0396C27.9889 42.0396 28.4678 41.8946 28.4678 41.061C28.4426 34.7421 28.4678 28.4353 28.4426 22.1164C28.4426 22.0318 28.3292 21.9593 28.2661 21.8868L28.304 21.8989ZM19.3811 28.7011C19.1416 28.7132 18.9148 28.7253 18.6753 28.7373C17.9318 30.6342 17.1504 32.5311 16.4824 34.4521C16.1295 35.467 16.7849 36.0711 17.7679 35.9744C19.066 35.8415 20.7044 36.8081 21.6118 35.0804C21.637 35.0441 21.6244 34.9716 21.6118 34.9354C20.8682 32.8573 20.1247 30.7792 19.3811 28.7011ZM41.4236 28.7615C41.1967 28.7615 40.9573 28.7615 40.7304 28.7615C40.1885 30.0784 39.6592 31.4075 39.1173 32.7244C37.92 35.6482 38.2981 36.1436 41.6504 36.0349C42.0159 36.0349 42.4822 36.1073 42.7217 35.9261C43.0998 35.6482 43.6417 35.0925 43.5535 34.8267C42.9107 32.7848 42.1419 30.7913 41.411 28.7736L41.4236 28.7615Z" fill="#202F66"/>
</svg>
