<svg width="30" height="30" viewBox="0 0 30 30" fill="none" xmlns="http://www.w3.org/2000/svg">
<path d="M7.26076 5.28689C8.6486 5.28689 10.0354 5.28689 11.4233 5.28689C11.557 5.28689 11.6908 5.28689 11.8246 5.29393C12.0337 5.30399 12.1745 5.37941 12.1615 5.62782C12.1504 5.84203 12.0358 5.92047 11.8396 5.92349C11.6888 5.9255 11.5389 5.93154 11.3881 5.93154C9.66636 5.93355 7.94462 5.93254 6.22289 5.93656C5.65468 5.93757 5.6044 5.98182 5.76329 6.53998C6.01069 7.40889 6.21987 8.28886 6.47331 9.15375C7.07068 11.1913 7.59364 13.2479 8.1518 15.2945C8.5772 16.8543 9.072 18.395 9.47628 19.9588C9.59194 20.4074 9.72771 20.6859 10.1742 20.9052C11.1618 21.3899 11.0954 22.5535 10.1571 23.1971C9.37471 23.7342 8.4706 23.8911 7.5866 24.057C6.33955 24.2903 5.06334 24.2481 3.8002 24.1656C2.69696 24.0942 1.64501 23.8036 0.720787 23.1599C-0.0455458 22.6259 -0.392507 21.7288 0.660446 21.0198C1.00137 20.7895 0.993327 20.4235 1.08283 20.1016C1.49919 18.6132 1.8904 17.1178 2.2977 15.6263C2.93631 13.2932 3.58196 10.961 4.22258 8.62878C4.44082 7.83329 4.63089 7.02974 4.88332 6.24531C4.97986 5.94461 4.87125 5.93154 4.65201 5.93154C4.03351 5.93154 3.41502 5.93154 2.79652 5.93154C2.56823 5.93154 2.33592 5.92248 2.33793 5.61072C2.33994 5.30701 2.56421 5.28589 2.79753 5.28589C4.28494 5.28689 5.77335 5.28589 7.26076 5.28589V5.28387V5.28689ZM5.54305 8.32607C5.54305 8.76053 5.54305 9.19499 5.54204 9.62944C5.53903 12.8879 5.54204 16.1463 5.52394 19.4037C5.52193 19.8291 5.62652 19.992 6.0831 19.9669C6.89469 19.9226 7.70125 20.0403 8.49675 20.2012C8.96539 20.2957 9.00361 20.2696 8.87086 19.812C8.63352 18.9884 8.37405 18.1717 8.14878 17.3451C7.7807 15.9934 7.45486 14.6307 7.06867 13.2851C6.73277 12.1155 6.41598 10.9409 6.09718 9.76722C5.96544 9.28349 5.91918 8.75952 5.64764 8.31401C5.63054 8.2064 5.68787 8.08169 5.57322 7.9952C5.48371 8.1008 5.52394 8.21444 5.54305 8.32708V8.32607ZM4.92958 8.20338C4.88634 8.28585 4.85214 8.32507 4.8441 8.36831C4.65201 9.3921 4.3855 10.4088 4.09486 11.3974C3.65135 12.911 3.235 14.4326 2.81161 15.9522C2.65572 16.5093 2.51996 17.0725 2.35402 17.6267C2.11969 18.4111 1.88135 19.1925 1.70334 19.994C1.61786 20.3772 1.76368 20.3309 2.01008 20.2615C2.79552 20.0403 3.60006 19.9226 4.41165 19.9669C4.93662 19.995 5.05529 19.7949 5.05328 19.3041C5.03518 15.7782 5.04523 12.2523 5.04121 8.72634C5.04121 8.57046 5.09854 8.39748 4.92958 8.20338ZM6.7549 21.9823C7.4096 22.0265 8.15984 21.8485 8.89701 21.587C9.08105 21.5217 9.24799 21.4704 9.24397 21.233C9.23995 21.0047 9.07099 20.9907 8.90405 20.9464C7.92954 20.69 6.94397 20.517 5.93627 20.4567C5.59635 20.4365 5.52092 20.5653 5.52193 20.8841C5.52294 21.9994 5.51187 21.9994 6.7549 21.9813V21.9823ZM5.04423 21.23C5.04423 20.6776 4.77873 20.4499 4.24773 20.5472C4.13408 20.5673 4.01541 20.5582 3.89875 20.5622C3.18572 20.5854 2.50085 20.7493 1.84112 21.0078C1.6953 21.0641 1.4127 21.0098 1.44186 21.2833C1.46298 21.4814 1.67015 21.5609 1.83609 21.6293C2.77238 22.0155 3.765 22.0436 4.7566 22.0607C4.96176 22.0647 5.04523 21.926 5.04423 21.7309C5.04322 21.5639 5.04423 21.397 5.04423 21.231V21.23Z" fill="#FFB900"/>
<path d="M21.7778 5.28689C23.1486 5.28689 24.5203 5.28689 25.8911 5.28689C26.0248 5.28689 26.1586 5.2879 26.2924 5.29192C26.5206 5.29796 26.6142 5.41261 26.6091 5.64391C26.6041 5.8712 26.4764 5.92953 26.2873 5.92953C25.6185 5.93053 24.9498 5.94059 24.281 5.92651C23.9793 5.92048 23.8687 5.95065 23.9712 6.31269C24.5153 8.24562 25.0192 10.1896 25.5492 12.1276C25.9967 13.7648 26.4673 15.395 26.9149 17.0323C27.1623 17.9374 27.3956 18.8476 27.6098 19.7617C27.7315 20.2817 27.9527 20.6809 28.4325 20.9816C29.1867 21.4533 29.4733 22.2508 28.4123 23.0423C27.4077 23.7915 26.2491 24.0842 25.0413 24.1646C24.0265 24.232 23.0007 24.2189 21.984 24.1626C20.9451 24.1053 19.9606 23.7835 19.0957 23.1921C18.1835 22.5686 18.1192 21.7118 18.9307 20.9786C19.4265 20.5311 19.3893 19.9005 19.5613 19.3534C20.0219 17.8932 20.4061 16.4078 20.8134 14.9304C21.2076 13.5023 21.5878 12.0702 21.983 10.6422C22.3863 9.18493 22.7875 7.72669 23.215 6.27649C23.3165 5.93154 23.1737 5.9255 22.9153 5.92651C21.1593 5.93254 19.4044 5.93053 17.6485 5.93053C17.4976 5.93053 17.3478 5.93053 17.1969 5.92148C16.9988 5.90941 16.8822 5.79577 16.8882 5.60067C16.8942 5.40557 17.0209 5.30299 17.215 5.29192C17.3317 5.28589 17.4494 5.28689 17.566 5.28689C18.971 5.28689 20.3749 5.28689 21.7798 5.28589L21.7778 5.28689ZM23.3537 9.14269C23.393 8.78567 23.4583 8.42664 23.2441 8.08069C23.1989 8.39949 23.1536 8.71729 23.1074 9.03609C23.044 9.11353 22.9474 9.18091 22.9223 9.26941C22.5743 10.5044 22.2334 11.7404 21.8945 12.9784C21.5425 14.2636 21.1945 15.5509 20.8425 16.8362C20.5559 17.8831 20.2633 18.929 19.9857 19.9779C19.9606 20.0735 19.856 20.1861 19.9756 20.2998C20.1024 20.4215 20.1868 20.2867 20.2874 20.2565C20.6374 20.1519 20.9924 20.0966 21.3544 20.0463C21.9106 19.9689 22.4758 19.9991 23.0289 19.8734C23.2652 19.8201 23.3216 19.7366 23.3226 19.5163C23.3286 16.0578 23.3417 12.6002 23.3527 9.14269H23.3537ZM23.7932 13.5395C23.6303 13.8413 23.6293 14.142 23.7932 14.4437C23.7983 16.096 23.8164 17.7473 23.7993 19.3997C23.7952 19.817 23.8707 20.0031 24.3403 19.9689C24.8663 19.9307 25.3953 19.9518 25.9283 20.0453C26.3255 20.1157 26.7117 20.3259 27.1663 20.2364C26.8203 18.9562 26.4774 17.693 26.1375 16.4289C25.9756 15.8265 25.8207 15.2221 25.6588 14.6197C25.3732 13.5536 25.0835 12.4886 24.7969 11.4236C24.5284 10.4249 24.2619 9.42529 23.9954 8.42564C24.0024 8.23355 24.0276 8.03543 23.8264 7.89866C23.7651 8.0827 23.7862 8.2587 23.8133 8.43368C23.8063 10.1363 23.7993 11.8389 23.7922 13.5406L23.7932 13.5395ZM23.8093 21.2542C23.8093 21.3537 23.8234 21.4563 23.8073 21.5529C23.7379 21.9732 23.9099 22.117 24.3252 22.0708C24.8341 22.0145 25.352 22.0336 25.8559 21.9511C26.3527 21.8696 26.8535 21.76 27.3141 21.5418C27.4378 21.4835 27.6279 21.4121 27.5816 21.23C27.5464 21.0912 27.4167 21.0078 27.2548 20.9615C26.4161 20.7181 25.5572 20.5824 24.6953 20.4697C23.8214 20.3551 23.8113 20.3812 23.8093 21.2542ZM23.3196 21.2622C23.3196 21.1787 23.3065 21.0922 23.3216 21.0118C23.4171 20.514 23.1596 20.3973 22.7352 20.4677C21.989 20.5914 21.2297 20.6206 20.4946 20.8398C20.1939 20.9293 19.7262 20.9092 19.7142 21.226C19.7001 21.6172 20.1949 21.6524 20.5107 21.755C21.095 21.9451 21.7165 21.9229 22.3149 22.0336C23.0058 22.1613 23.3165 21.9431 23.3185 21.2612L23.3196 21.2622Z" fill="#FFB900"/>
<path d="M14.2895 29.9674C10.9969 29.9674 7.70326 29.9684 4.41065 29.9654C3.97619 29.9654 3.54274 29.9292 3.10829 29.9322C2.7563 29.9342 2.55214 29.7482 2.40833 29.4596C2.26049 29.1639 2.26552 28.8632 2.48376 28.6198C3.01677 28.0255 3.53067 27.5447 4.48507 27.5518C11.2543 27.6031 18.0246 27.5779 24.7939 27.5779C25.4094 27.5779 26.3617 28.3945 26.407 28.9627C26.4603 29.6225 26.1546 29.9554 25.4707 29.9644C24.9025 29.9725 24.3343 29.9654 23.7661 29.9654C20.6072 29.9654 17.4474 29.9654 14.2885 29.9654V29.9674H14.2895Z" fill="#FFB900"/>
<path d="M13.4498 14.3904C13.4498 11.7665 13.4578 9.14169 13.4417 6.51786C13.4397 6.12966 13.5312 5.97278 13.9405 6.00898C14.3388 6.04418 14.7441 6.03915 15.1433 6.00898C15.5788 5.9768 15.6914 6.19202 15.6894 6.57418C15.6834 7.97811 15.6894 9.38205 15.6884 10.786C15.6884 14.5965 15.6773 18.4081 15.6944 22.2186C15.6965 22.7255 15.5496 22.9206 15.0397 22.8613C14.726 22.8251 14.4052 22.8522 14.0874 22.8562C13.4578 22.8623 13.4538 22.8633 13.4538 22.2116C13.4518 19.6038 13.4538 16.9971 13.4538 14.3894H13.4508L13.4498 14.3904Z" fill="#FFB900"/>
<path d="M14.7803 23.4405C14.912 23.4325 15.0448 23.4124 15.1755 23.4174C15.4591 23.4285 15.6401 23.5713 15.613 23.8679C15.5768 24.2541 15.4269 24.6353 15.9308 24.8847C16.0897 24.9631 15.9982 25.297 15.975 25.5042C15.9268 25.9356 16.0575 26.0764 16.5171 26.0714C18.7889 26.0463 21.0618 26.0603 23.3336 26.0593C24.0953 26.0593 24.7413 26.3862 25.2716 27.0399H3.54778C4.15521 26.5893 4.45993 26.002 5.32382 26.0332C7.54336 26.1116 9.76693 26.0603 11.9895 26.0593C12.1393 26.0593 12.2902 26.0362 12.44 26.0463C12.8524 26.0734 13.0435 25.9366 13.0133 25.478C12.9942 25.1824 12.9419 24.8314 13.3824 24.6685C13.5735 24.5971 13.4779 24.2632 13.4538 24.06C13.3965 23.5803 13.5614 23.3762 14.0542 23.4486C14.2171 23.4727 14.3871 23.4445 14.554 23.4405C14.6294 23.4405 14.7049 23.4405 14.7803 23.4395V23.4405Z" fill="#FFB900"/>
<path d="M14.3881 5.43574C14.1708 5.43574 13.9536 5.43071 13.7374 5.43574C13.0314 5.45384 12.4843 4.69052 12.7045 4.0147C13.0022 3.10053 13.4849 2.26682 13.842 1.3788C14.0009 0.983567 14.1859 0.599395 14.3529 0.207177C14.3901 0.119683 14.375 -0.000999441 14.5168 6.24456e-06C14.6123 0.00101193 14.6737 0.0603474 14.6988 0.144825C15.1152 1.49948 15.9931 2.6691 16.2928 4.06599C16.4547 4.82026 16.0022 5.45786 15.2389 5.43574C14.9553 5.42769 14.6717 5.43473 14.3881 5.43574Z" fill="#FFB900"/>
</svg>
